<?xml version="1.0" encoding="UTF-8"?>
<svg id="Layer_2" data-name="Layer 2" xmlns="http://www.w3.org/2000/svg" viewBox="0 0 283.82 200.54">
  <defs>
    <style>
      .cls-1 {
        fill: #030303;
      }
    </style>
  </defs>
  <g id="Layer_1-2" data-name="Layer 1">
    <path class="cls-1" d="M283.56,6.68c-.88-2.52-3.73-3.98-6.05-4.87-5.02-1.93-9.98-1.97-15.27-1.67-9.12,1.7-13.29,6.22-21.31,9.19-5.09,1.89-12.08,1.78-16.58,3.93-1.92.92-3.54,2.58-4.76,4.29-4.36,6.13-6.09,13.82-9.29,20.55-8.97.14-17.97-.88-26.94-1.15l-60.03-1.28c-15.22-.43-30.55-1.57-45.77-1-9.33.35-18.64,1.28-27.97,1.8-10.07.57-20.14.79-30.2,1.49-2.95.21-6.39.1-9.21.89-1.65.46-3.54,1.55-5.17,1.82-.59.1-1.86-.57-2.4-.82-1.19.38-1.39.45-2.21,1.38-1.61,5.79,2.21,21.16,2.95,27.92,1.42,13.04,1.65,26.38,2.36,39.48.28,5.16,1.37,10.62,1.38,15.72,0,1.21-.17,2.35-1.22,3.09-.58.41-1.61.65-2.3.88-1.05,1.2-1.04,2.64-.92,4.16.57,7.36,5.26,15.87,10.86,20.6,6.43,5.43,15.47,8.17,23.8,8.24-4.8,4.35-7.79,8.51-8.17,15.26-.35,6.32,1.77,12.76,6.06,17.45.23.25.46.49.69.72.24.23.48.46.73.68.25.22.5.44.76.65s.52.41.79.61c.27.2.54.39.82.57.28.18.56.36.85.53.29.17.58.33.88.48.3.15.59.3.9.44.3.14.61.27.92.4.31.12.62.24.94.35.32.11.63.21.95.3.32.09.64.18.97.25.32.08.65.15.98.21.33.06.66.11.99.16.33.04.66.08.99.11.33.03.66.05,1,.06,5.99.22,11.7-1.94,16.38-5.6,4.77-4.82,7.82-9.91,7.71-16.92-.09-5.82-2.34-10.01-5.75-14.49,24.89-.37,49.65-1.21,74.4-3.9-5.25,4.01-10.05,9.26-10.81,16.13-.5,4.54,1.15,8.99,4.01,12.49,4.32,5.29,11.16,8.3,17.91,8.71,6.4.39,13.32-1.48,18.17-5.78,4.36-3.86,6.8-9.53,7.03-15.31.24-5.97-2.31-11.38-6.44-15.58-1.75-1.78-3.74-2.93-5.91-4.11,8.13-3.09,14.75-7.13,18.4-15.4,2.41-5.46,3.49-11.38,5.78-16.87,2.47-5.92,5.47-11.62,8.03-17.5,5.38-12.34,10.35-25.34,14.63-38.09,3.99-11.88,5.78-24.26,10.78-35.8,1.82-4.19,3.29-8.56,7.89-10.31,3.79-1.44,9.43-2.81,13.48-2.9,4.86-.11,9.55,1.47,14.37,1.58,6.86.14,20.34-3.3,23.76-9.9.66-1.28.87-2.92.39-4.29ZM11.38,124.84c-.53-27.32-2.56-54.27-6.74-81.28,21.77.14,43.53-.13,65.29-.81,17.25-.52,34.38.71,51.6,1.45l.34,21.35c-24.77,1.91-49.5,2.54-74.24,5.18-9.66,1.03-20.5,1.95-29.79,4.82,12.33,2.13,30.05-1.1,43.05-2,20.07-1.38,40.73-2.72,60.81-2.25.78,5.47.68,11.09.79,16.6-33.7,3.64-68,4.76-101.27,11.74-2.3.58-6.5,1.2-7.97,3l.62.7c2.35.96,4.38,1.17,6.92,1.09,9.59-.31,19.52-2.09,29.12-3.02l72.75-7.2c.23,7.86-.46,15.87-.82,23.72-21.59.12-43.16.83-64.71,2.12-15.38.9-30.63,1.64-45.76,4.76ZM62.29,181.28c-1.04,3.39-3.93,6.49-7.03,8.14-2.53,1.35-5.48,1.7-8.21.74-3.31-1.16-5.86-3.92-7.29-7.06-1.44-3.16-1.89-6.78-.59-10.07,1.24-3.14,3.5-4.75,6.47-6.12l.74.34c-.22.6-.42,1.2-.65,1.8-.62,1.62-1.05,3.08-1.3,4.8-.4,2.76-.41,4.69,1.43,6.95,1.38,1.7,3.58,3.18,5.83,3.29,2.32.12,4.22-1.11,5.89-2.6,5.53-4.94-1.31-7.99-1.16-12.66,1.08-.08,1.85.21,2.75.82,2.42,1.65,2.95,3.9,3.61,6.62.04,1.71.02,3.38-.48,5.03ZM167.48,173.21c.33,3.05-.2,6.12-2.2,8.54-2.22,2.67-5.63,3.9-9.02,4.07-4.14.21-8.64-1.15-11.6-4.13-2.41-2.42-2.57-4.27-2.52-7.6.85-2.18,2.17-4.6,4.11-6,1.14-.82,2.35-1.34,3.71-1.07.71,3.46-3.08,7.34-2.05,11.16.35,1.31,1.02,2.01,2.2,2.62,1.83.94,5.54.44,7.33-.41.23-.11.45-.23.66-.36.22-.13.42-.27.62-.43.2-.15.39-.31.58-.49.19-.17.36-.35.53-.54.17-.19.33-.39.47-.59.15-.2.29-.41.41-.63.13-.22.24-.44.35-.67.11-.23.2-.46.28-.7,1.27-3.73-.21-7.4-1.75-10.78.37.05.74.13,1.11.23.36.1.72.22,1.07.36.35.14.69.3,1.02.49.33.18.65.39.95.61,2.22,1.59,3.42,3.61,3.71,6.32ZM170.39,141.77c-4.02,3.35-10.04,4.51-15.06,5.44-19,3.5-39.05,3.51-58.33,4.08-19.56.59-39.78,1.67-59.26-.44-3.94-.59-7.75-1.17-11.43-2.79-7.61-3.34-11.43-9.88-14.37-17.23,24.76.8,49.89-1.18,74.66-1.75,21.84-.5,43.53.42,65.38-.86,8.21-.37,16.4-.08,24.56.87-.87,4.8-2.27,9.44-6.16,12.68ZM181.53,115.99c-.96,1-1.72,1.21-3.08,1.34-6.35.62-13.12-.18-19.52-.26-9.57-.03-19.14.15-28.7.52l.04-17.22.03-6.46c7.06-1.14,32.93-2.65,37.02-5.24.84-.53.9-1.04,1.15-1.91l-.75-.69c-10.45-1.35-27.38.19-38.08,1.47-.41-5.49-.58-11.03-.85-16.53,6.65-.13,13.31-.49,19.95-.82,5.65-.28,27.95-.71,31.17-4.26l-.7-.71c-8.8-2.83-39.65-.35-50.58.29.05-7.08-.79-14.19-1.48-21.23,18.95-.14,38.31.75,57.22,2,6.34.42,12.89.49,19.18,1.3,1.1.14,2.1.11,2.8,1-.17,11.61-16.9,59.12-24.81,67.42Z"/>
  </g>
</svg>