<?xml version="1.0" encoding="UTF-8"?>
<svg id="Layer_2" data-name="Layer 2" xmlns="http://www.w3.org/2000/svg" viewBox="0 0 361 338">
  <g id="Objects">
    <g>
      <path d="M158.2,35.13c-.21-2.75-.7-5.45-1.11-8.18-.71-4.81-1.25-9.81-3.47-14.2-1.69-3.34-4.33-6.32-7.47-8.36-3.01-1.95-6.37-3.04-9.89-3.63-6.84-1.14-13.88-.73-20.78-.47-5.76.21-11.53.47-17.29.74-6.92.32-13.83.67-20.75,1.02-6.93.35-13.87.72-20.8,1.09-5.73.31-11.46.62-17.19.93-3.4.19-6.81.38-10.21.57-.45.03-.91.05-1.36.08-.18.01-.36.02-.55.05-.09,0-.17.01-.23.02-5.09.45-10.34,1.08-15.05,3.2C7.35,10.09,3.6,13.46,1.71,18.31.03,22.59-.12,27.37.06,31.91c.21,5.53.81,11.05,1.26,16.56.98,12.05,1.96,24.1,2.95,36.16.99,12.1,1.97,24.2,2.96,36.31.72,8.88,1.51,19.11,8.34,25.67,7.4,7.11,18.81,6.9,28.37,7.02,12.11.15,24.23.06,36.33-.28,12.06-.33,24.11-.91,36.14-1.72,10.01-.68,21.15-.98,29.58-7.14,4-2.93,6.47-7.22,7.52-12.02,1.15-5.26,1.08-10.8,1.35-16.15.6-12.07,1.2-24.14,1.8-36.21.3-6.04.6-12.07.9-18.11.3-6.03.69-12.07.83-18.11.07-2.92.04-5.84-.18-8.76ZM151.43,60.33c-.59,11.87-1.18,23.74-1.77,35.61-.29,5.94-.59,11.87-.88,17.81-.27,5.49-.3,11.07-1,16.53-.31,2.42-.81,4.85-1.76,7.11-.43,1.04-.95,2.02-1.6,2.94-.31.45-.65.88-1.01,1.29-.14.16-.28.32-.43.47-.07.08-.15.15-.22.23-.04.04-.13.13-.19.18-.36.33-.74.65-1.12.95-.19.15-.39.3-.59.44-.09.06-.18.13-.27.19.13-.09.19-.12,0,0-.02.02-.04.03-.07.05.02-.02.04-.03.06-.04,0,0,0,0-.01,0-.42.26-.84.51-1.28.75-.21.11-.56.22-.74.38-.09.04-.18.08-.27.12-.46.2-.93.39-1.4.56-.17.06-.35.12-.52.18-.14.04-.28.09-.42.13-.49.15-.99.29-1.49.41-.25.06-.5.13-.75.19-.14.03-.29.07-.43.1-.07.01-.31.07-.4.09-.12.02-.23.05-.28.05-.26.05-.51.09-.77.14-.55.1-1.11.18-1.67.26-1.11.16-2.22.29-3.34.4-.52.05-1.03.1-1.55.14-.01,0-.02,0-.03,0-.04,0-.1,0-.17.01-.33.03-.66.05-1,.07-1.5.11-3.01.22-4.51.32-5.92.4-11.84.75-17.76,1.04-11.8.57-23.6.92-35.41,1.03-5.93.06-11.86.05-17.79,0-2.7-.03-5.4-.04-8.1-.14-.6-.02-1.2-.05-1.8-.08,0,0-.05,0-.09,0-.09,0-.26-.02-.3-.02-.32-.02-.64-.05-.96-.07-1.16-.1-2.31-.22-3.46-.39-2.4-.36-4.13-.75-6.36-1.64-2.07-.82-3.94-1.91-5.6-3.39-3.28-2.93-5.19-6.9-6.34-11.08-1.21-4.39-1.64-8.96-2.01-13.49-.48-5.93-.97-11.85-1.45-17.78-.97-11.85-1.93-23.7-2.9-35.55-.48-5.93-.97-11.85-1.45-17.78-.46-5.62-1.01-11.24-1.35-16.87-.27-4.38-.29-8.88.96-13.13.6-2.04,1.42-3.81,2.71-5.45.77-.97,1.13-1.34,2.06-2.06.21-.17.43-.33.65-.48.03-.02.15-.1.23-.15.03-.02.05-.03.06-.03.26-.16.53-.31.79-.46.1-.05.2-.11.3-.16.22-.11.26-.18.21-.16.37-.21.96-.35,1.29-.48.15-.05.29-.11.44-.16,0,0,0,0,0,0,.03,0,.05-.02.06-.02.15-.04.3-.09.45-.13.53-.15,1.06-.29,1.6-.42.04,0,.21-.05.36-.08-.05.01.55-.11.66-.13,2.09-.38,4.21-.6,6.33-.79,1.7-.1,3.39-.19,5.09-.28,4.6-.26,9.21-.51,13.81-.76,6.32-.34,12.64-.68,18.97-1.01,6.94-.36,13.88-.72,20.82-1.06,6.45-.32,12.9-.63,19.35-.91,4.86-.21,9.72-.42,14.58-.55,2.1-.06,4.19-.09,6.29-.06,1.1.02,2.21.06,3.31.11-.01,0-.02,0-.04,0,.02,0,.03,0,.05,0,0,0,0,0,.01,0,.05,0,.14,0,.19.01.02,0,.04,0,.06,0,.24.02.48.04.72.06.49.04.99.09,1.48.15.93.11,1.85.24,2.77.41.41.08.81.16,1.21.25.11.02.3.07.36.09.16.04.32.09.48.13,1.52.44,3,1.02,4.39,1.78.12.07.25.14.37.21.03.02.32.2.37.23.33.21.65.43.97.67.62.46,1.22.95,1.79,1.48,1.34,1.23,2.6,2.64,3.57,4.19,2.56,4.06,3.29,8.98,3.97,13.64.38,2.56.86,5.12,1.16,7.69.34,2.85.45,5.72.45,8.59,0,5.8-.41,11.6-.7,17.39Z"/>
      <path d="M140.59,144.08s0,0,0,0c0,0,0,0-.01,0,0,0,0,0,0,0Z"/>
      <path d="M128.02,3.38c-.07,0-.14,0-.21-.01,0,0,0,0,0,0,.31.02.3.02.22.01Z"/>
    </g>
    <g>
      <path d="M158.2,219.43c-.21-2.75-.7-5.45-1.11-8.18-.71-4.81-1.25-9.81-3.47-14.2-1.69-3.34-4.33-6.32-7.47-8.36-3.01-1.95-6.37-3.04-9.89-3.63-6.84-1.14-13.88-.73-20.78-.47-5.76.21-11.53.47-17.29.74-6.92.32-13.83.67-20.75,1.02-6.93.35-13.87.72-20.8,1.09-5.73.31-11.46.62-17.19.93-3.4.19-6.81.38-10.21.57-.45.03-.91.05-1.36.08-.18.01-.36.02-.55.05-.09,0-.17.01-.23.02-5.09.45-10.34,1.08-15.05,3.2-4.69,2.11-8.44,5.48-10.33,10.33C.03,206.89-.12,211.66.06,216.21c.21,5.53.81,11.05,1.26,16.56.98,12.05,1.96,24.1,2.95,36.16.99,12.1,1.97,24.2,2.96,36.31.72,8.88,1.51,19.11,8.34,25.67,7.4,7.11,18.81,6.9,28.37,7.02,12.11.15,24.23.06,36.33-.28,12.06-.33,24.11-.91,36.14-1.72,10.01-.68,21.15-.98,29.58-7.14,4-2.93,6.47-7.22,7.52-12.02,1.15-5.26,1.08-10.8,1.35-16.15.6-12.07,1.2-24.14,1.8-36.21.3-6.04.6-12.07.9-18.11.3-6.03.69-12.07.83-18.11.07-2.92.04-5.84-.18-8.76ZM151.43,244.63c-.59,11.87-1.18,23.74-1.77,35.61-.29,5.94-.59,11.87-.88,17.81-.27,5.49-.3,11.07-1,16.53-.31,2.42-.81,4.85-1.76,7.11-.43,1.04-.95,2.02-1.6,2.94-.31.45-.65.88-1.01,1.29-.14.16-.28.32-.43.47-.07.08-.15.15-.22.23-.04.04-.13.13-.19.18-.36.33-.74.65-1.12.95-.19.15-.39.3-.59.44-.09.06-.18.13-.27.19.13-.09.19-.12,0,0-.02.02-.04.03-.07.05.02-.02.04-.03.06-.04,0,0,0,0-.01,0-.42.26-.84.51-1.28.75-.21.11-.56.22-.74.38-.09.04-.18.08-.27.12-.46.2-.93.39-1.4.56-.17.06-.35.12-.52.18-.14.04-.28.09-.42.13-.49.15-.99.29-1.49.41-.25.06-.5.13-.75.19-.14.03-.29.07-.43.1-.07.01-.31.07-.4.09-.12.02-.23.05-.28.05-.26.05-.51.09-.77.14-.55.1-1.11.18-1.67.26-1.11.16-2.22.29-3.34.4-.52.05-1.03.1-1.55.14-.01,0-.02,0-.03,0-.04,0-.1,0-.17.01-.33.03-.66.05-1,.07-1.5.11-3.01.22-4.51.32-5.92.4-11.84.75-17.76,1.04-11.8.57-23.6.92-35.41,1.03-5.93.06-11.86.05-17.79,0-2.7-.03-5.4-.04-8.1-.14-.6-.02-1.2-.05-1.8-.08,0,0-.05,0-.09,0-.09,0-.26-.02-.3-.02-.32-.02-.64-.05-.96-.07-1.16-.1-2.31-.22-3.46-.39-2.4-.36-4.13-.75-6.36-1.64-2.07-.82-3.94-1.91-5.6-3.39-3.28-2.93-5.19-6.9-6.34-11.08-1.21-4.39-1.64-8.96-2.01-13.49-.48-5.93-.97-11.85-1.45-17.78-.97-11.85-1.93-23.7-2.9-35.55-.48-5.93-.97-11.85-1.45-17.78-.46-5.62-1.01-11.24-1.35-16.87-.27-4.38-.29-8.88.96-13.13.6-2.04,1.42-3.81,2.71-5.45.77-.97,1.13-1.34,2.06-2.06.21-.17.43-.33.65-.48.03-.02.15-.1.23-.15.03-.02.05-.03.06-.03.26-.16.53-.31.79-.46.1-.05.2-.11.3-.16.22-.11.26-.18.21-.16.37-.21.96-.35,1.29-.48.15-.05.29-.11.44-.16,0,0,0,0,0,0,.03,0,.05-.02.06-.02.15-.04.3-.09.45-.13.53-.15,1.06-.29,1.6-.42.04,0,.21-.05.36-.08-.05.01.55-.11.66-.13,2.09-.38,4.21-.6,6.33-.79,1.7-.1,3.39-.19,5.09-.28,4.6-.26,9.21-.51,13.81-.76,6.32-.34,12.64-.68,18.97-1.01,6.94-.36,13.88-.72,20.82-1.06,6.45-.32,12.9-.63,19.35-.91,4.86-.21,9.72-.42,14.58-.55,2.1-.06,4.19-.09,6.29-.06,1.1.02,2.21.06,3.31.11-.01,0-.02,0-.04,0,.02,0,.03,0,.05,0,0,0,0,0,.01,0,.05,0,.14,0,.19.01.02,0,.04,0,.06,0,.24.02.48.04.72.06.49.04.99.09,1.48.15.93.11,1.85.24,2.77.41.41.08.81.16,1.21.25.11.02.3.07.36.09.16.04.32.09.48.13,1.52.44,3,1.02,4.39,1.78.12.07.25.14.37.21.03.02.32.2.37.23.33.21.65.43.97.67.62.46,1.22.95,1.79,1.48,1.34,1.23,2.6,2.64,3.57,4.19,2.56,4.06,3.29,8.98,3.97,13.64.38,2.56.86,5.12,1.16,7.69.34,2.85.45,5.72.45,8.59,0,5.8-.41,11.6-.7,17.39Z"/>
      <path d="M140.59,328.38s0,0,0,0c0,0,0,0-.01,0,0,0,0,0,0,0Z"/>
      <path d="M128.02,187.68c-.07,0-.14,0-.21-.01,0,0,0,0,0,0,.31.02.3.02.22.01Z"/>
    </g>
    <g>
      <path d="M351.79,35.13c-.21-2.75-.7-5.45-1.11-8.18-.71-4.81-1.25-9.81-3.47-14.2-1.69-3.34-4.33-6.32-7.47-8.36-3.01-1.95-6.37-3.04-9.89-3.63-6.84-1.14-13.88-.73-20.78-.47-5.76.21-11.53.47-17.29.74-6.92.32-13.83.67-20.75,1.02-6.93.35-13.87.72-20.8,1.09-5.73.31-11.46.62-17.19.93-3.4.19-6.81.38-10.21.57-.45.03-.91.05-1.36.08-.18.01-.36.02-.55.05-.09,0-.17.01-.23.02-5.09.45-10.34,1.08-15.05,3.2-4.69,2.11-8.44,5.48-10.33,10.33-1.68,4.29-1.83,9.06-1.65,13.61.21,5.53.81,11.05,1.26,16.56.98,12.05,1.96,24.1,2.95,36.16.99,12.1,1.97,24.2,2.96,36.31.72,8.88,1.51,19.11,8.34,25.67,7.4,7.11,18.81,6.9,28.37,7.02,12.11.15,24.23.06,36.33-.28,12.06-.33,24.11-.91,36.14-1.72,10.01-.68,21.15-.98,29.58-7.14,4-2.93,6.47-7.22,7.52-12.02,1.15-5.26,1.08-10.8,1.35-16.15.6-12.07,1.2-24.14,1.8-36.21.3-6.04.6-12.07.9-18.11.3-6.03.69-12.07.83-18.11.07-2.92.04-5.84-.18-8.76ZM345.02,60.33c-.59,11.87-1.18,23.74-1.77,35.61-.29,5.94-.59,11.87-.88,17.81-.27,5.49-.3,11.07-1,16.53-.31,2.42-.81,4.85-1.76,7.11-.43,1.04-.95,2.02-1.6,2.94-.31.45-.65.88-1.01,1.29-.14.16-.28.32-.43.47-.07.08-.15.15-.22.23-.04.04-.13.13-.19.18-.36.33-.74.65-1.12.95-.19.15-.39.3-.59.44-.09.06-.18.13-.27.19.13-.09.19-.12,0,0-.02.02-.04.03-.07.05.02-.02.04-.03.06-.04,0,0,0,0-.01,0-.42.26-.84.51-1.28.75-.21.11-.56.22-.74.38-.09.04-.18.08-.27.12-.46.2-.93.39-1.4.56-.17.06-.35.12-.52.18-.14.04-.28.09-.42.13-.49.15-.99.29-1.49.41-.25.06-.5.13-.75.19-.14.03-.29.07-.43.1-.07.01-.31.07-.4.09-.12.02-.23.05-.28.05-.26.05-.51.09-.77.14-.55.1-1.11.18-1.67.26-1.11.16-2.22.29-3.34.4-.52.05-1.03.1-1.55.14-.01,0-.02,0-.03,0-.04,0-.1,0-.17.01-.33.03-.66.05-1,.07-1.5.11-3.01.22-4.51.32-5.92.4-11.84.75-17.76,1.04-11.8.57-23.6.92-35.41,1.03-5.93.06-11.86.05-17.79,0-2.7-.03-5.4-.04-8.1-.14-.6-.02-1.2-.05-1.8-.08,0,0-.05,0-.09,0-.09,0-.26-.02-.3-.02-.32-.02-.64-.05-.96-.07-1.16-.1-2.31-.22-3.46-.39-2.4-.36-4.13-.75-6.36-1.64-2.07-.82-3.94-1.91-5.6-3.39-3.28-2.93-5.19-6.9-6.34-11.08-1.21-4.39-1.64-8.96-2.01-13.49-.48-5.93-.97-11.85-1.45-17.78-.97-11.85-1.93-23.7-2.9-35.55-.48-5.93-.97-11.85-1.45-17.78-.46-5.62-1.01-11.24-1.35-16.87-.27-4.38-.29-8.88.96-13.13.6-2.04,1.42-3.81,2.71-5.45.77-.97,1.13-1.34,2.06-2.06.21-.17.43-.33.65-.48.03-.02.15-.1.23-.15.03-.02.05-.03.06-.03.26-.16.53-.31.79-.46.1-.05.2-.11.3-.16.22-.11.26-.18.21-.16.37-.21.96-.35,1.29-.48.15-.05.29-.11.44-.16,0,0,0,0,0,0,.03,0,.05-.02.06-.02.15-.04.3-.09.45-.13.53-.15,1.06-.29,1.6-.42.04,0,.21-.05.36-.08-.05.01.55-.11.66-.13,2.09-.38,4.21-.6,6.33-.79,1.7-.1,3.39-.19,5.09-.28,4.6-.26,9.21-.51,13.81-.76,6.32-.34,12.64-.68,18.97-1.01,6.94-.36,13.88-.72,20.82-1.06,6.45-.32,12.9-.63,19.35-.91,4.86-.21,9.72-.42,14.58-.55,2.1-.06,4.19-.09,6.29-.06,1.1.02,2.21.06,3.31.11-.01,0-.02,0-.04,0,.02,0,.03,0,.05,0,0,0,0,0,.01,0,.05,0,.14,0,.19.01.02,0,.04,0,.06,0,.24.02.48.04.72.06.49.04.99.09,1.48.15.93.11,1.85.24,2.77.41.41.08.81.16,1.21.25.11.02.3.07.36.09.16.04.32.09.48.13,1.52.44,3,1.02,4.39,1.78.12.07.25.14.37.21.03.02.32.2.37.23.33.21.65.43.97.67.62.46,1.22.95,1.79,1.48,1.34,1.23,2.6,2.64,3.57,4.19,2.56,4.06,3.29,8.98,3.97,13.64.38,2.56.86,5.12,1.16,7.69.34,2.85.45,5.72.45,8.59,0,5.8-.41,11.6-.7,17.39Z"/>
      <path d="M334.18,144.08s0,0,0,0c0,0,0,0-.01,0,0,0,0,0,0,0Z"/>
      <path d="M321.61,3.38c-.07,0-.14,0-.21-.01,0,0,0,0,0,0,.31.02.3.02.22.01Z"/>
    </g>
    <g>
      <path d="M359.72,251.77c-1.35-8.87-3.67-17.62-7.17-25.89-3.49-8.25-8.2-16.01-14.21-22.67-5.78-6.4-12.81-11.59-20.69-15.11-8.05-3.6-16.75-5.42-25.58-5.11-4.48.16-8.97.91-13.26,2.21-.64.19-3.14.83-2.93,1.86.2.96,3.05.28,3.47.15.97-.29,2.01-.45,2.96-.78.04,0,.08-.02.12-.03.23-.05.47-.09.7-.14.55-.1,1.09-.2,1.64-.28.23-.03.48-.1.71-.1,0,0-.01,0-.02,0,.06,0,.11,0,.17-.01.55-.06,1.1-.12,1.65-.16.47-.04.95-.07,1.42-.09.24-.01.47-.02.71-.03.01,0,.06,0,.1,0,.09,0,.25,0,.27,0,4.2-.04,7.91.4,11.96,1.37,8.02,1.91,15.56,5.62,22.1,10.63,6.81,5.21,12.42,11.87,16.82,19.21,4.47,7.46,7.73,15.62,9.98,24.02,2.24,8.35,3.57,16.98,3.86,25.62.29,8.49-.45,17.06-2.67,25.28-2.15,7.96-5.7,15.69-10.91,22.13-2.53,3.12-5.42,5.94-8.57,8.43-.69.54-1.31,1-2.17,1.6-.83.58-1.67,1.13-2.53,1.67-.86.54-1.73,1.05-2.61,1.54-.06.03-.13.07-.19.1,0,0-.01,0-.03.01-.21.11-.41.22-.62.33-.48.25-.97.5-1.46.74-.91.45-1.83.87-2.77,1.28-.22.09-.43.18-.65.28-.03.01-.04.02-.06.03-.02,0-.05.02-.07.03-.47.19-.95.38-1.42.56-.95.36-1.92.7-2.89,1.01-.11.04-.22.07-.34.11-.32.1.13-.04.25-.08-.25.09-.51.16-.76.23-.49.15-.98.29-1.47.42-.97.27-2,.43-2.95.74-.03,0-.06.01-.09.02-.23.05-.46.1-.69.14-.54.11-1.08.21-1.63.31-1.01.18-2.02.34-3.04.48-.02,0-.03,0-.04,0-.03,0-.06,0-.11.01-.24.03-.47.06-.71.08-.51.06-1.02.11-1.53.16-1.02.09-2.05.17-3.07.22-.51.03-1.02.04-1.54.06-.05,0-.08,0-.11,0-.03,0-.07,0-.15,0-.28,0-.55,0-.83,0-2.04,0-4.09-.07-6.13-.23-4.33-.35-8.66-1.09-12.96-2.16-8.75-2.18-17.12-5.69-24.98-10.09-7.81-4.37-15.17-9.59-21.95-15.43-6.49-5.58-12.48-11.85-17.18-19.03-4.6-7.03-7.91-14.93-9.05-23.28-1.12-8.19-.23-16.56,2.28-24.42,2.5-7.82,6.55-15.23,11.9-21.47,2.78-3.24,5.91-6.19,9.27-8.83,1.45-1.14,3.22-2.38,4.92-3.48.91-.58,1.83-1.15,2.76-1.69.47-.27.94-.53,1.41-.8.01,0,.02,0,.02-.01.08-.04.16-.09.24-.13.26-.14.51-.27.77-.41,1.88-.98,3.8-1.87,5.75-2.7.09-.04.21-.09.3-.13.23-.09.46-.19.7-.28.54-.21,1.09-.42,1.63-.62.98-.36,1.96-.7,2.95-1.03.09-.03.17-.06.26-.08,0,0-.02,0-.02,0,0,0,.02,0,.03,0,.03-.01.07-.02.1-.03.55-.18.06,0-.09.03.22-.03.48-.15.69-.21.52-.16,1.04-.31,1.56-.46,1.05-.29,2.1-.57,3.15-.82.24-.06.49-.12.73-.17.06-.01.3-.04.36-.08.49-.1.98-.21,1.48-.31,1.07-.21,2.14-.4,3.21-.57.5-.08.99-.15,1.49-.22.07-.01.39-.05.52-.07.03,0,.05,0,.06,0,.17-.02.33-.04.5-.06,1.08-.13,2.16-.24,3.24-.33,1.08-.09,2.16-.16,3.25-.21.55-.02,1.09-.04,1.64-.06.31,0,.07,0,0,0,.14,0,.28,0,.42,0,.33,0,.65,0,.98,0,4.7-.02,9.41.29,14.06.96,9.52,1.36,18.86,3.99,27.77,7.59,4.34,1.75,8.58,3.73,12.73,5.89,1.17.61,2.98.09,4.13-.35.28-.11,2.91-1.31,1.9-1.84-8.83-4.59-18.12-8.37-27.73-10.97-9.65-2.61-19.69-4.04-29.69-3.9-9.68.14-19.24,1.71-28.45,4.67-8.74,2.8-17.09,6.98-24.41,12.53-6.99,5.29-12.93,11.86-17.33,19.46-4.29,7.43-7.05,15.71-7.98,24.24-.93,8.51.17,17.11,3.3,25.08,3.2,8.15,8.29,15.45,14.19,21.89,6.06,6.61,13.03,12.41,20.38,17.54,7.72,5.39,16,9.97,24.77,13.42,8.65,3.4,17.79,5.6,27.07,6.19,8.88.57,17.89-.42,26.46-2.81,8.62-2.41,16.83-6.24,23.97-11.67,6.79-5.17,12.3-11.9,16.12-19.53,3.88-7.75,6.01-16.26,6.92-24.86.92-8.72.55-17.55-.77-26.2ZM255.3,196.36s.08-.02.12-.03c-.16.04-.39.08-.12.03ZM319.33,329.82c.09-.04.22-.09.23-.1-.06.04-.15.07-.23.1Z"/>
      <polygon points="249.04 198.05 249.04 198.05 249.04 198.05 249.04 198.05"/>
    </g>
  </g>
</svg>