<?xml version="1.0" encoding="UTF-8"?>
<svg id="Layer_2" data-name="Layer 2" xmlns="http://www.w3.org/2000/svg" viewBox="0 0 668.74 589.04">
  <g id="Layer_1-2" data-name="Layer 1">
    <path d="M97.93,298.79c-21.64,13.75-59.46,26.65-82.75,10.32-12.32-8.63-20.65-30.87-10.89-44.22,4.87-6.65,36.72-24.4,45.91-30.39,72.67-47.34,140.51-103.95,201.64-165.3,15.52-15.57,31.23-30.79,47.16-45.95,7.29-6.93,18.64-21.65,29.12-23.23,13.97-.5,21.2,11.39,31.43,20.37l37.05,32.59c8.02,7.07,15.94,14.29,24.22,21.05.6-14.86-1.34-26.78,18.97-27.43,15.7-.5,31.54-.12,47.26-.12,12.29,0,36.06-4.31,39.1,13.02,1.44,8.23.54,24.7.54,33.57l-.02,68.35c34.51,26.05,69.57,51.32,103.51,78.12l19.04,15.14c15.47,12.14,27.84,21,12.51,42.92-7.59,10.84-19.35,18.09-32.37,20.34-28.11,4.87-45.9-10.71-67.14-25.66.05,33.82-1.18,69.51-2.34,103.39l-5.79,142.7c-1.43,30.9,5.33,40.66-29.67,45.97-38.48,5.83-105.67,6.73-145.74-.15-6.04.25-12.21-.41-18.24-.84l-24.94-1.81c-51.91-3.78-103.63-7.79-155.73-6.7-20.53.43-39.39,7.37-54.23-8.56-18.07-19.4-18.05-79.08-20.06-104.26-4.16-52.07-9.22-110.94-7.56-163.24ZM330.6,39.87c-6.55,5.03-12.4,11.19-18.29,16.98l-29.84,29.59c-70,68.54-144.11,132.94-227.57,184.76-6.26,3.89-13.89,7.29-19.12,12.47,32.91,1.79,88.62-41.94,114.11-61.34,6.7-5.1,18.55-16.01,26.19-18.5,10.18-3.32,21.85,4.58,21.4,15.49-.61,14.73-53.87,49.28-66.46,58.57-.07,68.48,3.02,136.6,9.05,204.82,1.31,14.79,3.27,46.32,8.57,58.95,13.15,1.63,33.89-.02,48.05-.02l37.86.04c6.06.02,12.47.66,18.47-.02v-52.19c0-33.67-3.28-63.54,22.45-89.12,14.91-14.82,32.81-19.17,53.36-19.03,72.37.51,65.49,37.88,65.49,92.06l-.02,80.03c6.33-.25,12.69.33,19.01.7,36.33,2.11,66.39,2.35,102.24-2.5,1.97-.06,3.93-.17,5.89,0-.85-15.06.56-30.39,1.26-45.44l4.32-107.64c.24-6.67.89-13.36,1.01-20.02l1.11-65.92c.32-15.01.1-30.07.09-45.08-64.99-42.92-118.88-77.83-174.95-134.23-6.92-6.96-20.13-19.06-25.27-26.81-6.82,6.29-18.79,18.56-26.57,22.4-14.65,7.23-30.19-7.72-21.57-22.21,5.34-8.96,39.07-42.19,51.92-40.41,7.73,1.07,12.94,9.31,17.7,14.65,44.64,49.97,96.48,91.63,152.17,128.65,16.4,10.9,33.28,21.19,49.35,32.57,23.43,16.59,48.64,46.57,78.69,41.56-24.34-22.7-61-48.04-87.91-67.95-69.16-51.16-135.69-105.39-198.64-164.03-4.31-4.02-8.6-8.65-13.57-11.83ZM455.01,80.39c-.23,7.98.38,15.97,0,23.95,9.63,6.35,28.94,22.87,38.34,31.47v-55.41c-12.2.1-26.58-1.02-38.34,0ZM323.65,414.59c-34.24,1.15-37.69,28.47-37.68,56.42l.02,27.29c0,15.59-.81,31.28,0,46.86,13.6-.46,28.5,1.47,42.12,2.78,11.1-.18,22.1,1.65,33.22,1.21v-105.84c0-5.63,1.5-17.36-3.01-21.71-7.73-7.47-24.35-8.11-34.67-7Z"/>
  </g>
</svg>