<?xml version="1.0" encoding="UTF-8"?>
<svg id="Layer_2" data-name="Layer 2" xmlns="http://www.w3.org/2000/svg" viewBox="0 0 870.99 27.8">
  <g id="katman_1" data-name="katman 1">
    <path d="M2.9,25.62c109.96-.93,219.93-1.39,329.89-1.37,109.97.02,219.93.51,329.89,1.48,61.6.54,123.2,1.24,184.8,2.07,3.87.05,3.86-5.9,0-6-65.49-1.71-130.99-2.89-196.5-3.6-65.51-.72-131.02-.99-196.53-.91-36.78.04-73.56.2-110.34.44v6c67.98-5.65,136.06-9.97,204.21-12.92,68.15-2.95,136.35-4.55,204.56-4.78,38.4-.13,76.81.17,115.21.9,3.86.07,3.86-5.93,0-6-68.2-1.28-136.42-1.23-204.62.19-68.19,1.42-136.36,4.2-204.45,8.34-38.33,2.33-76.64,5.09-114.91,8.28-3.79.32-3.92,6.03,0,6,65.51-.43,131.03-.58,196.54-.33,65.51.25,131.02.88,196.52,2.02,36.77.64,73.54,1.43,110.31,2.39v-6c-109.96-1.5-219.92-2.53-329.88-3.08-109.96-.55-219.93-.62-329.9-.22-61.6.22-123.21.6-184.81,1.12-3.86.03-3.87,6.03,0,6h0Z"/>
  </g>
</svg>