<?xml version="1.0" encoding="UTF-8"?>
<svg id="Layer_2" data-name="Layer 2" xmlns="http://www.w3.org/2000/svg" viewBox="0 0 855.07 91.08">
  <g id="OBJECTS">
    <g>
      <path d="M619.58,43.52l.53.4.7-1.61,1.23.81c-.46,2.22,1.55,2.79,1.41.6-.03-.5-.6-1.17.18-1.41.55-.17,1.29,0,1.59.6.09.19-.07.53,0,.6.06.07,1.33.02,1.06,1.21l.7-.2.53-1.81c.47.66.81.96,1.59.81v.81c.92-.67,1.18-1.54,2.47-1.21v2.02h1.41l.18-2.02,1.23.4v2.02c1.22.32.32-1.11,1.23-1.61.91-.5.28,1.48.7,1.61l.53-1.21.35.81h1.41l.35-2.02,1.94,1.21c.83-.27,1.41.66,1.76,0l1.06,1.21,1.23-.4-.35-1.21c1.58-.36,1.94,2.37,3.52,2.01v-.81l1.76.4v-1.21l1.06.4v-.81l2.82.81v1.61c.82.21,1.48-.49,1.94-1.21.26-.42.04-.81.35-.81l1.06,1.21,1.41-.81.53,2.01,1.59-1.21c.54.2.37,1.57,1.06,1.21.53-.28.6-1,.53-1.61.67.5.74.5,1.41,0v1.61c.74-.5,1.44-.32,1.94-1.21l.35,1.21,1.59-1.21v1.01l1.23,1.01.53-2.22.7-.2c-.1.94.79,1.38,1.23,2.01l1.94-.81v1.21h1.06v-.6c.54-.18.08-1.87.88-1.41.49.28.99.93,1.59.81v.81h.7l.7-1.21-.35,2.02.88-2.02c.42.53,1.02.84.88,1.61l1.23-1.21.18,1.21.35-1.21.7.81h.35v-.81h1.06v.81h.7v.6l.53-.2.18.81,1.06-.4.35-1.21h-.53c-.32-.02-.2-.69-.18-1.01.04-.63.28-1.18.7-.6-.14,1.4.1,2.22,1.41,2.01l.53,1.61.18-1.61.7.81v-1.21c.76-.07,1.04.9,1.59,0l.7.4,1.23-.4c-.09.54.05,1.45.53,1.61.18.06.88.14.88-.2v-.6l2.11.4v.81l2.82-.81v1.21h1.41v-.81l.7.4v-1.21c.55.59,1.14.25,1.59.4.14.05.21.35.35.4.49.18.97-.08,1.41.81.72-.52.23-1.5,1.23-1.21l.18.81.35-.4c.8.01.99.78.88,1.61l.7-1.41c-.04-.76.22-1.56-.35-2.02.39-.62.76-.7,1.41-.6-.17.96.31,1.64,1.06,2.02.06-.8-.29-2.41.53-2.82.71-.35.43.78.88,1.01-.66.68-.25,2-.35,3.02l1.06-1.81c-.11-.52.47-2.08.88-2.22,1.16-.4.69.63,1.41,1.21l.35-.4c.6,1.03,1.35-.13,1.76,0,.14.04.21.35.35.4.82.3,1.49-.7,1.23,1.21l.35-1.21h.7v.81h.88l.53-1.21h.35v.81l1.41-.4.53,1.21c.39-.74,1.2-.23,1.76-.4.3-.1.57-1.1,1.23-.81l.7,2.82c1.46-.07,2.95.1,4.41,0,2.77-.19,6.11-1.31,8.81-.4l1.41-.81c1.19.99,2.61-.33,4.23,0,.14.03.32.62.88.4l.53-1.21c.12,0,.22.38.35.4,2.32.44,3.32-1.12,5.29-.4l1.06-.81,1.06.81.7-.81,1.06.4,1.76-1.61c.83.9,2.41,1.02,3.52.81.14-.03.32-.62.88-.4v1.21c.53.22.81-.4.88-.4s.35.62.88.4v-.81c.67.12,1.16-.44,1.06-1.21h.7v.81c.78-.29,1.23.27,1.59.4.21.08.48-.07.7,0,.47.15.62,1.09.53,1.61-.09.11-.61-.63-1.23-.4-2.75.99-6.77.84-9.87.81l-1.06.81c-.39-.6-1.02-.6-1.41,0l-1.06-.81-1.06.81-.7-.81-.18.81c-.87-.91-1.28-.06-1.59,0-1,.2-1.81-.18-2.64-.4v.81c-.5.08-1.14-.11-1.59,0-1.3.33-3.75,1.05-5.29.4l-1.41,1.21c-.28-.49-.99-.53-1.41-.4-.8.25-.39,1.66.53.81v.81l1.59-.4,1.41,1.21.53-1.21c.62-.13,1.16.4,1.06,1.21.87-.9,1.26-.07,1.59,0,.47.1,1.08-.07,1.59,0v-.81l2.64,1.21,1.06-.81,1.59.81v-.81c.67-.3.93.71,1.23.81.3.09.76-.09,1.06,0,.51.16,1.41,2.15,1.59-.81l.88.4,1.23-.81c-.09,1,1,1.2.7,2.42.67.12,1.17-.47,1.06-1.21,1.13-.27,1.7,1.26,2.82,1.21v-.81l1.41.4v.81l1.94-.81c.75,1.2,1.48.87,2.47.4.82,1.07,1.87.62,2.82.81.14.03.24.4.35.4.07,0,.6-.71,1.23-.4v-.81c.67-.12,1.16.44,1.06,1.21h2.82l-.35-1.01c-.01-.59,1.98-.02,1.06.81.57,1.09,1.67.17,2.29,1.01h.18c-.03-.51.2-.94.35-1.41.12-.4.43-.18.7-.2-.22.64.42,1.86.88,2.02.93.31,1.19-.99,1.76-.81.95.71,2.33.18,3.17,1.61l1.06-.81c1.44.07,2.83,1.75,3.88,0l1.41,1.21-.18-.6.7-.6c-.12.86.58,1.45,1.23,1.21,1-.37-.1-2.37,1.23-2.01l.18,2.42,1.41-1.61c.6.63,1.06,1.01.88,2.02.57-.22.72.36.88.4.91.24,1.52-.61,2.11-.4,1.02.35,1.1.53,2.29,0v.81h1.41l.18-.81c.84.56.16,1.56.88,1.61l.18-.81h.88l.18-1.61.53,2.01h.88l.18.81.7-.2.53-1.41c.42.53,1.02.84.88,1.61h1.06v-1.61h1.06l-.35-1.41.7-1.21-.35-.81.7-1.21c-.54-.47-.54-1.54,0-2.01-.81-.91-1.72-1.75-1.76-3.02h-.7c.18-.45-.59-1.52-.88-1.61-1.04-.33-2.55-.03-3.52-1.21-.24.05-.5-.07-.7,0-1.14.4-1.94-.03-3.17-.4-1.68-.51-3.79-.11-5.29-.4-.33-.06-.72.05-1.06,0-1.08-.17-1.22-1.28-.35-2.01.12,0,.22.38.35.4.26.05,2.66-.3,3.17-.4.96-.2,1.53-.15,2.47-.4.81-.22,6.7,1.55,7.75,2.02.23.1.82.69,1.06.81.19.09.47-.07.53,0,.07.08-.09.41,0,.6.42.85,1.62,1.13,2.11,2.02l-.35.4c1.01.7.55,1.46.7,2.42.03.16.55.36.35,1.01l-.7.2.7.81-.35,1.01h.7v1.21h-.7l.35.6c-1.21.91-.52,2.58-.7,4.03-.02.13-.63.71-.35,1.41.62.03,1.22-.22,1.59.4l1.06-.81,1.06.81.7-1.21.7,2.02c.84.45.27-1.34,1.06-1.61.88-.3,1.2,1.65.53,2.42l.88-.4c.48.26.43.8.53,1.01.49,1.02.92,1.46.7,2.82-.03.16-.55.36-.35,1.01h-.7c.13,1.39-.98.96-1.59,1.61-.13,0-.77-.99-1.06-1.21-1.85-1.4-6.06-2.45-8.11-1.61-1.96-1.32-4.53-.95-6.7-1.61-1.18-.36-2.4,0-3.88-.4-2.75-.75-5.84-.3-8.11-1.21l-1.76.4c-4.04-.29-8.46-1.42-12.34-.81-1.04-1.4-3.95-.6-4.58-.81-2.36-.77-5.46.1-8.11-.4-2.76-.53-6.99-.91-10.22-1.21-2.54-.24-4.84-.05-6.7-.4-1.62-.31-2.33.44-4.23,0-1.68-.39-3.36.53-4.93-.81h-.35c-1.21,1.05-2.44.73-3.88.4-2.04-.47-4.8-.86-6.7-.4-1.98-1.53-3.96-.2-6.34-.81-2.86-.73-7.2.24-10.57-.4-2.37-.45-5.43-.12-8.46-.4-2.3-.22-5.26-.98-7.4-.4-1,.27-5.7-1.07-6.7-.81-2.4.64-8.99-.03-11.63-.4-1.86-.27-3.89.8-5.99.4-1.81-.34-3.4.64-4.58.4-2.97-.58-8.36,1.7-10.93.81-.34-.12-2.49.6-3.52.4-1.19-.23-2.4.68-3.88.4-1.77-.34-4.22,1.17-6.34,0-1.59,1.43-3.99.62-5.99.81-2.34.22-5.33,1.64-7.75.4-1.24,1.3-2.99.67-4.58.81-2.68.23-5.24,1.14-7.75.4-.29.6-.7.29-1.06.4-1.89.58-3.97-.38-6.34.4-.66.22-2.48.54-3.17.4-2.02-.4-5.12.95-6.7.4-.66-.23-1.1.63-1.76.4-1.78-.62-3.57.12-5.29,0-4.17.66-9.58.27-14.1,1.21-.98.21-1.46-.35-1.76-.4-2.09-.35-4.87,1.22-7.05.81-1.78-.34-3.17,1.17-4.58-.4-.76.21-4.52,1.35-4.93,1.21-1.86-.65-5.17.36-7.05,0-1.27-.24-4.53.94-4.93.81-1.13-.37-5.48-.37-6.7,0-1.9.58-4.85-.63-6.7.81-.34-.67-.91-.27-1.41-.4-2.14-.57-4.27.9-6.34,0-1.11,1.56-3.44-.09-4.93,1.21l-1.06-.81c-2.53,1.24-5.87-.48-8.11,1.21-3.46-1.36-7.06.94-10.57-.4l-.7.81-.35-.4c-1.63.77-3.69,0-5.29.4-1.96.5-4.26,0-6.34.4-1.21.23-4.17.21-5.29,0-1.24-.24-2.47.61-3.52.4-1.84-.36-4.91.81-7.05.4-1.22-.23-2.35.79-3.88.4-2.32-.59-5.06.48-7.4,0-.76-.15-6.08.22-7.05.4-1.18.22-3.52.74-5.29.4-.64-.12-2.66.05-2.82,0-.18-.06-.3-.62-.88-.4v.81c-.57.22-.74-.38-.88-.4-1.05-.21-2.54-.23-3.17.81l-1.41-.81-.7.81c-1.94-1.18-4.28.32-5.99,0-1.19-.23-3.68.46-3.88.4-3.06-.97-5.83.58-8.11,0-1.2-.31-1.42.2-2.47,0-2.05-.39-5.31,1.34-7.4,0-.85,1.27-3.46,1.03-4.58.4l-1.06.81c-.23-.05-.5.07-.7,0-.92-.3-2.39-.1-3.52-.4-1.28-.34-5.13,1.1-6.7.81-1.27-.24-3.66-.24-4.93,0-3.27.62-6.32-.27-9.87.4-.58.11-5.4.96-5.99.81-4.13-1.1-8.73,1.06-12.69,0-.28-.07-3,.35-3.17.4-2.57.79-5.58-.24-8.11.4-2.25.58-5.88-.53-8.46,1.21-.14-.04-.21-.35-.35-.4-1.21-.45-5.17-.49-6.34.81-1.37-1-4.19.3-5.64,0-1.42-.3-4.9-.55-5.99.4l-.7-.4c-4.1.57-8.88.39-13.04.81-13.96.63-27.87,2.61-41.59,2.42l-.7.81-.35-.4c-1.04.19-6.47,1.41-7.05,1.21-2.69-.94-5.52.18-8.46.4-2.93.22-6.43-.72-8.81.81-1.11-1.01-3.65.32-4.58,0-2.22-.77-1.52.08-2.82.4-1.57.39-3.4-.78-4.58-.4-.19.06-.51.74-.7.81-.31.1-6.02.47-6.34.4-2.8-.57-5.82.97-8.81.4-.78-.15-1.69-.15-2.47,0-1.4.27-2.8.13-3.88.4-1.38.35-2.75.01-3.88.4-.88.3-2.63.19-3.52-.4l-1.41,1.21c-2.39-1.05-5.14.57-7.4-.4-.76,1.82-4.1.25-4.58.4-2.76.87-6.37.09-9.16.81-1.23.32-2.53-.33-3.88,0-.34.09-1.39.68-1.76.81-.68.22-1.09-.64-1.76-.4-1.74.61-4.28-.45-5.64.81l-.35-.4-.35.4c-1.9-.69-5,0-7.05.4l-1.06-.81c-.85.72-2.34.29-3.17,1.21-.35-.67-.9-.28-1.41-.4-1.18-.27-2.11.41-3.17-.4l-1.06.81c-2.56-1.31-6.1.49-8.46-.4l-.7.81-2.47-.81c-1.04.89-2.9.15-4.23.4-1.09.21-1.94-.3-3.17.81-.88-.28-5.21-1.01-5.99-.81-1.4.36-7.63.89-9.52.4-2.41-.62-6.18.33-8.81-1.21h-.7c-1.25.79-3.26.16-4.58,0-2.45-.3-5.16.87-7.05-1.21l-1.06.81c-2.39-1.34-5.44-.99-8.11-1.61-.13-.03-.21-.37-.35-.4-2.33-.62-4.78.32-7.05-1.21l-1.06.81-3.52-1.61.18-.81c-1.01-.29-.52.69-1.23,1.21l-1.59-.4.35-2.02.88.81.18-.81c.63.06,1.33-.09,1.94,0,1.55.24,2.52,1.66,4.23.81.34.67.91.27,1.41.4,2.06.54,4.75.15,7.05.81,1.69.48,4.05.93,5.64.4l1.76.81c3.08-.2,6.8.08,10.57.4,8.58.74,18.52.28,27.49,0,2.98-.09,7.12.46,9.87,0,5.76-.96,13.01-.66,19.38-1.21,14.15-1.22,28.5-1.4,43-3.22,1.66.52,8.09,0,10.22-.4,4.55-.87,11.73-.82,17.27-1.21,2.68-.19,6.11-.5,8.46-1.21h.7c6.31.28,13.3-.25,19.74-1.61l1.06.81c5.46-1.16,11.78-.57,17.27-1.61.85-.16,1.92-.23,3.17-.4.87-.12,4.93.21,5.11,0v-.81l1.59.81c1.41-.83,3.56-.25,5.29-.4.13-.01.22-.39.35-.4.85-.09,1.78.07,2.64,0l-.7-1.61c1.07-.16,1.98.31,2.64,1.21,2.2.24,4.09-.35,6.17-.4l.53-1.21.53,1.21,1.76-.4v-.81h1.76l.53,1.21,1.06-.81c.14.04.21.35.35.4.65.23,1-.3,1.41-.81l.18.81c.5-.08,1.14.11,1.59,0,.37-.09.45-.67,1.41,0l.88-.4c-.08-.74-.01-1.17.53-1.61l.53,1.21,1.23.4.53-1.21,1.23,1.21,1.41-.81c.33.52,1.54.55,2.11.4,1.06-.27.88-.17,1.76,0,.69.13,1.57-.09,2.29,0v-.81c.94.44,3.78.71,4.76.4.19-.06.51-.74.7-.81.36-.11,2.37-.09,2.82,0,.21.04.14.66.88,0l.7.81v-2.01l.7,1.61c.86.15,1.5-.21,1.41-1.21h1.41v1.21l1.76-.81-.18.81c.46-.69,1.28-.33,1.94-.4-.09-.54.05-1.45.53-1.61.96-.32,1.2.89,1.76,1.21.83.48.32-1.12.7-1.21l1.06,1.61,3.35-.4v-2.02l1.23-.4.88.6-.35.81c.23.95,3.29,1.6,3.88.4l-.35-.6,1.41-.4.7.81-.18-1.21,1.06-1.21.88.6c.16.63-1.22,1.6-.18,2.22h1.94v-.81c.28.04.64-.07.88,0,1.14.36.84,0,1.06,0,.12,0,.22.38.35.4.87.16,1.59.1,2.11,0,1.15-.22,2.85-.15,3.88-.4.5-.12,1.61-1.49,2.11-1.61.58-.14,2.17-.08,2.29.6l-.18.2c-.45.42.07.56.35.4.39-.21.55-1.06,1.23-.81v-.81c.21-.24,2.3.42,2.64-.4.8.01.99.78.88,1.61l.35-1.21h1.06v.81c.67-.3.93.71,1.23.81.27.09,2.2.09,2.47,0,.22-.07.73-.97,1.06-1.21.09-.07.53.05.7-.4l1.41,1.21.7-.4.7.4.7-1.61,1.41,2.02c.12,0,.22-.38.35-.4,1.47-.28,3.67.09,5.29,0,.12,0,.23-.4.35-.4,1.51-.09,4.01.32,5.29,0,.24-.06,1.29-1.15,1.59-.81v.81c1.22-.07,2.48.1,3.7,0,2.2-.18,4.97-1,6.7-.4l.7-.81c.55.07,1.23.24,1.76.4.5.15,1.64.17,2.47,0,2.76-.56,7.86.38,10.93-.4,1.94-.5,4.88-.16,7.4-.4,2.78-.26,5.45.08,8.11-.4.49-.09,1.08.06,1.59,0v-.81c.83.94,2.91,1.1,4.05.81.14-.04.24-.55.7-.4,3.65,1.15,11.53-1.15,14.8,0,21.91-2,43.11-1.72,64.5-3.63,24.42-.76,50.14-1.76,74.72-4.03,6.33.47,13.33-.51,19.74-1.21,3.34-.36,6.4.3,9.87-.4,3.58-.73,7.67-.6,11.28-1.21,1.26-.21,2.38.61,3.17.4.41-.11,1.78-.76,2.11-.81.65-.09,1.43.02,2.11,0,.43-.01,1.32.3,1.23-.4l-1.76-.2c-7.24-.9-13.37.15-20.62-1.41l-1.76.81c-1.43-1.09-3.65-.49-5.29-.81-1.04-.2-1.95.17-2.82,0-1.84-.36-4.9-.1-7.4-.4-2.52-.3-4.78-.13-7.05-.4-3.72-.45-7.16.31-10.93-.4-1.25-.24-2.72.43-3.88,0-1.62-.6-3.33-.17-4.58-.4-2.33-.44-4.48,1.2-6.34-.4-.61-.22-1.74.73-2.11.81-2.69.55-5.97-2.03-9.16-1.21-1.84.47-4.75-.44-7.05,0-2.52.48-6.98-.89-9.52-.4-2.9.55-6.39-1.02-8.81-.4-1.75.45-6.49-1.09-9.16-.4-.95.24-2.18.17-3.52.4-1.71.29-3.21-.84-4.93-.4-1.42.36-3.91-.91-4.23-.81-2.12.67-2.88-.22-4.93.4-1.88.57-4.61-.63-6.7-.81-1.72-.15-5.95-.28-7.05,0-1.08.28-1.98-.35-2.47-.4-2.21-.24-3.69.5-5.64,0-2.83-.72-4.85.48-7.4,0-1.55-.29-4.22-1.07-6.34-.81-2.64.32-4.33.15-7.05-.4-4.48-.91-10.36.5-14.8-.4-.1-.02-.37-.64-1.06-.4-2.88,1-4.96-1.16-5.99-.81-3.67,1.27-7.47-.63-10.57,0-1.35.28-2.34,0-3.88-.4-1.24-.33-3.98-.27-5.29,0-1.67.34-1.98-.6-2.82-.81-1.54-.38-3.37.45-4.58,0-2.09-.77-4.43-.19-6.7-.4-2.03-.19-4.39-1.28-6.7-.81-1.86.38-3.18-.7-4.58-.4-3.16.66-7.09.02-10.22-.81l-2.47.81c-3.03-.95-6.73-1.83-9.87-1.21l-1.06-.81c-.34.05-.75-.08-1.06,0-1.54.41-2.69-.54-4.23,0-.14.05-.56.05-.7,0-.9-.29-2.51-.19-3.52,0-2.27.43-3.71-1.17-5.64-.81-.46.09-2.04.11-2.47,0-2.52-.64-6.04-.37-8.81-1.21-1.62-.49-4.65.15-7.05-.4-1.93-.44-3.1-.71-4.93-.4-2.92.49-6.46-1.79-9.16-.81l-1.06-.81-1.06.4-.35-.4c-1.86,1.28-3.93-.75-5.99-.4-1.99.34-1.86-.17-3.52-.4-1.67-.24-4.15.37-5.64,0-.55-.14-1-1.11-2.11-.81-1.02.27-2.64.27-3.88.4-1.38.15-3.62-.57-4.23-.4-3.27.87-7.22,1.21-10.57.81-1.51-.18-1.33-.52-3.17,0-4.58,1.3-11.5-.08-16.56.4-5.38.51-11.32,1.06-16.92.4-2.39,2.13-5.35.3-8.11,1.21-1.83.61-3.5-.64-4.23-.4-.2.06-.51.75-.7.81-1.83.58-4.99-.69-6.34-.4-1.68.35-3.65.31-5.29.81-2.16.66-7.7-.08-10.22-.4-2.5,2.02-7.55-.04-10.22.81-.63.2-1.91,1.55-3.17,1.21-.79-.21-6.22-.93-6.7-.81-2.17.58-6.52,1.3-8.46.81-1.19-.31-1.96.63-3.17.4-3.21-.61-6.23,1.21-9.16,0l-1.06.81c-1.35-.93-5.76.75-7.05.4-2.4-.64-5.59.45-8.11.81-1.28.18-2.22-.26-3.35-.4v.81l-1.59-.81c-.29.25-1.14.72-1.41.81-2.24.7-3.95-.23-6.34,0-.85.08-2.63.65-3.52.81-3.04.52-6.02-.25-9.34,0v.81c-1.52-.1-2.81.71-4.41.4-1.88-.36-4.01.6-5.99.81-1.32.14-3-.23-4.23,0-.68.13-6.32,1.31-6.7,1.21-1.65-.44-3.51,0-5.29.4-2.38.54-4.18.04-6.34.4-2.31.39-5.26,1.23-7.4.81-1.2-.24-1.64.79-3.17.4-1.94-.5-3.79,1.41-5.29.4h-.35c-.75,1.67-2.44.28-2.82.4-1.16.36-2.31,1.29-3.52.4l-1.06.81c-2.2-.57-4.89.16-7.05,1.21h-.7c-1.05-1.35-2.06.28-2.47.4-.97.31-3.74-.16-4.58-.4-.57.97-1.75,1.18-2.47.4-1.05,1.67-3.45.34-4.93.81-.49.15-1.01,2.02-1.76.81l-1.06.4c-.14-.05-.21-.35-.35-.4-1.37-.49-2.12.04-3.35-.4v.81c-.73-.33-1.35.34-1.59.4-1.23.3-2.48.14-3.88.4-1.48.28-3.76.77-5.64,1.21-1.54.36-3.83,0-4.58.4-.21.11-.9.45-1.06.4l-1.06-.4-.18-1.21,2.11.81v-.81l.53.4,1.59-1.21v.81l.53-.4,2.29.81-1.06-1.61,3.17-.4.18.81c.68-1.19,1.96-.55,2.82-1.61l1.06.81c.24-.21.86-.73,1.06-.81.92-.37,5.84-1.37,6.7-1.21,1.81.34,2.14-.46,3.52-.81,1.07-.26,2.75.23,3.88,0,.97-.2.74-.76,2.11-.4,1.18.31,1.99-1.11,3.17-.81.69.18,1.09.17,1.76.4.87.3,1.74-1.59,3.17-1.21.14.04.24.55.7.4,7.07-2.23,14.77-2.35,22.2-3.63,4.53-.78,9.62-2.05,14.1-1.61,1.95-1.4,5-1.12,7.4-1.61,2.72-.55,5.94-.29,8.46-.81,2.63-.54,5.91-.62,8.81-1.21,6.47-1.32,14.79-2.16,21.15-2.01,2.32-1.61,4.88-.81,7.4-1.21.37-.06,2.19-.89,2.47-.81.18.06.3.62.88.4v-1.61c.14-.16,1.81.15,2.29,0,.31-.1.85-1.32,1.94-.81-.14,1.03.72,1.2,1.41,1.61l-.18-1.21c.41-.72,2.01-.5,2.64,0v-.81c.39-.05.87.08,1.23,0,1.38-.31,2.22-.75,3.52-.4.9.24,2.14-.69,2.82-.81,1.9-.32,3.74-.08,5.29-.4.47-.1,1.08.07,1.59,0l.18,1.21,1.06-1.21,1.41.4,1.06-.81c.12,0,.21.36.35.4.87.29,1.27-.81,1.41-.81l1.06.81c.29-.6.7-.29,1.06-.4.87-.26,3.19-.67,4.58-.4,2.05.39,3.73-1.13,5.64-.81,1.95.33,3.16-.37,4.93,0,1.13.24,1.89-.58,3-.4,0,.33-.01.67,0,1.01.02.5-.27,1.5.35,1.41l.53-2.02.88,1.21.35-1.61,1.41.81c-.09-.52.14-.92.53-1.21.7-.51,1.39-.27,2.11-.4,3-.57,7.44-.21,10.93-.81,1.24-.21,2.99-.62,4.23-.81.59-.09,1.49.25,1.94-.2-.46-.8-.91-.56-1.59-.6-.99-.06-2.27.17-3.17,0-.87-.16-1.77.21-2.82,0-1.22-.25-1.92-1.18-3.88-.81-1.39.27-2.24-.83-3.88-.4-.86.23-1.11-.3-1.41-.4-2.52-.83-4.33.37-7.05-.4-.79-.22-6.65-1.31-7.05-1.21-1.71.46-2.46.47-4.23,0-1.41-.37-2.84-.11-4.58-.4-2.03-.34-5.22.15-7.05-.4-2.61-.8-5.73-.81-8.46-1.21-2.71-.39-7.13-.2-9.52-.81-5.61-1.42-14.11-1.42-20.44-2.01-3.2-.3-6.4.12-9.52-.4-.67-.11-4.14-.92-4.58-.81-.84.22-3.63-.09-4.58-.4-1.95-.65-6.22-.8-8.11-.4-1.22.26-3.11-.68-4.58-.4-.99.19-1.5-.37-1.76-.4-3.24-.46-6.13-.16-9.52-.81-1.48-.28-2.82.1-4.58-.4-2.29-.65-4.06.03-6.34-.4-1.2-.23-2.93.38-4.23-.81h-.7c-2.5.38-6.47-.24-9.16-.81-1.03-.21-1.94.26-3.52,0-2.43-.4-8.35-1.3-10.22-.81-.99.26-3.86-1.06-4.93-1.21-1.56-.22-3.9.35-5.29,0-.93-.24-2.38-.55-3.17-.4-1.48.28-1.75-.63-2.47-.81-2.44-.6-6.08-.18-8.81-.81-2.3-.53-4.96-.23-7.4-1.61h-.35c-.89,1.35-3.41-.55-3.88-.4-1.41.44-3.47.42-4.93-.81h-.7c-.62,1-1.36.11-1.76,0-1.73-.47-3.58-.27-5.29-.81l-.53-1.21c-.67-.09-1.64.5-1.41-.81l2.29.81c1.55-.33,3.1.78,4.58.4,1.2-.31,1.42.2,2.47,0,1.23-.23,1.72.18,2.47,1.21l1.76-.81c.84.78,2.36.29,3.52.4,1.04.1,3.2.73,4.23.81,1.64.12,5.1-.39,6.34,0,.44.14.52,1.14,2.11.81,2.42-.51,4.4.02,7.05.4,3.19.46,6.22-.22,9.52.4,1.36.26,3.5.06,5.29.4,2.19.42,5.52.25,8.46.81,1.49.28,4.03-.24,5.99,0,1.49.18,2.79.12,3.88.4,2.24.57,4.59.11,7.05.4,1.01.12,7.7.93,8.11.81,2.06-.65,7.68.13,10.22.81.91.24,1.52-.61,2.11-.4,3.7,1.29,7.99-.5,11.28,1.21.88-.13,5.43-.55,5.99-.4,4.65,1.24,10.27.27,15.15,1.61l1.06-.81c.51.72,1.49.31,2.29.4v-.81h.7c-.16,1.05.68,1.05,1.23,1.61l1.41-.81c1.12.57,2.65.64,3.52.81.89.17,2.06-.12,3,0l-.7-2.02,1.06,1.01c-.2.92.45.36.88,1.01l1.41-1.61.53,1.41.88.6.18-2.01.7,2.01h1.06l-.35-1.41.88-1.01,1.06.81c.58-.07,1.2-.24,1.76-.4,2.28-.65,3.09.28,4.58,0,3.41-.65,6.95.81,10.93,0,1.94-.39,1.93-.41,3.88,0,1.02.21,1.34-.29,2.47,0,2.68.69,5.22-.03,7.75.4,2.99.51,6.49-.57,9.52,1.21,2.02-1.15,5.68.2,7.4-.4.23-.08,3.95.64,4.58.81,3.08.81,9.39-.41,13.39.4,3.04.62,7.57.25,10.93,1.21.86.24,2.24.64,3.17.4,2.4-.62,5.37.67,8.11,0l3,1.21v-.81c.72.09,1.6-.13,2.29,0,1.04.2,2.47-.2,3.88,0,.26.04.78.61,1.76.4,2.39-.5,4.83,1.37,7.05.81,2.48-.64,3.81.72,5.99.4,2.59-.37,4.71.55,7.4.81,2.01.19,3.99-.28,5.64,1.21h.88c-.07-1.35.92-1.29,1.94-1.21.83.89,1.48,1.39,1.23,2.82.64.11.25-.61.35-1.01.02-.07.82-.99.88-1.01.31-.1,2.46-.09,2.82,0,1.19.31,2.27-.32,3.52,0,1.49.38,3.4.26,4.93,1.61l2.11-.81c.6.21,4.68,1.29,4.93,1.21.83-.27,0-1.1,2.11-.4,1.35.45,3.04.54,4.58.4.13-.01.22-.39.35-.4,1.35-.15,2.56.19,3.52,0,2.66-.52,6.43-.41,8.81.4,2.99-1.9,6.48-.34,9.87-1.21,1.69-.43,3.43,1.11,5.29-.4l1.76.81c.37-.19,1.71-.51,2.11,0l1.23-.81c-.16,1.05.68,1.05,1.23,1.61l1.06-1.21.7,1.21c.33-.68.94-.25,1.41-.4.34-.11,1.42-1.91,1.76-2.02.41-.13,1.1.09,1.59,0l.53,1.21,1.06-1.21.7.81h.7c.91-.85,1.32.02,2.47-.4.32-.12.77.21,1.06-.4h.35l.53,1.21c.85.19,1.42-.68,2.29-.4.22.07.5.84.88.81v-.81h1.06l.35,3.22.7-2.42c.65-.08.29.89.35,1.41.2,1.54,1.47,1.17,1.41-.2.78.16,1.11-.14,1.59-.81.14,0,.76,1.01,1.06,1.21.07.05.66.39.7.4.91.23,1.79-.18,2.64-.4l-.18-.81h-.53c-.09-1.33,1.31-1.49,1.94-2.42l1.59.4-1.76,1.41,1.41.6c-.07,1.14.66,1.34,1.59,1.21l.18-1.61,1.41,1.61-.35-2.02.88.4,1.41-.81,1.76,1.61.53-.81v1.61l1.06-.6-.35-.4c0-.14,1.12-.98,1.23-1.01,1.56-.39,1.69.4,2.47,1.61.44,0,1.93-3.76,3.17-3.22.85.39,1.34,1.57,2.29,1.61l-.7,1.21c1.23.39,1.53-.75,2.47-.81l.53,1.21.7-.81-.18-1.61c.39.05.87-.08,1.23,0,.19.05,1.12.67,1.41.81.19.09.46-.07.53,0l.35.81.35-2.02,1.94,2.02c.83-.03.99-.8.88-1.61.92-.2,1.79.57,1.76,1.61.78.16,1.11-.14,1.59-.81l1.59.81v-2.02l1.23,1.61c.82-.73.33-.55.18-1.01-.16-.49.12-.83.53-.6.52.28,1.06,1.13,1.41.4.39.6,1.02.6,1.41,0l.53,1.21,1.76.4v-1.41c-.65-.85-1.35-.27-1.06-1.81l.7,1.21.88-.4c.48.67,1.35,1.11,1.23,2.02h.7l.18-.81h.53l.18-.81,1.06,2.02c.5-.23.06-.91,0-1.21-.11-.56-.23-.91.35-1.21.7-.36.44.88,1.06,1.21.62.34.61-.5.53-1.01.11-.82,2.11.44,1.76,1.41h.7v-.81h1.06v.81h1.06v-2.01l.53.4c.36-.62.97-.38,1.59-.4v.6c.54.19.07,1.86.88,1.41.35-.2.62-.72.53-1.21h1.76l.18-1.21,1.23.4v1.01c.45.77,1.01.63,1.76.6l-.35-1.21c.76-.03,1.31-.16,1.76.6l.35-1.01.53.81.35-.81,1.23,1.61.18-2.01,1.41,1.21.7-.4c.61.69.96,1.45,1.94,1.21,0-.69-.17-2.18.53-2.42,1.13-.38,1.55,1.75,2.64,1.61v-1.21h.7v-.81l2.29,1.21,1.41-1.21,1.59.4.88,2.02.18-1.21,1.23-.81.88,2.02v-2.42h1.41l.7,2.42h1.41v-1.81l1.94-1.01c.91.64.04.86.18,1.41.47.54.43,1.57,1.41,1.41l-.35-2.42,1.41.4.7.81.18-1.61c.45.87.88.63,1.41.81.6.2.58,1.36.53,2.02h1.06l-.35-2.82h1.59l.18-1.21c.44-.11.42.37.53.81.1.38.29.72.18,1.21l.7.4.7-.2v-.6l2.11.81v-.81c1.47-.21,1.95.29,1.76,2.02h.7v-.81h1.06l-.53-1.61,1.23.4c-.1.77.39,1.32,1.06,1.21l.7.81v-2.42l-.7-.81c.97-.09,1.88.63,2.64,1.21l1.41-.4,2.29.81v-1.21l1.23.4.53-1.21c.69-.16.21,1.05.35,1.21.73.03,1.43.54,1.94,1.21l.53-1.21c.53-.22.81.4.88.4.07,0,.6-.71,1.23-.4-.02.82-.16,1.49.53,2.01l.88-2.42,1.76.81-.35-1.21c.82-.11,1.6.37,2.11,1.01l.35,1.81c.87-.38.83-.84.35-1.61.71.07,1.51-.28,1.94.4l1.76-.4.7,1.21c.6-.63,1.06-1.01.88-2.02.48.09,1.17-.13,1.59,0,.19.06.51.74.7.81.41.13,1.1-.09,1.59,0v-1.21l1.23.81.7-.4,1.06,2.02.88-.4-.35-1.61.88-.4,1.06.81h.88l.53-1.21c.29.6.7.29,1.06.4.14.04.21.36.35.4.29.1.76-.09,1.06,0,.14.04,1.18.81,1.23,1.01.11.4-.29,1.12.35,1.01v-2.42c.14-.2.41.37.53.4.99.23,1.46-.74,2.47,0l.7-.81.88.81v-.81c1.14-.25,1.92.48,3,.4l2.29,1.61v-2.42h1.06v.81c.95-.14.91,1.21,1.76.4l.18,2.42c.44-.48.73-.67.88-1.41.11-.54-.12-.98.53-1.41l1.06,1.21.18-1.61c.72-.03.23,1.28.35,1.81.08.33.68.74,1.06.6l.35-2.82c.98-.13,1.82.21,2.47,1.01l.35,2.22h1.06l.35-2.42.53.81c.7-1.31,1.77-.59,2.82-.81,1.11-.23.86-.03,1.41,0,.06,0,.36-.62.88-.4l-.35,1.61.7-1.21c.57-.22.74.38.88.4.72.14,1.85-.2,2.47,0,.39.12.85,1.53,1.59,1.21l.53-1.21.35.4c.46-.65.81-.97,1.59-.81l.7,1.61c-.25-1.55,1.09-2.05,2.11-2.01v.81l1.41.4.18,2.01c.72-.75,1-1.76.88-2.82.98-.24,1.33.52,1.94,1.21l.35-.4,1.23,1.21c-.29-1.16.53-2.76,1.59-2.42.27.09.25.76.7,0l1.23,1.41.7,1.01v-2.01l2.29.81,1.23-.4.18-1.21.53,1.21c1.19-.39,1.46.68,2.47.81l.7,1.21-.7-2.22c.55-.81.73-.7,1.41-.2v-.81c.87.21,1.39-.32,2.11-.4l.53,1.21.7-.4c.43.68,1.23.34,1.94.4v1.61h1.06l.88-2.01.7.4c.51-.82,1.6.02,2.11-.81h.35c.87,1.32,2.36,1.02,3.35,0-.08.74-.02,1.17.53,1.61l.35-.4.7.4.18-.81,2.47.81.18-1.21c.33.68.93.25,1.41.4.12.04,1.01,1.07,1.41,1.21.54-.44.61-.87.53-1.61.69-.26.93.26,1.23.4.19.09.47-.07.53,0,.06.07.02,1.52,1.06,1.21v-1.61l.88.4.35-.4,1.06,1.21,1.41-1.61c.85,1.49,2.59.49,3.88.81.14.03,1.14.94,1.23.81v-1.01l1.06-.6c-.15,1.09.72,1.06,1.23,1.61l.18-.81,1.23.81.35-.4c.77.58.51,1.45.53,2.42h1.06c.19-.6-.35-.94-.35-1.01,0-.14.33-.25.35-.4.07-.43-.04-.96,0-1.41.51.44,1.61.37,1.76,1.01.09.37-.06.97,0,1.41l1.06.4c-.06-.77.25-1.69-.35-2.22-.31-1.22,2.25-1.16,3-1.01.06.01.84.32,1.06.4.2.08.3.62.88.4l.18-.81c.42.53,1.02.84.88,1.61l.88-.4.7.4.53-1.21h.7c-.04,1.66,1.91,1.63,2.64.4l.7.81.7-.81c.38.73,1.7.07,1.94,1.01.2.79-.69,1.32-.18,1.81.77-.53.41-1.15.53-1.81.03-.15.31-.24.35-.4.14-.56-.55-.69-.18-1.01h.7c.72.52.23,1.5,1.23,1.21.11-1.1.56-2.31,1.76-2.01v1.61l-1.41-.2,1.76.6c-.24-1.99.82-1.39,1.23,0,.21.71.21,1.29.18,2.02l.35-2.22c.45-.77,1.01-.63,1.76-.6l.53,1.61.18-1.61c.58-.21.68.32.88.4.23.09,1,.4,1.06.4.06,0,.62-.72,1.23-.4v2.42h1.06l.35-2.02h1.06v-.81h.7v1.61l.88-.4-.18-.81c.64-.17.81.73,1.23,0,.43.68,1.23.34,1.94.4l.53-1.21,1.41,1.61,1.41-1.21c.48.73.99.41,1.59,0l.35,1.21c-.28-2.42,1.06-.4,2.11-.4l-.35-1.41.7-.2c-.19,1.16.26.62.53.81.55.37.51,1.21,1.06,1.61l.53-1.21c.96.23,1.49-.63,2.11-1.41.28-.35.46-.42.35-1.01l.7,1.61,1.59-1.61.7,1.21.53-.81.7,1.21c.06-1.07-.31-2.18.53-2.82.65,1.05,1.39-.25,2.11,0,.14.05.22.37.35.4.36.08.84-.05,1.23,0l.53-1.21.53,1.21c.87-.21,1.39.32,2.11.4l.35-1.61,3.35.4.53,1.21c1.01.4,1.37-1.11,2.29-.81.29.1.75,1.17,1.23,1.21v-2.02c.51-.06,1.1.09,1.59,0,.7-.13,1.66-.24,2.47-.4,1.03-.21,2.97-.76,3.88.4l1.06-.4c1.39,1.39,2.76.81,4.23,0,.83,1.5,2.34.11,3.17,1.61.65-.68,1.43-.93,2.29-.81v.81c.85.1,1.29-1.02,1.94-1.61h.35c.29.6.71.29,1.06.4.14.05.22.38.35.4.47.1,1.08-.07,1.59,0v1.21h1.06c-.07-1.82,1.51-.76,2.29-1.61l1.76,1.61c.4-.7,1.13-.28,1.76-.4,1.64-.31,4.17-.15,6.34.4.42.11,2.33.53,2.82.4,1.61-.42,2.98-.52,4.93,0,1.09.29,2.17-1.15,3.88-.81,1.28.26,1.73,1.84,3.52.81,1.56,1.02,3.37.57,4.93.4,1.02-.11,2.14.08,3.17,0l.53,1.21c.53.22.81-.4.88-.4.11,0,.21.35.35.4.7.23.96-.38,1.06-.4.81-.17,1.97-.08,2.64.4v-.81c.72-.13.82.74,1.23,0l1.76,1.21,1.06-.81,1.06.4c.68-1.18,1.69-.76,2.82-.81.54.36.54,1.33,1.06,1.61.82.44.44-1.11.53-1.21.69-.28.98.3,1.23.4.46.18.98-.08,1.41.81l1.41-1.21,1.06.4c1-1.3,2.55-.34,3.52-1.21h.35c.59,1.2,1.39.58,2.11.81.19.06.51.74.7.81,1.19.39,2.17.75,3.17.4.32-.11.73.13,1.41,0,1.6-.3,3.68.25,4.93,0,1.2-.24,1.54.66,2.11.81.51.13,1.23-.11,1.76,0,.1.02.36.63,1.06.4.2-.06.51-.74.7-.81.91-.29,2.01,1.19,3.88.81.1-.02.37-.64,1.06-.4.17.45.61.34.7.4.51.37.85,1.82,1.41,2.01.24.08.77.14.88-.2.19-.6.35-1.36.88-1.81.51.56,2.11,1.07,2.29,1.81.14.57-.09,1.56,0,2.22.69.08.23-.92.35-1.41.22-.88,1.55-1.16,2.29-1.01.46.1,1.16.7,2.11.4.19-.06.51-.74.7-.81.34-.11,1.68-.06,2.11,0,.13.02.22.37.35.4.43.09,1.04-.12,1.41,0,.11.04,1.02,1.11,1.41,1.21,1.14.28,1.91.19,2.82,0,1.13-.24,2.7.93,3.88,1.21.43.1,2.64.46,2.82.4.3-.09.53-1.11,1.41-.81.19.06.3.62.88.4v.81c.92.4,2.51-.57,3-.4.15.05.22.38.35.4.54.11,2.52-.14,2.64,0-.1.77.39,1.32,1.06,1.21v-.81l1.59-.4c.65.67,1.43.93,2.29.81v.81l1.23-.81.7.81,1.06-.4,2.64,2.22c-.15,1.21.21,2.92,0,4.03-.06.34-.89,1.9-1.06,2.42-.15.45-.27,1.48-.35,2.01-.23.55-.7.49-.88.6-1.23.78-2.34,1.26-3.52,2.01h-.35c-.71-1.11-1.79.23-2.47,0-1.58-.55-12.78-1.05-14.8-.81-2.59.32-5.58.37-8.46-.4-.68-.18-1.93.37-2.47.81l-1.06-.81c-2.22.6-4.25.79-6.7,0-2.21-.72-1.94-.79-4.23-.4-1.7.29-2.92-.83-4.58-.4-1.46.37-5.6-.54-5.99-.4-3.05,1.06-5.17-.43-7.75,0-2.09.35-5.01-.63-7.05-.81-.2.18-.97.78-1.06.81-2.05.51-3.57-1.61-5.99-.81-3.07,1.02-4.27-.8-7.05-.4-.13.02-.22.38-.35.4-5.18,1.05-11.64-1.09-17.27-.4-5.96.73-13.46-1.55-20.44-.81-1.99.21-4.86.37-6.7,0-2.24-.46-5.74-.32-7.4,0-.8.15-2.62-.23-3.52-.4-.93-.18-1.41-.37-2.82,0-1.98.52-3.56-.7-5.64-.4-1.56.22-1.36.16-2.82,0-3.22-.34-8.48.69-11.28,0-.84-.21-1.15-1.15-2.82-.81-1.04.21-2.5.6-3.88.4-2.38-.34-5.97-.84-8.11-.4-1.6.33-3.5-.82-5.29-.4-3.83.89-7.19-.62-10.93,0-1.05.18-5.89.57-7.05.4-5.24-.75-11.26-.91-16.56-1.21-2.1-.12-4.3.33-6.17-.4v.81c-.99-.27-1.74.64-2.64.4-.14-.04-.22-.38-.35-.4-1.43-.24-3.06.54-4.23-.81-1.11,1.08-3.21.08-4.23,0-3.04-.24-6.01,1.02-8.46.4-4.91-1.23-11,.49-15.86-.81-.76-.2-1.53.25-2.11.81h-.7c-2.37-.82-11.95-.67-14.45,0-.22.06-.84.06-1.06,0-4.75-1.27-10.29.36-14.8-1.21l-1.76.81c-1.55-.54-4.95-.78-6.34-.4-3.06.84-5.18-.43-7.75,0-2.08.35-3.67-.51-6.34,0-1.44.27-3-.18-4.58-.4-1.82-.26-3.3,1.05-4.23.81-.95-.26-5.18-.97-5.99-.81-.1.02-.37.64-1.06.4-2.22-.77-2.63.73-4.93.4-1.86-.27-3.42-1.08-5.64-.81-3.17.39-6.81.09-10.22.81-.98.2-1.51-.37-1.76-.4-2.67-.38-5.4,1.44-7.75-.4h-.35c-5.51,1.82-11.73-.35-17.27.81-.3.06-1.13.07-1.41,0-3.11-.8-7.25.22-10.93-.4-2.23-.38-4.56,1.21-7.4.81-1.23-.17-2.35-.21-3.52-.4-1.42-.24-5.76.99-6.34.81-2.31-.73-6.36-.77-8.46,0-.78.29-3.36.7-4.58.4-.12-.03-.99-.8-1.06-.81-.08,0-.52.93-1.06,0-.27.32-.48.3-.35.81.38,1.48,1.96,1.28,1.94,2.82h1.06l-.7-1.21h.7v-.81c1.09-.22,2.1.33,2.11,1.61h.7v.6l.88.6c.78.16.52-.39.53-1.01.01-.6,0-1.21,0-1.81h1.23l1.23,1.81c-.56.31-.11.91.18,1.01.62.21.87.22.88-.6,0-.9-.59-1.23.18-1.81l1.59,1.21v-.81h.7l.35-.81c-.19,1.16.26.62.53.81.79.54,1.02,1.4.88,2.42l1.23-2.01c.44.55.71.97,1.41.81l.18,1.21.7-2.01,1.06,1.61v-1.61l2.11.4c.06.84-.41,1.88.7,1.61l.18-2.42c.42.53,1.02.84.88,1.61l1.23-.4.18,1.61.35-2.02c1.28-.19,1.87.06,2.64,1.21l.53-1.21.88.4.7-.4c.68.52.55,1.18.53,2.02.97.2.72-.34.7-1.21l.88-.4c.81.66.28,2.16,1.59,2.02v-2.02l1.06.4.35-.81.35,2.42.88-1.61,1.06,2.01c1.14-.88-.66-2.22.88-2.82.02.31-.17.66.18.81.53.22,1.19.4,1.59,1.01l-.7.2c-.09.49.17,1.01.53,1.21.83.48.46-1.39.53-1.81.03-.16.55-.36.35-1.01,1.76-.28,2.35.92,2.11,2.82,1.35.45.41-2.08.7-2.42.41-.03.68-.07,1.06.2.99.69.39,2.29,1.76,2.22l-.35-2.42,1.23-.4,1.06.81.35-.4.88,2.01.53-.4,1.06.4.53-.6v-1.01h3l1.41,2.42c.38-.04.09-.69.18-1.01.06-.24.71-.69.88-1.01l.35.4,1.06-.81c.54.44.61.87.53,1.61.14.2.93-.71.7-1.21l2.29,1.21.35-.4,1.23.4v.81l.53-.4.88.81v-1.21h.7c.08-.1-.29-1.65.53-1.21,1.17.63,1.68,1.79,1.94,3.22,1.34.07.89-1.03,1.06-1.81.05-.22.62-.68.35-1.41,1.36-.22,2.03,1.57,3,2.42l-.18-1.41.88-1.01,2.64,1.21v-.81c.7-.14.82.74,1.23,0l.88.6-.35.4.53.6.53-.4.53,1.21.18-1.21,1.76-.4.35.81c-.19-.94.32-1.92,1.23-1.61.38.13,1.21,2.2,1.23,2.82,1.14.07,1.14-.98,1.06-2.01l1.41-.81c-.14.77.46,1.08.88,1.61l1.76-.81c.29.6.7.29,1.06.4.27.08.25.76.7,0,.25.45,1.1.49,1.23,1.01.12.44-.14,1.03.53,1.41.63.36.62-.63.53-1.01-.07-.26-.61-.67-.35-1.41.57-.25,1.62.47,1.76,1.01.11.4-.29,1.12.35,1.01l.53-1.21,1.06.81c.87-.74.25-.68.18-1.01-.2-.89,1.31-1.41,1.41-.81v.6c.17-.03.38.07.53,0,.24-.12.37-.63,1.06-.4.44.14.92,1.71,1.94,1.21-.03-.51.2-.94.35-1.41.12-.4.43-.18.7-.2l.18.81.35-.4c.5.8,1.38,1.7,1.23,2.82l.7-1.01v-1.01l.88-.4,2.11,2.01c.83.47.29-1.37,1.06-1.61.29-.09.72.06,1.06,0l1.94,1.21.53-1.21.35.4,1.23-.4c0,.7-.17,2.18.53,2.42.18.06.88.14.88-.2v-2.01c0-.34.7-.26.88-.2.8.27.22,1.96,1.06,2.42.79.44.36-1.42,1.06-1.61l.53,1.01.7.6c-.28-.7.36-1.34.35-1.41,0-.11-.55-.38-.35-1.01l.53.4,1.76-.81,1.59,1.41c-.05.79-.09,1.34.53,1.81.38-.04.09-.69.18-1.01.02-.07.82-.99.88-1.01.22-.07.5.08.7,0,.28-.1.4-.78,1.23-.2.48.34.36.86.35,1.41.71-.21.79-.86.7-1.61l3.52,1.21.18-1.21.53,1.21,1.41-.4v1.61l1.41-.4-.35-1.21.88-.4,1.06.81.18,1.61c1.26.33.54-1.58.7-2.42l1.06,2.42c1.07-.37.39-.68.35-1.01-.05-.45.03-.95,0-1.41l1.76.4c-.08.74-.01,1.17.53,1.61l.7-1.21.53.4.7-.81v2.02c.79-.22.62-.77.7-1.41.05-.35-.18-.97.18-1.01l1.23.4v.6c.53.39.21,1.57.88,1.81.83.31.78-1.03.88-1.41.02-.08.82-.99.88-1.01l2.11,1.21,1.06-.81.53,1.61.35-.81c.7-.14.82.74,1.23,0l.88.6v1.01h1.06v-2.01l1.41.4v1.41l.7.2.53-1.21,1.23.4v-1.61c1.08.02,1.99-.32,2.64.81l.7-.81c.52.89,1.74.82,1.59,2.02l1.06-.4v-.81l.53.4,1.23-.4v2.02c.97.24.56-.59,1.23-1.21.31-.28.35-.55.88-.4l.35,2.02c1.16.29.6-.97.7-1.81.15-1.2.87-1.05,1.76-1.01-.08,1.02.56,1.36,1.41,1.21v1.61l.7-.81,1.41.4c-.11-1.17,1.23-1.67,2.11-1.61v1.21l1.23-1.61c.72.75,1,1.76.88,2.82.41.02.68.07,1.06-.2.42-.3.4-1.92,1.23-2.22.49-.17,1.42,1.06,1.23,1.61l2.11-.4v-1.21l1.23.81.18,1.21,1.23-1.61c.46-.15.58.69,1.23,0-.03.39.04.82,0,1.21l-1.06.6c.64.98.94.45,1.06-.6ZM37.53,6.04c-.23,0-.23.4,0,.4s.23-.4,0-.4ZM564.07,18.54c-.23,0-.23.4,0,.4s.23-.4,0-.4ZM620.99,20.15v-1.21h-.35v1.21h.35ZM686.54,19.75v-.81h-.35v.81h.35ZM545.22,20.15v-.81h-.35v.81h.35ZM568.13,20.15v-.81h-.35v.81h.35ZM598.26,19.34c-.23,0-.23.4,0,.4s.23-.4,0-.4ZM623.1,20.15v-.81h-.35v.81h.35ZM507.15,20.96v-.6l-.53-.6-.53.6v.6h1.06ZM516.49,19.75c-.23,0-.23.4,0,.4s.23-.4,0-.4ZM536.76,19.75h-.7v.81h.7v-.81ZM566.19,19.75c-.23,0-.23.4,0,.4s.23-.4,0-.4ZM611.12,20.55v-.81h-.35v.81h.35ZM628.74,20.55v-.81h-.35v.81h.35ZM473.32,21.36v-1.21h-.35v1.21h.35ZM675.79,20.15c-.23,0-.23.4,0,.4s.23-.4,0-.4ZM683.37,21.36v-1.21h-.35v1.21h.35ZM381.51,21.76c-.23,0-.23.4,0,.4s.23-.4,0-.4ZM384.33,23.37l-.18.2.88,1.01.18-.2-.88-1.01ZM383.1,24.99v-.81h-.35v.81h.35ZM429.62,32.24c-.4-.05-.86.07-1.23,0-.14-.03-.23-.39-.35-.4-.06,0-.62.72-1.23.4l.35,1.41c.54.42.19,1.5.88,1.81.78.36,1.06-1.48.88-2.02l.7.4v-1.61ZM418.34,32.24h-.7v.4h.7v-.4ZM395.96,32.64c-.23,0-.23.4,0,.4s.23-.4,0-.4ZM415.17,32.64c-.53-.13-.73.18-1.06.6v1.01h1.06v-1.61ZM419.75,32.64h-.7v.4h.7v-.4ZM425.04,35.87c1.72-1.32.3-3.75-1.41-3.22v1.21h1.06l.35,2.02ZM408.65,33.05l-.18.2.53.6.18-.2-.53-.6ZM422.57,33.05h-1.06l.88,2.01.18-2.01ZM402.3,33.45c-.23,0-.23.4,0,.4s.23-.4,0-.4ZM412.35,33.45h-.7v.81h.7v-.81ZM419.4,34.66v-1.21h-.35v1.21h.35ZM420.98,34.25c-.23,0-.23.4,0,.4s.23-.4,0-.4ZM443.36,36.67v-1.61h-.35l-.35,1.61h.7ZM456.05,37.48v-.81h-.35v.81h.35ZM488.12,39.09v-.81h-.35v.81h.35ZM505.74,38.69h-.7v.81l.7-.81ZM529,40.3v-.81h-.35v.81h.35ZM561.96,41.51c-.23,0-.23.4,0,.4s.23-.4,0-.4ZM581.69,41.91c-.23,0-.23.4,0,.4s.23-.4,0-.4ZM720.55,47.96c-.23,0-.23.4,0,.4s.23-.4,0-.4ZM736.41,49.97l-.53.6v1.21l.53.6.53-.6v-1.21l-.53-.6ZM731.13,51.58c-.23,0-.23.4,0,.4s.23-.4,0-.4ZM376.4,70.12h-.7v.4h.7v-.4ZM380.1,70.52c-.23,0-.23.4,0,.4s.23-.4,0-.4ZM315.78,74.15h-.7v.4h.7v-.4ZM294.46,74.55c-.23,0-.23.4,0,.4s.23-.4,0-.4Z"/>
      <path d="M41.23,56.42v.81l1.41-.4v1.21c-.39.05-.87-.08-1.23,0-.11.03-.37.64-1.06.4-.16-.06-.24-.55-.7-.4-.45.14-.7.86-1.59,0v.81c-.71.07-1.51-.28-1.94.4l-2.29-1.21.7,1.21c-.58.21-.79-.55-1.23-.4-.14.05-.22.37-.35.4-.91.23-2.35-.16-3.35,0-.48-.46-.04-.77.53-.81,1.02-.06,2.16-.18,3,.4v-.81c.57.22.74-.38.88-.4.84-.17,1.95.14,2.82,0,.18-.03,1.66-.81,1.76-.81.09,0,.9.76,1.59.4v-.81h1.06Z"/>
      <path d="M775.36,45.94c.03-.26-.01-.54,0-.81l1.41.4-.53,1.21c-.27-.35-.49-.61-.88-.81-.03.26.01.54,0,.81l-.88-.4-.7.81-.88-.81v.81h-3.52v-1.61c.71-.07,1.51.28,1.94-.4l1.76.81c.32-.49,1.85-.22,2.29,0Z"/>
      <path d="M25.73,4.03l.18,1.21c.72-.82,1.82.08,2.47-1.21l.53,1.61c-.62.08-1.35-.11-1.94,0-.13.03-.23.4-.35.4s-.22-.38-.35-.4c-.37-.07-.84.05-1.23,0l.7-1.61Z"/>
      <path d="M795.45,45.94c-.92.11-1.73-.47-2.29-1.21l-.35,1.21-.88-1.21,1.23-.81.35.4,1.06-.4.88,2.01Z"/>
      <path d="M24.32,59.64v.81c.25.28,2.03-1.39,1.76.4-.86-.17-1.45.67-2.29.4-.2-.06-.61-.81-.88-1.01l1.41-.6Z"/>
      <path d="M9.16.81l-.35,1.21c-.79-.03-1.59.29-2.11-.6l.88-.2-.18-1.21,1.76.81Z"/>
      <polygon points="27.84 60.45 27.49 58.84 29.6 59.84 28.37 60.05 27.84 60.45"/>
      <path d="M21.15,60.05c.13.76-.56.12-.7.6-.26.91-.39,1.14-1.41,1.01l2.11-1.61Z"/>
      <path d="M23.61,3.63v1.21h-1.76c.34-.88.93-1.4,1.76-1.21Z"/>
      <polygon points="789.1 45.54 788.22 45.94 786.99 44.73 788.57 44.73 789.1 45.54"/>
      <path d="M781.7,45.54v.81c-.76.03-1.32.16-1.76-.6l.88-.6.88.4Z"/>
      <path d="M784.52,44.73l-.7.4v1.21c-.71.05-.75-.61-1.41,0v-1.21l2.11-.4Z"/>
      <polygon points="805.67 57.22 806.72 57.83 806.19 58.84 805.67 58.23 805.67 57.22"/>
      <path d="M14.8,2.82v.81l-1.76-.4v-.81c.76-.22,1.11.45,1.76.4Z"/>
      <path d="M391.91,20.96v1.21c-.67.12-1.16-.44-1.06-1.21h1.06Z"/>
      <polygon points="760.91 51.58 760.55 50.37 761.44 50.37 761.96 50.98 760.91 51.58"/>
      <polygon points="409.35 19.75 409.88 20.35 409.35 21.36 408.82 20.35 409.35 19.75"/>
      <polygon points="17.62 4.03 17.62 4.43 15.86 4.03 15.86 3.22 17.62 4.03"/>
      <path d="M18.68,61.25v.81l-.53-.4c-.57.75-1.05.59-.88-.4h1.41Z"/>
      <polygon points="790.51 45.94 789.45 45.94 789.45 45.34 789.98 44.73 790.51 45.34 790.51 45.94"/>
      <path d="M778.53,46.34h-.53c-1.05-.79.16-1.66.53-.6v.6Z"/>
      <path d="M22.56,61.66h-1.76v-.4c.52.02.93.13,1.23-.4l.53.81Z"/>
      <polygon points="9.87 62.87 8.46 63.27 8.63 63.67 8.11 63.47 9.87 62.87"/>
      <path d="M3.88,65.69c-.66.1-1.22,0-1.41-.81.66-.1,1.22,0,1.41.81Z"/>
      <polygon points="702.4 46.34 702.4 47.15 701.87 47.15 701.35 46.55 701.35 46.34 702.4 46.34"/>
      <polygon points="15.86 62.06 15.86 62.87 15.33 62.87 14.8 62.26 14.8 62.06 15.86 62.06"/>
      <polygon points="5.99 64.88 4.58 64.48 4.58 64.08 5.46 64.08 5.99 64.88"/>
      <path d="M14.45,61.66l-.53.81c-.25-.4-.45-.48-.88-.4v-.4h1.41Z"/>
      <rect x="8.81" y="2.42" width="1.06" height=".4"/>
      <rect x="681.26" y="44.33" width=".35" height="1.21"/>
      <rect x="20.44" y="3.22" width="1.06" height=".4"/>
      <rect y="66.49" width="1.06" height=".4"/>
      <polygon points="19.03 4.03 19.03 4.84 18.86 4.84 18.33 4.03 19.03 4.03"/>
      <rect x="10.93" y="62.06" width=".7" height=".4"/>
      <rect x="754.21" y="50.78" width=".35" height=".81"/>
      <rect x="699.23" y="47.55" width=".35" height=".81"/>
      <rect x="778.88" y="45.94" width=".7" height=".4"/>
      <rect x="459.22" y="18.94" width=".35" height=".81"/>
      <rect x="484.25" y="17.73" width=".35" height=".81"/>
      <rect x="550.15" y="15.72" width=".35" height=".81"/>
      <rect x="29.25" y="5.64" width=".35" height=".81"/>
      <rect x="20.44" y="4.43" width=".35" height=".81"/>
      <path d="M1.94,65.28c.23,0,.23.4,0,.4s-.23-.4,0-.4Z"/>
      <polygon points="785.05 45.13 785.58 45.74 785.4 45.94 784.87 45.34 785.05 45.13"/>
      <path d="M786.11,45.13c.23,0,.23.4,0,.4s-.23-.4,0-.4Z"/>
      <path d="M419.57,20.55c.23,0,.23.4,0,.4s-.23-.4,0-.4Z"/>
      <path d="M.88,65.69c.23,0,.23.4,0,.4s-.23-.4,0-.4Z"/>
      <path d="M800.91,57.22c.23,0,.23.4,0,.4s-.23-.4,0-.4Z"/>
      <path d="M411.82,67.3c.23,0,.23.4,0,.4s-.23-.4,0-.4Z"/>
      <path d="M791.04,54.81c.23,0,.23.4,0,.4s-.23-.4,0-.4Z"/>
      <path d="M678.97,16.12c.23,0,.23.4,0,.4s-.23-.4,0-.4Z"/>
      <path d="M6.87,63.27c.23,0,.23.4,0,.4s-.23-.4,0-.4Z"/>
      <path d="M15.33,3.22c.23,0,.23.4,0,.4s-.23-.4,0-.4Z"/>
      <path d="M11.81,1.61c.23,0,.23.4,0,.4s-.23-.4,0-.4Z"/>
      <path d="M804.43,57.63c.23,0,.23.4,0,.4s-.23-.4,0-.4Z"/>
    </g>
  </g>
</svg>