<?xml version="1.0" encoding="UTF-8"?>
<svg id="Layer_2" data-name="Layer 2" xmlns="http://www.w3.org/2000/svg" viewBox="0 0 523.73 611.84">
  <defs>
    <style>
      .cls-1 {
        fill: #262626;
      }
    </style>
  </defs>
  <g id="objects">
    <path class="cls-1" d="M484.16,394.44c-21.13-30.77-48.56-56.89-80.68-75.99-6.64-3.95-13.49-7.5-20.44-10.86,31.32-26.98,53.6-63.99,60.07-106.19,1.4-9.15,2.01-18.39,2.05-27.65-.32-73.53-48.58-140.32-118.2-164.02-72.9-24.82-158.65-.96-208,58.21-47.54,57.01-53.9,140.6-14.29,203.6,9.65,15.36,21.59,29.05,35.28,40.67C74.23,345.48,23.33,405.25,3.87,476.72c-4.76,17.47-5.67,35.31.34,52.62,5.86,16.87,17.49,31.86,32.52,41.52,11.56,7.43,25.18,11.93,38.17,16.19,14.25,4.67,28.77,8.48,43.43,11.61,40.06,8.55,80.97,12.34,121.89,13.05,44.04.76,88.26-1.55,131.73-8.93,30.6-5.2,61-12.8,89.91-24.18,16.95-6.67,32.66-15.89,44.03-30.45,11.04-14.14,17.22-31.07,17.8-49.01.59-18.43-5.9-37-12.56-53.94-7.03-17.87-16.1-34.93-26.97-50.76ZM127.21,88.2c16.43-27.02,41.39-50.26,69.48-62.89,15.25-6.86,28.37-10.38,45.12-12.13,15.8-1.65,33.1-.35,49.08,3.18,66.07,14.59,117.1,71.62,127.28,137.98,1.33,8.65,1.95,17.37,1.98,26.11-.29,67.05-42.52,130.71-105.24,153.26-13.23,4.76-29.03,7.67-45,7.96-16.57.29-33.2-2.07-49.03-7.01-31.66-9.87-59.69-29.22-80.5-55.02-43.29-53.68-49.13-132.33-13.17-191.44ZM495.15,525.87c-4.95,15.66-14.78,29.62-28.49,38.79-9.98,6.67-22.44,10.28-33.77,13.95,2.7-.87-1.58.49-2.22.68-1.52.47-3.03.92-4.56,1.37-3.37.99-6.74,1.94-10.14,2.84-3.57.95-7.16,1.86-10.76,2.72-1.76.42-3.52.83-5.28,1.23-1.83.42-4.03.89-4.13.91-37.54,7.89-75.84,11.31-114.16,12-41,.74-82.2-1.57-122.68-8.32-27.64-4.61-55.05-11.55-81.19-21.7-14.77-5.74-27.67-13.93-37.41-26.69-10.28-13.48-15.62-30.68-15.52-47.57.11-17.6,6.85-35.68,13.38-51.8,6.67-16.49,15.05-32.4,25.11-47.07,19.95-29.1,46.03-54.18,76.34-72.32,3.13-1.87,6.34-3.62,9.56-5.34,10.89,8.06,22.72,14.89,35.3,20.27,35.93,15.38,76.17,17.91,114.19,9.75,24.57-5.27,47.73-15.45,68.08-29.48,61.38,31.57,108.1,88.35,127.12,154.81,4.87,17.02,6.65,33.8,1.23,50.95Z"/>
  </g>
</svg>