<?xml version="1.0" encoding="UTF-8"?>
<svg id="Layer_2" data-name="Layer 2" xmlns="http://www.w3.org/2000/svg" viewBox="0 0 87.93 88.01">
  <g id="_800x800" data-name="800x800">
    <g>
      <path d="M77.01,13.94C68.17,4.29,55.28-.42,42.33.03,24.66,1.3,9.61,12.4,3.9,29.3c-2.56,7.6-3,15.91-1.1,23.72,1.33,5.47,4.87,9.83,3.39,15.51,0,.03-.01.05-.02.08-.43,1.64-.91,3.34-1.42,5.05-1.3,4.3-2.85,8.67-4.62,12.57-.19.41-.18.88.16,1.21.09.09.18.18.28.28.24.24.64.37.97.26,6.47-2.23,13.48-5.3,20.21-6.51,3.72-.67,6.6,1.21,10.05,2.3,3.05.97,6.2,1.58,9.39,1.85,12.6,1.07,25.42-3.47,34.38-12.45,15.82-15.86,16.65-42.67,1.46-59.23ZM65.33,78.43c-9.47,5.35-20.9,6.75-31.38,3.89-3.07-.84-6.8-3.72-9.91-3.62-4.28.14-9.67,3.01-13.78,4.31-2.02.64-4.49,1.05-6.37,2.04-1.48.78-1.97,2.11-1.09-.23,1.82-4.87,3.34-9.88,5.01-14.8,1.42-4.22,2.05-5.16.16-8.96-2.45-4.92-3.97-10.08-4.28-15.59C2.41,22.75,19.85,3.65,42.33,2.03c18.95-.65,36.85,10.63,42.15,29.29,5.11,18.01-2.79,37.87-19.15,47.11Z"/>
      <path d="M61.09,75.3c13.87-6.82,22.14-22.09,20.05-37.44-1.96-14.36-12.87-26.53-26.89-30.2-15.36-4.02-31.81,2.53-40.33,15.86-4.68,7.33-6.49,16.18-5.19,24.78.7,4.58,2.46,8.31,4.37,12.45,2.37,5.14-.75,10.43-2.43,15.57-.15.47.04.84.36,1.04.21.19.51.29.87.19,4.14-1.21,8.77-3.7,13.07-3.36,4.5.36,8.99,3.57,13.64,4.38,7.61,1.32,15.55.14,22.48-3.26ZM31.07,73.95c-2.16-1.2-4.39-2.54-6.68-2.45-3.48.15-7.57,2.17-11.16,3.49.48-1.43.95-2.87,1.44-4.3.6-1.77,2.19-4.57,2.17-6.43-.02-2.68-2.28-4.9-3.43-7.28-.03-.07-.08-.14-.11-.22,0,0,0-.01,0-.01-.63-1.39-1.14-2.81-1.57-4.25-.11-.36-.2-.71-.3-1.07-.62-2.37-.97-4.79-1.07-7.22-.01-.35-.03-.71-.03-1.06-.03-3.77.56-7.54,1.75-11.13.06-.18.12-.36.18-.53.7-1.98,1.58-3.91,2.64-5.74.09-.16.18-.33.27-.49.6-.99,1.25-1.93,1.93-2.84,1.99-2.65,4.32-4.93,6.88-6.83,6.53-4.85,14.57-7.22,22.56-6.9,3.15.13,6.29.67,9.32,1.65,3.01.97,5.91,2.36,8.61,4.2,1.3.88,2.54,1.87,3.73,2.96.32.29.65.58.96.89.47.46.93.94,1.36,1.42,1.78,1.97,3.29,4.09,4.52,6.33.09.16.16.32.25.47.74,1.39,1.37,2.82,1.9,4.27.22.6.42,1.2.6,1.81.41,1.36.73,2.73.97,4.12.07.4.13.81.18,1.21.44,3.26.42,6.57-.06,9.81-.03.22-.07.43-.11.65-.25,1.51-.59,3.02-1.04,4.49-.25.82-.54,1.63-.86,2.44-.78,2.01-1.75,3.96-2.91,5.8-.16.26-.33.51-.5.76-2.29,3.42-5.23,6.48-8.84,8.97-6.19,4.27-13.71,6.39-21.16,6.11-.44-.02-.87-.04-1.3-.07-1.81-.14-3.61-.42-5.38-.85-.91-.22-1.82-.46-2.71-.76-.99-.33-1.99-.86-3-1.42Z"/>
      <path d="M67.17,52.22c-.08-.17-.18-.33-.3-.48,0,0,0,0,0,0-1.23-1.63-4.32-2.37-5.95-3.13-1.84-.87-3.94-2.53-6.01-1.58-.75.34-1.3,1.41-1.82,2.02-.62.78-1.25,1.55-1.89,2.31-1.78.24-3.38-.13-4.8-1.12-2.47-1.09-4.68-3.11-6.5-5.08-2.96-3.19-3.38-4.7-1.5-8.57.87-1.79,1.13-2.3.56-4.23-1.44-4.85-3.5-10.8-9.58-9.42-4.53,1.68-6.46,7.41-6.01,11.86.67,6.61,5.82,12.74,10.29,17.33,1.09,1.12,2.46,2.34,4.01,3.55.22.18.45.35.68.53,3.06,2.3,6.77,4.52,10.56,5.92.1.04.2.07.29.11,6.04,2.17,12.23,2.25,16.26-2.73.33-.4.65-.92.95-1.5.27-.54.51-1.13.7-1.74.44-1.41.58-2.91.06-4.03ZM59.59,61.02c-1.74.59-3.72.59-5.5.22-4.94-1-10.04-3.4-14.16-6.3-4.71-3.31-8.74-8.16-11.76-13.02-2.81-4.53-5.18-14.51,1.73-17.08,1.99-.45,5.4,3.8,6.05,5.44.23.58.79,1.45.84,2.08.25,3.07-2.24,4.34-2.66,6.84-.44,2.55,2.77,5.66,4.35,7.35,2.62,2.82,7.06,6.63,10.96,7.26,3.54.57,3.34-3.28,5.98-4.54,1.25-.6,3.35.59,4.49,1.04,2.47.98,3.75,1.46,5.42,3.21,1.04.83-.67,2.58-1.76,4.44-.88,1.56-2.21,2.58-3.98,3.05Z"/>
    </g>
  </g>
</svg>