<svg height="512" viewBox="0 0 256 256" width="512" xmlns="http://www.w3.org/2000/svg"><g id="Layer_2"><g><g><path d="m115.263 160.764c-7.143-1.429-12.876-.24-17.116 1.608-5.592 2.438-11.992 2.438-17.584 0-4.239-1.848-9.973-3.036-17.116-1.608-16.897 3.379-25.908 20.276-25.908 38.299s12.391 42.805 51.816 42.805 51.816-24.782 51.816-42.805-9.012-34.919-25.908-38.299z" fill="#fc657e"/></g><g><path d="m229.165 174.936c-4.495-17.453-17.436-31.568-34.642-30.627-7.273.398-12.529 2.979-16.174 5.826-4.808 3.755-11.005 5.352-17.029 4.386-4.566-.732-10.415-.453-16.976 2.712-5.941 2.866-10.263 7.365-13.091 12.803 6.521 7.348 9.916 17.973 9.916 29.027 0 5.627-1.208 11.913-4.07 17.898 9.37 11.269 26.194 19.142 52.561 12.351 38.182-9.833 44-36.922 39.505-54.376z" fill="#ef4460"/></g><g><path d="m114.152 31.148c-4.834 1.95-6.787 7.786-4.146 12.279 7.278 12.378 24.704 33.981 57.447 33.334 21.986-.434 34.696 1.192 41.97 3.002 3.145.782 5.635-2.64 3.897-5.375-12.846-20.218-47.748-63.984-99.168-43.24z" fill="#87d147"/></g><g><path d="m214.013 249.525c-3.1-.6-5.6-3-6.2-6.1 0-.1-.3-.1-.3 0-.6 3.1-3.1 5.5-6.2 6.1-.1 0-.1.2 0 .3 3.1.6 5.6 3 6.2 6.1 0 .1.3.1.3 0 .6-3.1 3.1-5.5 6.2-6.1.1-.1.1-.3 0-.3z" fill="#f5c84c"/></g><g><path d="m196.013 112.5h2.3v2.3c0 1.8 1.4 3.2 3.2 3.2 1.7 0 3.2-1.4 3.2-3.1v-.1-2.3h2.3c1.8 0 3.2-1.4 3.2-3.2 0-1.7-1.4-3.2-3.1-3.2h-.1-2.3v-2.3c0-1.8-1.4-3.2-3.2-3.2-1.7 0-3.2 1.4-3.2 3.1v.1 2.3h-2.3c-1.8 0-3.2 1.4-3.2 3.2-.1 1.7 1.3 3.2 3.2 3.2-.1 0-.1 0 0 0z" fill="#fc657e"/></g><g><circle cx="47.413" cy="127.9" fill="#70d6f9" r="3.4"/></g><g><circle cx="201.413" cy="25.4" fill="#87d147" r="3.4"/></g><g><path d="m37.813 63.75c4.5-.8 8-4.3 8.9-8.7 0-.2.4-.2.4 0 .9 4.4 4.4 7.9 8.9 8.7.2 0 .2.3 0 .4-4.5.8-8 4.3-8.9 8.7 0 .2-.4.2-.4 0-.9-4.4-4.4-7.9-8.9-8.7-.2-.1-.2-.4 0-.4z" fill="#f5c84c"/></g><g><path d="m89.354 244.368c-18.223 0-32.92-5.333-42.505-15.422-7.506-7.901-11.811-18.793-11.811-29.883 0-21.034 11.219-37.411 27.917-40.75 6.619-1.323 12.878-.729 18.605 1.768 4.953 2.159 10.634 2.159 15.586 0 5.725-2.496 11.985-3.09 18.605-1.768 16.698 3.34 27.917 19.716 27.917 40.75 0 11.09-4.305 21.982-11.811 29.883-9.582 10.089-24.28 15.422-42.503 15.422zm-19.689-81.738c-1.864 0-3.775.195-5.728.585-16.508 3.302-23.898 20.383-23.898 35.847 0 4.125 1.384 40.305 49.316 40.305s49.316-36.179 49.316-40.305c0-15.464-7.39-32.545-23.898-35.847-5.598-1.12-10.854-.632-15.626 1.448-6.223 2.713-13.36 2.713-19.583 0-3.107-1.353-6.421-2.033-9.899-2.033z"/></g><g><path d="m171.225 234.273c-12.149 0-25.842-3.441-36.046-15.714-.624-.75-.754-1.796-.333-2.676 3.161-6.612 3.825-12.796 3.825-16.82 0-10.743-3.385-20.718-9.286-27.368-.688-.774-.826-1.893-.348-2.813 3.242-6.236 8.027-10.913 14.223-13.901 6.079-2.932 12.288-3.919 18.458-2.928 5.333.853 10.836-.562 15.094-3.888 4.923-3.846 10.836-5.983 17.576-6.352 16.999-.929 31.953 12.13 37.199 32.5 2.766 10.739 1.313 22.36-3.984 31.884-6.766 12.161-19.669 20.991-37.315 25.536-5.084 1.309-11.798 2.54-19.063 2.54zm-31.185-17.736c10.862 12.034 28.186 15.714 48.999 10.354 46.417-11.956 38.734-47.336 37.705-51.331-3.857-14.976-15.295-29.67-32.084-28.754-5.7.313-10.669 2.096-14.771 5.3-5.35 4.179-12.263 5.958-18.964 4.884-5.138-.823-10.354.015-15.494 2.495-4.714 2.274-8.46 5.721-11.155 10.26 5.989 7.501 9.395 18.072 9.395 29.318-.001 5.964-1.252 11.97-3.631 17.474z"/></g><g><path d="m88.963 164.752c-1.13 0-2.155-.771-2.429-1.919-12.863-53.759-1.636-87.17 12.412-115.268 14.237-28.475 16.632-45.233 16.655-45.399.185-1.367 1.442-2.326 2.811-2.143 1.367.184 2.327 1.439 2.145 2.807-.094.707-2.477 17.647-17.139 46.972-13.625 27.251-24.512 59.665-12.022 111.868.321 1.343-.506 2.691-1.85 3.013-.194.047-.39.069-.583.069z"/></g><g><path d="m170.46 155.38c-.896 0-1.763-.483-2.211-1.331-.101-.19-10.342-19.396-32.491-50.407-22.539-31.554-31.458-65.567-31.545-65.907-.344-1.337.46-2.699 1.797-3.044 1.339-.344 2.701.461 3.044 1.797.085.331 8.795 33.48 30.772 64.248 22.367 31.314 32.74 50.78 32.842 50.973.646 1.22.181 2.733-1.04 3.379-.373.198-.774.292-1.168.292z"/></g><g><path d="m210.314 82.373c-.496 0-.997-.061-1.495-.185-6.362-1.583-18.692-3.376-41.316-2.928-33.809.66-51.893-21.37-59.652-34.566-1.634-2.78-1.975-6.13-.933-9.191 1.036-3.044 3.332-5.476 6.299-6.673 23.061-9.303 45.383-7.123 66.345 6.481 16.723 10.853 28.736 26.512 35.869 37.737 1.34 2.108 1.265 4.776-.191 6.797-1.164 1.615-2.998 2.528-4.926 2.528zm-35.806-8.184c15.184 0 27.108 1.055 35.519 3.147.634.159.996-.192 1.156-.415.156-.216.367-.659.028-1.193-12.324-19.395-46.361-62.338-96.124-42.263-1.617.652-2.869 1.982-3.436 3.647-.572 1.683-.386 3.522.51 5.047 7.205 12.254 23.958 32.732 55.243 32.102 2.441-.048 4.811-.072 7.104-.072z"/></g><g><path d="m184.498 65c-.4 0-.806-.096-1.183-.299-38.136-20.534-72.753-24.678-73.099-24.717-1.372-.157-2.357-1.396-2.2-2.768s1.395-2.356 2.768-2.2c.355.041 35.929 4.297 74.901 25.283 1.216.655 1.671 2.171 1.016 3.386-.451.839-1.313 1.315-2.203 1.315z"/></g><g><path d="m130.497 44c-1.268 0-2.354-.961-2.484-2.25-.138-1.374.863-2.599 2.236-2.738 2.582-.262 10.075-1.574 13.689-4.465 1.076-.862 2.651-.689 3.514.391.863 1.078.688 2.651-.391 3.514-5.514 4.411-15.875 5.492-16.313 5.536-.084.008-.168.012-.251.012z"/></g><g><path d="m150.107 49.888c-.052 0-.087 0-.105 0-1.381-.015-2.488-1.146-2.473-2.527.015-1.38 1.121-2.516 2.524-2.473.085.004 9.763.029 15.994-4.421 1.123-.803 2.686-.542 3.487.581.803 1.124.542 2.685-.581 3.487-7.271 5.193-17.615 5.353-18.846 5.353z"/></g><g><path d="m150.5 64c-1.381 0-2.5-1.119-2.5-2.5 0-7.982-3.866-12.989-4.641-13.911-.888-1.057-.75-2.634.307-3.522 1.058-.887 2.635-.75 3.522.307 1.364 1.623 5.812 7.655 5.812 17.126 0 1.381-1.119 2.5-2.5 2.5z"/></g><g><path d="m168.5 66c-1.381 0-2.5-1.119-2.5-2.5 0-4.402-1.484-7.506-1.939-8.353-.654-1.216-.198-2.732 1.019-3.386 1.214-.653 2.732-.198 3.386 1.019.761 1.418 2.534 5.302 2.534 10.72 0 1.381-1.119 2.5-2.5 2.5z"/></g></g></g></svg>