<svg height="512" viewBox="0 0 256 256" width="512" xmlns="http://www.w3.org/2000/svg"><g id="Layer_33"><g><g><path d="m142.942 189.682c-11.787-31.932 27.045-58.594 52.387-35.87 2.066 1.853 4.139 3.996 6.202 6.468 16.71 20.014 28.724 48.939 27.704 69.593-.52 10.532-10.37 18.19-20.746 16.312-7.32-1.325-17.079-4.733-29.189-12.452-15.723-10.023-30.063-26.999-36.358-44.051z" fill="#e7974e"/></g><g><path d="m77.355 144.142c16.942-29.522 62.302-16.827 61.119 17.19-.096 2.773-.412 5.738-.985 8.907-4.64 25.656-19.128 53.425-35.629 65.888-8.414 6.355-20.607 3.709-25.82-5.457-3.678-6.466-7.322-16.139-9.166-30.382-2.394-18.491 1.434-40.38 10.481-56.146z" fill="#e7974e"/></g><g><path d="m35.506 81.05c24.517-23.612 64.522 1.253 53.881 33.585-.868 2.636-1.999 5.394-3.435 8.277-11.624 23.338-33.294 45.952-52.622 53.308-9.855 3.751-20.823-2.197-23.267-12.455-1.724-7.236-2.52-17.542-.311-31.732 2.87-18.426 12.662-38.374 25.754-50.983z" fill="#e7974e"/></g><g><path d="m161.001 78.185c-31.718 12.352-25.926 59.098 7.888 62.999 2.757.318 5.735.448 8.954.354 26.061-.764 55.679-10.95 70.463-25.41 7.539-7.373 6.74-19.824-1.547-26.345-5.846-4.6-14.868-9.646-28.676-13.592-17.928-5.124-40.144-4.602-57.082 1.994z" fill="#e7974e"/></g><g><path d="m104.852 27.399c-27.003 20.723-8.379 63.988 25.178 58.285 2.736-.465 5.632-1.172 8.696-2.162 24.81-8.016 50.401-26.073 60.556-44.088 5.178-9.186.931-20.918-8.847-24.864-6.898-2.784-16.971-5.107-31.332-5.037-18.647.09-39.831 6.8-54.251 17.866z" fill="#e7974e"/></g><g><path d="m132.408 124.378c-9.53-6.782-17.759-12.639-19.818-19.844l-.232-.811c-5.792-20.285-8.7-30.468-34.527-41.229-19.573-8.155-20.371-31.398-20.397-32.427l-11.76.222c.023 1.297.865 31.909 27.633 43.063 20.597 8.582 22.11 13.882 27.741 33.601l.233.813c3.191 11.168 13.448 18.468 24.308 26.196 8.313 5.916 17.551 12.507 24.565 21.522 2.774-2.811 6.028-5.138 9.579-6.852-8.037-10.508-18.191-17.754-27.325-24.254z" fill="#fed690"/></g><g><path d="m255.925 163.2c-3.1-.6-5.6-3-6.2-6.1 0-.1-.3-.1-.3 0-.6 3.1-3.1 5.5-6.2 6.1-.1 0-.1.2 0 .3 3.1.6 5.6 3 6.2 6.1 0 .1.3.1.3 0 .6-3.1 3.1-5.5 6.2-6.1.1-.1.1-.3 0-.3z" fill="#f5c84c"/></g><g><path d="m232.013 47.5h2.3v2.3c0 1.8 1.4 3.2 3.2 3.2 1.7 0 3.2-1.4 3.2-3.1v-.1-2.3h2.3c1.8 0 3.2-1.4 3.2-3.2 0-1.7-1.4-3.2-3.1-3.2h-.1-2.3v-2.3c0-1.8-1.4-3.2-3.2-3.2-1.7 0-3.2 1.4-3.2 3.1v.1 2.3h-2.3c-1.8 0-3.2 1.4-3.2 3.2-.1 1.7 1.3 3.2 3.2 3.2-.1 0-.1 0 0 0z" fill="#70d6f9"/></g><g><circle cx="81.413" cy="10.9" fill="#fc657e" r="3.4"/></g><g><circle cx="3.4" cy="189.4" fill="#87d147" r="3.4"/></g><g><path d="m36.813 217.75c4.5-.8 8-4.3 8.9-8.7 0-.2.4-.2.4 0 .9 4.4 4.4 7.9 8.9 8.7.2 0 .2.3 0 .4-4.5.8-8 4.3-8.9 8.7 0 .2-.4.2-.4 0-.9-4.4-4.4-7.9-8.9-8.7-.2-.1-.2-.4 0-.4z" fill="#f5c84c"/></g><g><path d="m211.622 248.965c-1.191 0-2.389-.106-3.578-.321-9.268-1.678-19.39-5.985-30.087-12.803-16.65-10.613-30.966-27.968-37.36-45.293-5.807-15.732-.573-32.001 13.332-41.448 13.788-9.365 30.693-8.246 43.069 2.851 2.206 1.978 4.377 4.241 6.452 6.727 17.681 21.176 29.311 50.504 28.282 71.319-.28 5.684-3.023 10.995-7.526 14.571-3.613 2.868-8.058 4.397-12.584 4.397zm-37.568-101.133c-6.62 0-12.753 2.305-17.315 5.404-9.067 6.16-17.507 19.174-11.45 35.581 5.943 16.103 19.821 32.906 35.356 42.808 10.146 6.467 19.665 10.539 28.29 12.1 4.292.776 8.725-.343 12.162-3.073 3.376-2.681 5.433-6.655 5.642-10.902.956-19.354-10.452-47.896-27.126-67.868-1.922-2.302-3.925-4.391-5.952-6.208-6.339-5.684-13.202-7.842-19.607-7.842z"/></g><g><path d="m208.692 218.328c-1.166 0-2.209-.82-2.448-2.008-1.474-7.334-4.254-10.532-7.773-14.582-3.419-3.934-7.295-8.392-10.604-17.32-2.019-5.445-4.726-9.931-8.048-13.333-.964-.988-.945-2.571.043-3.535.986-.964 2.57-.946 3.535.042 3.813 3.906 6.895 8.983 9.157 15.089 2.993 8.073 6.397 11.99 9.689 15.777 3.687 4.241 7.168 8.246 8.902 16.876.271 1.354-.604 2.672-1.959 2.944-.165.034-.331.05-.494.05z"/></g><g><path d="m91.424 242.108c-1.353 0-2.714-.137-4.064-.416-5.708-1.177-10.625-4.744-13.493-9.786-4.656-8.187-7.843-18.717-9.472-31.297-2.535-19.58 1.6-41.694 10.792-57.712l2.168 1.244-2.168-1.244c8.347-14.544 24.187-20.961 40.352-16.353 16.029 4.572 26.012 18.261 25.434 34.874-.103 2.964-.447 6.081-1.023 9.265-4.909 27.146-19.952 54.878-36.582 67.438-3.454 2.61-7.655 3.987-11.944 3.987zm13.997-111.963c-9.158 0-19.395 3.91-25.897 15.242-8.544 14.889-12.536 36.313-10.17 54.583 1.544 11.933 4.525 21.847 8.859 29.467 2.156 3.791 5.858 6.474 10.157 7.36 4.221.871 8.59-.1 11.983-2.663 15.463-11.679 30.046-38.737 34.676-64.338.533-2.949.852-5.825.947-8.549.601-17.3-11.373-26.915-21.81-29.892-2.665-.762-5.644-1.21-8.745-1.21z"/></g><g><path d="m99.462 213.861c-.549 0-1.102-.18-1.563-.55-1.077-.864-1.25-2.438-.385-3.514 4.682-5.834 5.353-10.019 6.202-15.316.825-5.146 1.761-10.979 6.489-19.244 8.493-14.845 4.14-24.194 3.95-24.584-.599-1.235-.095-2.732 1.136-3.341 1.229-.609 2.717-.122 3.336 1.104.243.48 5.835 11.97-4.082 29.305-4.276 7.474-5.097 12.598-5.892 17.552-.89 5.548-1.73 10.788-7.24 17.654-.494.614-1.219.934-1.951.934z"/></g><g><path d="m27.214 179.84c-3.218 0-6.435-.783-9.36-2.33-5.152-2.725-8.877-7.524-10.222-13.167-2.183-9.163-2.3-20.163-.349-32.697 3.037-19.508 13.187-39.586 26.489-52.397 12.079-11.632 29.081-13.37 43.313-4.425 14.112 8.869 19.873 24.802 14.676 40.592-.925 2.812-2.126 5.709-3.571 8.61-12.299 24.693-34.492 47.116-53.97 54.529-2.258.86-4.633 1.285-7.006 1.285zm30.573-105.632c-6.767 0-14.02 2.356-20.546 8.642-12.363 11.907-22.184 31.363-25.018 49.566-1.851 11.889-1.76 22.241.272 30.768 1.011 4.243 3.816 7.854 7.696 9.906 3.811 2.015 8.274 2.304 12.25.792 18.11-6.893 39.674-28.798 51.273-52.086 1.338-2.686 2.447-5.358 3.297-7.943 5.412-16.443-3.398-29.021-12.587-34.795-4.471-2.811-10.343-4.85-16.637-4.85zm-22.281 6.842h.01z"/></g><g><path d="m37.952 154.269c-.788 0-1.563-.371-2.049-1.065-.792-1.131-.518-2.69.612-3.482 6.126-4.293 7.939-8.124 10.235-12.973 2.23-4.71 4.758-10.049 11.607-16.664 12.304-11.881 10.736-22.073 10.664-22.501-.23-1.354.672-2.649 2.024-2.89 1.35-.24 2.643.642 2.895 1.992.099.529 2.257 13.124-12.108 26.997-6.194 5.981-8.415 10.671-10.562 15.207-2.404 5.078-4.675 9.875-11.884 14.928-.438.304-.938.451-1.434.451z"/></g><g><path d="m175.83 144.068c-2.496 0-4.919-.134-7.228-.4-16.514-1.905-28.562-13.817-30.693-30.348-2.149-16.673 6.559-31.378 22.185-37.463 17.211-6.702 39.696-7.494 58.677-2.069 12.198 3.486 22.135 8.207 29.535 14.031 4.558 3.586 7.352 8.981 7.665 14.801.309 5.741-1.848 11.316-5.916 15.296-14.899 14.572-44.563 25.314-72.139 26.122-.7.02-1.395.03-2.086.03zm-14.829-65.882.907 2.33c-16.297 6.346-20.441 21.293-19.04 32.165 1.389 10.763 9.111 24.037 26.307 26.021 2.709.313 5.598.425 8.595.338 26.006-.762 54.936-11.149 68.789-24.698 3.04-2.974 4.65-7.148 4.419-11.453-.236-4.383-2.337-8.443-5.764-11.141-6.888-5.42-16.247-9.846-27.816-13.152-17.714-5.063-39.494-4.309-55.489 1.92z"/></g><g><path d="m172.928 123.158c-8.742 0-13.56-3.316-13.854-3.525-1.126-.799-1.391-2.36-.591-3.485.796-1.121 2.347-1.389 3.471-.601.389.265 8.982 5.93 24.897-.243 8.878-3.444 14.784-3.499 19.996-3.548 5.364-.05 9.602-.09 16.068-3.85 1.192-.695 2.724-.289 3.418.905.694 1.193.289 2.724-.904 3.417-7.61 4.425-12.917 4.475-18.535 4.527-5.019.047-10.207.096-18.234 3.209-6.151 2.387-11.42 3.194-15.732 3.194z"/></g><g><path d="m124.092 88.693c-13.798 0-25.802-7.834-31.594-21.107-6.723-15.408-2.472-31.96 10.832-42.17 14.651-11.244 36.017-18.288 55.761-18.383 12.689-.033 23.546 1.695 32.279 5.219 5.379 2.17 9.568 6.57 11.496 12.071 1.9 5.426 1.388 11.381-1.407 16.339-10.233 18.155-35.714 36.758-61.965 45.239-3.079.995-6.122 1.751-9.046 2.249-2.15.364-4.273.543-6.356.543zm35.645-76.661c-.207 0-.414 0-.623.001-18.421.089-39.123 6.899-52.741 17.35-13.873 10.647-13.677 26.157-9.292 36.203 4.34 9.946 15.461 20.539 32.53 17.633 2.688-.457 5.495-1.155 8.347-2.077 24.757-7.998 49.631-26.056 59.146-42.936 2.088-3.705 2.469-8.163 1.044-12.231-1.452-4.143-4.604-7.455-8.648-9.087-7.989-3.223-18.001-4.856-29.763-4.856zm-54.885 15.367h.01z"/></g><g><path d="m120.412 68.508c-3.504 0-5.622-.703-5.829-.774-1.304-.453-1.994-1.878-1.542-3.182.452-1.298 1.866-1.987 3.165-1.547.444.145 10.278 3.187 23.837-7.191 7.562-5.787 13.218-7.491 18.208-8.994 5.138-1.547 9.195-2.77 14.354-8.187.952-1 2.536-1.038 3.534-.086 1 .952 1.039 2.535.087 3.535-6.071 6.375-11.152 7.906-16.532 9.526-4.805 1.447-9.773 2.944-16.611 8.177-9.426 7.214-17.537 8.723-22.671 8.723z"/></g><g><path d="m150.153 157.982c-.049 0-.098-.001-.146-.004-.719-.042-1.385-.392-1.826-.96-6.818-8.762-15.969-15.274-24.042-21.02-11.226-7.989-21.83-15.535-25.262-27.546l-.232-.813c-5.505-19.281-6.813-23.862-26.298-31.98-28.269-11.78-29.149-43.964-29.172-45.328-.024-1.381 1.076-2.519 2.456-2.543 1.394-.051 2.52 1.076 2.543 2.456.021 1.231.813 30.264 26.095 40.799 21.708 9.044 23.441 15.113 29.183 35.221l.232.813c2.95 10.327 12.861 17.379 23.354 24.846 7.706 5.484 16.36 11.644 23.361 19.898 1.712-1.494 3.553-2.822 5.507-3.976-7.536-9.041-16.747-15.596-24.946-21.431-9.914-7.055-18.473-13.147-20.773-21.195l-.232-.812c-5.746-20.125-8.369-29.31-33.084-39.608-21.056-8.773-21.909-33.619-21.935-34.673-.034-1.38 1.057-2.527 2.438-2.561 1.396-.066 2.526 1.057 2.561 2.438.023.921.765 22.642 18.859 30.181 26.939 11.225 30.147 22.458 35.969 42.85l.232.811c1.818 6.364 9.717 11.985 18.862 18.494 9.171 6.526 19.563 13.921 27.862 24.772.457.597.621 1.368.446 2.099-.174.731-.668 1.345-1.345 1.671-3.313 1.598-6.303 3.737-8.887 6.356-.471.479-1.113.745-1.78.745z"/></g></g></g></svg>