<svg height="511pt" viewBox="0 0 511.99991 511" width="511pt" xmlns="http://www.w3.org/2000/svg"><path d="m246.328125 374.519531c-7.617187-13.191406-9.132813-29.078125-14.808594-42.347656-6.035156-14.121094-16.382812-26.28125-20.21875-40.058594-4.167969-14.972656-1.410156-30.703125-2.972656-44.730469-1.75-15.710937-7.574219-30.65625-6.046875-44.4375 1.769531-15.988281 11.164062-28.800781 17.351562-41.039062 7.03125-13.90625 12.914063-28.777344 25.664063-36.136719 12.746094-7.359375 28.566406-5.019531 44.125-4.15625 13.695313.761719 29.488281-.96875 44.21875 5.496094 12.699219 5.570313 22.726563 18.085937 35.457031 27.453125 11.367188 8.367188 26.367188 13.84375 37.25 24.9375 10.015625 10.210938 15.371094 25.25 24.582032 37.539062 8.652343 11.550782 21.65625 20.808594 29.273437 34.003907 7.617187 13.191406 9.132813 29.082031 14.808594 42.351562 6.039062 14.117188 16.386719 26.277344 20.21875 40.058594 4.167969 14.96875 1.410156 30.699219 2.972656 44.726563 1.75 15.714843 7.574219 30.65625 6.046875 44.4375-1.769531 15.988281-11.164062 28.800781-17.351562 41.039062-7.027344 13.90625-12.914063 28.777344-25.660157 36.136719-12.75 7.359375-28.570312 5.019531-44.128906 4.15625-13.695313-.761719-29.488281.96875-44.21875-5.496094-12.695313-5.570313-22.726563-18.082031-35.457031-27.453125-11.367188-8.367188-26.367188-13.839844-37.246094-24.9375-10.019531-10.207031-15.375-25.25-24.582031-37.539062-8.65625-11.550782-21.65625-20.808594-29.277344-34.003907zm0 0" fill="#d29380"/><path d="m498.203125 378.179688c-1.5625-14.027344 1.195313-29.757813-2.972656-44.726563-3.832031-13.78125-14.179688-25.941406-20.21875-40.058594-5.675781-13.269531-7.191407-29.160156-14.808594-42.351562-7.617187-13.195313-20.621094-22.453125-29.273437-34.003907-9.210938-12.289062-14.566407-27.328124-24.582032-37.539062-10.882812-11.09375-25.882812-16.570312-37.25-24.9375-12.734375-9.367188-22.757812-21.882812-35.457031-27.453125-6.152344-2.699219-12.492187-3.960937-18.785156-4.578125 4.546875 4.085938 9.179687 8.304688 14.242187 12.03125 11.367188 8.367188 26.367188 13.84375 37.25 24.9375 10.015625 10.210938 15.371094 25.25 24.582032 37.539062 8.652343 11.550782 21.65625 20.808594 29.273437 34.003907 7.617187 13.191406 9.132813 29.082031 14.808594 42.351562 6.039062 14.117188 16.386719 26.277344 20.222656 40.058594 4.164063 14.972656 1.40625 30.699219 2.96875 44.726563 1.75 15.714843 7.574219 30.65625 6.046875 44.4375-1.769531 15.988281-11.164062 28.800781-17.351562 41.039062-7.027344 13.90625-12.914063 28.777344-25.660157 36.136719-12.75 7.359375-28.570312 5.019531-44.128906 4.15625-7.972656-.441407-16.660156-.050781-25.429687-.914063 6.882812 6.1875 13.5625 12.066406 21.210937 15.421875 14.734375 6.460938 30.527344 4.730469 44.21875 5.492188 15.558594.867187 31.378906 3.203125 44.128906-4.15625 12.746094-7.359375 18.632813-22.230469 25.660157-36.136719 6.1875-12.238281 15.585937-25.050781 17.351562-41.039062 1.527344-13.78125-4.296875-28.722657-6.046875-44.4375zm0 0" fill="#c97e67"/><path d="m410.242188 279.871094c-43.90625-76.050782-105.015626-122.96875-136.488282-104.796875s-21.394531 94.550781 22.515625 170.601562c43.910157 76.050781 105.015625 122.96875 136.492188 104.796875 31.472656-18.171875 21.390625-94.550781-22.519531-170.601562zm0 0" fill="#ebe1dc"/><path d="m410.253906 279.878906c-34.703125-60.109375-80.148437-102.011718-113.21875-107.96875 24.792969 18.945313 51.175782 49.78125 73.21875 87.96875 43.910156 76.050782 53.992188 152.433594 22.515625 170.605469-6.597656 3.808594-14.5 4.75-23.273437 3.167969 24.585937 18.789062 47.601562 25.878906 63.273437 16.832031 31.472657-18.167969 21.394531-94.554687-22.515625-170.605469zm0 0" fill="#dcd2cd"/><path d="m246.328125 374.519531c-7.617187-13.191406-9.132813-29.078125-14.808594-42.347656-6.035156-14.121094-16.382812-26.28125-20.21875-40.058594-4.167969-14.972656-1.410156-30.703125-2.972656-44.730469-1.75-15.710937-7.574219-30.65625-6.046875-44.4375 1.769531-15.988281 11.164062-28.800781 17.351562-41.039062 7.03125-13.90625 12.914063-28.777344 25.660157-36.136719 5.464843-3.152343 11.496093-4.523437 17.824219-4.992187-2.472657-4.28125-4.808594-8.535156-6.699219-12.847656-7.296875-16.664063-10.089844-34.90625-19.539063-47.761719-10.964844-14.917969-27.699218-22.28125-40.90625-30.917969-15.007812-9.8125-29.429687-21.25-46.367187-21.25-16.941407 0-31.359375 11.433594-46.367188 21.25-13.210937 8.636719-29.945312 15.996094-40.910156 30.914062-9.445313 12.855469-12.238281 31.097657-19.539063 47.765626-6.515624 14.878906-18.3125 28.96875-22.773437 46.285156-4.105469 15.9375-.792969 34.011718-2.898437 51.554687-1.980469 16.488281-9.609376 33.199219-9.609376 50.726563 0 17.535156 7.628907 34.242187 9.609376 50.730468 2.105468 17.546876-1.207032 35.617188 2.898437 51.558594 4.460937 17.316406 16.257813 31.402344 22.773437 46.28125 7.296876 16.664063 10.089844 34.90625 19.539063 47.761719 10.964844 14.917969 27.699219 22.277344 40.90625 30.917969 15.007813 9.8125 29.429687 21.246094 46.371094 21.246094 16.9375 0 31.359375-11.433594 46.367187-21.246094 13.207032-8.636719 29.941406-16 40.90625-30.914063 9.449219-12.859375 12.242188-31.101562 19.539063-47.765625 1.65625-3.785156 3.65625-7.519531 5.792969-11.269531-5.84375-5.921875-11.679688-12-15.882813-19.277344zm0 0" fill="#d29380"/><path d="m155.972656 9.25c13.207032 8.636719 29.941406 16 40.90625 30.914062 9.449219 12.855469 12.242188 31.097657 19.539063 47.765626 6.125 13.988281 16.917969 27.277343 21.894531 43.207031 2.09375-2.046875 4.390625-3.867188 6.984375-5.363281 5.460937-3.15625 11.492187-4.527344 17.820313-4.996094-2.46875-4.28125-4.808594-8.53125-6.699219-12.847656-7.296875-16.664063-10.089844-34.90625-19.539063-47.761719-10.960937-14.917969-27.695312-22.277344-40.90625-30.917969-13.519531-8.839844-26.5625-18.988281-41.398437-20.917969.464843.304688.933593.613281 1.398437.917969zm0 0" fill="#c97e67"/><path d="m236.449219 347.050781c-5.457031 13.683594-14.582031 25.578125-20.03125 38.015625-7.296875 16.664063-10.089844 34.90625-19.535157 47.761719-10.964843 14.917969-27.699218 22.277344-40.910156 30.917969-15.007812 9.8125-29.425781 21.246094-46.367187 21.246094-1.679688 0-3.335938-.117188-4.972657-.328126 14.511719 9.59375 28.558594 20.328126 44.972657 20.328126 16.9375 0 31.359375-11.433594 46.367187-21.246094 13.207032-8.636719 29.941406-16 40.90625-30.914063 9.449219-12.859375 12.242188-31.101562 19.539063-47.765625 1.660156-3.785156 3.660156-7.519531 5.792969-11.269531-5.84375-5.925781-11.679688-12-15.878907-19.277344-4.917969-8.511719-7.292969-18.140625-9.882812-27.46875zm0 0" fill="#c97e67"/><path d="m149.605469 8c-13.433594 0-25.28125 7.191406-37.097657 15.0625 5.953126 14.644531 20.316407 24.972656 37.097657 24.972656s31.144531-10.328125 37.09375-24.972656c-11.8125-7.871094-23.660157-15.0625-37.09375-15.0625zm0 0" fill="#ebe1dc"/><path d="m281.015625 121.070312c-12.75-.847656-25.265625-1.335937-35.71875 4.699219-10.453125 6.035157-16.292969 17.121094-21.929687 28.582031 11.351562 7.78125 26.609374 8.890626 39.324218 1.546876 12.714844-7.339844 19.382813-21.105469 18.324219-34.828126zm0 0" fill="#ebe1dc"/><path d="m508.613281 393.898438c-3.339843-15.726563-3.523437-18.777344-3.4375-32.429688.082031-12.292969.03125-23.203125-4.28125-34.761719-1.449219-3.878906-5.769531-5.851562-9.652343-4.402343-3.878907 1.449218-5.847657 5.769531-4.398438 9.652343 3.457031 9.25 3.402344 18.992188 3.335938 29.414063-.097657 14.691406.183593 18.78125 3.757812 35.640625 4.910156 23.140625 5.167969 29.273437-8.832031 54.226562-11.09375 19.777344-15.546875 35.089844-27.621094 42.058594-12.078125 6.976563-27.585937 3.171875-50.234375 2.890625-28.226562-.351562-33.539062-3.414062-51.378906-19.464844-12.785156-11.503906-16.1875-13.800781-28.980469-21.074218-20.84375-11.851563-23.9375-15.578126-34.5-34.320313-9.042969-16.046875-11.964844-19.75-23.816406-31.753906-15.828125-16.023438-18.265625-20.390625-24.15625-41.84375-4.457031-16.222657-6.199219-20.613281-15.589844-36.5-10.855469-18.355469-12.632813-22.898438-12.476563-47.039063.097657-14.664062-.175781-18.75-3.757812-35.636718-1.894531-8.925782-3.683594-17.351563-2.859375-24.78125 1.582031-14.277344 10.410156-26.183594 16.902344-39.101563 27.292969 11.722656 58.15625-5.921875 61.679687-35.609375 14.4375.835938 29.15625-.855469 42.3125 4.914062 11.171875 4.902344 21.140625 17.148438 34.023438 26.625 11.71875 8.625 26.457031 14.074219 36.339844 24.148438 9.050781 9.230469 14.429687 24.105469 23.933593 36.785156 8.996094 12.007813 21.816407 21.191406 28.78125 33.253906 7.890625 13.671876 8.117188 29.511719 16.96875 47.023438 1.871094 3.695312 6.382813 5.179688 10.078125 3.308594 3.695313-1.867188 5.179688-6.378906 3.308594-10.078125-8.054688-15.9375-8.148438-31.785157-17.367188-47.753907-8.320312-14.414062-21.394531-23.574218-29.765624-34.75-8.832032-11.785156-14.304688-27.15625-25.230469-38.292968-11.90625-12.140625-27.132813-17.609375-38.15625-25.722656-12.386719-9.117188-22.804688-22.105469-36.890625-28.285157-16.335938-7.167969-33.226563-5.359375-46.8125-6.113281-7.320313-.40625-14.941406-1.167969-22.460938-1.046875-11.144531-20.230469-12.5625-41.167969-24.457031-57.351563-12.246094-16.664062-28.320313-22.964843-48.730469-36.675781-13.527344-9.085937-27.023437-18.113281-43.386718-18.535156-17.371094-.4492188-31.402344 8.875-45.78125 18.535156-20.414063 13.710938-36.488282 20.007813-48.734376 36.671875-6.632812 9.023438-10.25 20.144532-13.75 30.902344-5.753906 17.683594-7.347656 20.882812-15.335937 34.515625-15.476563 26.40625-17.132813 34.738281-16.847656 62.378906.207031 19.804688-.417969 23.78125-4.941407 41.101563-7.1875 27.511718-7.246093 36.019531 0 63.753906 4.519532 17.304688 5.148438 21.28125 4.941407 41.101562-.285157 27.601563 1.351562 35.941407 16.847656 62.375 5.933594 10.128907 8.382813 14.460938 11.984375 24.554688 1.390625 3.902344 5.683594 5.933594 9.582031 4.542969 3.902344-1.390625 5.9375-5.679688 4.546875-9.582031-8.648437-24.242188-21.261718-35.917969-26.035156-54.457032-3.757812-14.582031-.554688-32.578125-2.714844-50.578125-2.054687-17.117187-9.558594-33.566406-9.558594-49.835937 0-16.292969 7.496094-32.664063 9.558594-49.832032 2.167969-18.050781-1.054687-35.949218 2.714844-50.582031 4.105469-15.949219 15.679688-29.84375 22.378906-45.148437 7.402344-16.898438 10.222656-34.777344 18.714844-46.328125 10.09375-13.738281 25.820312-20.324219 41.378906-30.671875 18.671875 28.816406 61.0625 28.769531 79.703125 0 15.550781 10.34375 31.28125 16.933594 41.378907 30.675781 9.160156 12.460937 11.859374 32.78125 20.671874 50.507813-21.839843 6.074218-29.128906 24.734374-38.566406 43.40625-6.136718 12.136718-16.152344 25.863281-18.113281 43.597656-1.691406 15.285156 4.347656 30.8125 6.046875 46.089844 1.507812 13.523437-1.332031 29.621093 3.199219 45.910156 1.988281 7.140625 5.441406 13.726562 9.101562 20.070312-.367187 30.765625 1.695313 33.339844-8.132812 62.265625-4.515625 13.285157-5.609375 17.066407-8.898438 34.5-1.792969 9.503907-3.488281 18.480469-6.359375 25.21875-1.625 3.8125.148438 8.21875 3.957032 9.839844 3.824218 1.632813 8.222656-.160156 9.839843-3.957031 5.535157-12.984375 6.988281-30.085938 10.910157-45.523438 4.109374-16.171875 11.871093-30.332031 13.328124-52.363281 6.804688 22.625 7.160157 32.027344 25.140626 50.875-10.34375 19.535156-12.53125 40.289063-22.125 53.339844-7.484376 10.1875-18.386719 16.660156-28.925782 22.921875-22.527344 13.378906-35.835937 26.183594-52.304687 26.183594-16.480469 0-29.886719-12.867188-52.304688-26.183594-12.789062-7.59375-25.117187-15.023438-32.191406-28.167969-1.960937-3.648437-6.507813-5.011719-10.15625-3.050781-3.648437 1.964844-5.015625 6.511718-3.050781 10.160156 8.640625 16.054688 22.289062 24.777344 37.738281 33.957031 22.445313 13.332031 38.082031 28.289063 59.964844 28.289063 21.902343 0 37.527343-14.964844 59.964843-28.289063 11.277344-6.699219 24.058594-14.292969 33.351563-26.933593 10.753906-14.632813 13.550781-34.648438 21.105469-50.832032 13.828125 14.898438 18.105468 31.925782 30.804687 44.875 7.441407 7.585938 16.183594 12.558594 24.640625 17.367188 11.863282 6.746094 14.410156 8.429687 26.367188 19.1875 20.234375 18.207031 28.746094 22.910156 61.222656 23.3125 22.894531.289062 41.15625 4.785156 57.921875-4.894532 14.890625-8.597656 21.28125-24.757812 28.605469-39.25 6.121094-12.109374 16.152344-25.863281 18.113281-43.597656 1.089844-9.832031-1.035156-19.851562-3.089844-29.542968zm-386.34375-368.238282c21.503907-13.539062 33.160157-13.546875 54.671875 0-12.773437 19.851563-41.929687 19.808594-54.671875 0zm111.085938 125.566406c9.976562-18.890624 18.40625-23.878906 39.953125-23.070312-2.777344 18.851562-22.242188 30.089844-39.953125 23.070312zm0 0"/><path d="m131.449219 205.945312c.097656-4.140624-3.183594-7.578124-7.324219-7.671874-4.148438-.113282-7.578125 3.183593-7.671875 7.324218-.386719 16.613282-1.863281 33.042969-1.863281 50.898438 0 17.855468 1.480468 34.457031 1.863281 50.90625.402344 17.238281-.238281 35.605468.566406 51.757812.886719 17.757813 3.164063 31.621094 4.429688 46.539063.347656 4.113281 3.960937 7.1875 8.105469 6.839843 4.128906-.347656 7.191406-3.976562 6.839843-8.105468-2.199219-25.941406-4.890625-30.484375-4.800781-74.855469.105469-54.09375-3.628906-50.984375-1.015625-102.683594.351563-6.875.707031-13.984375.871094-20.949219zm0 0"/><path d="m68.324219 227.488281c-1.410157 9.304688-2.867188 18.925781-2.867188 29.007813 0 4.144531 3.355469 7.5 7.5 7.5 4.140625 0 7.5-3.355469 7.5-7.5 0-8.953125 1.371094-18.007813 2.695313-26.761719 2.585937-17.058594 3-21.75 2.882812-41.238281-.140625-23.644532.445313-29.339844 8.132813-51.960938 4.535156-13.339844 5.617187-17.101562 8.898437-34.496094 1.792969-9.503906 3.488282-18.484374 6.359375-25.222656 1.625-3.8125-.148437-8.214844-3.957031-9.839844-3.808594-1.621093-8.214844.148438-9.839844 3.957032-3.511718 8.238281-5.351562 17.996094-7.300781 28.324218-3.152344 16.699219-4.0625 19.800782-8.363281 32.449219-8.253906 24.296875-9.082032 31.640625-8.929688 56.878907.113282 18.652343-.238281 22.558593-2.710937 38.902343zm0 0"/><path d="m349.484375 202.125c2.664063-3.171875 2.253906-7.902344-.914063-10.566406-30.960937-26.035156-58.777343-34.226563-78.351562-23.089844-22.496094 12.574219-24.304688 45.402344-20.902344 71.191406 12.625 95.652344 104.667969 222.234375 168.035156 222.230469 7.488282 0 14.085938-1.878906 19.359376-5.023437 49.839843-29.1875 8.726562-160.246094-62.386719-240.054688-2.753907-3.09375-7.496094-3.367188-10.589844-.609375-3.089844 2.753906-3.363281 7.496094-.609375 10.585937 50.691406 56.890626 89.03125 146.722657 78.933594 195.542969-14.421875-65.199219-91.273438-197.207031-139.183594-241.144531 10.761719 3.578125 23.113281 10.980469 36.042969 21.851562 3.167969 2.664063 7.898437 2.253907 10.566406-.914062zm-85.296875 35.570312c-1.78125-13.480468-1.640625-25.152343.285156-34.464843 14.394532 65.078125 91.269532 197.277343 139.269532 241.222656-53.316407-17.648437-128.3125-121.550781-139.554688-206.757813zm48.375-24.09375c38.78125 46.765626 85.09375 126.949219 106.246094 184.019532 11.070312 29.871094 11.167968 42.691406 10.050781 46.09375-3.503906-.734375-14.558594-7.234375-34.890625-31.753906-38.78125-46.769532-85.09375-126.949219-106.242188-184.023438-11.070312-29.867188-11.171874-42.6875-10.054687-46.089844 3.503906.734375 14.558594 7.230469 34.890625 31.753906zm0 0"/></svg>