<svg height="512" viewBox="0 0 256 256" width="512" xmlns="http://www.w3.org/2000/svg"><g id="Layer_5"><g><g><path d="m85.56 153.246c3.821-16.419 14.192-30.461 28.225-39.803 13.42-8.935 34.313-17.706 62.088-14.11-.976-4.128-2.33-8.187-4.053-12.116-6.7-15.278-20.226-34.729-47.333-46.615-7.969-3.494-16.036-13.448-18.013-21.922l-2.88-12.341c-.801-3.434-4.828-4.96-7.704-2.919-1.72 1.221-4.024 1.221-5.744 0-2.876-2.041-6.903-.515-7.704 2.919l-2.88 12.341c-1.977 8.474-10.044 18.427-18.013 21.922-27.107 11.885-40.633 31.336-47.333 46.614-6.77 15.439-7.921 32.857-2.276 48.742 13.569 38.179 56.818 44.911 73.969 46.067-2.272-8.772-2.762-18.414-.349-28.779z" fill="#9b3d6e"/></g><g><path d="m246.458 198.511c2.606-16.478 1.719-40.153-14.685-64.79-4.823-7.243-6.24-19.976-3.331-28.177l4.237-11.944c1.179-3.323-1.387-6.782-4.91-6.616-2.107.099-4.046-1.144-4.835-3.1-1.319-3.27-5.533-4.159-8.061-1.701l-9.086 8.835c-6.238 6.066-18.401 10.091-26.996 8.731-29.235-4.626-51.12 4.447-65.007 13.692-14.033 9.342-24.403 23.384-28.225 39.803-11.552 49.631 43.265 82.733 43.265 82.733s52.957 36.001 93.24 4.792c13.327-10.322 21.76-25.607 24.394-42.258z" fill="#fcdd86"/></g><g><g><path d="m93.018 26.164c7.154 0 13.894 1.757 19.829 4.848-3.067-3.869-5.425-8.268-6.373-12.332l-2.88-12.341c-.801-3.434-4.828-4.96-7.704-2.919-1.72 1.221-4.024 1.221-5.744 0-2.876-2.041-6.903-.515-7.704 2.919l-2.88 12.341c-.948 4.064-3.306 8.463-6.373 12.332 5.935-3.091 12.675-4.848 19.829-4.848z" fill="#87d147"/></g></g><g><path d="m226.996 215.277c11.29-19.162 5.879-44.177-12.324-56.957-5.875-4.125-12.387-6.567-18.992-7.451-7.18-.961-13.541-5.04-17.411-11.163-3.56-5.633-8.497-10.532-14.697-14.15-19.21-11.208-44.201-5.687-56.904 12.57-14.007 20.131-8.394 47.676 12.063 60.793 2.098 1.345 4.269 2.483 6.49 3.42 3.073 1.297 4.58 4.663 3.739 7.891-.452 1.732-.57 3.52-.369 5.277.172 1.497-.597 2.949-1.882 3.738-1.482.91-2.788 2.156-3.792 3.716-.015.023-.03.046-.044.069-2.207 3.482-1.118 8.112 2.253 10.486 2.301 1.62 3.698 2.465 3.698 2.465s1.352.918 3.785 2.333c3.551 2.066 8.203 1.141 10.448-2.3.018-.027.035-.054.053-.081 1.006-1.569 1.597-3.283 1.806-5.017.18-1.496 1.181-2.799 2.613-3.268 1.676-.549 3.249-1.4 4.633-2.531 2.587-2.114 6.28-2.148 8.746.107 1.776 1.623 3.713 3.119 5.807 4.462 20.458 13.115 47.832 6.721 60.281-14.409z" fill="#fc8c48"/></g><g><path d="m191.966 57.2c-3.1-.6-5.6-3-6.2-6.1 0-.1-.3-.1-.3 0-.6 3.1-3.1 5.5-6.2 6.1-.1 0-.1.2 0 .3 3.1.6 5.6 3 6.2 6.1 0 .1.3.1.3 0 .6-3.1 3.1-5.5 6.2-6.1.1-.1.1-.3 0-.3z" fill="#f5c84c"/></g><g><path d="m235.966 49.5h2.3v2.3c0 1.8 1.4 3.2 3.2 3.2 1.7 0 3.2-1.4 3.2-3.1v-.1-2.3h2.3c1.8 0 3.2-1.4 3.2-3.2 0-1.7-1.4-3.2-3.1-3.2h-.1-2.3v-2.3c0-1.8-1.4-3.2-3.2-3.2-1.7 0-3.2 1.4-3.2 3.1v.1 2.3h-2.3c-1.8 0-3.2 1.4-3.2 3.2-.1 1.7 1.3 3.2 3.2 3.2-.1 0-.1 0 0 0z" fill="#70d6f9"/></g><g><circle cx="76.366" cy="230.9" fill="#fc657e" r="3.4"/></g><g><circle cx="140.366" cy="3.4" fill="#87d147" r="3.4"/></g><g><path d="m15.766 195.75c4.5-.8 8-4.3 8.9-8.7 0-.2.4-.2.4 0 .9 4.4 4.4 7.9 8.9 8.7.2 0 .2.3 0 .4-4.5.8-8 4.3-8.9 8.7 0 .2-.4.2-.4 0-.9-4.4-4.4-7.9-8.9-8.7-.2-.1-.2-.4 0-.4z" fill="#f5c84c"/></g><g><path d="m85.91 184.525c-.056 0-.112-.002-.168-.006-8.08-.544-23.914-2.485-39.187-9.365-18.438-8.304-30.876-21.21-36.971-38.359-5.728-16.115-4.896-34.079 2.343-50.583 6.582-15.013 20.361-35.511 48.618-47.901 7.166-3.143 14.76-12.393 16.582-20.2l2.88-12.341c.565-2.425 2.293-4.4 4.622-5.282 2.328-.883 4.933-.549 6.963.892.853.605 1.997.605 2.85 0 2.032-1.442 4.635-1.775 6.964-.892 2.329.882 4.057 2.857 4.622 5.282l2.88 12.341c1.822 7.807 9.416 17.058 16.582 20.2 28.257 12.39 42.036 32.888 48.619 47.901 1.772 4.041 3.185 8.262 4.196 12.545.189.799-.026 1.64-.576 2.25-.549.609-1.361.909-2.178.805-27.525-3.566-48.031 5.489-60.381 13.711-13.937 9.278-23.588 22.876-27.177 38.29-2.139 9.191-2.025 18.473.336 27.586.201.777.018 1.604-.495 2.223-.476.574-1.183.903-1.924.903zm1.374-179.525c-.295 0-.593.054-.883.164-.779.295-1.335.931-1.524 1.743l-2.88 12.341c-2.167 9.286-10.89 19.892-19.443 23.643-26.78 11.742-39.823 31.131-46.047 45.329-6.726 15.334-7.51 31.99-2.211 46.9 12.222 34.388 49.631 42.337 68.411 44.135-1.779-8.806-1.641-17.73.418-26.577 3.878-16.658 14.274-31.332 29.274-41.318 12.506-8.326 32.903-17.462 60.124-14.917-.82-2.799-1.822-5.554-2.993-8.224-6.226-14.198-19.269-33.587-46.048-45.33-8.554-3.751-17.276-14.357-19.443-23.643l-2.88-12.341c-.189-.813-.745-1.448-1.524-1.743-.78-.295-1.617-.189-2.299.294-2.583 1.833-6.054 1.833-8.637 0-.427-.302-.917-.456-1.415-.456z"/></g><g><path d="m93.018 137.418c-1.381 0-2.5-1.119-2.5-2.5v-88.531c0-1.381 1.119-2.5 2.5-2.5s2.5 1.119 2.5 2.5v88.531c0 1.381-1.12 2.5-2.5 2.5z"/></g><g><path d="m125.94 108.699c-1.329 0-2.436-1.047-2.495-2.389-.305-6.821-1.009-13.542-2.092-19.974-2.276-13.512-5.658-24.939-10.051-33.963-.604-1.242-.088-2.738 1.154-3.342 1.24-.603 2.737-.087 3.342 1.154 4.602 9.454 8.129 21.338 10.484 35.321 1.118 6.633 1.843 13.558 2.156 20.582.063 1.379-1.006 2.547-2.386 2.609-.036.001-.074.002-.112.002z"/></g><g><path d="m67.17 163.618c-.993 0-1.933-.595-2.323-1.574-2.337-5.857-4.521-15.405-5.995-26.197-2.188-16.023-1.869-33.902.9-50.341 2.356-13.986 5.885-25.87 10.485-35.322.604-1.241 2.104-1.757 3.342-1.154 1.242.604 1.759 2.101 1.154 3.342-4.392 9.022-7.773 20.449-10.052 33.964-2.687 15.955-2.998 33.298-.877 48.834 1.422 10.406 3.494 19.526 5.687 25.021.512 1.282-.113 2.737-1.396 3.248-.303.122-.617.179-.925.179z"/></g><g><path d="m150.431 101.047c-1.169 0-2.213-.824-2.449-2.014-.607-3.064-1.386-6.111-2.313-9.054-3.312-10.522-7.981-19.774-13.881-27.5-.838-1.097-.627-2.667.47-3.504 1.098-.838 2.667-.628 3.505.47 6.251 8.188 11.189 17.957 14.676 29.033.98 3.116 1.805 6.34 2.447 9.583.269 1.354-.611 2.67-1.966 2.938-.164.032-.328.048-.489.048z"/></g><g><path d="m46.832 161.732c-.763 0-1.516-.348-2.007-1.006-4.915-6.594-8.567-14.485-10.855-23.455-3.964-15.538-3.387-32.867 1.627-48.793 3.488-11.078 8.427-20.846 14.677-29.033.838-1.098 2.407-1.308 3.505-.47 1.097.838 1.308 2.407.47 3.504-5.898 7.725-10.568 16.977-13.882 27.5-4.738 15.051-5.289 31.407-1.551 46.056 2.125 8.334 5.496 15.636 10.02 21.703.824 1.107.597 2.673-.511 3.499-.449.334-.973.495-1.493.495z"/></g><g><path d="m183.727 255.973c-7.663 0-15.712-1.157-24.061-3.487-18.049-5.036-31.105-13.671-32.192-14.402-1.124-.686-14.415-8.947-26.521-23.244-16.572-19.572-22.736-41.067-17.827-62.161 3.878-16.658 14.274-31.332 29.274-41.318 13.647-9.085 36.311-18.904 66.783-14.081 7.73 1.224 19.114-2.465 24.862-8.054l9.085-8.835c1.786-1.736 4.308-2.465 6.743-1.952 2.438.515 4.448 2.2 5.38 4.51.391.968 1.331 1.572 2.399 1.538 2.486-.124 4.858 1.007 6.343 3.006s1.873 4.595 1.041 6.942l-4.237 11.943c-2.682 7.556-1.282 19.441 3.056 25.955 17.099 25.681 17.634 50.374 15.073 66.566-2.816 17.8-11.813 33.371-25.332 43.845-11.335 8.785-24.858 13.229-39.869 13.229zm-20.38-154.96c-21.366 0-37.624 7.485-48.176 14.51-13.938 9.278-23.588 22.876-27.177 38.29-10.998 47.256 41.591 79.704 42.123 80.026.037.022.076.047.111.071.515.35 51.947 34.6 90.305 4.884 12.51-9.692 20.84-24.137 23.455-40.674l2.47.391-2.47-.391c2.423-15.313 1.908-38.676-14.296-63.014-5.177-7.774-6.795-21.411-3.606-30.398l4.237-11.943c.279-.786.154-1.621-.344-2.291-.496-.67-1.253-1.032-2.092-.992-3.202.152-6.086-1.725-7.271-4.662-.313-.774-.959-1.316-1.775-1.488-.813-.173-1.628.063-2.225.644l-9.085 8.835c-6.837 6.647-19.903 10.868-29.13 9.408-5.266-.833-10.289-1.206-15.054-1.206z"/></g><g><path d="m183.863 221.453c-1.959 0-3.94-.542-5.709-1.675-1.162-.745-1.5-2.292-.755-3.454s2.292-1.501 3.454-.755c1.262.81 2.762 1.079 4.225.757 1.464-.32 2.715-1.19 3.523-2.452.503-.784.795-1.651.868-2.577.066-.84.552-1.59 1.29-1.995.737-.406 1.631-.411 2.376-.015 2.558 1.361 5.782.514 7.345-1.922.959-1.496 1.149-3.316.521-4.994-.275-.738-.188-1.562.237-2.225s1.138-1.087 1.923-1.144c1.787-.13 3.362-1.063 4.321-2.559 1.563-2.437.983-5.721-1.318-7.477-.67-.511-1.038-1.325-.979-2.166.061-.84.539-1.594 1.275-2.005.811-.453 1.477-1.08 1.979-1.865 1.669-2.603.909-6.079-1.694-7.748-1.162-.746-1.5-2.292-.755-3.454.746-1.164 2.293-1.5 3.454-.755 4.924 3.158 6.361 9.732 3.204 14.656-.371.579-.799 1.12-1.273 1.614 2.45 3.444 2.692 8.189.315 11.897-1.293 2.017-3.174 3.493-5.366 4.265.214 2.315-.343 4.64-1.637 6.657-2.377 3.708-6.784 5.471-10.943 4.679-.251.638-.564 1.251-.936 1.831-2.021 3.157-5.448 4.881-8.945 4.881z"/></g><g><path d="m169.673 205.898c-2.497 0-4.996-.866-6.985-2.61-1.038-.91-1.142-2.49-.231-3.528s2.49-1.142 3.528-.231c2.177 1.909 5.512 1.827 7.59-.188 1.276-1.236 1.879-2.964 1.652-4.741-.099-.781.176-1.563.741-2.112.564-.548 1.353-.798 2.134-.673 1.763.281 3.516-.264 4.792-1.5 2.08-2.014 2.27-5.344.432-7.58-.535-.651-.707-1.527-.456-2.332.251-.804.89-1.428 1.699-1.66.894-.255 1.686-.713 2.354-1.361 2.222-2.152 2.278-5.709.127-7.931-.961-.992-.936-2.575.057-3.535.991-.96 2.574-.936 3.535.057 4.069 4.202 3.962 10.931-.24 15-.493.478-1.033.907-1.608 1.279 1.596 3.915.744 8.588-2.421 11.653-1.721 1.667-3.89 2.672-6.2 2.921-.323 2.302-1.397 4.438-3.119 6.104-2.036 1.974-4.707 2.968-7.381 2.968z"/></g><g><path d="m124.31 184.785c-.462 0-.93-.128-1.348-.396-2.385-1.529-4.032-3.896-4.638-6.664-.604-2.768-.096-5.606 1.434-7.992.371-.579.799-1.12 1.273-1.614-2.45-3.444-2.692-8.189-.315-11.897 1.293-2.017 3.174-3.493 5.366-4.265-.214-2.315.343-4.64 1.637-6.657 2.378-3.708 6.791-5.468 10.943-4.679.251-.637.564-1.251.936-1.83 1.529-2.385 3.896-4.032 6.664-4.638 2.767-.604 5.605-.096 7.992 1.434 1.162.745 1.5 2.292.755 3.454-.746 1.162-2.291 1.501-3.454.755-1.261-.809-2.761-1.077-4.225-.758-1.464.32-2.715 1.191-3.523 2.452-.503.785-.795 1.652-.868 2.577-.066.84-.552 1.59-1.29 1.995-.739.405-1.633.411-2.376.015-2.556-1.358-5.781-.515-7.345 1.923-.959 1.496-1.149 3.316-.521 4.994.275.738.188 1.562-.237 2.225s-1.138 1.087-1.923 1.144c-1.787.13-3.362 1.063-4.321 2.559-1.563 2.437-.983 5.721 1.318 7.477.67.511 1.038 1.325.979 2.166-.061.84-.539 1.594-1.275 2.005-.811.453-1.477 1.08-1.979 1.865-.809 1.261-1.077 2.761-.758 4.225.32 1.463 1.191 2.714 2.452 3.523 1.162.745 1.5 2.292.755 3.454-.48.741-1.285 1.148-2.108 1.148z"/></g><g><path d="m145.421 191.781c-.342 0-.688-.07-1.019-.218-5.003-2.235-7.494-8.035-5.672-13.203.796-2.259 2.287-4.127 4.245-5.381-.738-2.204-.729-4.594.067-6.854 1.465-4.155 5.356-6.88 9.579-7.063.099-.678.264-1.348.492-1.996.941-2.672 2.867-4.818 5.424-6.042 2.557-1.223 5.436-1.378 8.107-.437 1.302.459 1.985 1.887 1.526 3.189-.458 1.302-1.889 1.985-3.188 1.527-1.412-.499-2.935-.417-4.287.23-1.351.647-2.369 1.781-2.867 3.194-.31.879-.396 1.79-.254 2.708.127.833-.174 1.674-.8 2.237-.627.563-1.496.773-2.309.559-2.809-.742-5.746.825-6.709 3.555-.59 1.675-.357 3.491.638 4.981.438.655.54 1.478.278 2.22-.262.743-.857 1.319-1.609 1.554-1.709.537-3.028 1.805-3.619 3.48-.962 2.731.354 5.795 2.996 6.976 1.261.563 1.826 2.042 1.263 3.302-.414.931-1.327 1.482-2.282 1.482z"/></g><g><g><path d="m112.846 33.512c-.392 0-.787-.092-1.154-.283-5.816-3.029-12.1-4.565-18.674-4.565s-12.857 1.536-18.673 4.565c-1.048.545-2.331.285-3.083-.625-.751-.91-.765-2.22-.031-3.145 2.97-3.746 5.064-7.776 5.897-11.347l2.88-12.342c.565-2.424 2.293-4.399 4.622-5.282 2.328-.883 4.933-.549 6.963.892.853.605 1.997.605 2.85 0 2.032-1.442 4.635-1.775 6.964-.892 2.329.882 4.057 2.857 4.622 5.282l2.88 12.341c.833 3.572 2.928 7.602 5.897 11.348.733.925.72 2.235-.031 3.145-.489.591-1.203.908-1.929.908zm-19.828-9.848c4.554 0 9.098.694 13.438 2.034-1.11-2.191-1.933-4.374-2.417-6.451l-2.88-12.341c-.189-.813-.745-1.448-1.524-1.743-.781-.296-1.619-.189-2.299.294-2.583 1.833-6.054 1.833-8.637 0-.68-.482-1.518-.589-2.298-.294-.779.295-1.335.931-1.524 1.743l-2.88 12.342c-.484 2.076-1.307 4.259-2.417 6.45 4.341-1.341 8.884-2.034 13.438-2.034z"/></g></g><g><path d="m136.666 241.916c-1.803 0-3.636-.467-5.313-1.443-2.238-1.302-3.593-2.198-3.878-2.389-.293-.179-1.671-1.035-3.788-2.526-4.541-3.198-5.825-9.29-2.924-13.868 1.237-1.924 2.78-3.436 4.639-4.577.48-.294.764-.826.707-1.322-.239-2.09-.094-4.173.434-6.193.543-2.082-.421-4.167-2.292-4.956-2.372-1.001-4.683-2.219-6.867-3.619-10.505-6.736-17.632-17.188-20.067-29.43-2.434-12.236.159-24.629 7.303-34.895 13.439-19.317 39.89-25.161 60.215-13.301 6.398 3.733 11.631 8.771 15.551 14.974 3.478 5.504 9.174 9.157 15.629 10.021 7.271.974 14.032 3.626 20.097 7.883 19.258 13.522 24.986 39.997 13.041 60.272-6.349 10.775-16.528 18.304-28.665 21.198-12.138 2.895-24.613.781-35.119-5.955-2.178-1.396-4.245-2.985-6.145-4.722-1.502-1.374-3.807-1.38-5.477-.016-1.614 1.319-3.444 2.318-5.438 2.971-.476.156-.842.635-.908 1.192-.263 2.174-.997 4.215-2.184 6.066 0 .001-.054.083-.055.084-1.924 2.945-5.155 4.551-8.496 4.551zm5.407-119.655c-12.892 0-25.57 6.109-33.352 17.292-6.359 9.141-8.669 20.172-6.502 31.064 2.168 10.897 8.512 20.201 17.862 26.197 1.944 1.246 4.001 2.33 6.112 3.221 4.181 1.765 6.361 6.317 5.186 10.825-.371 1.421-.473 2.888-.305 4.361.279 2.427-.921 4.842-3.058 6.153-1.214.745-2.223 1.734-2.997 2.938-1.482 2.338-.773 5.525 1.545 7.158 2.187 1.54 3.54 2.362 3.553 2.37.037.022.074.046.109.07.014.009 1.325.896 3.639 2.241 2.445 1.422 5.628.746 7.098-1.504.001-.001.054-.083.055-.084.764-1.191 1.244-2.526 1.415-3.947.301-2.486 1.995-4.584 4.317-5.345 1.407-.46 2.695-1.164 3.83-2.091 3.611-2.95 8.662-2.865 12.015.198 1.69 1.545 3.53 2.959 5.47 4.203 9.351 5.996 20.457 7.878 31.26 5.3 10.803-2.576 19.864-9.278 25.517-18.872l2.154 1.269-2.154-1.269c10.632-18.045 5.534-41.608-11.605-53.643-5.401-3.792-11.419-6.153-17.888-7.019-7.926-1.062-14.921-5.547-19.191-12.306-3.487-5.518-8.146-10.001-13.844-13.326-6.324-3.69-13.313-5.454-20.241-5.454z"/></g></g></g></svg>