<?xml version="1.0" encoding="UTF-8" standalone="no"?>
<!-- Created with Inkscape (http://www.inkscape.org/) -->

<svg
   version="1.1"
   id="svg5205"
   xml:space="preserve"
   width="682.66669"
   height="682.66669"
   viewBox="0 0 682.66669 682.66669"
   xmlns="http://www.w3.org/2000/svg"
   xmlns:svg="http://www.w3.org/2000/svg"><defs
     id="defs5209"><clipPath
       clipPathUnits="userSpaceOnUse"
       id="clipPath5219"><path
         d="M 0,512 H 512 V 0 H 0 Z"
         id="path5217" /></clipPath></defs><g
     id="g5211"
     transform="matrix(1.3333333,0,0,-1.3333333,0,682.66667)"><g
       id="g5213"><g
         id="g5215"
         clip-path="url(#clipPath5219)"><g
           id="g5221"
           transform="translate(324.5176,387.5449)"><path
             d="m 0,0 c 7.738,1.843 15.888,-0.538 21.271,-6.394 27.467,-29.876 137.6,-38.393 156.091,-116.032 15.374,-64.547 -38.665,-116.245 -116.122,-134.694 -77.456,-18.448 -148.998,3.339 -164.372,67.886 -18.492,77.639 75.977,134.888 87.027,173.937 C -13.939,-7.642 -7.739,-1.843 0,0 Z"
             style="fill:none;stroke:#000000;stroke-width:15;stroke-linecap:round;stroke-linejoin:round;stroke-miterlimit:10;stroke-dasharray:none;stroke-opacity:1"
             id="path5223" /></g><g
           id="g5225"
           transform="translate(254.5117,145.3818)"><path
             d="m 0,0 c -34.655,-27.283 -89.773,-27.932 -144.916,-5.988 -73.98,29.441 -119.987,88.402 -95.452,150.052 29.51,74.155 139.718,66.678 171.211,92.273 6.174,5.017 14.581,6.197 21.972,3.255 7.392,-2.941 12.69,-9.575 13.728,-17.462 2.203,-16.738 18.236,-38.679 34.087,-63.935"
             style="fill:none;stroke:#000000;stroke-width:15;stroke-linecap:round;stroke-linejoin:round;stroke-miterlimit:10;stroke-dasharray:none;stroke-opacity:1"
             id="path5227" /></g><g
           id="g5229"
           transform="translate(392.1748,321.3125)"><path
             d="m 0,0 c -2.786,1.158 -5.618,2.318 -8.49,3.485 -0.194,0.079 -0.387,0.158 -0.58,0.236 -28.964,11.768 -62.156,3.862 -82.705,-19.699 -0.137,-0.157 -0.274,-0.314 -0.411,-0.471 -31.62,-36.254 -55.191,-66.573 -47.437,-99.13 11.538,-48.44 71.488,-57.074 125.783,-44.142 54.296,12.932 103.917,47.663 92.379,96.104 -5.44,22.844 -24.151,37.752 -50.227,50.869"
             style="fill:none;stroke:#000000;stroke-width:15;stroke-linecap:round;stroke-linejoin:round;stroke-miterlimit:10;stroke-dasharray:none;stroke-opacity:1"
             id="path5231" /></g><g
           id="g5233"
           transform="translate(223.0796,187.5786)"><path
             d="M 0,0 C -26.411,-49.244 -72.162,-64.629 -113.483,-48.185"
             style="fill:none;stroke:#000000;stroke-width:15;stroke-linecap:round;stroke-linejoin:round;stroke-miterlimit:10;stroke-dasharray:none;stroke-opacity:1"
             id="path5235" /></g><g
           id="g5237"
           transform="translate(96.0161,314.8433)"><path
             d="m 0,0 c 33.823,33.542 78.179,43.125 96.221,64.137 4.783,5.571 10.549,7.801 15.09,5.994 4.542,-1.807 7.198,-7.39 6.845,-14.724 -1.123,-23.383 17.026,-53.753 23.591,-91.347"
             style="fill:none;stroke:#000000;stroke-width:15;stroke-linecap:round;stroke-linejoin:round;stroke-miterlimit:10;stroke-dasharray:none;stroke-opacity:1"
             id="path5239" /></g><g
           id="g5241"
           transform="translate(151.0488,155.8813)"><path
             d="m 0,0 c -14.825,-15.594 -29.511,-21.239 -41.453,-16.487 -14.703,5.851 -21.599,26.015 -17.728,56.539"
             style="fill:none;stroke:#000000;stroke-width:15;stroke-linecap:round;stroke-linejoin:round;stroke-miterlimit:10;stroke-dasharray:none;stroke-opacity:1"
             id="path5243" /></g><g
           id="g5245"
           transform="translate(328.9595,235.3091)"><path
             d="M 0,0 3.003,-5.006"
             style="fill:none;stroke:#000000;stroke-width:15;stroke-linecap:round;stroke-linejoin:round;stroke-miterlimit:10;stroke-dasharray:none;stroke-opacity:1"
             id="path5247" /></g><g
           id="g5249"
           transform="translate(434.417,249.4922)"><path
             d="M 0,0 5.006,1.001"
             style="fill:none;stroke:#000000;stroke-width:15;stroke-linecap:round;stroke-linejoin:round;stroke-miterlimit:10;stroke-dasharray:none;stroke-opacity:1"
             id="path5251" /></g><g
           id="g5253"
           transform="translate(374.3462,290.04)"><path
             d="M 0,0 4.005,-3.003"
             style="fill:none;stroke:#000000;stroke-width:15;stroke-linecap:round;stroke-linejoin:round;stroke-miterlimit:10;stroke-dasharray:none;stroke-opacity:1"
             id="path5255" /></g><g
           id="g5257"
           transform="translate(310.771,197.9312)"><path
             d="M 0,0 5.006,4.005"
             style="fill:none;stroke:#000000;stroke-width:15;stroke-linecap:round;stroke-linejoin:round;stroke-miterlimit:10;stroke-dasharray:none;stroke-opacity:1"
             id="path5259" /></g><g
           id="g5261"
           transform="translate(390.8657,214.4507)"><path
             d="M 0,0 2.503,-5.006"
             style="fill:none;stroke:#000000;stroke-width:15;stroke-linecap:round;stroke-linejoin:round;stroke-miterlimit:10;stroke-dasharray:none;stroke-opacity:1"
             id="path5263" /></g><g
           id="g5265"
           transform="translate(342.8013,283.3892)"><path
             d="M 0,0 -0.029,6.812"
             style="fill:none;stroke:#000000;stroke-width:15;stroke-linecap:round;stroke-linejoin:round;stroke-miterlimit:10;stroke-dasharray:none;stroke-opacity:1"
             id="path5267" /></g><g
           id="g5269"
           transform="translate(374.9336,252.6626)"><path
             d="M 0,0 H 0.08"
             style="fill:none;stroke:#000000;stroke-width:15;stroke-linecap:round;stroke-linejoin:round;stroke-miterlimit:10;stroke-dasharray:none;stroke-opacity:1"
             id="path5271" /></g><g
           id="g5273"
           transform="translate(360.2495,220.458)"><path
             d="M 0,0 H 0.08"
             style="fill:none;stroke:#000000;stroke-width:15;stroke-linecap:round;stroke-linejoin:round;stroke-miterlimit:10;stroke-dasharray:none;stroke-opacity:1"
             id="path5275" /></g><g
           id="g5277"
           transform="translate(314.2754,264.0093)"><path
             d="M 0,0 H 0.08"
             style="fill:none;stroke:#000000;stroke-width:15;stroke-linecap:round;stroke-linejoin:round;stroke-miterlimit:10;stroke-dasharray:none;stroke-opacity:1"
             id="path5279" /></g><g
           id="g5281"
           transform="translate(408.8071,273.02)"><path
             d="M 0,0 H 0.08"
             style="fill:none;stroke:#000000;stroke-width:15;stroke-linecap:round;stroke-linejoin:round;stroke-miterlimit:10;stroke-dasharray:none;stroke-opacity:1"
             id="path5283" /></g><g
           id="g5285"
           transform="translate(289.7461,224.9634)"><path
             d="M 0,0 H 0.08"
             style="fill:none;stroke:#000000;stroke-width:15;stroke-linecap:round;stroke-linejoin:round;stroke-miterlimit:10;stroke-dasharray:none;stroke-opacity:1"
             id="path5287" /></g><g
           id="g5289"
           transform="translate(349.7373,186.418)"><path
             d="M 0,0 H 0.08"
             style="fill:none;stroke:#000000;stroke-width:15;stroke-linecap:round;stroke-linejoin:round;stroke-miterlimit:10;stroke-dasharray:none;stroke-opacity:1"
             id="path5291" /></g><g
           id="g5293"
           transform="translate(423.8247,214.9517)"><path
             d="M 0,0 H 0.08"
             style="fill:none;stroke:#000000;stroke-width:15;stroke-linecap:round;stroke-linejoin:round;stroke-miterlimit:10;stroke-dasharray:none;stroke-opacity:1"
             id="path5295" /></g></g></g></g></svg>
