<svg id="_x35__x5F_Line_x5F_Color_x5F_Expand" viewBox="0 0 793.629 706.271" xmlns="http://www.w3.org/2000/svg" width="300" height="300" version="1.1" xmlns:xlink="http://www.w3.org/1999/xlink" xmlns:svgjs="http://svgjs.dev/svgjs"><g width="100%" height="100%" transform="matrix(1,0,0,1,0,0)"><path d="m289.065 672.099c18.195-.551 36.305-2.803 53.284-6.811 91.622-21.63 169.324-89.249 196.741-179.309s3.519-193.895-60.508-262.909c-26.017-28.044-57.62-50.216-86.183-75.661-13.466-11.996-26.83-24.449-38.305-38.115-12.865-15.321-23.356-32.164-28.953-51.593-3.104-10.776-2.217-26.128-10.032-34.75-15.602-17.213-54.195-17.32-69.897-.001-7.816 8.621-6.929 23.974-10.033 34.751-5.207 18.075-14.649 33.913-26.299 48.369-12.041 14.942-26.441 28.407-40.959 41.339-28.563 25.445-60.166 47.618-86.183 75.661-64.027 69.014-87.924 172.849-60.507 262.909 27.417 90.059 105.119 157.679 196.74 179.309 22.173 5.234 46.71 7.55 71.094 6.811z" fill="#af2872" fill-opacity="1" data-original-color="#af2872ff" stroke="none" stroke-opacity="1" style=""/><path d="m280.229 682.232c-22.301 0-44.445-2.464-64.556-7.213-47.148-11.131-91.008-34.054-126.838-66.292-36.661-32.985-63.346-74.424-77.171-119.837-13.96-45.858-15.418-95.826-4.216-144.5 11.203-48.676 34.357-92.979 66.959-128.121 17.233-18.575 36.915-34.697 55.949-50.288 10.282-8.422 20.914-17.131 30.914-26.039 13.754-12.253 28.098-25.597 39.824-40.147 12.099-15.012 20.105-29.687 24.477-44.862.823-2.855 1.353-6.45 1.914-10.255 1.407-9.55 3.002-20.373 10.321-28.444 9.213-10.166 25.038-16.234 42.328-16.234h.003c17.324.001 33.167 6.07 42.38 16.234 7.317 8.072 8.912 18.894 10.319 28.441.561 3.806 1.091 7.4 1.914 10.256 4.655 16.159 13.487 31.838 27.001 47.932 11.279 13.433 24.593 25.759 37.299 37.078 10 8.908 20.632 17.617 30.914 26.039 19.034 15.591 38.716 31.713 55.949 50.287 32.603 35.144 55.757 79.446 66.959 128.122 11.202 48.675 9.744 98.643-4.216 144.501-13.825 45.413-40.51 86.852-77.171 119.837-35.83 32.238-79.69 55.161-126.838 66.292-17.411 4.11-36.011 6.491-55.278 7.074-3.046.094-6.095.139-9.14.139zm-.095-662.232c-11.566 0-22.108 3.703-27.513 9.666-3.236 3.568-4.311 10.867-5.352 17.927-.632 4.291-1.287 8.729-2.481 12.875-5.123 17.783-14.322 34.752-28.123 51.876-12.636 15.681-27.699 29.708-42.093 42.531-10.31 9.184-21.104 18.026-31.544 26.577-18.514 15.165-37.658 30.847-53.96 48.419-30.228 32.581-51.712 73.732-62.131 119.004s-9.084 91.674 3.859 134.191c12.765 41.931 37.46 80.242 71.416 110.794 33.342 29.999 74.165 51.333 118.056 61.694 21.178 5.001 44.866 7.26 68.493 6.549 17.927-.543 35.183-2.746 51.288-6.549 43.892-10.361 84.714-31.695 118.057-61.694 33.956-30.552 58.651-68.863 71.416-110.794 12.943-42.518 14.278-88.92 3.858-134.191-10.419-45.271-31.903-86.423-62.131-119.005-16.302-17.571-35.446-33.253-53.96-48.418-10.439-8.551-21.234-17.394-31.544-26.577-13.268-11.819-27.213-24.743-39.312-39.15-15.35-18.28-25.458-36.354-30.904-55.256-1.195-4.147-1.849-8.585-2.481-12.877-1.041-7.058-2.116-14.356-5.351-17.926-5.404-5.962-15.965-9.665-27.563-9.666z" fill="#000000" fill-opacity="1" data-original-color="#000000ff" stroke="none" stroke-opacity="1" style=""/><path d="m124.235 277.876c9.524-29.008 21.561-54.619 35.777-76.123 1.167-1.765 2.366-3.397 3.525-4.977.887-1.208 1.725-2.35 2.5-3.483 3.118-4.558 9.341-5.725 13.899-2.607 4.559 3.118 5.726 9.342 2.607 13.9-.964 1.409-1.941 2.74-2.886 4.027-1.063 1.447-2.067 2.815-2.963 4.17-13.232 20.017-24.49 44.017-33.458 71.331-8.101 24.672-13.443 51.587-16.332 82.284-2.812 29.882-2.863 58.966-.149 86.445 2.871 29.073 8.839 56.428 17.74 81.304 9.015 25.195 21.223 48.224 36.286 68.443 3.299 4.429 2.383 10.693-2.045 13.993-1.794 1.336-3.89 1.981-5.966 1.981-3.052 0-6.064-1.392-8.027-4.027-16.247-21.81-29.395-46.59-39.078-73.652-9.452-26.416-15.781-55.377-18.812-86.077-2.839-28.752-2.792-59.128.141-90.284" fill="#841256" fill-opacity="1" data-original-color="#841256ff" stroke="none" stroke-opacity="1" style=""/><path d="m111.67 590.42c-3.268 0-6.471-1.6-8.388-4.542-6.017-9.234-12.404-19.202-18.706-30.775-1.25-.901-3.04-2.441-4.345-5.051-.061-.121-.119-.244-.175-.368-7.038-15.64-14.864-34.411-19.755-55.381-.743-1.139-1.762-2.875-2.131-5.138-10.956-49.004-12.866-89.158-6.192-130.117 1.854-12.981 3.694-24.705 7.376-36.67.022-.074.046-.148.071-.222 2.218-6.653 4.464-13.169 6.637-19.47 2.159-6.26 4.391-12.733 6.578-19.296.077-.231.163-.459.256-.685 4.599-11.036 9.169-21.033 14.384-31.462.053-.106.108-.212.166-.316 2.999-5.499 6.651-10.584 10.183-15.501 3.224-4.487 6.268-8.726 8.768-13.146 2.718-4.807 8.82-6.499 13.627-3.781 4.808 2.718 6.501 8.819 3.782 13.627-3.033 5.362-6.541 10.246-9.933 14.969-3.285 4.574-6.391 8.897-8.787 13.259-4.917 9.844-9.242 19.299-13.588 29.71-2.183 6.54-4.391 12.945-6.528 19.143-2.144 6.218-4.36 12.646-6.534 19.163-3.242 10.573-4.94 21.478-6.673 33.605-.009.065-.02.132-.03.197-6.23 38.162-4.443 75.815 5.801 121.931.738 1.134 1.742 2.853 2.113 5.087 4.318 18.779 11.372 36.006 17.87 50.552 1.204.898 2.817 2.357 4.038 4.716 6.144 11.4 12.249 20.934 18.483 30.503 3.015 4.627 1.708 10.822-2.919 13.838-1.684 1.097-3.577 1.621-5.449 1.621zm-27.913-36.844c.003.006.005.012.008.017-.003-.005-.005-.011-.008-.017zm-23.963-62.596v.005c0-.002 0-.003 0-.005zm0-.024v.016zm18.238-3.54v.016zm0-.014v.004z" fill="#841256" fill-opacity="1" data-original-color="#841256ff" stroke="none" stroke-opacity="1" style=""/><path d="m330.939 648.412c-1.986 0-3.991-.59-5.739-1.818-4.52-3.175-5.609-9.412-2.435-13.931 22.61-32.186 39.721-86.074 46.947-147.849 10.411-89.01 1.487-190.434-22.735-258.39-6.287-17.636-13.32-32.632-20.766-48.51l-.4-.854c-2.345-5-.192-10.954 4.809-13.299 5.001-2.344 10.955-.191 13.3 4.809l.399.852c7.319 15.607 14.887 31.745 21.497 50.287 25.175 70.628 34.502 175.6 23.761 267.429-7.711 65.925-25.627 121.689-50.446 157.021-1.947 2.771-5.045 4.253-8.192 4.253z" fill="#841256" fill-opacity="1" data-original-color="#841256ff" stroke="none" stroke-opacity="1" style=""/><path d="m205.876 228.319c-1.229 0-2.48-.229-3.692-.711-5.132-2.04-7.638-7.855-5.598-12.987 5.726-14.398 12.053-29.138 19.345-45.06 2.299-5.021 8.233-7.229 13.255-4.928 5.021 2.299 7.228 8.234 4.928 13.256-7.148 15.609-13.345 30.042-18.943 44.122-1.559 3.921-5.319 6.308-9.295 6.308z" fill="#841256" fill-opacity="1" data-original-color="#841256ff" stroke="none" stroke-opacity="1" style=""/><path d="m219.91 633.263c-3.52 0-6.934-1.862-8.758-5.16-11.886-21.479-20.379-43.662-25.964-67.817-23.243-90.461-25.683-184.582-7.253-279.759 1.05-5.421 6.295-8.973 11.718-7.916 5.422 1.05 8.967 6.296 7.917 11.719-17.869 92.283-15.508 183.493 7.019 271.096.021.08.04.161.059.242 5.232 22.673 12.859 42.612 24.003 62.752 2.674 4.832.925 10.917-3.908 13.592-1.535.847-3.196 1.251-4.833 1.251z" fill="#841256" fill-opacity="1" data-original-color="#841256ff" stroke="none" stroke-opacity="1" style=""/><path d="m325.141 57.7c-3.104-10.776-2.217-26.128-10.032-34.75-15.602-17.213-54.195-17.32-69.896-.001-7.816 8.621-6.929 23.974-10.033 34.751-5.207 18.075-14.649 33.913-26.299 48.368l9.167 27.765 24.169-20.369 13.176 25.063 23.748-26.089 22.552 25.207 15.096-24.182 24.182 18.462 13.125-22.632c-12.868-15.32-23.358-32.164-28.955-51.593z" fill="#afdd4a" fill-opacity="1" data-original-color="#afdd4aff" stroke="none" stroke-opacity="1" style=""/><path d="m255.393 148.527c-.422 0-.846-.026-1.27-.081-3.235-.414-6.065-2.379-7.583-5.266l-7.389-14.056-14.66 12.354c-2.54 2.14-5.974 2.879-9.167 1.976-3.194-.904-5.732-3.335-6.773-6.487l-9.167-27.765c-1.064-3.224-.42-6.767 1.71-9.41 12.098-15.012 20.104-29.686 24.476-44.861.823-2.855 1.353-6.45 1.914-10.256 1.407-9.549 3.002-20.371 10.321-28.443 9.214-10.164 25.039-16.232 42.329-16.232h.003c17.324.001 33.167 6.069 42.38 16.234 7.317 8.072 8.912 18.894 10.319 28.441.561 3.806 1.091 7.4 1.914 10.256 4.655 16.159 13.487 31.838 27.002 47.932 2.709 3.226 3.105 7.804.992 11.447l-13.125 22.632c-1.441 2.484-3.88 4.229-6.697 4.791-2.817.559-5.739-.117-8.022-1.859l-15.449-11.795-9.277 14.862c-1.666 2.668-4.491 4.397-7.625 4.667-3.134.282-6.213-.949-8.311-3.295l-15.164-16.949-16.289 17.895c-1.906 2.095-4.598 3.268-7.392 3.268zm-13.177-45.063c.639 0 1.282.062 1.92.187 2.973.581 5.521 2.479 6.931 5.16l6.535 12.433 14.142-15.536c1.896-2.082 4.581-3.269 7.395-3.269h.043c2.83.013 5.522 1.223 7.41 3.332l13.67 15.28 8.042-12.883c1.491-2.388 3.919-4.037 6.689-4.542 2.769-.504 5.623.181 7.862 1.89l15.159 11.573 3.97-6.847c-12.874-16.423-21.552-32.764-26.453-49.773-1.194-4.147-1.849-8.585-2.481-12.877-1.041-7.058-2.116-14.356-5.351-17.926-5.404-5.962-15.965-9.665-27.563-9.666h-.002c-11.566 0-22.108 3.703-27.513 9.666-3.235 3.568-4.312 10.867-5.352 17.927-.632 4.291-1.287 8.729-2.481 12.875-4.691 16.285-12.801 31.888-24.733 47.552l2.852 8.639 12.864-10.841c1.819-1.534 4.107-2.354 6.445-2.354z" fill="#000000" fill-opacity="1" data-original-color="#000000ff" stroke="none" stroke-opacity="1" style=""/><path d="m456.054 579.447c-1.998 0-4.014-.597-5.769-1.839-4.508-3.191-5.575-9.432-2.384-13.939 29.604-41.821 45.404-97.628 44.489-157.141 0-.051-.001-.103-.001-.153 0-2.558.104-5.052.205-7.464.183-4.406.357-8.567-.127-12.441-.546-4.367-1.009-8.571-1.457-12.638-1.011-9.183-1.967-17.856-3.735-27.287-4.755-25.36-12.446-48.372-24.879-74.391l-1.438-1.438c-.924-.924-1.658-2.02-2.16-3.225-4.804-11.528-12.259-21.459-19.484-30.644-3.415-4.341-2.664-10.628 1.677-14.042s10.629-2.665 14.042 1.677c7.715 9.807 15.695 20.448 21.427 33.452l1.287 1.286c.791.792 1.443 1.712 1.93 2.72 13.478 27.919 22.139 53.631 27.254 80.918 1.908 10.174 2.904 19.213 3.958 28.783.44 3.994.895 8.125 1.423 12.347.69 5.524.474 10.725.264 15.754-.095 2.283-.185 4.441-.187 6.56.964 63.693-16.139 123.681-48.164 168.921-1.95 2.755-5.037 4.224-8.171 4.224z" fill="#000000" fill-opacity="1" data-original-color="#000000ff" stroke="none" stroke-opacity="1" style=""/><path d="m759.282 331.322c-15.266-45.796-6.907-83.382-1.287-100.328 2.146-3.08 3.723-6.291 3.778-9.707.27-16.797-23.426-37.079-42.997-36.794-9.734.142-18.089 8.117-26.231 11.778-13.679 6.151-28.629 8.984-44.098 9.977-15.979 1.025-32.48.085-48.709-1.177-31.848-2.477-63.399-8.129-95.091-7.991-77.7.339-154.249 38.713-195.058 98.475-34.639 50.727-40.831 114.41-20.331 172.499 15.022 53.064 43.008 102.849 80.777 143.059 61.11 65.06 145.961 98.44 234.6 80.207 71.774-14.765 134.043-65.245 161.778-133.29 29.599-72.609 16.944-154.485-7.131-226.708z" fill="#af2872" fill-opacity="1" data-original-color="#af2872ff" stroke="none" stroke-opacity="1" style=""/><path d="m556.339 706.271c-71.02 0-139.582-30.811-193.591-88.312-38.739-41.244-67.443-92.026-83.024-146.879-10.597-30.168-14.37-62.372-10.914-93.153 3.602-32.073 14.544-61.685 32.522-88.013 42.416-62.115 122.205-102.481 203.272-102.836 20.984-.102 42.017 2.297 62.344 4.607 11.015 1.252 22.405 2.546 33.566 3.414 15.376 1.196 31.748 2.167 47.293 1.168 15.982-1.026 29.275-4.009 40.638-9.118 2.053-.924 4.408-2.375 6.9-3.912 6.219-3.835 13.959-8.608 23.286-8.744 13.049-.21 28.124 6.638 39.29 17.82 9.088 9.101 14.007 19.447 13.852 29.133-.075 4.592-1.613 9.17-4.697 13.957-5.528 17.309-12.121 51.312 1.693 92.755h.001c13.773 41.321 21.91 80.26 24.185 115.732 2.777 43.301-3.037 82.973-17.28 117.912-28.688 70.385-93.455 123.766-169.022 139.311-16.801 3.457-33.629 5.158-50.314 5.158zm-50.527-499.195c-.374 0-.747.001-1.121.003-74.685.326-148.025 37.269-186.843 94.115-32.207 47.165-39.19 106.77-19.159 163.531.07.199.134.401.192.604 14.692 51.898 41.818 99.942 78.444 138.937 61.834 65.832 143.95 93.993 225.297 77.258 69.116-14.218 128.33-62.985 154.532-127.27 13.094-32.121 18.424-68.821 15.842-109.084-2.164-33.756-9.97-70.997-23.2-110.688-15.988-47.962-7.672-87.399-1.291-106.638.303-.914.736-1.78 1.287-2.57 1.707-2.449 1.976-3.652 1.983-4.151.065-4.042-3.003-9.667-8.006-14.678-7.168-7.179-17.01-11.956-24.587-11.956-.087 0-.173.001-.26.002-3.813.056-8.313 2.831-13.079 5.77-2.928 1.806-5.956 3.673-9.196 5.13-13.586 6.108-29.143 9.653-47.559 10.836-16.792 1.079-34.015.066-50.125-1.188-11.514-.896-23.084-2.21-34.273-3.481-20.272-2.303-39.441-4.482-58.878-4.482z" fill="#000000" fill-opacity="1" data-original-color="#000000ff" stroke="none" stroke-opacity="1" style=""/><path d="m343.044 551.346c11.223 11.041 23.594 21.118 36.517 29.525 70.809 46.057 164.997 56.695 241.646 21.432 75.802-34.873 125.136-108.917 125.59-185.471.18-30.333-6.74-60.32-9.679-89.864-1.371-13.781-2.397-27.648-1.517-41.002.981-14.87 4.327-29.115 12.206-41.93 4.35-7.076 13.83-14.282 13.966-22.748.27-16.797-23.426-37.078-42.997-36.794-9.733.142-18.089 8.117-26.23 11.778-13.679 6.151-28.629 8.984-44.098 9.977-15.979 1.025-32.48.085-48.71-1.177-31.848-2.477-63.398-8.129-95.09-7.991-77.7.339-154.249 38.713-195.058 98.475-34.639 50.727-40.83 114.41-20.331 172.499 4.317 12.232 9.817 24.217 16.484 35.78 9.476 16.431 22.363 32.816 37.301 47.511z" fill="#f4e287" fill-opacity="1" data-original-color="#f4e287ff" stroke="none" stroke-opacity="1" style=""/><path d="m522.747 633.257c-8.454 0-16.96-.404-25.503-1.221-43.982-4.199-86.562-18.993-123.135-42.782-13.301-8.652-26.114-19.009-38.077-30.779-15.607-15.354-29.077-32.521-38.951-49.646-6.904-11.973-12.708-24.571-17.251-37.447-10.676-30.254-14.487-62.57-11.019-93.453 3.602-32.073 14.543-61.685 32.521-88.013 42.417-62.116 122.206-102.482 203.272-102.836 21.006-.088 42.017 2.298 62.343 4.607 11.015 1.252 22.405 2.546 33.566 3.414 15.376 1.196 31.749 2.167 47.294 1.168 15.982-1.026 29.275-4.009 40.637-9.117 2.052-.923 4.406-2.375 6.899-3.912 6.22-3.836 13.961-8.609 23.288-8.745 13.049-.21 28.125 6.638 39.29 17.82 9.088 9.101 14.007 19.447 13.852 29.133-.149 9.283-6.14 16.367-10.953 22.059-1.786 2.112-3.473 4.107-4.493 5.767-6.243 10.155-9.759 22.372-10.746 37.351-.851 12.889.213 26.531 1.489 39.354 1.017 10.225 2.567 20.819 4.067 31.065 2.842 19.414 5.78 39.49 5.66 59.849-.235 39.68-12.769 79.064-36.247 113.896-23.534 34.915-56.441 62.786-95.163 80.601-31.391 14.439-66.46 21.866-102.64 21.867zm-16.935-426.181c-.374 0-.747.001-1.121.003-74.685.325-148.025 37.268-186.843 94.115-32.207 47.164-39.19 106.77-19.159 163.531 4.136 11.723 9.424 23.199 15.717 34.112 8.984 15.582 21.312 31.273 35.651 45.379v.001c11.013 10.834 22.773 20.346 34.957 28.271 33.881 22.037 73.347 35.744 114.131 39.639 41.599 3.97 82.36-2.567 117.883-18.909 35.39-16.281 65.453-41.735 86.938-73.609 21.267-31.552 32.62-67.112 32.831-102.837.111-18.842-2.715-38.155-5.449-56.833-1.532-10.471-3.117-21.298-4.181-31.981-1.36-13.678-2.489-28.312-1.544-42.65 1.207-18.303 5.677-33.516 13.666-46.509 1.811-2.945 4.072-5.619 6.259-8.206 2.613-3.09 6.192-7.323 6.227-9.465.065-4.045-3.003-9.671-8.006-14.681-7.168-7.179-17.01-11.956-24.587-11.956-.087 0-.173.001-.26.002-3.813.056-8.315 2.831-13.081 5.771-2.927 1.805-5.954 3.672-9.193 5.129-13.587 6.109-29.144 9.653-47.559 10.836-16.793 1.077-34.016.066-50.126-1.188-11.514-.896-23.084-2.21-34.273-3.481-20.272-2.305-39.441-4.484-58.878-4.484z" fill="#000000" fill-opacity="1" data-original-color="#000000ff" stroke="none" stroke-opacity="1" style=""/><path d="m513.745 582.99c-18.782 0-37.04-8.418-48.831-23.416l-14.782-18.806c-1.184-1.505-2.935-2.589-4.93-3.051l-19.596-4.533c-2.357-.548-4.849-.163-6.836 1.049-11.355 6.923-26.075 4.936-35-4.724l-29.224-31.635c-4.077-4.413-6.055-10.32-5.427-16.206.639-5.994 3.912-11.473 8.98-15.033.682-.48 1.059-1.144.982-1.736l-1.139-8.771c-1.343-10.351-6.917-19.66-15.696-26.213-9.625-7.183-16.062-17.376-18.125-28.702l-4.787-26.267c-1.923-10.555 1.308-21.299 8.865-29.474l6.506-7.037 2.628-7.837c5.762-17.182 20.246-31.12 38.744-37.284 6.7-2.232 11.947-7.001 14.034-12.757 3.746-10.33 14.173-16.998 25.954-16.66 2.257.071 4.473-.675 5.956-1.991l8.536-7.579c12.505-11.102 30.197-15.47 47.324-11.685 2.232.494 4.613.348 6.702-.41l9.317-3.377c10.646-3.859 22.535-3.128 32.623 2.006l4.908 2.497c3.495 1.777 8.008 1.703 11.231-.189 7.417-4.355 16.518-5.299 24.97-2.596l14.707 4.705c2.375.76 4.957.803 7.271.117l8.355-2.471c4.944-1.464 10.231-1.662 15.354-.584l7.254.221c14.422.439 27.967 6.558 37.162 16.788.828.92 2.188 1.59 3.636 1.792 10.261 1.426 18.46 8.703 20.403 18.107l3.262 15.799c2.515 5.515 3.001 11.606 1.354 17.307l-7.731 26.771c-.384 1.331-.277 2.783.311 4.202l10.997 26.534c2.145 5.176 2.594 10.717 1.298 16.026l-5.63 23.083c-.761 3.117-.792 6.348-.094 9.603l3.669 17.105c2.011 9.378.182 18.887-5.151 26.775l-9.733 14.391c-.545.807-1.019 1.663-1.405 2.542l-11.828 26.908c-4.736 10.772-14.801 18.784-26.925 21.433-7.945 1.736-13.835 7.607-15.006 14.955-2.922 18.351-18.648 31.687-38.244 32.431l-32.423 1.23c-2.745.104-5.446.556-8.027 1.342l-8.546 2.603c-5.98 1.822-12.107 2.702-18.177 2.702z" fill="#f43861" fill-opacity="1" data-original-color="#f43861ff" stroke="none" stroke-opacity="1" style=""/><path d="m514.181 592.042c-19.763 0-38.975-8.857-51.382-24.64l-15.554-19.788c-1.246-1.584-3.088-2.725-5.188-3.21l-20.62-4.77c-2.48-.576-5.102-.172-7.193 1.104-11.948 7.284-27.438 5.194-36.829-4.971l-30.751-33.287c-4.29-4.644-6.372-10.859-5.71-17.053.673-6.307 4.117-12.072 9.449-15.818.718-.505 1.114-1.204 1.034-1.826l-1.198-9.229c-1.414-10.892-7.279-20.688-16.516-27.582-10.127-7.559-16.901-18.284-19.072-30.201l-5.037-27.64c-2.024-11.106 1.376-22.411 9.328-31.014l6.846-7.404 2.765-8.246c6.063-18.08 21.304-32.746 40.768-39.231 7.05-2.349 12.571-7.367 14.767-13.424 3.941-10.87 14.913-17.886 27.31-17.53 2.375.075 4.707-.71 6.267-2.095l8.982-7.975c13.158-11.682 31.774-16.278 49.796-12.296 2.348.52 4.854.366 7.052-.432l9.804-3.554c11.202-4.061 23.712-3.291 34.327 2.11l5.164 2.628c3.677 1.87 8.426 1.792 11.818-.199 7.805-4.583 17.381-5.576 26.274-2.731l15.475 4.951c2.499.8 5.216.845 7.651.123l8.791-2.601c5.203-1.54 10.766-1.749 16.156-.614l7.633.232c15.175.462 29.428 6.9 39.103 17.665.871.968 2.302 1.673 3.826 1.886 10.797 1.5 19.425 9.157 21.469 19.053l3.433 16.624c2.646 5.803 3.158 12.212 1.425 18.211l-8.135 28.17c-.404 1.4-.291 2.929.328 4.422l11.571 27.92c2.257 5.446 2.729 11.277 1.366 16.863l-5.924 24.289c-.8 3.28-.833 6.68-.099 10.104l3.861 17.999c2.116 9.868.191 19.874-5.42 28.174l-10.241 15.143c-.574.85-1.072 1.75-1.478 2.675l-12.446 28.313c-4.983 11.335-15.574 19.766-28.332 22.553-8.36 1.827-14.558 8.005-15.79 15.736-3.074 19.31-19.623 33.343-40.242 34.125l-34.117 1.294c-2.889.109-5.731.585-8.447 1.412l-8.992 2.739c-6.291 1.917-12.738 2.843-19.126 2.843zm-94.938-72.654c2.245 0 4.497.251 6.703.762l20.618 4.769c6.523 1.509 12.35 5.179 16.405 10.336l15.555 19.788c11.358 14.447 31.034 20.484 48.956 15.025l8.993-2.739c4.36-1.328 8.908-2.09 13.516-2.266l34.118-1.294c10.957-.415 19.695-7.522 21.249-17.283 2.535-15.92 14.81-28.532 31.271-32.131 6.629-1.448 11.838-5.48 14.292-11.062l12.445-28.312c.889-2.021 1.972-3.983 3.219-5.829l10.242-15.145c2.533-3.745 3.396-8.283 2.433-12.777l-3.86-17.997c-1.373-6.398-1.297-12.804.223-19.038l5.924-24.29c.349-1.431.207-2.975-.412-4.466l-11.572-27.92c-2.374-5.729-2.743-11.825-1.066-17.629l8.135-28.17c.44-1.525.231-3.174-.604-4.765-.435-.828-.751-1.712-.94-2.627l-3.686-17.85c-.276-1.338-2.085-2.935-4.635-3.288-6.236-.867-11.899-3.823-15.946-8.324-5.954-6.625-15.239-10.753-24.838-11.046l-8.598-.262c-.704-.021-1.403-.117-2.086-.285-2.263-.557-4.686-.517-6.821.116l-8.792 2.601c-6.243 1.847-13.141 1.758-19.42-.252l-15.475-4.951c-3.433-1.098-7.19-.75-10.053.93-9.319 5.471-21.204 5.77-31.015.776l-5.164-2.628c-5.617-2.858-12.51-3.281-18.439-1.132l-9.803 3.554c-5.801 2.104-12.088 2.505-18.183 1.158-11.608-2.562-23.949.395-32.204 7.724l-8.981 7.974c-5.363 4.761-12.714 7.368-20.166 7.129-3.607-.107-6.931 1.72-7.888 4.357-4.326 11.93-14.256 21.253-27.247 25.581-13.536 4.51-24.05 14.46-28.127 26.615l-3.447 10.28c-.45 1.342-1.179 2.571-2.139 3.61l-8.302 8.979c-3.642 3.94-5.224 8.989-4.338 13.851l5.037 27.64c1.262 6.928 5.296 13.234 11.359 17.76 13.61 10.159 22.271 24.732 24.387 41.035l1.198 9.229c1.041 8.016-2.549 15.974-9.369 20.766-.622.438-.998.996-1.06 1.576-.051.483.117.929.514 1.358l30.751 33.287c2.855 3.092 8.006 3.736 11.726 1.467 4.606-2.812 9.987-4.275 15.407-4.275z" fill="#000000" fill-opacity="1" data-original-color="#000000ff" stroke="none" stroke-opacity="1" style=""/><path d="m741.073 552.773c-1.45 0-2.924-.316-4.318-.985-4.979-2.389-7.08-8.362-4.691-13.342 1.259-2.623 2.463-5.313 3.578-7.996 2.122-5.1 7.975-7.514 13.074-5.393 5.1 2.122 7.514 7.975 5.393 13.074-1.252 3.008-2.602 6.024-4.012 8.965-1.721 3.586-5.298 5.677-9.024 5.677z" fill="#841256" fill-opacity="1" data-original-color="#841256ff" stroke="none" stroke-opacity="1" style=""/><path d="m549.349 671.982c-16.011 0-32.287-1.568-48.495-4.716-5.421-1.053-8.963-6.301-7.911-11.723 1.053-5.421 6.3-8.962 11.723-7.91 33.727 6.549 67.69 5.694 98.222-2.473 29.051-7.771 56.308-22.271 78.823-41.937 13.242-11.566 25.391-25.075 36.109-40.152 3.199-4.501 9.443-5.559 13.944-2.356 4.501 3.2 5.557 9.443 2.356 13.944-11.626 16.354-24.832 31.032-39.254 43.628-24.805 21.665-54.824 37.639-86.812 46.193-18.667 4.996-38.473 7.502-58.705 7.502z" fill="#841256" fill-opacity="1" data-original-color="#841256ff" stroke="none" stroke-opacity="1" style=""/><path d="m472.139 659.729c-.979 0-1.974-.145-2.958-.449-2.369-.732-4.772-1.506-7.142-2.297-5.239-1.75-8.067-7.415-6.317-12.653s7.414-8.065 12.652-6.317c2.229.745 4.489 1.472 6.716 2.16 5.276 1.632 8.23 7.231 6.599 12.508-1.327 4.293-5.281 7.048-9.55 7.048z" fill="#841256" fill-opacity="1" data-original-color="#841256ff" stroke="none" stroke-opacity="1" style=""/><g fill="#fcd722"><ellipse cx="384.946" cy="393.68" rx="11.248" ry="11.248" transform="matrix(.956 -.294 .294 .956 -98.665 130.454)" fill="#fcd722" fill-opacity="1" data-original-color="#fcd722ff" stroke="none" stroke-opacity="1" style=""/><ellipse cx="431.714" cy="495.846" rx="11.248" ry="11.248" transform="matrix(.956 -.294 .294 .956 -126.614 148.701)" fill="#fcd722" fill-opacity="1" data-original-color="#fcd722ff" stroke="none" stroke-opacity="1" style=""/><ellipse cx="634.733" cy="294.624" rx="11.248" ry="11.248" transform="matrix(.956 -.294 .294 .956 -58.544 199.463)" fill="#fcd722" fill-opacity="1" data-original-color="#fcd722ff" stroke="none" stroke-opacity="1" style=""/><ellipse cx="565.595" cy="328.294" rx="11.248" ry="11.248" transform="matrix(.956 -.294 .294 .956 -71.486 180.638)" fill="#fcd722" fill-opacity="1" data-original-color="#fcd722ff" stroke="none" stroke-opacity="1" style=""/><ellipse cx="440.668" cy="309.198" rx="11.248" ry="11.248" transform="matrix(.956 -.294 .294 .956 -71.388 143.096)" fill="#fcd722" fill-opacity="1" data-original-color="#fcd722ff" stroke="none" stroke-opacity="1" style=""/><ellipse cx="575.855" cy="434.237" rx="11.248" ry="11.248" transform="matrix(.956 -.294 .294 .956 -102.156 188.326)" fill="#fcd722" fill-opacity="1" data-original-color="#fcd722ff" stroke="none" stroke-opacity="1" style=""/><ellipse cx="566.113" cy="511.596" rx="11.248" ry="11.248" transform="matrix(.956 -.294 .294 .956 -125.311 188.878)" fill="#fcd722" fill-opacity="1" data-original-color="#fcd722ff" stroke="none" stroke-opacity="1" style=""/><ellipse cx="483.807" cy="413.452" rx="11.248" ry="11.248" transform="matrix(.98 -.197 .197 .98 -72.022 103.506)" fill="#fcd722" fill-opacity="1" data-original-color="#fcd722ff" stroke="none" stroke-opacity="1" style=""/><ellipse cx="373.643" cy="340.593" rx="11.248" ry="11.248" transform="matrix(.956 -.294 .294 .956 -83.568 124.791)" fill="#fcd722" fill-opacity="1" data-original-color="#fcd722ff" stroke="none" stroke-opacity="1" style=""/><ellipse cx="517.219" cy="521.524" rx="11.248" ry="11.248" transform="matrix(.956 -.294 .294 .956 -130.385 174.952)" fill="#fcd722" fill-opacity="1" data-original-color="#fcd722ff" stroke="none" stroke-opacity="1" style=""/><ellipse cx="420.412" cy="442.759" rx="11.248" ry="11.248" transform="matrix(.956 -.294 .294 .956 -111.518 143.038)" fill="#fcd722" fill-opacity="1" data-original-color="#fcd722ff" stroke="none" stroke-opacity="1" style=""/><ellipse cx="641.482" cy="347.939" rx="11.248" ry="11.248" transform="matrix(.956 -.294 .294 .956 -73.909 203.798)" fill="#fcd722" fill-opacity="1" data-original-color="#fcd722ff" stroke="none" stroke-opacity="1" style=""/><ellipse cx="591.14" cy="284.871" rx="11.248" ry="11.248" transform="matrix(.956 -.294 .294 .956 -57.603 186.226)" fill="#fcd722" fill-opacity="1" data-original-color="#fcd722ff" stroke="none" stroke-opacity="1" style=""/><ellipse cx="564.553" cy="381.15" rx="11.248" ry="11.248" transform="matrix(.956 -.294 .294 .956 -87.059 182.664)" fill="#fcd722" fill-opacity="1" data-original-color="#fcd722ff" stroke="none" stroke-opacity="1" style=""/><ellipse cx="630.398" cy="399.982" rx="11.248" ry="11.248" transform="matrix(.956 -.294 .294 .956 -89.686 202.838)" fill="#fcd722" fill-opacity="1" data-original-color="#fcd722ff" stroke="none" stroke-opacity="1" style=""/><ellipse cx="644.267" cy="444.527" rx="11.248" ry="11.248" transform="matrix(.956 -.294 .294 .956 -102.16 208.877)" fill="#fcd722" fill-opacity="1" data-original-color="#fcd722ff" stroke="none" stroke-opacity="1" style=""/><ellipse cx="603.789" cy="469.43" rx="11.248" ry="11.248" transform="matrix(.956 -.294 .294 .956 -111.262 198.085)" fill="#fcd722" fill-opacity="1" data-original-color="#fcd722ff" stroke="none" stroke-opacity="1" style=""/><ellipse cx="527.546" cy="455.915" rx="11.248" ry="11.248" transform="matrix(.956 -.294 .294 .956 -110.656 175.091)" fill="#fcd722" fill-opacity="1" data-original-color="#fcd722ff" stroke="none" stroke-opacity="1" style=""/><ellipse cx="511.372" cy="291.906" rx="11.248" ry="11.248" transform="matrix(.98 -.197 .197 .98 -47.516 106.555)" fill="#fcd722" fill-opacity="1" data-original-color="#fcd722ff" stroke="none" stroke-opacity="1" style=""/><ellipse cx="472.505" cy="360.365" rx="11.248" ry="11.248" transform="matrix(.98 -.197 .197 .98 -61.777 100.236)" fill="#fcd722" fill-opacity="1" data-original-color="#fcd722ff" stroke="none" stroke-opacity="1" style=""/></g><g/><g/><g/><g/><g/><g/><g/><g/><g/><g/><g/><g/><g/><g/><g/></g></svg>