<?xml version="1.0" encoding="UTF-8" standalone="no"?>
<!-- Created with Inkscape (http://www.inkscape.org/) -->

<svg
   version="1.1"
   id="svg5253"
   xml:space="preserve"
   width="682.66669"
   height="682.66669"
   viewBox="0 0 682.66669 682.66669"
   xmlns="http://www.w3.org/2000/svg"
   xmlns:svg="http://www.w3.org/2000/svg"><defs
     id="defs5257"><clipPath
       clipPathUnits="userSpaceOnUse"
       id="clipPath5267"><path
         d="M 0,512 H 512 V 0 H 0 Z"
         id="path5265" /></clipPath></defs><g
     id="g5259"
     transform="matrix(1.3333333,0,0,-1.3333333,0,682.66667)"><g
       id="g5261"><g
         id="g5263"
         clip-path="url(#clipPath5267)"><g
           id="g5269"
           transform="translate(488.4678,127.7383)"><path
             d="m 0,0 -36.003,-90.005 c -7.304,-18.26 -24.99,-30.233 -44.657,-30.233 h -303.615 c -19.667,0 -37.353,11.973 -44.657,30.234 l -36.004,90.01"
             style="fill:none;stroke:#000000;stroke-width:15;stroke-linecap:round;stroke-linejoin:round;stroke-miterlimit:10;stroke-dasharray:none;stroke-opacity:1"
             id="path5271" /></g><g
           id="g5273"
           transform="translate(23.5322,159.8071)"><path
             d="m 0,0 v 48.096 c 0,128.388 104.079,232.467 232.468,232.467 128.388,0 232.468,-104.079 232.468,-232.467 V -0.001"
             style="fill:none;stroke:#000000;stroke-width:15;stroke-linecap:round;stroke-linejoin:round;stroke-miterlimit:10;stroke-dasharray:none;stroke-opacity:1"
             id="path5275" /></g><g
           id="g5277"
           transform="translate(408.3081,127.7417)"><path
             d="m 0,0 h -384.776 c -8.854,0 -16.032,7.178 -16.032,16.032 0,8.855 7.178,16.032 16.032,16.032 H 80.16 c 8.854,0 16.032,-7.177 16.032,-16.032 C 96.192,7.178 89.014,0 80.16,0 h -48.1"
             style="fill:none;stroke:#000000;stroke-width:15;stroke-linecap:round;stroke-linejoin:round;stroke-miterlimit:10;stroke-dasharray:none;stroke-opacity:1"
             id="path5279" /></g><g
           id="g5281"
           transform="translate(111.707,346.9751)"><path
             d="m 0,0 c -34.743,-36.039 -56.11,-85.06 -56.11,-139.072 v -48.097"
             style="fill:none;stroke:#000000;stroke-width:15;stroke-linecap:round;stroke-linejoin:round;stroke-miterlimit:10;stroke-dasharray:none;stroke-opacity:1"
             id="path5283" /></g><g
           id="g5285"
           transform="translate(456.4033,159.8062)"><path
             d="M 0,0 V 48.097 C 0,158.777 -89.724,248.5 -200.403,248.5 c -45.116,0 -86.749,-14.908 -120.243,-40.067"
             style="fill:none;stroke:#000000;stroke-width:15;stroke-linecap:round;stroke-linejoin:round;stroke-miterlimit:10;stroke-dasharray:none;stroke-opacity:1"
             id="path5287" /></g><g
           id="g5289"
           transform="translate(337.4629,159.8062)"><path
             d="m 0,0 c 4.295,9.825 6.714,20.657 6.714,32.065 0,44.272 -35.889,80.161 -80.161,80.161 -44.271,0 -80.161,-35.889 -80.161,-80.161 0,-11.408 2.419,-22.24 6.714,-32.065"
             style="fill:none;stroke:#000000;stroke-width:15;stroke-linecap:round;stroke-linejoin:round;stroke-miterlimit:10;stroke-dasharray:none;stroke-opacity:1"
             id="path5291" /></g><g
           id="g5293"
           transform="translate(245.1157,272.3989)"><path
             d="m 0,0 c -6.705,18.489 -24.424,31.698 -45.229,31.698 -22.497,0 -41.386,-15.446 -46.642,-36.311"
             style="fill:none;stroke:#000000;stroke-width:15;stroke-linecap:round;stroke-linejoin:round;stroke-miterlimit:10;stroke-dasharray:none;stroke-opacity:1"
             id="path5295" /></g><g
           id="g5297"
           transform="translate(375.0889,237.4678)"><path
             d="m 0,0 c 0.755,3.385 1.153,6.904 1.153,10.516 0,26.563 -21.534,48.097 -48.097,48.097 -8.431,0 -16.356,-2.17 -23.246,-5.981"
             style="fill:none;stroke:#000000;stroke-width:15;stroke-linecap:round;stroke-linejoin:round;stroke-miterlimit:10;stroke-dasharray:none;stroke-opacity:1"
             id="path5299" /></g><g
           id="g5301"
           transform="translate(424.3389,159.8062)"><path
             d="m 0,0 c 0,44.272 -35.89,80.162 -80.162,80.162 -4.337,0 -8.593,-0.345 -12.743,-1.008"
             style="fill:none;stroke:#000000;stroke-width:15;stroke-linecap:round;stroke-linejoin:round;stroke-miterlimit:10;stroke-dasharray:none;stroke-opacity:1"
             id="path5303" /></g><g
           id="g5305"
           transform="translate(192.7964,232)"><path
             d="m 0,0 c -9.887,5.093 -21.103,7.968 -32.99,7.968 -39.844,0 -72.145,-32.301 -72.145,-72.146 0,-2.713 0.178,-5.381 0.47,-8.016"
             style="fill:none;stroke:#000000;stroke-width:15;stroke-linecap:round;stroke-linejoin:round;stroke-miterlimit:10;stroke-dasharray:none;stroke-opacity:1"
             id="path5307" /></g><g
           id="g5309"
           transform="translate(291.9976,269.269)"><path
             d="M 0,0 C 3.681,3.729 6.795,8.143 9.132,13.171 15.008,25.815 14.745,39.709 9.647,51.586 -2.719,47.825 -13.509,39.068 -19.385,26.424 -22.498,19.727 -23.888,12.679 -23.75,5.766"
             style="fill:none;stroke:#000000;stroke-width:15;stroke-linecap:round;stroke-linejoin:round;stroke-miterlimit:10;stroke-dasharray:none;stroke-opacity:1"
             id="path5311" /></g><g
           id="g5313"
           transform="translate(168.2241,240.6572)"><path
             d="m 0,0 c -1.1,4.828 -2.988,9.562 -5.715,14.022 -7.27,11.897 -18.983,19.376 -31.696,21.712 -3.719,-12.379 -2.406,-26.213 4.865,-38.109"
             style="fill:none;stroke:#000000;stroke-width:15;stroke-linecap:round;stroke-linejoin:round;stroke-miterlimit:10;stroke-dasharray:none;stroke-opacity:1"
             id="path5315" /></g><g
           id="g5317"
           transform="translate(199.8872,432.3545)"><path
             d="M 0,0 8.016,-24.048"
             style="fill:none;stroke:#000000;stroke-width:15;stroke-linecap:round;stroke-linejoin:round;stroke-miterlimit:10;stroke-dasharray:none;stroke-opacity:1"
             id="path5319" /></g><g
           id="g5321"
           transform="translate(312.1128,432.3545)"><path
             d="M 0,0 -8.016,-24.048"
             style="fill:none;stroke:#000000;stroke-width:15;stroke-linecap:round;stroke-linejoin:round;stroke-miterlimit:10;stroke-dasharray:none;stroke-opacity:1"
             id="path5323" /></g><g
           id="g5325"
           transform="translate(255.2617,440.3521)"><path
             d="m 0,0 c -11.027,19.972 -29.226,52.198 -34.915,57.887 -8.348,8.348 -21.883,8.348 -30.231,0 -8.348,-8.348 -8.348,-21.883 0,-30.231 4.683,-4.682 27.363,-17.85 46.378,-28.513"
             style="fill:none;stroke:#000000;stroke-width:15;stroke-linecap:round;stroke-linejoin:round;stroke-miterlimit:10;stroke-dasharray:none;stroke-opacity:1"
             id="path5327" /></g><g
           id="g5329"
           transform="translate(275.5059,439.4951)"><path
             d="m 0,0 c 19.016,10.663 41.695,23.831 46.378,28.513 8.349,8.348 8.349,21.883 0,30.231 -8.348,8.348 -21.882,8.348 -30.231,0 C 10.458,53.055 -7.74,20.829 -18.768,0.857"
             style="fill:none;stroke:#000000;stroke-width:15;stroke-linecap:round;stroke-linejoin:round;stroke-miterlimit:10;stroke-dasharray:none;stroke-opacity:1"
             id="path5331" /></g></g></g></g></svg>
