<svg id="Capa_1" enable-background="new 0 0 512 512" height="512" viewBox="0 0 512 512" width="512" xmlns="http://www.w3.org/2000/svg"><g><g><circle cx="328.145" cy="264.01" fill="#ff8086" r="48.097"/><path d="m304.244 200.809c-.911-5.493-7.376-8.04-12.132-5.144-8.68 5.284-16.089 13.296-20.833 23.504-3.394 7.301-5.049 14.92-5.147 22.341l23.931 5.375c3.869-4.133 7.185-8.981 9.732-14.463 4.829-10.389 6.139-21.421 4.449-31.613z" fill="#aedb81"/><circle cx="199.887" cy="255.993" fill="#95cc81" r="48.097"/><path d="m166.121 263.223c-6.371-10.425-15.041-18.353-24.563-23.342-5.494-2.878-11.915 1.255-11.835 7.457.137 10.683 3.239 21.93 9.566 32.283l34.087.143c-1.583-5.617-3.99-11.198-7.255-16.541z" fill="#aedb81"/><circle cx="159.807" cy="344.171" fill="#ffc269" r="72.145"/><path d="m183.855 400.284c-39.845 0-72.145-32.301-72.145-72.145 0-19.804 7.991-37.734 20.909-50.771-26.36 10.74-44.958 36.583-44.958 66.803 0 39.844 32.3 72.145 72.145 72.145 20.04 0 38.162-8.182 51.236-21.374-8.395 3.42-17.562 5.342-27.187 5.342z" fill="#ffa95f"/><circle cx="344.177" cy="352.187" fill="#95cc81" r="80.161"/><circle cx="264.016" cy="320.122" fill="#ffc269" r="80.161"/><path d="m284.056 380.243c-44.272 0-80.161-35.89-80.161-80.161 0-17.015 5.338-32.763 14.379-45.74-20.787 14.483-34.419 38.525-34.419 65.781 0 44.272 35.89 80.161 80.161 80.161 27.256 0 51.299-13.633 65.781-34.42-12.977 9.041-28.725 14.379-45.741 14.379z" fill="#ffa95f"/><path d="m472.435 388.259c-11.069 0-20.04-8.971-20.04-20.04v-64.129c0-108.296-88.099-196.395-196.395-196.395-119 0-196.395 83.298-196.395 196.395v64.129c0 11.069-8.971 20.04-20.04 20.04s-20.04-8.971-20.04-20.04v-64.129c-.001-130.395 106.08-236.476 236.475-236.476s236.476 106.081 236.476 236.476v64.129c0 11.069-8.971 20.04-20.041 20.04z" fill="#ffe07d"/><path d="m23.532 384.248 36.003 90.01c7.304 18.261 24.99 30.235 44.657 30.235h303.616c19.667 0 37.352-11.974 44.656-30.234l36.003-90.005-16.026-16.03-432.871-.005z" fill="#e5646e"/><path d="m143.774 408.3h338.282l6.412-24.045-16.026-16.03-432.872-.006-16.038 16.029 36.003 90.01c7.242 18.104 24.694 29.994 44.158 30.197v-56.075c.001-22.135 17.945-40.08 40.081-40.08z" fill="#db4655"/><g fill="#e5646e"><path d="m488.468 352.187h-464.936c-8.854 0-16.032 7.178-16.032 16.032s7.178 16.032 16.032 16.032h464.935c8.854 0 16.032-7.178 16.032-16.032.001-8.855-7.177-16.032-16.031-16.032z"/><path d="m210.994 112.959c14.464-3.405 29.517-5.264 45.006-5.264s30.542 1.858 45.006 5.264l12.729-38.186c-18.487-4.656-37.822-7.158-57.735-7.158s-39.247 2.502-57.735 7.158z"/></g></g><path d="m512 368.219c0-10.353-6.724-19.16-16.032-22.3v-41.83c0-64.098-24.961-124.359-70.285-169.683-35.09-35.089-79.137-57.961-126.983-66.506 23.668-13.799 27.052-17.176 28.487-18.611 5.455-5.454 8.458-12.706 8.458-20.418s-3.004-14.965-8.458-20.419c-11.258-11.258-29.578-11.259-40.837 0-1.687 1.686-6.576 6.58-30.35 49.078-23.774-42.499-28.663-47.392-30.35-49.078-11.259-11.259-29.578-11.259-40.837 0-5.455 5.454-8.458 12.706-8.458 20.419s3.004 14.964 8.458 20.418c1.435 1.435 4.812 4.809 28.486 18.612-47.845 8.545-91.892 31.418-126.982 66.508-45.324 45.322-70.285 105.583-70.285 169.681v41.83c-9.308 3.139-16.032 11.946-16.032 22.299 0 11.145 7.791 20.498 18.21 22.918l34.362 85.907c8.492 21.23 28.754 34.949 51.62 34.949h303.616c22.866 0 43.128-13.718 51.62-34.948l34.365-85.909c10.418-2.42 18.207-11.773 18.207-22.917zm-31.032-64.129v40.597h-17.064v-40.597c0-95.26-64.404-175.753-151.953-200.247l5.427-16.28c36.573 10.308 70.093 29.845 97.699 57.451 42.49 42.491 65.891 98.985 65.891 159.076zm-266.299-203.822-5.43-16.291c15.208-3.199 30.856-4.854 46.761-4.854s31.553 1.656 46.761 4.854l-5.446 16.339c-13.357-2.704-27.172-4.129-41.315-4.129-14.04 0-27.862 1.378-41.331 4.081zm82.288-81.211c5.411-5.41 14.214-5.41 19.624 0 2.621 2.621 4.065 6.106 4.065 9.813 0 3.706-1.444 7.191-4.065 9.812-1.145 1.145-7.608 6.387-42.647 26.097-1.543-.113-3.091-.2-4.64-.284 16.549-29.545 25.128-42.903 27.663-45.438zm-101.538 19.625c-2.621-2.621-4.065-6.106-4.065-9.812 0-3.707 1.444-7.191 4.065-9.813 5.41-5.41 14.213-5.411 19.624 0 2.535 2.535 11.114 15.893 27.663 45.438-1.549.084-3.097.17-4.64.284-35.039-19.711-41.502-24.952-42.647-26.097zm-98.495 106.332c27.606-27.606 61.126-47.143 97.699-57.451l5.404 16.212c-24.637 6.854-47.864 18.275-68.775 33.982-3.312 2.488-3.98 7.189-1.492 10.501 2.487 3.312 7.188 3.979 10.501 1.492 33.587-25.229 73.609-38.563 115.739-38.563 106.367 0 192.903 86.536 192.903 192.903v40.597h-17.389c-2.66-31.235-21.766-57.849-48.602-71.124.544-3.144.829-6.345.829-9.554 0-30.656-24.94-55.597-55.597-55.597-5.146 0-10.253.742-15.169 2.133.103-7.596-1.374-15.224-4.439-22.366-1.508-3.513-5.417-5.33-9.075-4.217-14.871 4.523-27.136 15.158-33.651 29.177-2.873 6.182-4.514 12.686-4.941 19.384-3.436.122-6.824.436-10.149.944-8.843-19.928-28.804-33.071-50.834-33.071-22.58 0-42.53 13.522-51.141 33.759-5.118-2.825-10.705-4.851-16.577-5.93-3.762-.692-7.438 1.558-8.539 5.218-3.85 12.815-2.848 26.526 2.645 38.51-27.205 12.682-46.114 40.276-46.114 72.218 0 .171.006.345.008.516h-17.071v-40.597c0-50.197 19.181-97.739 54.01-133.866 2.875-2.982 2.788-7.73-.194-10.605-2.982-2.876-7.731-2.789-10.605.194-37.538 38.938-58.211 90.176-58.211 144.277v40.597h-17.065v-40.597c0-60.091 23.401-116.585 65.892-159.076zm98.745 199.673c-2.852-7.894-4.314-16.132-4.314-24.565 0-40.065 32.596-72.661 72.661-72.661s72.661 32.596 72.661 72.661c0 8.433-1.462 16.671-4.314 24.565zm-100.5 0c-.001-.171-.008-.346-.008-.516 0-35.646 29-64.646 64.646-64.646 8.442 0 16.562 1.603 24.232 4.719-4.935 10.957-7.684 23.102-7.684 35.878 0 8.381 1.181 16.605 3.519 24.565zm41.37-99.718c8.094 3.108 15.013 8.796 19.571 16.255.666 1.09 1.27 2.209 1.824 3.348-6.005.14-11.85.933-17.459 2.337-3.393-6.78-4.746-14.409-3.936-21.94zm54.869 26.086c-5.406-2.332-11.078-4.06-16.882-5.149-1.333-4.371-3.211-8.565-5.618-12.503-2.189-3.581-4.782-6.855-7.688-9.797 5.334-16.729 20.882-28.209 38.666-28.209 15.173 0 28.999 8.537 35.941 21.714-18.239 6.21-33.796 18.275-44.419 33.944zm136.737-47.642c22.385 0 40.597 18.211 40.597 40.597 0 1.326-.075 2.649-.202 3.964-7.738-2.242-15.912-3.448-24.363-3.448-3.942 0-7.895.281-11.789.804-7.981-9.939-18.079-18.107-29.605-23.814 1.975-2.754 3.702-5.691 5.147-8.801.758-1.631 1.422-3.295 2.01-4.98 5.616-2.821 11.87-4.322 18.205-4.322zm-33.817 2.979c-1.608 3.459-3.683 6.626-6.173 9.45-3.993-1.145-8.103-2.01-12.305-2.58.332-4.764 1.516-9.394 3.564-13.802 3.684-7.927 9.914-14.363 17.604-18.367 1.897 8.461.994 17.372-2.69 25.299zm47.389 53.182c.82-.027 1.641-.049 2.461-.049 37.534 0 68.51 28.606 72.275 65.162h-68.294c2.337-7.96 3.519-16.184 3.519-24.565-.001-14.621-3.604-28.415-9.961-40.548zm146.751 97.178h-48.1c-4.142 0-7.5 3.358-7.5 7.5s3.358 7.5 7.5 7.5h37.024l-31.89 79.723c-6.201 15.502-20.997 25.519-37.693 25.519h-303.617c-16.697 0-31.492-10.017-37.693-25.52l-31.888-79.722h373.697c4.142 0 7.5-3.358 7.5-7.5s-3.358-7.5-7.5-7.5h-384.575c-.062-.002-.123 0-.185 0h-.015c-4.705 0-8.532-3.828-8.532-8.532s3.828-8.532 8.532-8.532h464.936c4.705 0 8.532 3.828 8.532 8.532s-3.829 8.532-8.533 8.532z"/></g></svg>