<svg height="512" viewBox="0 0 256 256" width="512" xmlns="http://www.w3.org/2000/svg"><g id="Layer_28"><g><g><path d="m164.678 106.701c-1.715-1.893-3.48-3.709-5.291-5.423-4.518-4.275-10.483-6.686-16.704-6.686-10.189 0-18.944 0-29.134 0-6.22 0-12.186 2.411-16.704 6.686-1.811 1.713-3.576 3.53-5.291 5.423-30.127 33.249-37.303 81.585-18.179 121.305 13.239 27.497 54.74 25.461 54.74 25.461s41.501 2.037 54.74-25.461c19.127-39.721 11.95-88.056-18.177-121.305z" fill="#f5c84c"/></g><g><path d="m180.292 2.571c-11.951 2.432-29.476 8.802-41.928 25.419.951 6.209 1.485 13.028 1.485 20.198 0 6.22-.398 12.181-1.124 17.705 5.075-7.672 11.402-15.394 18.939-21.21 6.069-11.593 15.335-27.195 25.423-36.582 2.391-2.224.405-6.181-2.795-5.53z" fill="#87d147"/></g><g><path d="m189.669 35.337c-22.681-3.326-39.822 13.734-50.943 30.551-.67 5.1-1.62 9.828-2.801 14.038.585 1.968 1.115 4.061 1.595 6.248 6.212-5.812 12.238-9.199 17.896-10.885 9.859-20.809 25.141-30.201 34.947-34.277 2.766-1.15 2.268-5.241-.694-5.675z" fill="#57af12"/></g><g><path d="m182.468 78.794c-10.465-5.84-26.923-9.491-44.949 7.373.586 2.667 1.094 5.481 1.508 8.426h3.656c2.616 0 5.179.45 7.616 1.262 6.727-4.902 18.681-12.064 30.762-11.737 2.973.079 4.003-3.876 1.407-5.324z" fill="#57af12"/></g><g><path d="m117.214 86.166c-18.026-16.863-34.484-13.212-44.949-7.372-2.596 1.449-1.566 5.404 1.406 5.323 12.377-.335 24.617 7.189 31.243 12.092 2.734-1.048 5.653-1.616 8.635-1.616h2.156c.416-2.946.923-5.759 1.509-8.427z" fill="#57af12"/></g><g><path d="m118.808 79.926c-1.181-4.21-2.131-8.939-2.801-14.041-11.122-16.816-28.264-33.874-50.943-30.548-2.962.434-3.459 4.525-.695 5.674 9.806 4.076 25.088 13.468 34.947 34.277 5.658 1.685 11.684 5.077 17.895 10.889.482-2.187 1.012-4.282 1.597-6.251z" fill="#57af12"/></g><g><path d="m114.884 48.189c0-7.162.532-13.973 1.481-20.176-12.449-16.627-29.97-23.01-41.923-25.442-3.2-.651-5.185 3.306-2.795 5.53 10.088 9.388 19.354 24.989 25.423 36.582 7.537 5.817 13.864 13.54 18.939 21.213-.727-5.525-1.125-11.486-1.125-17.707z" fill="#87d147"/></g><g><path d="m123.149 69.106c1.83-3.341 6.605-3.341 8.435 0 1.637 2.987 3.1 6.642 4.341 10.82 2.459-8.767 3.924-19.777 3.924-31.737 0-18.092-3.351-34.013-8.428-43.28-1.759-3.212-6.35-3.212-8.109 0-5.077 9.267-8.428 25.188-8.428 43.28 0 11.96 1.465 22.97 3.924 31.737 1.242-4.178 2.705-7.833 4.341-10.82z" fill="#b2e26d"/></g><g><path d="m139.027 94.592c-1.474-10.482-4.096-19.377-7.443-25.486-1.83-3.341-6.605-3.341-8.435 0-3.347 6.109-5.969 15.004-7.443 25.486z" fill="#87d147"/></g><g><path d="m214.013 234.2c-3.1-.6-5.6-3-6.2-6.1 0-.1-.3-.1-.3 0-.6 3.1-3.1 5.5-6.2 6.1-.1 0-.1.2 0 .3 3.1.6 5.6 3 6.2 6.1 0 .1.3.1.3 0 .6-3.1 3.1-5.5 6.2-6.1.1-.1.1-.3 0-.3z" fill="#70d6f9"/></g><g><path d="m204.013 102.5h2.3v2.3c0 1.8 1.4 3.2 3.2 3.2 1.7 0 3.2-1.4 3.2-3.1v-.1-2.3h2.3c1.8 0 3.2-1.4 3.2-3.2 0-1.7-1.4-3.2-3.1-3.2h-.1-2.3v-2.3c0-1.8-1.4-3.2-3.2-3.2-1.7 0-3.2 1.4-3.2 3.1v.1 2.3h-2.3c-1.8 0-3.2 1.4-3.2 3.2-.1 1.7 1.3 3.2 3.2 3.2-.1 0-.1 0 0 0z" fill="#87d147"/></g><g><circle cx="54.413" cy="70.9" fill="#fc657e" r="3.4"/></g><g><circle cx="221.413" cy="156.4" fill="#f5c84c" r="3.4"/></g><g><path d="m35.813 137.75c4.5-.8 8-4.3 8.9-8.7 0-.2.4-.2.4 0 .9 4.4 4.4 7.9 8.9 8.7.2 0 .2.3 0 .4-4.5.8-8 4.3-8.9 8.7 0 .2-.4.2-.4 0-.9-4.4-4.4-7.9-8.9-8.7-.2-.1-.2-.4 0-.4z" fill="#f5c84c"/></g><g><path d="m130.105 256.003c-1.025 0-1.712-.023-1.989-.034-1.279.05-11.317.351-22.997-2.492-16.492-4.014-28.247-12.447-33.996-24.387-9.608-19.955-12.927-42.27-9.6-64.533 3.33-22.278 13.074-42.865 28.179-59.535 1.799-1.986 3.625-3.856 5.425-5.56 5.022-4.752 11.565-7.37 18.422-7.37h29.134c6.856 0 13.399 2.617 18.422 7.37 1.802 1.704 3.626 3.575 5.425 5.56 15.104 16.67 24.849 37.257 28.179 59.535 3.328 22.263.009 44.578-9.599 64.533-5.75 11.94-17.506 20.373-33.997 24.387-9.151 2.227-17.296 2.526-21.008 2.526zm-1.988-5.037c.041 0 .081.001.121.003.398.021 40.01 1.616 52.367-24.048 9.171-19.048 12.339-40.357 9.16-61.625-3.184-21.298-12.499-40.98-26.939-56.917-1.713-1.891-3.447-3.668-5.156-5.285-4.09-3.871-9.412-6.002-14.985-6.002h-29.135c-5.573 0-10.895 2.131-14.985 6.002-1.708 1.616-3.442 3.394-5.156 5.285-14.44 15.937-23.755 35.618-26.939 56.917-3.179 21.268-.011 42.577 9.16 61.625 12.355 25.662 51.966 24.068 52.367 24.048.039-.002.079-.003.12-.003z"/></g><g><path d="m138.725 68.394c-.292 0-.588-.051-.874-.158-1.09-.407-1.755-1.513-1.604-2.667.731-5.571 1.103-11.418 1.103-17.38 0-6.842-.49-13.51-1.456-19.819-.103-.664.067-1.34.47-1.877 12.813-17.099 30.689-23.778 43.431-26.37 2.532-.517 5.024.678 6.202 2.968 1.19 2.314.705 5.063-1.206 6.842-9.852 9.167-18.984 24.589-24.911 35.911-.167.32-.401.6-.688.82-6.437 4.967-12.62 11.901-18.381 20.61-.474.715-1.266 1.12-2.086 1.12zm2.267-39.727c.901 6.245 1.357 12.806 1.357 19.521 0 2.949-.088 5.873-.263 8.752 4.351-5.544 8.908-10.199 13.614-13.897 6.114-11.623 15.455-27.255 25.683-36.772.351-.326.284-.667.166-.895-.236-.462-.627-.382-.76-.356-11.681 2.378-27.973 8.414-39.797 23.647z"/></g><g><path d="m137.521 88.673c-.248 0-.498-.037-.741-.112-.858-.267-1.508-.974-1.7-1.851-.479-2.176-1-4.219-1.55-6.073-.135-.452-.138-.933-.011-1.387 1.161-4.139 2.079-8.744 2.729-13.688.049-.376.184-.737.394-1.053 15.568-23.542 34.029-34.488 53.391-31.646h.001c2.45.36 4.304 2.259 4.611 4.725.31 2.475-1.025 4.778-3.319 5.732-10.223 4.25-24.358 13.431-33.648 33.039-.304.641-.865 1.123-1.545 1.326-5.722 1.705-11.408 5.175-16.902 10.314-.472.439-1.085.674-1.71.674zm1.003-8.766c.155.542.308 1.096.457 1.663 4.756-3.893 9.667-6.689 14.652-8.341 9.975-20.366 24.913-30.012 35.771-34.526.097-.04.323-.134.278-.495-.044-.349-.269-.382-.377-.397-21.617-3.172-38.092 13.888-48.179 28.981-.638 4.689-1.512 9.095-2.602 13.115z"/></g><g><path d="m150.3 98.354c-.266 0-.532-.042-.791-.128-2.257-.752-4.554-1.134-6.825-1.134h-3.656c-1.246 0-2.302-.918-2.476-2.152-.396-2.817-.892-5.588-1.474-8.237-.189-.862.089-1.76.733-2.362 19.064-17.834 36.556-14.047 47.875-7.73h-.001c2.203 1.229 3.236 3.686 2.569 6.112-.657 2.396-2.79 3.97-5.261 3.893-.243-.006-.486-.01-.729-.01-11.316 0-22.665 7.021-28.493 11.269-.432.315-.949.479-1.471.479zm-9.119-6.262h1.503c2.392 0 4.796.339 7.165 1.008 7.894-5.585 19.448-11.794 31.28-11.483.122.005.242.007.305-.219.076-.277-.093-.371-.184-.422 0 0 0 0-.001 0-17.222-9.611-31.634-2.268-40.986 6.07.339 1.65.645 3.337.918 5.046z"/></g><g><path d="m104.916 98.708c-.528 0-1.05-.167-1.487-.49-6.042-4.47-17.94-11.908-29.689-11.603-2.477.077-4.603-1.497-5.261-3.893-.667-2.427.366-4.883 2.569-6.112 11.317-6.317 28.812-10.104 47.875 7.73.645.603.923 1.5.734 2.363-.582 2.643-1.077 5.414-1.474 8.237-.173 1.234-1.229 2.152-2.476 2.152h-2.157c-2.625 0-5.229.488-7.74 1.451-.29.111-.593.165-.894.165zm-30.456-17.102c12.265 0 24.179 7.028 30.861 11.806 2.68-.876 5.442-1.32 8.229-1.32h.003c.272-1.711.58-3.398.918-5.045-9.352-8.337-23.764-15.68-40.987-6.07-.091.051-.26.145-.184.422.062.225.184.222.304.219.285-.008.571-.012.856-.012z"/></g><g><path d="m117.212 88.678c-.625 0-1.238-.235-1.708-.675-5.497-5.143-11.183-8.615-16.901-10.318-.68-.203-1.242-.685-1.545-1.326-9.291-19.609-23.426-28.79-33.648-33.039-2.295-.954-3.629-3.258-3.32-5.732.308-2.467 2.161-4.365 4.612-4.725 19.36-2.836 37.822 8.103 53.391 31.643.209.316.344.677.393 1.053.649 4.941 1.567 9.548 2.729 13.691.127.454.124.935-.011 1.387-.549 1.849-1.071 3.894-1.551 6.077-.193.878-.842 1.584-1.701 1.851-.242.076-.492.113-.74.113zm-16.113-15.449c4.983 1.651 9.895 4.449 14.652 8.345.15-.569.303-1.125.458-1.667-1.091-4.024-1.965-8.43-2.604-13.119-10.086-15.091-26.538-32.15-48.179-28.978-.108.016-.333.049-.376.397-.045.361.182.456.278.496 10.859 4.514 25.796 14.16 35.771 34.526z"/></g><g><path d="m116.009 68.397c-.82 0-1.612-.405-2.085-1.121-5.764-8.713-11.949-15.649-18.381-20.613-.286-.22-.52-.5-.688-.819-5.928-11.324-15.061-26.746-24.911-35.912-1.912-1.778-2.397-4.528-1.207-6.842 1.178-2.29 3.669-3.485 6.203-2.968 12.736 2.591 30.609 9.274 43.427 26.393.402.537.572 1.213.47 1.876-.964 6.299-1.453 12.96-1.453 19.798 0 5.967.371 11.816 1.103 17.382.152 1.154-.513 2.261-1.604 2.668-.285.107-.581.158-.874.158zm-16.977-25.353c4.706 3.697 9.263 8.352 13.614 13.899-.174-2.879-.262-5.804-.262-8.754 0-6.71.455-13.265 1.354-19.5-11.83-15.254-28.117-21.292-39.795-23.668-.13-.027-.522-.106-.759.356-.118.228-.184.569.166.894 10.226 9.517 19.567 25.15 25.682 36.773z"/></g><g><path d="m135.926 82.426c-1.105 0-2.081-.727-2.396-1.788-1.198-4.032-2.591-7.507-4.138-10.331-.597-1.089-1.615-1.207-2.025-1.207s-1.428.118-2.025 1.207c-1.547 2.824-2.939 6.3-4.137 10.331-.315 1.061-1.291 1.788-2.396 1.788-.006 0-.013 0-.02 0-1.113-.009-2.087-.753-2.388-1.825-2.627-9.369-4.017-20.577-4.017-32.413 0-17.868 3.266-34.497 8.735-44.481 1.273-2.321 3.608-3.707 6.248-3.707h.001c2.64 0 4.974 1.387 6.246 3.708 5.471 9.984 8.736 26.613 8.736 44.48 0 11.835-1.389 23.043-4.017 32.413-.301 1.072-1.274 1.816-2.388 1.825-.007 0-.013 0-.019 0zm-8.559-18.326c2.708 0 5.105 1.422 6.41 3.805.555 1.012 1.09 2.094 1.604 3.242 1.296-7.044 1.97-14.838 1.97-22.958 0-17.066-3.036-32.797-8.121-42.079-.55-1.002-1.486-1.11-1.863-1.11-.377 0-1.313.108-1.862 1.11-5.084 9.282-8.12 25.012-8.12 42.079 0 8.121.674 15.914 1.97 22.958.514-1.148 1.048-2.229 1.603-3.241 1.304-2.384 3.7-3.806 6.409-3.806zm-4.218 5.006h.01z"/></g><g><path d="m139.027 97.092h-23.321c-.724 0-1.412-.313-1.887-.86-.475-.546-.69-1.271-.589-1.988 1.515-10.771 4.186-19.878 7.726-26.339 1.305-2.382 3.701-3.805 6.41-3.805s5.105 1.422 6.41 3.805c3.539 6.459 6.211 15.567 7.727 26.339.101.717-.114 1.442-.589 1.988s-1.163.86-1.887.86zm-20.408-5h17.497c-1.469-8.837-3.825-16.495-6.724-21.785-.597-1.089-1.615-1.207-2.025-1.207s-1.428.118-2.025 1.207c-2.899 5.291-5.256 12.95-6.723 21.785z"/></g><g><path d="m188.543 153.138c-.566 0-1.136-.191-1.604-.583l-66.51-55.69c-1.059-.887-1.198-2.463-.312-3.522.887-1.058 2.463-1.198 3.522-.312l66.509 55.69c1.06.887 1.198 2.463.313 3.522-.495.59-1.204.895-1.918.895z"/></g><g><path d="m192.464 186.351c-.569 0-1.142-.193-1.611-.589l-94.803-79.964c-1.056-.89-1.189-2.468-.299-3.523.89-1.056 2.466-1.189 3.523-.299l94.803 79.964c1.055.89 1.188 2.468.299 3.523-.494.586-1.201.888-1.912.888z"/></g><g><path d="m188.202 212.663c-.569 0-1.142-.193-1.611-.589l-105.087-88.639c-1.056-.89-1.189-2.468-.299-3.523s2.467-1.189 3.523-.299l105.087 88.639c1.055.89 1.188 2.468.299 3.523-.494.586-1.201.888-1.912.888z"/></g><g><path d="m178.482 234.37c-.566 0-1.136-.191-1.604-.583l-107.983-90.37c-1.059-.886-1.199-2.462-.313-3.521.884-1.059 2.462-1.2 3.521-.313l107.983 90.37c1.059.886 1.199 2.462.313 3.521-.493.591-1.203.896-1.917.896z"/></g><g><path d="m161.414 249.556c-.569 0-1.142-.193-1.61-.589l-97.112-81.879c-1.056-.89-1.19-2.467-.3-3.522.889-1.056 2.467-1.19 3.522-.3l97.112 81.879c1.056.89 1.19 2.467.3 3.522-.494.586-1.201.889-1.912.889z"/></g><g><path d="m132.694 255.626c-.57 0-1.145-.194-1.614-.591l-68.913-58.311c-1.054-.892-1.186-2.47-.294-3.523.892-1.055 2.468-1.186 3.523-.294l68.914 58.311c1.054.892 1.186 2.47.293 3.523-.494.585-1.199.885-1.909.885z"/></g><g><path d="m67.119 154.473c-.707 0-1.409-.298-1.903-.877-.896-1.051-.771-2.628.279-3.524l66.857-57.025c1.05-.896 2.627-.771 3.524.279.896 1.051.771 2.628-.28 3.524l-66.856 57.025c-.47.402-1.048.598-1.621.598z"/></g><g><path d="m63.144 186.784c-.714 0-1.422-.304-1.917-.894-.887-1.058-.749-2.635.309-3.522l96.81-81.194c1.057-.885 2.635-.75 3.521.309.888 1.058.749 2.635-.309 3.522l-96.81 81.194c-.467.393-1.037.585-1.604.585z"/></g><g><path d="m67.249 213.834c-.711 0-1.417-.301-1.911-.887-.891-1.055-.758-2.632.296-3.523l107.319-90.666c1.056-.89 2.632-.759 3.523.296s.758 2.632-.297 3.523l-107.319 90.667c-.469.397-1.042.59-1.611.59z"/></g><g><path d="m76.688 235.474c-.712 0-1.419-.302-1.914-.89-.889-1.056-.754-2.633.302-3.523l108.465-91.328c1.057-.889 2.634-.754 3.522.302.89 1.056.754 2.633-.302 3.523l-108.464 91.329c-.468.394-1.04.587-1.609.587z"/></g><g><path d="m95.456 249.962c-.71 0-1.416-.301-1.91-.885-.892-1.054-.76-2.631.294-3.523l96.345-81.517c1.055-.891 2.633-.76 3.523.294.893 1.054.761 2.631-.293 3.523l-96.346 81.517c-.469.397-1.043.591-1.613.591z"/></g><g><path d="m123.953 255.772c-.71 0-1.415-.301-1.91-.885-.892-1.054-.761-2.631.293-3.523l67.504-57.13c1.056-.892 2.633-.76 3.523.293.892 1.054.761 2.631-.293 3.523l-67.504 57.13c-.469.398-1.043.592-1.613.592z"/></g></g></g></svg>