<svg height="512" viewBox="0 0 256 256" width="512" xmlns="http://www.w3.org/2000/svg"><g id="Layer_7"><g><g><path d="m79.989 36.711c-.077-3.969.801-7.859 1.825-11.695 1.247-4.674-3.318-14.111-12.349-17.97-15.023-6.42-32.833-8.166-47.467 9.213-7.247 8.606-13.193 13.494-17.349 16.235-2.846 1.877-2.865 6.044-.062 7.985 6.313 4.371 16.02 10.864 23.766 15.035 17.925 9.653 52.135 6.793 51.636-18.803z" fill="#57af12"/></g><g><path d="m107.33 54.739c-10.46 3.982-21.982 3.982-32.442 0-.819-.312-1.64-.589-2.461-.866-10.593 8.663-29.958 8.427-42.587 2.389-15.96 8.664-27.276 27.318-27.276 56.764 0 42.576 21.948 75.585 36.253 92.578 9.794 11.634 25.672 17.276 41.258 12.923 5.85-1.634 11.487-1.888 17.134-1.023-10.86-18.021-20.799-42.328-20.799-70.977 0-53.631 37.504-71.543 72.324-58.287 9.028 3.437 18.845 3.9 28.089 1.405-9.34-35.244-40.349-46.001-69.493-34.906z" fill="#ef4460"/></g><g><path d="m181.176 88.239c-10.46 3.982-21.982 3.982-32.442 0-34.821-13.256-72.324 4.656-72.324 58.287 0 42.576 21.948 75.585 36.253 92.578 9.794 11.634 25.672 17.276 41.258 12.923 7.685-2.146 15.001-1.924 22.458.107 14.959 4.075 30.884-1.169 40.869-13.03 14.305-16.992 36.253-50.001 36.253-92.578-.001-53.631-37.505-71.543-72.325-58.287z" fill="#fce4be"/></g><g><g><path d="m165.076 120.904c4.581-15.941 13.011-28.571 23.432-34.97-2.448.621-4.897 1.379-7.332 2.306-10.46 3.982-21.982 3.982-32.442 0-1.725-.657-3.458-1.215-5.192-1.718 9.611 6.873 17.319 19.158 21.534 34.382z" fill="#fc657e"/></g></g><g><g><path d="m164.856 218.523c-4.31 17.078-12.766 30.093-23.079 34.935 3.993.154 8.078-.296 12.144-1.431 7.685-2.146 15-1.924 22.458.107 3.397.925 6.843 1.347 10.259 1.342-9.789-5.44-17.74-18.328-21.782-34.953z" fill="#fc657e"/></g></g><g><path d="m183.705 129.027c-8.322 0-15.48 9.681-18.692 23.58-3.154-14.168-10.386-24.08-18.808-24.08-11.322 0-20.5 17.909-20.5 40s9.178 40 20.5 40c8.322 0 15.48-9.681 18.692-23.58 3.154 14.168 10.386 24.08 18.808 24.08 11.322 0 20.5-17.909 20.5-40s-9.178-40-20.5-40z" fill="#fed690"/></g><g><ellipse cx="183.455" cy="168.64" fill="#fce4be" rx="6.5" ry="9.122"/></g><g><ellipse cx="146.455" cy="168.64" fill="#fce4be" rx="6.5" ry="9.122"/></g><g><path d="m171.013 6.175c-3.1-.6-5.6-3-6.2-6.1 0-.1-.3-.1-.3 0-.6 3.1-3.1 5.5-6.2 6.1-.1 0-.1.2 0 .3 3.1.6 5.6 3 6.2 6.1 0 .1.3.1.3 0 .6-3.1 3.1-5.5 6.2-6.1.1-.1.1-.3 0-.3z" fill="#70d6f9"/></g><g><path d="m13.013 227.5h2.3v2.3c0 1.8 1.4 3.2 3.2 3.2 1.7 0 3.2-1.4 3.2-3.1v-.1-2.3h2.3c1.8 0 3.2-1.4 3.2-3.2 0-1.7-1.4-3.2-3.1-3.2h-.1-2.3v-2.3c0-1.8-1.4-3.2-3.2-3.2-1.7 0-3.2 1.4-3.2 3.1v.1 2.3h-2.3c-1.8 0-3.2 1.4-3.2 3.2-.1 1.7 1.3 3.2 3.2 3.2-.1 0-.1 0 0 0z" fill="#87d147"/></g><g><circle cx="193.413" cy="50.9" fill="#fc657e" r="3.4"/></g><g><circle cx="89.413" cy="252.6" fill="#f5c84c" r="3.4"/></g><g><path d="m237.65 63.75c4.5-.8 8-4.3 8.9-8.7 0-.2.4-.2.4 0 .9 4.4 4.4 7.9 8.9 8.7.2 0 .2.3 0 .4-4.5.8-8 4.3-8.9 8.7 0 .2-.4.2-.4 0-.9-4.4-4.4-7.9-8.9-8.7-.2-.1-.2-.4 0-.4z" fill="#f5c84c"/></g><g><path d="m50.324 63.1c-8.501 0-16.976-2.056-23.156-5.384-7.732-4.164-17.321-10.554-24.004-15.182-2.008-1.39-3.191-3.68-3.164-6.122.027-2.426 1.25-4.671 3.272-6.004 3.636-2.399 9.504-7.08 16.813-15.759 12.913-15.335 29.856-18.666 50.363-9.902 9.789 4.183 15.446 14.678 13.782 20.914-1.094 4.098-1.808 7.537-1.741 11.001.18 9.231-3.775 16.583-11.437 21.261-5.933 3.623-13.341 5.177-20.728 5.177zm-.746-58.132c-9.929 0-18.413 4.286-25.667 12.901-6.177 7.335-12.194 12.958-17.884 16.712-.644.424-1.018 1.112-1.027 1.887-.009.792.359 1.504 1.011 1.956 6.578 4.555 15.999 10.835 23.527 14.889 11.565 6.228 29.02 6.382 38.909.343 6.146-3.753 9.189-9.438 9.043-16.896-.083-4.288.868-8.488 1.909-12.388.853-3.194-2.735-11.531-10.916-15.027-6.82-2.915-13.109-4.377-18.905-4.377z"/></g><g><path d="m91.109 59c-1.381 0-2.5-1.119-2.5-2.5 0-36.948 22.212-51.507 23.158-52.109 1.165-.741 2.71-.397 3.452.767.74 1.163.399 2.705-.761 3.448-.853.548-20.849 13.821-20.849 47.894 0 1.381-1.119 2.5-2.5 2.5z"/></g><g><path d="m124.109 36c-16.846 0-22.398-12.996-22.981-19.868-.116-1.375.904-2.585 2.28-2.702 1.371-.114 2.581.9 2.701 2.272.059.637 1.603 15.298 18 15.298 1.381 0 2.5 1.119 2.5 2.5s-1.119 2.5-2.5 2.5z"/></g><g><path d="m34.109 34.22c-1.381 0-2.5-1.119-2.5-2.5s1.119-2.5 2.5-2.5h35.197c10.78-.08 20.697-3.73 29.456-10.849 1.071-.871 2.646-.708 3.517.363s.708 2.646-.363 3.517c-9.663 7.853-20.628 11.88-32.591 11.969z"/></g><g><path d="m164.955 221.023c-1.381 0-2.5-1.119-2.5-2.5v-97.619c0-1.381 1.119-2.5 2.5-2.5s2.5 1.119 2.5 2.5v97.619c0 1.381-1.12 2.5-2.5 2.5z"/></g><g><path d="m69.55 222.466c-12.341.001-24.394-5.451-32.646-15.253-13.759-16.343-36.84-50.313-36.84-94.187 0-28.016 10.151-48.956 28.584-58.962.704-.383 1.548-.404 2.271-.058 11.351 5.427 29.842 6.178 39.926-2.068.666-.546 1.567-.71 2.382-.434.851.288 1.702.575 2.551.898 9.887 3.764 20.776 3.764 30.663 0l.89 2.336-.89-2.336c16.269-6.193 32.653-5.795 46.137 1.122 13.068 6.704 22.289 18.973 26.663 35.479.353 1.331-.436 2.695-1.765 3.054-9.851 2.661-20.097 2.148-29.63-1.482-16.959-6.457-34.017-5.105-46.8 3.706-14.274 9.839-22.135 28.394-22.135 52.245 0 23.735 6.877 47.181 20.44 69.687.5.831.476 1.876-.064 2.682s-1.498 1.229-2.456 1.08c-5.495-.841-10.756-.527-16.083.959-3.693 1.031-7.46 1.532-11.198 1.532zm-39.593-163.403c-16.065 9.329-24.894 28.432-24.894 53.963 0 42.287 22.346 75.145 35.666 90.967 9.492 11.275 24.67 16.036 38.673 12.125 4.393-1.227 8.746-1.749 13.189-1.571-12.4-21.998-18.682-44.858-18.682-68.021 0-25.545 8.629-45.561 24.297-56.362 14.155-9.758 32.895-11.313 51.417-4.262 7.748 2.95 16.022 3.602 24.081 1.918-4.23-13.853-12.287-24.142-23.41-29.848-12.206-6.261-27.148-6.58-42.075-.897-11.035 4.201-23.187 4.201-34.221 0-.369-.14-.738-.273-1.107-.402-11.533 8.433-30.313 7.914-42.934 2.39z"/></g><g><path d="m186.533 255.988c-3.613 0-7.247-.471-10.812-1.442-7.333-1.998-14.246-2.034-21.128-.112-15.883 4.438-33.092-.949-43.843-13.721-13.759-16.343-36.84-50.313-36.84-94.187 0-25.545 8.629-45.561 24.297-56.362 14.156-9.758 32.897-11.312 51.417-4.262 9.886 3.764 20.776 3.763 30.663 0 18.519-7.049 37.26-5.497 51.417 4.262 15.667 10.801 24.296 30.817 24.296 56.362 0 43.875-23.082 77.844-36.84 94.187-8.254 9.805-20.318 15.275-32.627 15.275zm-21.744-7.973c4.006 0 8.068.569 12.247 1.707 13.838 3.77 28.873-1.029 38.299-12.228 13.32-15.823 35.666-48.68 35.666-90.967 0-23.851-7.861-42.406-22.135-52.245-12.783-8.812-29.841-10.161-46.799-3.706-11.034 4.201-23.187 4.2-34.221 0-16.958-6.455-34.016-5.105-46.799 3.706-14.274 9.839-22.135 28.394-22.135 52.245 0 42.287 22.346 75.145 35.666 90.967 9.493 11.275 24.671 16.035 38.673 12.125 3.825-1.07 7.655-1.604 11.538-1.604zm16.387-159.776h.01z"/></g><g><g><path d="m165.076 123.404c-.004 0-.008 0-.012 0-1.119-.005-2.099-.754-2.397-1.833-4.074-14.713-11.382-26.438-20.578-33.016-.991-.709-1.327-2.029-.795-3.125s1.776-1.65 2.946-1.31c1.987.577 3.748 1.16 5.384 1.782 9.886 3.764 20.776 3.763 30.663 0 2.421-.922 4.981-1.727 7.607-2.393 1.198-.302 2.437.313 2.917 1.451s.058 2.456-.995 3.103c-9.802 6.02-17.944 18.241-22.337 33.53-.309 1.073-1.289 1.811-2.403 1.811zm-11.667-31.087c4.74 5.581 8.72 12.566 11.705 20.582 3.151-8.221 7.332-15.279 12.301-20.818-7.86 2.111-16.115 2.19-24.006.236z"/></g></g><g><g><path d="m143.292 255.987c-.537 0-1.074-.01-1.612-.031-1.152-.044-2.125-.871-2.354-2.001s.344-2.27 1.388-2.76c9.46-4.441 17.579-16.884 21.718-33.284.28-1.11 1.279-1.888 2.424-1.888h.011c1.149.005 2.147.793 2.418 1.909 3.917 16.113 11.414 28.271 20.566 33.359.995.553 1.491 1.708 1.206 2.811-.285 1.102-1.279 1.873-2.417 1.874-.019 0-.037 0-.056 0-3.724 0-7.379-.481-10.863-1.43-7.334-1.998-14.246-2.034-21.128-.112-3.695 1.032-7.489 1.553-11.301 1.553zm21.525-28.695c-3.447 9.697-8.266 17.566-13.994 22.918.813-.169 1.622-.367 2.425-.591 7.777-2.172 15.558-2.138 23.787.103.34.093.682.18 1.026.263-5.431-5.48-9.992-13.276-13.244-22.693z"/></g></g><g><path d="m183.705 211.527c-7.658 0-14.62-6.803-18.836-17.898-4.221 10.912-11.012 17.398-18.664 17.398-12.897 0-23-18.668-23-42.5s10.103-42.5 23-42.5c7.658 0 14.62 6.803 18.836 17.898 4.222-10.912 11.012-17.398 18.664-17.398 12.897 0 23 18.668 23 42.5s-10.103 42.5-23 42.5zm-18.808-29.08h.01c1.167.005 2.176.817 2.43 1.957 2.946 13.233 9.523 22.124 16.367 22.124 9.757 0 18-17.173 18-37.5s-8.243-37.5-18-37.5c-6.731 0-13.264 8.698-16.256 21.643-.262 1.134-1.272 1.937-2.436 1.937-.003 0-.007 0-.01 0-1.167-.005-2.176-.817-2.43-1.957-2.946-13.233-9.523-22.124-16.368-22.124-9.757 0-18 17.173-18 37.5s8.243 37.5 18 37.5c6.731 0 13.265-8.698 16.256-21.643.263-1.134 1.273-1.937 2.437-1.937z"/></g><g><path d="m183.455 180.262c-5.047 0-9-5.105-9-11.622s3.953-11.622 9-11.622 9 5.105 9 11.622-3.954 11.622-9 11.622zm0-18.243c-1.892 0-4 2.719-4 6.622s2.108 6.622 4 6.622 4-2.719 4-6.622-2.108-6.622-4-6.622z"/></g><g><path d="m146.455 180.262c-5.047 0-9-5.105-9-11.622s3.953-11.622 9-11.622 9 5.105 9 11.622-3.954 11.622-9 11.622zm0-18.243c-1.892 0-4 2.719-4 6.622s2.108 6.622 4 6.622 4-2.719 4-6.622-2.108-6.622-4-6.622z"/></g></g></g></svg>