<?xml version="1.0" encoding="UTF-8"?>
<svg id="Layer_2" data-name="Layer 2" xmlns="http://www.w3.org/2000/svg" xmlns:xlink="http://www.w3.org/1999/xlink" viewBox="0 0 443.72 413.84">
  <defs>
    <style>
      .cls-1 {
        fill: #d07764;
      }

      .cls-2 {
        fill: #eccd54;
      }

      .cls-3 {
        fill: #f7eddd;
      }

      .cls-4, .cls-5 {
        fill: #e0b848;
      }

      .cls-6 {
        fill: #fff;
      }

      .cls-7 {
        fill: #ede0c3;
      }

      .cls-5 {
        isolation: isolate;
        opacity: .31;
      }

      .cls-8 {
        fill: none;
      }

      .cls-9 {
        fill: #4a8971;
      }

      .cls-10 {
        fill: #915e58;
      }

      .cls-11 {
        fill: #d5c7a7;
      }

      .cls-12 {
        fill: #e8a597;
      }

      .cls-13 {
        fill: #c68173;
      }

      .cls-14 {
        fill: #629b87;
      }

      .cls-15 {
        fill: #c7695a;
      }

      .cls-16 {
        fill: #3f2632;
      }

      .cls-17 {
        fill: #d97f71;
      }

      .cls-18 {
        fill: #97655b;
      }

      .cls-19 {
        fill: #9f6b64;
      }

      .cls-20 {
        fill: #f5de81;
      }

      .cls-21 {
        fill: #b9aa8e;
      }

      .cls-22 {
        fill: #b6564d;
      }

      .cls-23 {
        fill: #5a937d;
      }

      .cls-24 {
        fill: #d69280;
      }

      .cls-25 {
        fill: #fdf9f2;
      }

      .cls-26 {
        fill: #f4d75f;
      }

      .cls-27 {
        fill: #96635e;
      }

      .cls-28 {
        fill: #4b7b68;
      }

      .cls-29 {
        clip-path: url(#clippath);
      }
    </style>
    <clipPath id="clippath">
      <path class="cls-8" d="M162.37,42.84c-30.88,7.35-61.75,18.37-83.52,37.14-23.61,20.36-38.15,55.96-27,86.09,5.89,15.92,17.97,30.98,9.82,48.7-3.14,6.82-8.15,12.42-13.22,17.75C25.54,256.53-2.56,282.59.19,320.47c3.13,43.25,38.8,61.66,73.08,73.49,39.58,13.66,81.47,18.02,122.86,19.43,42.42,1.45,85.41-.08,126.3-12.21,43.79-13,92.63-40.89,112.81-86.66,14-31.74,12.03-76.81-15.98-99.4-4.31-3.47-9.1-6.33-12.87-10.45-10.58-11.56-2.95-21.12,5.84-29.94,16.88-16.94,27.3-41.36,23.21-66.22-5.55-33.75-34.2-58.88-64.97-68.66-49.76-15.82-103.69-15.28-154.8-7.09-16.48,2.64-34.89,5.72-53.29,10.1Z"/>
    </clipPath>
  </defs>
  <g id="Layer_1-2" data-name="Layer 1">
    <g id="OBJECTS">
      <path class="cls-7" d="M162.37,42.84c-30.88,7.35-61.75,18.37-83.52,37.14-23.61,20.36-38.15,55.96-27,86.09,5.89,15.92,17.97,30.98,9.82,48.7-3.14,6.82-8.15,12.42-13.22,17.75C25.54,256.53-2.56,282.59.19,320.47c3.13,43.25,38.8,61.66,73.08,73.49,39.58,13.66,81.47,18.02,122.86,19.43,42.42,1.45,85.41-.08,126.3-12.21,43.79-13,92.63-40.89,112.81-86.66,14-31.74,12.03-76.81-15.98-99.4-4.31-3.47-9.1-6.33-12.87-10.45-10.58-11.56-2.95-21.12,5.84-29.94,16.88-16.94,27.3-41.37,23.21-66.22-5.55-33.75-34.2-58.88-64.97-68.66-49.76-15.82-103.69-15.28-154.8-7.09-16.48,2.64-34.89,5.72-53.29,10.1Z"/>
      <g class="cls-29">
        <g>
          <path class="cls-3" d="M153.27,337.32c13.53.38,30.11,3,34.44,14.76,1.95,5.3.71,11.27,2.8,16.53,4.58,11.5,21.21,13.31,34.56,13.17,50.66-.52,101.32-1.03,151.97-1.55,6.55-.07,15.11,1.34,16.04,7.28.54,3.44-2.05,6.6-4.7,9.09-18.3,17.2-45.26,23.6-70.93,28.46-120.09,22.71-247.08,27.28-363.57-7.81-20.35-6.13-52.33-19.1-47.69-43.95,3.7-19.82,28.85-19.57,46.54-22.36,66.29-10.45,133.24-15.48,200.53-13.61Z"/>
          <g>
            <g>
              <polygon class="cls-11" points="-12.65 283.84 457.35 278.84 457.35 167.84 399.35 167.84 361.35 234.84 345.35 125.84 325.35 125.84 311.35 233.84 290.35 125.84 261.35 125.84 243.35 175.84 182.35 175.84 165.35 116.84 142.35 116.84 142.35 167.53 110.35 167.53 110.35 131.84 90.35 131.84 90.35 167.84 76.35 167.84 76.35 132.84 60.35 132.84 60.35 167.84 21.35 167.84 -12.65 283.84"/>
              <rect class="cls-21" x="36.35" y="260.84" width="14" height="14"/>
              <rect class="cls-21" x="54.35" y="207.84" width="14" height="14"/>
              <rect class="cls-21" x="275.35" y="246.84" width="14" height="14"/>
              <rect class="cls-21" x="307.35" y="246.84" width="14" height="14"/>
              <rect class="cls-21" x="370.35" y="246.84" width="14" height="14"/>
              <rect class="cls-21" x="154.35" y="194.84" width="9" height="66"/>
              <rect class="cls-21" x="172.35" y="180.84" width="9" height="66"/>
            </g>
            <g>
              <path class="cls-3" d="M61.14,110.68c1.2-3.93,3.19-7.6,4.16-11.59,2.27-9.36-1.35-19.07-1.46-28.7-.11-9.98,3.74-19.94,10.53-27.25.5-.54,1.03-1.08,1.69-1.4,2.4-1.19,5.19.81,6.72,3,5.79,8.31,3.8,19.67.4,29.2-3.4,9.54-8.06,19.21-6.89,29.27.51,4.36,2.11,8.61,1.92,12.99-.71,16.21-21.89,10.31-17.07-5.53Z"/>
              <path class="cls-3" d="M93.14,110.68c1.2-3.93,3.19-7.6,4.16-11.59,2.27-9.36-1.35-19.07-1.46-28.7-.11-9.98,3.74-19.94,10.53-27.25.5-.54,1.03-1.08,1.69-1.4,2.4-1.19,5.19.81,6.72,3,5.79,8.31,3.8,19.67.4,29.2-3.4,9.54-8.06,19.21-6.89,29.27.51,4.36,2.11,8.61,1.92,12.99-.71,16.21-21.89,10.31-17.06-5.53Z"/>
              <path class="cls-3" d="M326.14,103.68c1.2-3.93,3.19-7.6,4.16-11.59,2.27-9.36-1.35-19.07-1.46-28.7-.11-9.98,3.73-19.94,10.53-27.25.5-.54,1.03-1.08,1.69-1.4,2.4-1.19,5.19.81,6.72,3,5.79,8.31,3.8,19.67.4,29.2s-8.06,19.21-6.89,29.27c.51,4.36,2.11,8.61,1.92,12.99-.71,16.21-21.89,10.31-17.07-5.53Z"/>
            </g>
          </g>
        </g>
      </g>
      <g>
        <g>
          <g>
            <path class="cls-12" d="M266.69,324.74c-26.19,4.09-66.09,0-66.09,0-.28-6.07-.49-12.08-.61-17.99-.06-2.4-.1-4.8-.12-7.17-.26-20.58.34-40.09,1.51-58.28.1-1.49.2-2.98.31-4.45,1.01-14.35,2.37-27.86,3.95-40.41.29-2.26.57-4.49.87-6.68,3.09-22.9,6.81-42.36,10.21-57.61.37-1.63.73-3.2,1.08-4.73,4.95-21.31,8.99-33.21,8.99-33.21h14.96c4.33,12.25,7.94,25.78,10.93,39.98.48,2.26.94,4.53,1.38,6.81,2.53,13.02,4.58,26.5,6.24,39.97.18,1.49.36,2.98.53,4.46,2.46,21.08,3.97,42.01,4.89,61,.11,2.25.21,4.47.29,6.66.48,11.22.74,21.64.88,30.87.02,1.68.04,3.31.06,4.9.22,21.86-.26,35.88-.26,35.88Z"/>
            <path class="cls-24" d="M254.06,141c-5.2-.7-10.35-1.57-15.35-2.55-7.51-1.46-14.89-3.52-22-6.31.37-1.63.73-3.2,1.08-4.73,7.5,2.47,15.25,4.18,23.05,5.41,3.93.62,7.88,1.04,11.83,1.37.48,2.26.94,4.53,1.38,6.82Z"/>
            <path class="cls-24" d="M260.82,185.43c-17.71,6.48-36.47,10.38-55.19,11.01.29-2.26.57-4.49.87-6.68,9.47-.26,18.91-1.09,28.3-2.7,8.63-1.47,17.14-3.5,25.49-6.08.18,1.49.36,2.97.53,4.46Z"/>
            <path class="cls-24" d="M266,253.09c-8.44-.11-16.84-.77-25.22-1.95-13.48-1.9-26.67-5.18-39.41-9.84.1-1.49.2-2.98.31-4.45,13.04,3.91,26.42,6.72,39.9,8.21,8.01.88,16.07,1.36,24.13,1.38.11,2.25.21,4.47.29,6.66Z"/>
            <path class="cls-24" d="M266.94,288.86c-11.55,4.95-23.46,9.01-35.58,12.03-10.33,2.59-20.83,4.55-31.38,5.86-.06-2.4-.1-4.8-.12-7.17,10.04-1.03,20-2.62,29.87-4.81,12.64-2.81,25.03-6.39,37.15-10.81.02,1.68.04,3.31.06,4.9Z"/>
          </g>
          <path class="cls-14" d="M187.79,62.81c-39.06-9.27-83.12-10.04-116.22,12.69,13.43,2.94,27.29,3.9,41,2.86-6.82-.31-13.5,4.73-15.08,11.37,10.67.37,21.39-.81,31.72-3.5-5.19-.8-10.69,2.8-12.05,7.87,10.77.48,21.65-1.59,31.49-6.01-1.94,3.04-3.87,6.09-5.81,9.13,10.04.15,20.08-3.63,27.53-10.35-2.85,1.38-4.99,4.17-5.59,7.28,10.74.14,21.5-2.9,30.58-8.65-1.61,1.78-2.5,4.19-2.44,6.59,8.89,1.89,34.21-1.6,39.56,3.34,12.72-17.41-34.89-30.28-44.7-32.61Z"/>
          <path class="cls-14" d="M252.97,73.93c11.78-8.19,25.14-13.86,38.73-18.47,12.7-4.3,25.78-7.74,39.14-8.89,22.6-1.95,45.33,2.71,66.8,10,.53.18,1.11.4,1.4.89.32.55.15,1.24-.07,1.84-2.42,6.49-9.79,9.56-16.57,10.97-7.83,1.63-15.86,2-23.85,2.38,2.39,1.19,4.77,2.38,7.16,3.57,1.05.53,2.25,1.26,2.3,2.44.09,1.84-2.46,2.41-4.3,2.31-7.1-.36-14.2-.82-21.28-1.39,3.26.96,6.23,2.89,8.43,5.48.48.56.94,1.22.9,1.95-.08,1.74-2.5,2.08-4.23,1.86-7.65-.97-15.25-2.4-22.73-4.27,3.54,1.83,6.51,4.75,8.41,8.26-2.2,3.08-6.9,2.3-10.52,1.2-7.52-2.3-15.04-4.61-22.56-6.92,4.45,1.47,8.3,4.64,10.6,8.72-4.04,2.47-9.24,1.19-13.75-.24-6.18-1.96-12.32-4.07-18.4-6.32,4.43,1.67,9.76,4.77,9.01,9.44-9.85-1.67-19.6-3.91-29.18-6.7.85,1.73,2.8,2.56,4.31,3.76s2.61,3.57,1.28,4.97c-.68.72-1.76.87-2.74.98-6.64.72-13.3,1.29-19.97,1.69-4.55.27-14.43,2.93-12.82-3.72,2.37-9.78,16.74-20.38,24.48-25.77Z"/>
          <path class="cls-28" d="M233.4,78.26c-4.2-18.75-9.69-37.94-22.13-52.58C197.31,9.25,175.55.41,153.99,0c-3.15-.06-6.62.18-8.87,2.38,8.89,6.62,17.96,12.99,27.21,19.1-2.81-.35-5.62-.71-8.43-1.06-1.8-.23-4.27,0-4.56,1.8-.24,1.49,1.35,2.57,2.71,3.23,7.19,3.5,14.38,6.99,21.57,10.49-1.98-.9-4.11-1.47-6.28-1.67-1.04-.1-2.3,0-2.84.9-.84,1.42.9,2.94,2.37,3.68,7.32,3.65,14.67,7.26,22.04,10.82-2.51-1.02-5.28-1.39-7.98-1.07-1.13,1.65.87,3.63,2.62,4.61,7.6,4.27,15.38,8.21,23.32,11.8-1.14-.21-2.34-.41-3.44-.06s-2.05,1.49-1.78,2.61c.09.39.32.74.53,1.07,5.2,8.03,10.26,16.88,16.83,23.88,9.21,9.83,5.4-9.72,4.39-14.26Z"/>
          <path class="cls-28" d="M195.21,97.26c-40.98,23.19-70.75,65.26-78.99,111.62,13.47-9.15,23.7-22.99,28.51-38.55-3.53,7.8-4.04,16.93-1.41,25.08,9.73-13.4,16.06-29.25,18.24-45.67-.66,7.04.12,14.22,2.27,20.96,9.34-11.2,15.75-24.8,18.45-39.13,1.18,3.12-.15,6.57-.19,9.9s2.69,7.35,5.8,6.15c1.62-.62,2.44-2.39,3.1-3.99,4.32-10.46,8.64-20.92,12.96-31.38-1.44,5.4-.71,11.35,2.01,16.24,8.1-7.87,13.44-18.53,14.9-29.72,1.24,2.72.16,5.87.12,8.85-.04,2.99,2.19,6.64,5.05,5.78,1.44-.43,2.32-1.86,3.01-3.2,16.12-31.17-16.16-22.95-33.83-12.94Z"/>
          <path class="cls-28" d="M294.17,104.54c6.78,4.09,13.26,8.74,18.79,14.4,6.12,6.26,10.98,13.65,15.33,21.25,9.52,16.65,16.94,35.57,14.66,54.61-.24,2.03-.98,4.48-2.99,4.89-1.93.39-3.54-1.43-4.64-3.07-7.57-11.37-12.95-24.18-15.77-37.54-.89,2.89.38,5.95.65,8.96.27,3.01-1.44,6.82-4.45,6.58-1.85-.15-3.18-1.78-4.23-3.32-4.78-7.01-8.47-14.77-10.88-22.9.04,3.28.04,6.73-1.57,9.58-1.61,2.85-5.44,4.73-8.27,3.08-1.37-.8-2.24-2.23-2.98-3.64-3.44-6.54-5.45-13.83-5.83-21.21-.36,3.89-1.53,7.71-3.41,11.13-8.52-4.12-11.63-14.46-13.85-23.65.02,4.21-1.44,8.4-4.06,11.69-4.97-2.23-6.73-8.27-7.93-13.58-1.14-5.05-2.28-10.09-3.42-15.14-.67,2.18-1.35,4.37-2.02,6.55-.28.9-.69,1.94-1.6,2.19-.76.21-1.54-.23-2.18-.69-5.43-3.8-10.43-10.61-11.16-17.38-.85-7.89,9.7-7.09,15.71-7.13,16.32-.13,32.29,6.01,46.11,14.34Z"/>
          <path class="cls-28" d="M253.51,47.13c12.42-15.89,29.48-28.12,48.51-34.79,8.17-2.86,16.78-4.73,25.43-4.46,2.39.08,5.37.83,5.76,3.19.28,1.69-1.02,3.2-2.27,4.38-6.17,5.8-13.52,10.33-21.46,13.24,3.06-.99,6.64-.1,8.88,2.2-5.21,6.26-13.97,7.98-22.01,9.31,1.57.79,3.13,1.58,4.69,2.37.64.32,1.31.68,1.65,1.31.91,1.68-1.16,3.39-2.92,4.15-5.49,2.36-11.23,4.13-17.1,5.29,2.65.65,5.87,1.93,6.02,4.66.17,3.02-3.52,4.54-6.48,5.18-5.24,1.13-10.48,2.25-15.73,3.38,2.45,1.5,6.36,1.9,6.69,4.75.3,2.65-2.99,4.06-5.6,4.61-6,1.24-12,2.49-18.01,3.73,1.54,1.53,4.66,1.32,5.35,3.38,2.01,6.01-25.89,22.42-20.17,1.58,3.72-13.55,10.1-26.38,18.76-37.45Z"/>
        </g>
        <g>
          <g>
            <g>
              <path class="cls-1" d="M250.89,92.2c.32,3.33-1.27,6.54-3.1,9.34-2.34,3.59-5.13,6.88-8.3,9.77-6,5.47-11.85,5.19-17.29-.72-.07-.07-.13-.14-.19-.21-.15-.17-.3-.34-.46-.52-3.33-3.84-6.65-9.23-6.29-14.43.47-6.81,5.72-11.2,12.06-13.06,2.71-.8,5.62-1.13,8.44-1,3.96.19,7.76,1.3,10.58,3.37,2.42,1.77,4.27,4.47,4.55,7.46Z"/>
              <path class="cls-15" d="M250.89,92.2c.32,3.33-1.27,6.54-3.1,9.34-2.34,3.59-5.13,6.88-8.3,9.77-6,5.47-11.85,5.19-17.29-.72,7.13-2.7,13.31-7.89,17.15-14.48.78-1.33,1.48-2.76,1.63-4.29.24-2.29-.69-4.65-1.89-6.55-.89-1.42-2.38-2.5-3.33-3.89,3.96.19,7.76,1.3,10.58,3.37,2.42,1.77,4.26,4.47,4.55,7.46Z"/>
              <path class="cls-17" d="M227.33,82.37c1.61,1.64,2.7,3.82,3.15,6.08.66,3.41-.01,6.97-1.36,10.17-1.36,3.19-3.36,6.07-5.44,8.84-.64.85-1.31,1.72-2.12,2.4-3.33-3.84-6.65-9.23-6.29-14.43.47-6.81,5.72-11.2,12.07-13.06Z"/>
            </g>
            <path class="cls-22" d="M235.36,83.64c-1.43.56-2.83.76-4.37.73-1.19-.03-2.92-.49-3.9.34-.25.21-.17.6.02.82.84.97,3.26.91,4.44.96,1.58.06,3.24-.18,4.52-1.17.74-.57.34-2.1-.72-1.68Z"/>
          </g>
          <g>
            <g>
              <path class="cls-1" d="M268.53,127.22c-2.18,2.54-5.6,3.61-8.88,4.24-4.21.8-8.52,1.07-12.8.78-8.11-.54-11.95-4.95-11.46-12.97,0-.09.01-.19.02-.28.02-.23.04-.46.06-.69.46-5.06,2.05-11.19,6.05-14.53,5.24-4.38,12.04-3.63,17.78-.35,2.45,1.4,4.71,3.27,6.57,5.39,2.61,2.99,4.43,6.5,4.9,9.96.4,2.97-.27,6.17-2.23,8.45Z"/>
              <path class="cls-15" d="M268.53,127.22c-2.18,2.54-5.6,3.61-8.88,4.24-4.21.8-8.52,1.07-12.8.78-8.11-.54-11.95-4.95-11.46-12.97,6.89,3.27,14.91,4.13,22.33,2.34,1.5-.36,3.01-.85,4.23-1.8,1.82-1.41,2.87-3.72,3.42-5.9.41-1.63.16-3.45.5-5.1,2.61,2.99,4.43,6.5,4.9,9.96.4,2.97-.27,6.17-2.23,8.45Z"/>
              <path class="cls-17" d="M259.3,103.42c-.07,2.3-.88,4.59-2.21,6.48-2,2.84-5.04,4.82-8.28,6.06-3.24,1.23-6.7,1.78-10.15,2.2-1.06.13-2.14.25-3.2.13.46-5.06,2.05-11.19,6.05-14.53,5.24-4.38,12.04-3.63,17.78-.35Z"/>
            </g>
            <path class="cls-22" d="M263.95,110.08c-1.4-.64-2.51-1.51-3.55-2.65-.81-.88-1.67-2.44-2.94-2.57-.33-.04-.55.29-.58.58-.12,1.28,1.6,2.98,2.39,3.87,1.05,1.19,2.37,2.22,3.97,2.45.93.14,1.75-1.2.71-1.68Z"/>
          </g>
          <g>
            <g>
              <path class="cls-1" d="M235.74,134.71c-2.18,2.54-5.6,3.61-8.88,4.24-4.21.8-8.52,1.07-12.8.78-8.11-.54-11.95-4.95-11.46-12.97,0-.09,0-.19.02-.28.02-.23.04-.46.06-.69.46-5.06,2.05-11.19,6.05-14.53,5.24-4.38,12.04-3.63,17.78-.35,2.45,1.4,4.71,3.27,6.57,5.39,2.61,2.99,4.44,6.5,4.9,9.96.4,2.97-.27,6.17-2.23,8.45Z"/>
              <path class="cls-15" d="M235.74,134.71c-2.18,2.54-5.6,3.61-8.88,4.24-4.21.8-8.52,1.07-12.8.78-8.11-.54-11.95-4.95-11.46-12.97,6.89,3.27,14.91,4.13,22.33,2.34,1.5-.36,3.01-.85,4.23-1.8,1.82-1.41,2.87-3.72,3.42-5.9.41-1.63.16-3.45.5-5.1,2.61,2.99,4.44,6.5,4.9,9.96.4,2.97-.27,6.17-2.23,8.45Z"/>
              <path class="cls-17" d="M226.51,110.91c-.07,2.3-.88,4.59-2.21,6.48-2,2.84-5.04,4.82-8.28,6.06-3.24,1.23-6.71,1.78-10.15,2.2-1.06.13-2.15.25-3.2.13.46-5.06,2.05-11.19,6.05-14.53,5.24-4.38,12.04-3.63,17.78-.35Z"/>
            </g>
            <path class="cls-22" d="M231.16,117.57c-1.4-.64-2.51-1.51-3.55-2.65-.81-.88-1.67-2.44-2.94-2.57-.33-.04-.55.29-.58.58-.12,1.28,1.6,2.98,2.39,3.87,1.05,1.19,2.37,2.22,3.97,2.45.93.14,1.75-1.2.71-1.68Z"/>
          </g>
        </g>
      </g>
      <g>
        <path class="cls-11" d="M57.67,354.56c6.41-.24,13.49.9,17.64,5.79,2.32,2.72,3.53,6.42,6.42,8.52,2.34,1.71,5.38,2.06,8.27,2.32,17.79,1.6,36.69,1.56,52.23-7.23,3.62-2.05,7.01-4.55,10.82-6.21,4.04-1.76,8.43-2.52,12.72-3.52,6.81-1.6,13.47-3.84,19.86-6.69,5.58-2.49,11.9-7.98,9.26-13.49-1.87-3.91-7.03-4.64-11.36-4.86-35.56-1.75-71.29-3.51-106.82-.31-10.23.92-42.05.52-48.84,9.08-12.85,16.2,23.17,16.86,29.81,16.61Z"/>
        <g>
          <g>
            <path class="cls-25" d="M145.25,241.22s1.22-36.17,1.78-52.88c.63-.15,1.25-.38,1.84-.74,1.61-.98,2.64-2.66,3.57-4.3,1.24-2.18,2.45-4.71,1.67-7.1-1.16-3.52-5.68-4.34-9.38-4.57-15.48-.94-31.16-1.9-46.54.7-4.55.77-10.74,1.72-10.75,7.49-.01,4.6,3.32,7.12,7.22,8.09l1.8,53.3s-76.28,81.77-23.36,101.7c29.68,11.18,65.82,11.18,95.52,0,52.91-19.93-23.36-101.7-23.36-101.7Z"/>
            <path class="cls-26" d="M174.36,327c-6.23,6-16.65,8.69-24.81,10.85-9.34,2.49-18.99,3.81-28.65,3.9-18.92.18-38.13-4.38-54.07-14.79-6.28-4.1-4.35-11.04-2.88-17.48,3.75-16.44,13.17-32.35,23.78-46.67,4.87-6.58,9.99-12.82,14.93-18.62l-2.06-53.06c12.43-6.69,28.1-6.69,40.54,0,0,0-2.06,53.06-2.06,53.06-.01.29.96,1.15,1.13,1.35,8.55,10.36,16.49,21.34,23.48,32.83,4.52,7.43,8.73,15.17,11.74,23.35,1.33,3.63,2.69,7.79,3.11,11.89.51,4.9-.33,9.7-4.16,13.39Z"/>
            <path class="cls-2" d="M174.36,327c-6.23,6-16.65,8.69-24.81,10.85-9.34,2.49-18.99,3.81-28.65,3.9-18.92.18-38.13-4.38-54.07-14.79-6.28-4.1-4.35-11.04-2.88-17.48,3.75-16.44,13.17-32.35,23.78-46.67.21,9.82,2.93,19.65,8.74,27.51,3.96,5.36,9.21,9.66,14.86,13.19,19.78,12.29,44.21,14.81,67.2,10.09.51,4.9-.33,9.7-4.16,13.39Z"/>
            <path class="cls-20" d="M146.71,265.26c4.41,5.2,8.89,10.52,11.54,16.8,2.16,5.14,2.88,11.47-.37,16-2.53,3.52-7.06,5.24-11.4,5.16s-8.51-1.73-12.3-3.84c-6.59-3.67-12.35-8.82-16.73-14.95-4.19-5.86-7.18-12.88-6.81-20.08.38-7.49,5.86-18.18,14.73-15.86,8.8,2.31,15.73,10.13,21.35,16.76Z"/>
            <path class="cls-20" d="M134.01,205.16c-.78-4.7-4.47-9.92-9.9-8.23-1.64.51-2.84,1.99-2.85,3.74-.01,3.21.48,6.54.65,9.82.24,4.5.18,8.8,2.07,12.97,2.12,4.69,8.93,2.85,10.27-1.34,1.61-5.03.62-11.8-.23-16.95Z"/>
            <path class="cls-20" d="M134.28,233.19c0-.06-.02-.13-.03-.19-.21-1.57-1.88-2.92-3.31-3.31-1.63-.45-3.41.02-4.61,1.22s-1.67,2.98-1.22,4.61c.23.8.63,1.5,1.22,2.09.59.59,1.29.99,2.09,1.22.05.02.1.04.15.06,1.47.61,3.45-.14,4.51-1.19.57-.58.97-1.26,1.19-2.04.22-.82.22-1.64,0-2.46Z"/>
          </g>
          <g>
            <g>
              <path class="cls-1" d="M183.31,341.82c-3.3,3.84-8.47,5.46-13.44,6.42-6.37,1.21-12.89,1.61-19.37,1.18-12.27-.81-18.09-7.49-17.35-19.63,0-.14.02-.28.02-.43.02-.35.05-.69.09-1.05.69-7.66,3.1-16.94,9.16-21.99,7.93-6.64,18.23-5.5,26.91-.53,3.71,2.12,7.12,4.95,9.94,8.16,3.95,4.52,6.71,9.83,7.42,15.08.61,4.5-.41,9.35-3.38,12.79Z"/>
              <path class="cls-15" d="M183.31,341.82c-3.3,3.84-8.47,5.46-13.44,6.42-6.37,1.21-12.89,1.61-19.37,1.18-12.27-.81-18.09-7.49-17.35-19.63,10.43,4.95,22.57,6.26,33.8,3.54,2.27-.54,4.56-1.29,6.4-2.72,2.75-2.14,4.35-5.63,5.17-8.94.62-2.47.24-5.23.76-7.71,3.95,4.52,6.71,9.83,7.42,15.08.61,4.5-.41,9.35-3.38,12.79Z"/>
              <path class="cls-17" d="M169.34,305.79c-.1,3.48-1.33,6.95-3.34,9.81-3.03,4.3-7.63,7.3-12.53,9.17-4.91,1.87-10.15,2.7-15.36,3.33-1.6.2-3.25.38-4.84.2.69-7.66,3.1-16.94,9.16-21.99,7.93-6.64,18.23-5.5,26.91-.53Z"/>
            </g>
            <path class="cls-22" d="M176.37,315.87c-2.11-.97-3.8-2.29-5.37-4-1.22-1.33-2.53-3.69-4.46-3.9-.5-.05-.84.45-.87.87-.18,1.94,2.42,4.51,3.62,5.86,1.59,1.8,3.59,3.36,6.01,3.71,1.4.21,2.64-1.82,1.07-2.54Z"/>
          </g>
          <g>
            <g>
              <path class="cls-1" d="M133.99,362.02c-3.3,3.84-8.47,5.46-13.44,6.42-6.37,1.21-12.89,1.62-19.37,1.18-12.27-.81-18.09-7.49-17.35-19.63,0-.14.02-.28.02-.43.02-.35.06-.69.09-1.05.69-7.66,3.11-16.94,9.16-21.99,7.93-6.64,18.23-5.5,26.91-.53,3.71,2.12,7.12,4.95,9.94,8.16,3.95,4.52,6.71,9.83,7.42,15.08.61,4.5-.41,9.35-3.38,12.79Z"/>
              <path class="cls-15" d="M133.99,362.02c-3.3,3.84-8.47,5.46-13.44,6.42-6.37,1.21-12.89,1.62-19.37,1.18-12.27-.81-18.09-7.49-17.35-19.63,10.43,4.95,22.57,6.26,33.8,3.54,2.27-.54,4.56-1.29,6.4-2.72,2.75-2.14,4.35-5.63,5.17-8.94.62-2.47.24-5.23.76-7.71,3.95,4.52,6.71,9.83,7.42,15.08.61,4.5-.41,9.35-3.38,12.79Z"/>
              <path class="cls-17" d="M120.02,325.99c-.1,3.48-1.33,6.95-3.34,9.81-3.03,4.3-7.63,7.3-12.53,9.17-4.91,1.87-10.15,2.7-15.36,3.33-1.6.2-3.25.38-4.84.2.69-7.66,3.11-16.94,9.16-21.99,7.93-6.64,18.23-5.5,26.91-.53Z"/>
            </g>
            <path class="cls-22" d="M127.05,336.07c-2.11-.97-3.81-2.29-5.37-4-1.22-1.33-2.53-3.69-4.46-3.9-.5-.05-.84.45-.87.87-.18,1.94,2.42,4.51,3.62,5.86,1.59,1.8,3.59,3.36,6.01,3.71,1.4.21,2.65-1.82,1.07-2.54Z"/>
          </g>
          <g>
            <g>
              <path class="cls-1" d="M22.9,344.47c3.3,3.84,8.47,5.46,13.44,6.42,6.37,1.21,12.89,1.61,19.37,1.18,12.27-.81,18.09-7.49,17.35-19.63,0-.14-.02-.28-.02-.43-.02-.35-.06-.69-.09-1.05-.69-7.66-3.11-16.94-9.16-21.99-7.93-6.64-18.23-5.5-26.91-.53-3.71,2.12-7.12,4.95-9.94,8.16-3.95,4.52-6.71,9.83-7.42,15.08-.6,4.5.41,9.35,3.38,12.79Z"/>
              <path class="cls-15" d="M22.9,344.47c3.3,3.84,8.47,5.46,13.44,6.42,6.37,1.21,12.89,1.61,19.37,1.18,12.27-.81,18.09-7.49,17.35-19.63-10.43,4.95-22.57,6.26-33.8,3.54-2.27-.54-4.56-1.29-6.4-2.72-2.75-2.14-4.35-5.63-5.17-8.94-.62-2.47-.24-5.23-.76-7.71-3.95,4.52-6.71,9.83-7.42,15.08-.61,4.5.41,9.35,3.38,12.79Z"/>
              <path class="cls-17" d="M36.87,308.44c.1,3.48,1.33,6.95,3.34,9.81,3.03,4.3,7.63,7.3,12.53,9.17,4.91,1.87,10.15,2.7,15.36,3.33,1.6.2,3.25.38,4.84.2-.69-7.66-3.11-16.94-9.16-21.99-7.93-6.64-18.23-5.5-26.91-.53Z"/>
            </g>
            <path class="cls-22" d="M29.84,318.53c2.11-.97,3.81-2.29,5.37-4,1.22-1.33,2.53-3.69,4.46-3.9.5-.05.83.45.87.87.18,1.94-2.42,4.51-3.62,5.86-1.59,1.8-3.59,3.36-6.01,3.71-1.4.21-2.65-1.82-1.07-2.54Z"/>
          </g>
        </g>
      </g>
      <g>
        <path class="cls-9" d="M317.36,216.39s20.6-6.18,33.03-5.42c0,0,5.6,1.1,7.4,7.48,0,0,1.94,8.21-8.58,10.65,0,0-17.81,2.17-34.21,3.76-2.48.24-4.96-.67-6.64-2.51-4.2-4.57-11.61-15.16-14.94-35.28,0,0,3.06-3.9,10.03-4.58,0,0,12.9,18.78,13.92,25.89Z"/>
        <path class="cls-14" d="M323.42,218.86c1.17-6.51,4.32-12.16,10.28-15.36,5.29-2.84,11.91-3.43,17.54-1.3,2.78,1.05,5.51,2.59,7.11,5.03,1.09,1.66,1.58,3.6,2.01,5.52,2.53,11.13-2.31,21.7-3.9,33.78-.25,1.89-.36,3.6-1.46,5.18-.21.31.55.62.22.8-.42.24-1.93.25-2.42.25-6.94.06-10.9.12-17.78-.75-5.99-.76-11.46-2.79-13.37-8.87-.56-1.78-.39-3.4-.03-5.2.53-2.71.72-5.38.84-8.14.16-3.66.31-7.34.96-10.95Z"/>
        <g>
          <path class="cls-16" d="M360.08,198.37c-3.4,1.71-7.33,1.96-11.13,2.18l.61-1.01c-.89.31-1.87.38-2.8.18,4.37-4.49,7.15-10.51,7.72-16.76.08-.83.12-1.68.4-2.47.35-.97,1.03-1.77,1.71-2.54.56-.64,1.15-1.29,1.92-1.65,1.16-.54,2.55-.31,3.68.29,1.12.6,2.02,1.54,2.89,2.48,1.32,1.44,3.28,3.46,3.32,5.54.03,1.53-.74,3.6-1.18,5.07-1.1,3.69-3.69,6.95-7.15,8.68Z"/>
          <path class="cls-13" d="M337.59,192.91l-3.83,14.08c-.21.76.39,1.49,1.18,1.45l9.28-.6c.51-.03.94-.4,1.05-.9l2.69-12.57-10.37-1.45Z"/>
          <path class="cls-13" d="M356.52,189.8c2.11-.32,3.7,1.37,3.74,3.43.03,1.56-.86,2.92-2.24,3.6-1.27.62-2.73.72-4.15.74-1.16.02-2.49-.09-3.2-1.01-.96-1.23-.11-3.23.74-4.33,1.12-1.43,3.38-2.18,5.1-2.44Z"/>
          <path class="cls-24" d="M332.83,176.43s-7.12,17.63,0,22.52c0,0,14.45,5.2,20.5-3.08l9.03-16.04s-4.04-12-19.12-13.7l-6.16-1.27-4.25,11.58Z"/>
          <path class="cls-16" d="M331.42,165.56c-2.32,1.26-4.43,3.02-5.73,5.32-.17.3-.33.65-.24.99.19.69,1.15.7,1.85.54,3.19-.69,6.33-1.58,9.41-2.65-1.81.52-3.39,1.81-4.27,3.48-.1.19-.2.41-.16.63.08.5.72.64,1.22.66,2.13.06,4.27-.15,6.34-.64-.73.47-1.39,1.05-1.96,1.71-.12.14-.24.29-.26.47-.05.45.48.71.91.82,2.12.54,4.35.68,6.52.4-.84-.07-1.25,1.17-.78,1.87.46.7,1.36.95,2.18,1.15,2.97.73,6.13,1.45,9.05.5.21-.07.42-.15.57-.31.2-.22.23-.54.2-.84-.1-.96-.72-1.78-1.33-2.53-3.11-3.8-6.62-7.27-10.45-10.34-1.37-1.1-3.99-3.82-5.75-3.99-1.99-.2-5.58,1.83-7.29,2.75Z"/>
          <path class="cls-16" d="M355.88,186.44c-1.26,2.84-2.49,5.69-3.7,8.55.52.22,1.19-.02,1.46-.51.02.41.04.82.06,1.23,1.61-1.46,3.04-3.14,4.23-4.96,2.27,1.09,5.13.83,7.17-.65,1-.73,1.84-1.82,1.85-3.05,0-.98-.5-1.88-1.01-2.71-1.8-2.98-5.83-9.49-10.12-8.71-4.21.77-2.25,8.99.05,10.82Z"/>
          <g>
            <path class="cls-2" d="M375.34,200.87c-3.04-2.02-6.07-4.18-9.06-6.42-18.9-14.13-35.99-31.33-41.54-37.08-.53-.55.01-1.44.74-1.24,5.04,1.42,11.08,3.11,14.01,3.93.06.02.11.03.17.05.53-.2,1.01-.37,1.26-.48.82-.38,1.64-.75,2.47-1.1,4.24-1.85,8.62-3.42,13.25-4.15,1.45-.23,2.95-.37,4.38-.06,1.44.31,2.82,1.14,3.42,2.4.44.93.42,1.98.59,2.99.16,1,.62,2.08,1.6,2.51.54.24,1.16.24,1.75.27h.09c1.71.08,3.48.49,4.78,1.55,2.4,1.96,2.49,5.4,2.06,8.35-.55,3.76-1.64,7.44-3.22,10.92-.62,1.37-1.31,2.71-2.08,4.01,2.39,4.61,4.94,9.66,6.42,12.59.34.69-.45,1.38-1.09.96Z"/>
            <path class="cls-5" d="M375.34,200.87c-3.04-2.02-6.07-4.18-9.06-6.42-1.17-3.82-2.5-7.59-4-11.29-.21-.53-.43-1.13-.22-1.67.09-.22.25-.4.4-.59,1.68-2.03,3.07-4.29,4.13-6.71,1.59-3.65,2.34-7.8,1.79-11.7h.09c1.71.08,3.48.49,4.78,1.55,2.4,1.96,2.49,5.4,2.06,8.35-.55,3.76-1.64,7.44-3.22,10.92-.62,1.37-1.31,2.71-2.08,4.01,2.39,4.61,4.94,9.66,6.42,12.59.34.69-.45,1.38-1.09.96Z"/>
            <path class="cls-4" d="M372.09,183.31c-.62,1.37-1.31,2.71-2.08,4.01-5.72-3.13-11.06-7.17-15.85-11.33-4.75-4.11-11.03-9.77-14.67-15.93.06.02.11.03.17.05.53-.2,1.01-.37,1.26-.48.82-.38,1.64-.75,2.47-1.1,1.37,1.76,2.68,3.57,4.13,5.21,2.78,3.13,5.76,6.11,8.92,8.87,4.89,4.3,10.16,7.59,15.65,10.7Z"/>
          </g>
          <path class="cls-16" d="M334.62,179.34c-.43-.17-1.09-.05-1.3.43-.33.75-.63,1.47-.75,2.28-.07.47.08.94.56,1.13.44.18.95.02,1.2-.39.42-.7.67-1.44.89-2.22.14-.49-.13-1.04-.6-1.23Z"/>
          <path class="cls-16" d="M345.08,183.93c-.14-.61-1.09-.93-1.5-.4-.28.36-.43.74-.62,1.15-.18.39-.43.73-.61,1.12-.48,1.03.71,2.06,1.61,1.24.77-.7,1.35-2.08,1.12-3.11Z"/>
          <path class="cls-13" d="M339.48,181.68c-.04-.28-.39-.43-.56-.15-.57.93-1.08,1.89-2.06,2.46-.68.39-1.62.48-2.03,1.24-.87,1.56,1.33,2.85,2.64,2.75.85-.07.87-1.32,0-1.34-.35,0-1.11-.07-1.29-.46-.23-.51.28-.57.59-.71.51-.22.98-.48,1.41-.84.84-.73,1.45-1.81,1.3-2.95Z"/>
          <path class="cls-6" d="M332.62,188.42c1.27.32,4.16,1.18,6.32,2.88.27.21.19.65-.13.77-1.67.61-5.82,1.6-6.73-3.11-.06-.33.22-.62.55-.54Z"/>
        </g>
        <g>
          <path class="cls-16" d="M357.93,277.87c1.63-2.07,2.28-4.62,2.55-7.12.41-3.82.02-7.7-1.1-11.42-.2-.67-.52-1.77-1.01-2.84.14-6.63-.19-10.49-.19-10.49-9.21-.08-16-3.5-16-3.5-1.83-16,1.5-35.33,1.5-35.33h-4.67c-1.83,4.17-4.5,26.83-4.5,26.83-7.13.51-10.33-.17-10.33-.17-.17-4.33,2.73-26.46,2.73-26.46l-2.23,1.79c-8,25-8.33,121.33-8.33,121.33,8.33,1.17,16,1.17,16,1.17,2.5-11.33,3.5-50,3.5-50l2.67.17c.17,20,8.17,49.83,8.17,49.83,10.5-.17,14.17-1.5,14.17-1.5l-2.91-52.29Z"/>
          <g>
            <path class="cls-19" d="M334.51,318.99s-1.77,19.77-3.42,29.64c-.06.38-.13.74-.19,1.09-.35,1.93-1.96,3.37-3.91,3.47-4.25.22-12.12.47-19.86-.08-1.08-.08-1.93-.92-2.06-1.99-.05-.39-.06-.84.01-1.31.19-1.42,1.04-3.15,3.43-4.82l6-2.66.16-23.34s11.46-1.06,19.84,0Z"/>
            <path class="cls-27" d="M331.09,348.63c-.06.38-.13.74-.19,1.09-.35,1.93-1.96,3.37-3.91,3.47-4.25.22-12.12.47-19.86-.08-1.08-.08-1.93-.92-2.06-1.99-.05-.39-.06-.84.01-1.31.79.14,1.58.35,2.25.44,1.83.25,3.66.41,5.5.48,3.67.13,7.36-.1,10.99-.68.68-.11,4.45-.72,7.27-1.42Z"/>
          </g>
          <g>
            <path class="cls-19" d="M363.04,348.83c-4.01,1.34-11.48,3.67-19.05,5.2-1.05.22-2.09-.36-2.5-1.36-.26-.63-.45-1.44-.37-2.39.09-1.24.63-2.73,2.02-4.43l5.04-4.17-6.09-22.52s10.69-4.07,19-5.28c0,0,3.77,20.44,4.73,30.15.01.14.03.28.04.42.18,1.95-.98,3.76-2.82,4.38Z"/>
            <path class="cls-27" d="M363.04,348.83c-4.01,1.34-11.48,3.67-19.05,5.2-1.05.22-2.09-.36-2.5-1.36-.26-.63-.45-1.44-.37-2.39.8-.02,1.62.02,2.29-.02,1.83-.14,3.66-.36,5.47-.67,3.63-.62,7.19-1.6,10.62-2.92.6-.23,3.77-1.45,6.32-2.64.01.14.03.28.04.42.18,1.95-.98,3.76-2.82,4.38Z"/>
          </g>
        </g>
        <path class="cls-6" d="M329.65,252.1h0c-.73.39-1.64.12-2.03-.61l-68.9-127.96c-.39-.73-.12-1.64.61-2.03h0c.73-.39,1.64-.12,2.03.61l68.9,127.96c.39.73.12,1.64-.61,2.03Z"/>
        <g>
          <path class="cls-24" d="M302.19,190.79c-1.79-2.19-3.57-4.38-5.36-6.58-.22-.27-.45-.55-.59-.88-.15-.34-.19-.73-.25-1.1-.29-1.88-.87-3.7-1.72-5.36-.24-.47-.51-.94-.92-1.27-.77-.63-1.9-.69-2.95-.57-1.55.18-3.08.71-4.45,1.52-.57.34-1.13.75-1.44,1.33-.3.58-.3,1.29.02,1.81.32.52.94.83,1.58.8-.89.23-1.4,1.37-1.05,2.15.36.78,1.38,1.1,2.26.82-.97.11-1.7,1.29-1.37,2.15.33.86,1.54,1.18,2.4.69.05.59.16,1.18.48,1.66.32.48.89.82,1.5.74.11-.01.22-.04.32,0,.16.05.22.25.25.41.31,1.42.8,2.79,1.47,4.06.05.1.11.2.22.23.09.02.19,0,.28-.04,2.3-.82,4.56-1.75,6.78-2.8.7-.33,1.45-.69,2.19-.59"/>
          <path class="cls-23" d="M317.25,210.82s19.53-9.02,31.94-10.01c0,0,5.69.3,8.38,6.37,0,0,3.07,7.86-7,11.75,0,0-17.33,4.65-33.34,8.53-2.43.59-5,.04-6.93-1.55-4.8-3.94-13.63-13.38-19.75-32.83,0,0,2.48-4.29,9.28-5.94,0,0,15.41,16.78,17.42,23.68Z"/>
        </g>
      </g>
      <g>
        <ellipse class="cls-11" cx="257" cy="361.84" rx="56.5" ry="8"/>
        <g>
          <g>
            <g>
              <g>
                <path class="cls-1" d="M296.74,293.67c-2.57,2.99-6.59,4.25-10.46,4.99-4.95.94-10.03,1.26-15.07.92-9.55-.63-14.08-5.82-13.49-15.27,0-.11.01-.22.02-.33.02-.27.04-.54.07-.82.54-5.96,2.42-13.17,7.12-17.11,6.17-5.16,14.18-4.28,20.93-.41,2.89,1.65,5.54,3.85,7.73,6.35,3.07,3.52,5.22,7.65,5.77,11.73.47,3.5-.32,7.27-2.63,9.95Z"/>
                <path class="cls-15" d="M296.74,293.67c-2.57,2.99-6.59,4.25-10.46,4.99-4.95.94-10.03,1.26-15.07.92-9.55-.63-14.08-5.82-13.49-15.27,8.11,3.85,17.56,4.87,26.29,2.75,1.77-.42,3.55-1,4.98-2.11,2.14-1.66,3.38-4.38,4.02-6.95.48-1.92.18-4.06.59-6,3.07,3.52,5.22,7.65,5.77,11.73.47,3.5-.32,7.27-2.63,9.95Z"/>
                <path class="cls-17" d="M285.87,265.64c-.08,2.7-1.04,5.41-2.6,7.63-2.35,3.34-5.93,5.68-9.75,7.14-3.82,1.45-7.9,2.1-11.95,2.59-1.24.15-2.53.29-3.76.16.54-5.96,2.42-13.17,7.12-17.11,6.17-5.16,14.18-4.28,20.94-.41Z"/>
              </g>
              <path class="cls-22" d="M291.34,273.49c-1.64-.75-2.96-1.79-4.18-3.11-.95-1.04-1.96-2.87-3.47-3.03-.39-.04-.65.35-.68.68-.14,1.51,1.88,3.51,2.81,4.56,1.24,1.4,2.79,2.61,4.68,2.89,1.09.16,2.06-1.42.83-1.98Z"/>
            </g>
            <g>
              <g>
                <path class="cls-1" d="M272.37,276.39c-2.57,2.99-6.59,4.25-10.46,4.99-4.95.94-10.03,1.26-15.07.92-9.55-.63-14.08-5.82-13.49-15.27,0-.11.01-.22.02-.33.02-.27.04-.54.07-.82.54-5.96,2.42-13.17,7.12-17.11,6.17-5.16,14.18-4.28,20.93-.41,2.89,1.65,5.54,3.85,7.73,6.35,3.07,3.52,5.22,7.65,5.77,11.73.47,3.5-.32,7.27-2.63,9.95Z"/>
                <path class="cls-15" d="M272.37,276.39c-2.57,2.99-6.59,4.25-10.46,4.99-4.95.94-10.03,1.26-15.07.92-9.55-.63-14.08-5.82-13.49-15.27,8.11,3.85,17.56,4.87,26.29,2.75,1.77-.42,3.55-1,4.98-2.11,2.14-1.66,3.38-4.38,4.02-6.95.48-1.92.18-4.06.59-6,3.07,3.52,5.22,7.65,5.77,11.73.47,3.5-.32,7.27-2.63,9.95Z"/>
                <path class="cls-17" d="M261.5,248.36c-.08,2.7-1.04,5.41-2.6,7.63-2.35,3.34-5.93,5.68-9.75,7.14-3.82,1.45-7.9,2.1-11.95,2.59-1.24.15-2.53.29-3.76.16.54-5.96,2.42-13.17,7.12-17.11,6.17-5.16,14.18-4.28,20.93-.41Z"/>
              </g>
              <path class="cls-22" d="M266.98,256.2c-1.64-.75-2.96-1.79-4.18-3.11-.95-1.04-1.96-2.87-3.47-3.03-.39-.04-.65.35-.68.68-.14,1.51,1.88,3.51,2.81,4.56,1.24,1.4,2.79,2.61,4.68,2.89,1.09.16,2.06-1.42.83-1.98Z"/>
            </g>
            <g>
              <g>
                <path class="cls-1" d="M210.96,296.74c2.57,2.99,6.59,4.25,10.46,4.99,4.95.94,10.03,1.26,15.07.92,9.55-.63,14.08-5.82,13.49-15.27,0-.11-.01-.22-.02-.33-.02-.27-.04-.54-.07-.82-.54-5.96-2.42-13.17-7.12-17.11-6.17-5.16-14.18-4.28-20.93-.41-2.89,1.65-5.54,3.85-7.73,6.35-3.07,3.52-5.22,7.65-5.77,11.73-.47,3.5.32,7.27,2.63,9.95Z"/>
                <path class="cls-15" d="M210.96,296.74c2.57,2.99,6.59,4.25,10.46,4.99,4.95.94,10.03,1.26,15.07.92,9.55-.63,14.08-5.82,13.49-15.27-8.11,3.85-17.56,4.87-26.29,2.75-1.77-.42-3.55-1-4.98-2.11-2.14-1.66-3.38-4.38-4.02-6.95-.48-1.92-.18-4.06-.59-6-3.07,3.52-5.22,7.65-5.77,11.73-.47,3.5.32,7.27,2.63,9.95Z"/>
                <path class="cls-17" d="M221.83,268.71c.08,2.7,1.04,5.41,2.6,7.63,2.35,3.34,5.93,5.68,9.75,7.14,3.82,1.45,7.9,2.1,11.95,2.59,1.24.15,2.53.29,3.76.16-.54-5.96-2.42-13.17-7.12-17.11-6.17-5.16-14.18-4.28-20.93-.41Z"/>
              </g>
              <path class="cls-22" d="M216.36,276.56c1.64-.75,2.96-1.78,4.18-3.11.95-1.04,1.96-2.87,3.47-3.03.39-.04.65.35.68.68.14,1.51-1.88,3.51-2.81,4.56-1.24,1.4-2.79,2.61-4.68,2.89-1.09.16-2.06-1.42-.83-1.98Z"/>
            </g>
          </g>
          <g>
            <path class="cls-6" d="M282.09,364.16c-2.81-.05-5.48-1.24-7.44-3.39l-.27-.29-10.59-18.19c-.5-.85-1.4-1.38-2.38-1.4l-6.9-.12c-1.55-.03-2.79-1.31-2.77-2.86l.03-1.84c.03-1.55,1.31-2.79,2.86-2.77l11.11.2c.98.02,1.89.55,2.38,1.4l11.87,20.38c.57.98,1.68,1.56,2.8,1.38.06,0,.11-.02.16-.03.49-.11,1.68-.51,2.14-1.93l22.71-78.81c.35-1.22,1.48-2.06,2.76-2.04l18.26.32c1.55.03,2.79,1.31,2.77,2.86l-.03,1.84c-.03,1.55-1.31,2.79-2.86,2.77l-12.53-.22c-1.27-.02-2.4.81-2.76,2.04l-21.17,73.46c-1.14,3.58-4,6.2-7.67,7.01-.82.18-1.65.26-2.46.25Z"/>
            <g>
              <g>
                <path class="cls-18" d="M302.9,293.66l-12.17,42.51c-.26.9-1.01,1.51-1.86,1.51h-72.37c-.73,0-1.41-.46-1.74-1.19l-.71-2.5-11.34-40.01c-.66-1.45.29-3.16,1.74-3.16h96.59c1.32,0,2.25,1.43,1.85,2.83Z"/>
                <path class="cls-10" d="M302.9,293.66l-12.17,42.51c-.26.9-1.01,1.51-1.86,1.51h-39.7c9.7-3.16,19.09-7.86,25.82-15.48,4.39-4.96,7.46-10.97,9.8-17.16,1.78-4.7,2.97-9.42,3.88-14.22h12.39c1.32,0,2.25,1.43,1.85,2.83Z"/>
              </g>
              <path class="cls-19" d="M255.65,290.83c-2.51,6.97-6.22,13.48-10.48,19.51-7.44,10.53-17.19,20.44-29.75,23.37-.45.1-.9.2-1.36.29l-11.34-40.01c-.66-1.45.29-3.16,1.74-3.16h51.19Z"/>
            </g>
            <g>
              <circle class="cls-16" cx="244.6" cy="345.15" r="19.69"/>
              <circle class="cls-10" cx="244.6" cy="345.15" r="9.65"/>
            </g>
          </g>
        </g>
      </g>
    </g>
  </g>
</svg>