<?xml version="1.0" encoding="UTF-8"?>
<svg id="Layer_2" data-name="Layer 2" xmlns="http://www.w3.org/2000/svg" viewBox="0 0 1532.88 1754.83">
  <defs>
    <style>
      .cls-1 {
        fill: #c87752;
      }

      .cls-2 {
        fill: #ffda84;
      }

      .cls-3 {
        fill: #7f3a42;
      }

      .cls-4 {
        fill: #964b4f;
      }

      .cls-5 {
        fill: #f18950;
      }

      .cls-6 {
        fill: #65333b;
      }

      .cls-7 {
        fill: #f07e4e;
      }

      .cls-8 {
        fill: #c66b52;
      }

      .cls-9 {
        fill: #ac514d;
      }

      .cls-10 {
        fill: #f9b457;
      }

      .cls-11 {
        fill: #f59e53;
      }
    </style>
  </defs>
  <g id="Capa_1" data-name="Capa 1">
    <path class="cls-10" d="M1529.24,545.2c-.11-1.02-.23-2.04-.36-3.05h-.02c.01-.16.02-.31.02-.47,0-10.84-18.69-21.21-52.72-30.72.36-.38-.86-3.69-.5-4.07,33.91-34.76,25.73-52.52,12.09-94.56-3.29-10.16-4.03-23.13-8.72-32.69-2.78-5.65-8.86-8.36-12.77-13.31-18.05-22.83-66.55-33.14-93.49-38.26-12.47-2.37-24.49-7.62-36.45-7.66,4.19-11.8,1.52-25.41,3.78-42.42,1.41-10.59,7.37-21.78,7.26-32.43-.07-6.29-3.93-9.78-5.33-15.93-6.44-28.39-46.66-58.77-68.77-75.01-16.81-12.34-32.04-26.33-50.23-32.77-4-1.41-8.03-2.71-12.08-3.9-9.54-2.79-19.45-1.02-29.24-2.72-25.08-4.36-51.32-5.27-77.37-5.52-12.12-22.27-42.78-44.68-59.32-57.17-15.07-11.38-27.99-24.56-44.38-30.62-3.6-1.33-7.23-2.55-10.89-3.68-8.6-2.64-19.49-1.65-28.34-3.31-37.6-7.06-73.98-8.39-113.26-8.81-66.33-.72-132.25,1.99-198.59,2.15-23.58.05-52.41-8-75.09-3.87-24.29,4.42-42.52,20.5-58.21,39.38-4.36,5.24-13.86,9.14-18.55,15.82-1.3,1.85-2.6,3.75-3.87,5.68-11.3,17.05-17.07,35.98-18.68,53.3-.06.68-4.38,2.2-4.43,2.89-8.95-4.97-17.52-4.01-25.68-4.75-6.28-.57-12.86-4.71-19.1-3.94-10.57,1.29-18.82,7.7-29.13,10.5-42.65,11.58-64.04,12.32-74.61,59.72-.08.37-4.46,3.19-4.54,3.55-15.17-6.59-30.29-13.35-45.17-20.71-3.14-1.55-6.38-3.14-9.64-4.16-5.18-2.3-12.09-1.2-19.02-2.23-16.54-2.46-26.99,3.28-37.3,11.12-10.31,7.84-16.03,15.84-22.61,26.38-21.34,34.17-42.98,68.16-53.31,107.77-2.14,8.18-7.29,16.98-4.97,26.04-25.14,6.67-50.23,19.45-62.67,35.19-3.91,4.95-9.25,11.87-12.03,17.52-4.7,9.56-6.53,17.36-9.82,27.52-8.67,26.75-13.23,43.36-7.73,62.73,4.54,8.78,6.9,15.32,10.93,22.61,2.71,3.46,3.94,6.86,7.54,10.55.65.66,1.19,4.3,1.83,4.97-32.07,9.27-49.63,19.33-49.63,29.84,0,.16,0,.31.01.47h0c-6.39,0-4.07,59.53-.85,109.56,2.16,33.67,4.73,63.03,5.32,67.04,10.3,70.37,31.18,139.51,64.04,202.23,24.06,45.94,54.54,88.42,91.98,125.41,74.58,73.7,168.75,115,269.07,138.51-4.89,6.4-7.46,13.03-7.46,19.83,0,22.04,27.04,42.33,72.39,58.42-10.94,46.59-33.93,103.52-77.4,170.98-143.19,222.19-90.21,248.25-90.21,248.25,0,0,5,3.57,16.19,9.11,11.52,5.71,29.61,13.53,55.53,21.71,20.19,6.38,45.14,12.99,75.46,19.01,65.54,13.02,156.16,23.29,278,22.57,3.43-.02,6.88-.05,10.36-.09,29.07.32,56.4,0,82.07-.81,14.51-.46,28.48-1.09,41.95-1.86,66.25-3.79,120.04-11.08,163.11-19.57,15.41-3.04,29.45-6.23,42.2-9.47,7.7-1.96,14.93-3.93,21.69-5.9,14.82-4.31,27.45-8.59,38.07-12.6,32.75-12.35,46.45-22.11,46.45-22.11,0,0,52.98-26.06-90.21-248.25-43.47-67.46-66.46-124.39-77.4-170.98,45.35-16.09,72.39-36.38,72.39-58.42,0-4.55-1.16-9.04-3.39-13.43,74.96-19.14,146.78-50.55,213.92-100.91,106.59-79.97,172.4-199.43,199.45-328.5,8.97-42.8,14.62-87.19,15.86-131.53.8-28.55-.23-57.09-3.38-85.17Z"/>
    <path class="cls-11" d="M1200.84,895.54c-128.77,75.88-268.91,132.14-415.5,164.16-146.02,31.89-300.48,34.14-443.35-9.74-95.43-29.31-183.28-78.17-269.43-128.99,24.06,45.94,54.54,88.42,91.98,125.41,74.58,73.7,168.75,115,269.07,138.51-4.89,6.4-7.46,13.03-7.46,19.83,0,22.04,27.04,42.33,72.39,58.42,11.7,4.15,24.61,8.02,38.59,11.58,16.93,4.3,35.43,8.13,55.22,11.42-23.59,63.11-59.19,120.87-85.57,182.77-34.71,81.43-69.43,162.87-104.14,244.3,20.19,6.37,45.14,12.98,75.46,19,65.54,13.02,156.16,23.29,278,22.57,3.43-.02,6.88-.05,10.36-.09,29.07.32,56.4,0,82.07-.81,14.51-.46,28.48-1.09,41.95-1.86,66.25-3.79,120.04-11.08,163.11-19.57-39.47-84.39-77.57-169.41-114.28-255.03-25.87-60.34-51.07-120.97-75.53-181.89,14.01-1.16,27.64-2.57,40.84-4.2,13.7-1.7,26.91-3.64,39.58-5.8,6.6-1.12,13.05-2.31,19.34-3.56,26.73-5.3,50.62-11.64,70.84-18.83,45.36-16.09,72.4-36.38,72.4-58.42,0-4.55-1.16-9.04-3.39-13.43,74.96-19.14,146.78-50.55,213.92-100.91,106.59-79.97,172.4-199.43,199.45-328.5,8.97-42.8,14.62-87.19,15.86-131.53-97.53,103.42-209.53,193.14-331.78,265.17Z"/>
    <path class="cls-11" d="M1474.23,572.94c34.75-9.52,54.1-19.91,54.63-30.79.01-.16.02-.31.02-.47,0-10.84-18.69-21.21-52.72-30.72-6.39,6.61-12.49,13.48-18.35,20.55,7.14,3.3,10.87,6.7,10.87,10.17,0,6.02-11.21,11.82-31.99,17.28-5.55,1.46-11.78,2.89-18.66,4.29-19.25,3.93-43.61,7.64-72.41,11.09-23.56,2.82-50.09,5.46-79.23,7.89-18.41,1.54-37.86,2.98-58.25,4.34-6.83.46-13.76.9-20.79,1.33-15.16.94-30.8,1.82-46.88,2.66-4.97.26-9.98.51-15.03.76-9.36.46-18.86.9-28.5,1.32-20.91.92-42.45,1.75-64.55,2.5-14.2.48-28.63.92-43.28,1.32-7.25.2-14.55.39-21.9.57-8.36.2-16.77.4-25.25.58-7.33.16-14.7.3-22.12.44-20.04.37-40.41.66-61.06.88-11.77.13-23.63.23-35.58.31-18.71.12-37.64.19-56.74.19-8.39,0-16.74-.01-25.06-.04-7.66-.02-15.28-.05-22.88-.09-20.79-.12-41.34-.3-61.6-.57-3.95-.05-7.89-.1-11.81-.16-8.49-.12-16.93-.25-25.31-.4-13.4-.23-26.66-.5-39.77-.8-9.43-.21-18.78-.44-28.05-.68-18.92-.5-37.5-1.06-55.69-1.69-22.03-.75-43.49-1.6-64.32-2.53-9.69-.43-19.24-.88-28.65-1.35-5.07-.25-10.1-.51-15.08-.77-16.03-.84-31.62-1.74-46.73-2.68-7.42-.46-14.72-.94-21.9-1.43-22.03-1.49-42.93-3.1-62.58-4.8-27.24-2.36-52.09-4.91-74.2-7.62-29.45-3.61-54.07-7.51-73.11-11.63-6.87-1.49-13.02-3.01-18.41-4.55-17.63-5.06-27.07-10.4-27.07-15.93,0-2.98,2.76-5.92,8.08-8.78-5.96-7.24-12.16-14.29-18.65-21.06-32.07,9.27-49.63,19.33-49.63,29.84,0,.16,0,.31.01.47,2.29,46.13,342.75,83.45,762.41,83.45,320.69,0,595.14-21.79,707.77-52.66Z"/>
    <path class="cls-4" d="M1490.43,409.66c-3.3-10.16-6.71-20.46-11.4-30.02-2.78-5.65-6-11.04-9.91-15.99-18.04-22.83-69.23-34.61-96.18-39.73-12.46-2.37-24.66-3.47-36.61-3.51,4.19-11.8,6.13-25.84,8.39-42.84,1.41-10.59,2.77-21.36,2.66-32-.07-6.29-.65-12.54-2.05-18.69-6.45-28.39-47.56-61.07-69.66-77.31-16.82-12.35-34.43-21.27-52.62-27.71-4-1.41-8.03-2.71-12.08-3.9-9.54-2.79-19.22-4.97-29.01-6.68-25.09-4.36-50.91-5.57-76.96-5.82-12.12-22.27-40.5-45.3-57.04-57.8-15.06-11.39-30.9-19.68-47.29-25.74-3.6-1.33-7.23-2.55-10.89-3.68-8.59-2.64-17.34-4.74-26.18-6.4-37.6-7.06-77.15-6.31-116.43-6.73-66.33-.72-132.67-1.44-199-1.29-23.58.05-51.81-6.62-74.49-2.49-24.29,4.42-46.43,21.32-62.12,40.2-4.36,5.24-9.12,11.37-13.81,18.05-1.3,1.85-2.6,3.75-3.87,5.68-11.3,17.05-21.34,36.82-22.95,54.13-.06.68-.12,1.37-.16,2.06-8.95-4.97-17.82-8.39-25.98-9.13-6.28-.57-12.55-.32-18.8.45-10.57,1.29-21.06,4.07-31.37,6.87-42.65,11.58-66.1,18.42-76.66,65.82-.08.36-.17.73-.25,1.09-15.18-6.59-30.29-13.35-45.18-20.71-3.14-1.55-6.38-3.14-9.64-4.16-5.18-2.3-11.18-4.02-18.11-5.05-16.54-2.46-31.04,2.39-41.35,10.23-10.31,7.84-17.03,18.49-23.6,29.02-21.35,34.17-42.62,68.8-52.96,108.41-2.13,8.18-3.53,17.4-1.21,26.46-25.14,6.67-53.32,17.16-65.77,32.89-3.91,4.95-7.13,10.34-9.91,15.98-4.69,9.56-8.11,19.86-11.4,30.02-8.67,26.75-14.7,45.94-9.2,65.32,4.54,8.78,8.91,16.86,12.94,24.15,2.71,3.46,5.84,7.02,9.44,10.71.65.67,1.29,1.34,1.93,2.01,6.5,6.77,12.69,13.82,18.65,21.06,6.59,8.02,12.89,16.29,19,24.71,5.39,1.54,11.53,3.07,18.41,4.55,19.04,4.12,43.66,8.02,73.11,11.63,22.12,2.71,46.96,5.26,74.2,7.62,19.65,1.7,40.55,3.31,62.58,4.8,7.18.49,14.48.96,21.9,1.43,15.11.95,30.7,1.84,46.73,2.68,4.98.26,10.02.52,15.08.77,9.41.47,18.96.92,28.65,1.35,20.82.93,42.29,1.77,64.32,2.53,18.19.62,36.77,1.19,55.69,1.69,9.27.24,18.62.47,28.05.68,13.1.3,26.37.56,39.77.8,8.38.15,16.82.28,25.31.4,3.93.06,7.86.11,11.81.16,20.26.26,40.81.45,61.6.57,7.6.04,15.22.07,22.88.09,8.32.03,16.67.04,25.06.04,19.1,0,38.02-.06,56.74-.19,11.95-.08,23.81-.18,35.58-.31,20.65-.22,41.02-.52,61.06-.88,7.43-.14,14.8-.28,22.12-.44,8.48-.18,16.89-.38,25.25-.58,7.35-.18,14.66-.37,21.9-.57,14.65-.4,29.08-.85,43.28-1.32,22.1-.74,43.63-1.58,64.55-2.5,9.64-.42,19.13-.86,28.5-1.32,5.05-.25,10.06-.5,15.03-.76,16.07-.84,31.71-1.72,46.88-2.66,7.03-.43,13.96-.88,20.79-1.33,20.39-1.36,39.84-2.8,58.25-4.34,29.13-2.43,55.66-5.07,79.23-7.89,28.8-3.45,53.16-7.16,72.41-11.09,6.88-1.4,13.11-2.83,18.66-4.29,6.75-9.38,13.75-18.57,21.12-27.45,5.86-7.07,11.96-13.94,18.35-20.55.36-.38.72-.75,1.09-1.12,33.91-34.76,26.81-58.13,13.18-100.18Z"/>
    <path class="cls-1" d="M245.03,174.88c-10.83-.26-21.05,5.09-28.77,12.41-7.72,7.31-13.31,16.49-18.81,25.56-17.82,29.44-35.65,59.23-46.66,91.87-2.24,6.65-4.11,14.04-3.55,20.95,3.14-.66,6.09-1.23,8.8-1.75,3.82-.73,7.62-1.33,11.39-1.83,16.45-2.15,32.41-2.15,48.03-.5.18.02.35.04.53.05,7.66-7.75,14.69-16.1,20.99-24.97,11.55-16.25,45.64-83.4,30.26-110.45-3.88-6.82-10.89-11.09-22.21-11.36Z"/>
    <path class="cls-1" d="M714.2,563.09c-4.61-27.61-32.97-129.74-64.27-145.38-7.89-3.94-15.96-2.39-23.89,7.24-7.59,9.22-10.45,23.93-10.09,38.57.36,14.63,3.59,29.42,6.82,44,6.74,30.48,13.6,61.12,22.34,91.04,3.93.06,7.86.11,11.81.16,20.26.26,40.81.45,61.6.57-.87-12.05-2.31-24.15-4.32-36.19Z"/>
    <path class="cls-9" d="M147.25,325.68c-.55-6.91,1.31-14.3,3.55-20.95,11-32.64,28.83-62.43,46.66-91.87,5.5-9.07,11.09-18.25,18.81-25.56,7.72-7.32,17.94-12.67,28.77-12.41,11.31.27,18.33,4.54,22.21,11.36,15.39,27.05-18.71,94.2-30.26,110.45-6.3,8.87-13.33,17.22-20.99,24.97,4.29.46,8.54,1.05,12.77,1.75,4.79.79,9.56,1.73,14.29,2.8,1.39-1.41,2.75-2.85,4.09-4.3,1.32-1.44,2.62-2.89,3.88-4.37,1.85-2.16,3.65-4.36,5.39-6.59,1.46-1.88,3.17-4.39,5.04-7.42,5.35,4.17,10.48,8.54,15.34,13.15,1.04-11.86,3.32-23.21,8.39-36.58-3.05-1.8-6.1-3.59-9.16-5.36,2.3-5.47,4.52-11.29,6.52-17.27.59-1.8,1.17-3.61,1.72-5.43.46-1.54.91-3.08,1.34-4.64,3.61,1.78,7.2,3.57,10.79,5.4,5.12-12.89,9.87-25.91,13.96-39.14-6.51-3.47-13.05-6.9-19.62-10.29-.46-4.91-1.38-9.62-2.83-14.04-1.06-3.22-2.41-6.28-4.07-9.16-4.48-7.75-11.27-14.14-21-18.47-5.18-2.3-11.18-4.02-18.11-5.05-16.54-2.46-31.04,2.39-41.35,10.23-10.31,7.84-17.03,18.49-23.6,29.02-21.35,34.17-42.62,68.8-52.96,108.41-2.13,8.18-3.53,17.4-1.21,26.46,7.67-2.04,15.05-3.71,21.62-5.08Z"/>
    <path class="cls-9" d="M636.25,313.38c2.61,4.06,5.16,8.15,7.65,12.25,7.97,13.09,15.59,26.44,23.41,39.66-5.96-13.2-9.82-27.76-14.02-42.2-.86-2.94-1.73-6.02-2.61-9.21-4.81-.06-9.62-.22-14.44-.5Z"/>
    <path class="cls-9" d="M452.77,236.46c16.86,70.66,41.85,139.74,59.97,209.96,5.43,2.66,10.86,5.32,16.29,7.98,14.79,7.26,29.56,14.55,44.3,21.89.43.21.87.43,1.3.64,3.07,1.49,6.27,2.91,9.55,4.28-10.41-64.73-25.85-129.44-37.09-194.25-7.52-4.29-14.8-9.05-21.68-14.29-4.5-3.42-8.82-7.04-12.94-10.87-13.93-12.96-20.41-30.44-25.69-48.79-1.52-5.27-2.94-10.62-4.41-15.95-2.44-8.84-5.07-19.07-7.25-29.67-.21-1.04-.42-2.07-.62-3.11-2.52.47-4.99,1.34-7.37,2.68-11.1,6.25-17.29,19.04-18.68,31.7-1.39,12.67,1.33,25.39,4.29,37.79Z"/>
    <path class="cls-9" d="M422.39,391.95c.76,3.91,1.52,7.83,2.29,11.76,13.64,6.58,27.29,13.17,40.92,19.77-9.43-28.14-20.64-56-22.85-85.71-.96-13.06,3.75-25.84,3.5-38.14-.31-15.63-10.56-27.84-16.05-41.96-4.61-11.86-5.61-25.09-2.82-37.5.99-4.39,2.45-8.77,2.22-13.26-.21-4.5-2.64-9.28-6.95-10.58-5.09-1.54-10.5,2.57-12.33,7.57-1.83,5-1.04,10.52-.22,15.78,4.63,29.95,6.2,50.61,3.89,80.36-2.39,30.79,2.58,61.77,8.4,91.91Z"/>
    <path class="cls-9" d="M361.16,173.88c4.61,1.85,9.73,1.94,14.69,1.68,2.53-.13,5.1-.36,7.7-.67,21.29-2.57,44.06-11.19,59.62-25.54,15.65-14.44,6.57-28.13-15.07-27.34-3.9.14-7.79.49-11.65,1.03-19.52,2.73-38.33,10.45-54.08,22.31-5.81,4.38-11.73,10.63-10.64,17.83.75,4.91,4.8,8.84,9.42,10.69Z"/>
    <path class="cls-9" d="M1093.56,216.84c42.48,6.97,84.98,14.19,127.66,18.53,12.67,1.29,25.65,2.3,38.02-.75,12.37-3.05,24.23-10.88,28.95-22.72,9.89-24.79-25.39-51.55-45.65-57.77-15.11-4.64-31.2-4.49-47.01-4.64-28.04-.28-56.18-1.64-84.38-3.37-.53,6.12-1.4,12.23-2.29,18.28-.24,1.63-.48,3.23-.71,4.8-1.67,11.23-3.31,20.96-5.91,29.45-2.09,6.81-4.81,12.83-8.68,18.19Z"/>
    <path class="cls-9" d="M1253.57,254.43c-4.48.38-8.63,2.4-12.84,3.96-11.93,4.41-25.18,5.17-37.55,2.17-14.72-3.57-28.18-12.12-43.71-10.35-12.23,1.38-24.27,7.75-37.34,8.52-28.41,1.67-56.23-5.03-84.09-10.53-6.74,2.9-13.41,6-20,9.27-9.99,4.95-19.81,10.26-29.53,15.75-2.13,1.21-4.26,2.42-6.39,3.65-11.19,6.44-20.78,10.3-30.46,12.9,38.23-9.36,79.62-5.99,119.46-3.68,30.65,1.77,62.01,2.6,92.21-3.86,29.19-6.24,49.87-7.41,80.17-6.79,5.32.11,10.9.16,15.61-2.32,4.71-2.47,8.07-8.38,5.87-13.22-1.86-4.1-6.92-5.86-11.41-5.48Z"/>
    <path class="cls-9" d="M864.79,301.94c.58.9,1.25,1.74,2,2.51,7.26,7.43,18.99,8.71,29.11,6.38,10.12-2.32,19.24-7.64,28.72-11.88,7.74-3.47,15.68-6.21,23.76-8.36-11.52,2.77-23.42,3.97-38.51,5.82-15.03,1.84-30.05,3.68-45.08,5.52Z"/>
    <path class="cls-9" d="M1291.78,303.54c.4,4.95,1.17,10.02,3.62,14.34,1.21,2.15,2.91,4.09,4.93,5.51.2-.03.4-.07.6-.1,4.14-.68,8.31-1.24,12.49-1.68,1.3-.14,2.61-.26,3.91-.38,2.45-2.38,4.5-5.4,6.16-8.34,9.68-17.17,14.84-36.85,14.96-56.55.02-3.9-.15-7.8-.52-11.68-2.09-21.54-16.86-28.73-29.09-11.31-12.16,17.33-17.69,41.04-17.42,62.48.04,2.61.16,5.19.36,7.72Z"/>
    <path class="cls-9" d="M583.16,85.92c34.42,8.8,70.61,3,106.1,1.3,103.61-4.96,205.29,25.55,308.34,37.44,11.46,1.32,23.19,2.4,34.43-.21,11.24-2.61,22.06-9.55,26.49-20.21,9.25-22.32-22.35-46.98-40.61-52.86-13.62-4.38-28.2-4.45-42.5-4.78-129.61-3.06-261.7-31.69-387.16.95-12.19,3.17-27.09,11.37-24.43,23.68,1.81,8.36,11.07,12.59,19.35,14.7Z"/>
    <path class="cls-9" d="M517.87,137.67c7.7,4.41,16.82,5.45,25.64,6.4,44.87,4.85,89.75,9.69,134.62,14.54-8.34,4.34-8.72,17.42-2.24,24.23,6.48,6.82,17.08,8.11,26.27,6.14s17.52-6.68,26.15-10.4c41.18-17.77,88.05-13.05,132.78-9.85,27.72,1.98,56.1,3.11,83.52-2.36,26.5-5.29,45.24-6.1,72.66-5.15,4.81.16,9.86.28,14.15-1.9,4.29-2.18,7.4-7.48,5.47-11.9-1.64-3.73-6.2-5.39-10.26-5.1-4.06.29-7.84,2.07-11.68,3.43-10.85,3.84-22.85,4.37-34.01,1.5-13.29-3.42-25.36-11.31-39.44-9.91-11.1,1.11-22.07,6.72-33.91,7.26-34.82,1.58-68.48-10.71-102.62-15.41-40.44-5.56-81.48-.48-122.26,1.35-40.78,1.84-83.17.06-119.81-17.95-10.03-4.93-19.84-11.12-30.95-12.36-11.1-1.24-24.1,4.61-26.15,15.59-1.63,8.73,4.35,17.45,12.05,21.86Z"/>
    <path class="cls-9" d="M1063.73,200.27c2.16,3.95,6.12,7.16,10.62,7.31,6.59.21,11.57-5.79,14.89-11.48,8.96-15.43,13.88-33.18,14.23-51.01.07-3.53-.04-7.06-.33-10.59-1.62-19.53-14.9-26.22-26.19-10.6-11.24,15.54-16.53,36.94-16.55,56.35,0,2.36.08,4.7.23,6.99.3,4.49.93,9.08,3.1,13.03Z"/>
    <path class="cls-9" d="M1360.8,424.8c12-4.3,24.14-8.98,33.99-17.07,9.84-8.08,17.17-20.26,16.32-32.98-1.77-26.63-45.13-35.57-66.09-32.45-15.63,2.33-30.09,9.4-44.42,16.07-94.69,44.08-197.36,75.34-288,125.42.34,4.57.55,9.16.64,13.74.08,4.04.07,8.09-.04,12.13-.21,7.83-.32,15.66-.76,23.38-.42,7.29-1.12,14.48-2.49,21.45,9.07-5.32,18.11-10.71,27.23-15.78,100.15-55.65,215.77-75.22,323.61-113.91Z"/>
    <path class="cls-9" d="M1410.87,428.08c-3.45-2.89-8.78-2.3-12.66-.03-3.88,2.27-6.75,5.89-9.89,9.11-8.86,9.12-20.48,15.52-32.93,18.14-14.83,3.13-30.65,1.21-43.91,9.5-10.44,6.52-18.56,17.46-30.02,23.79-33.7,18.61-73.05,22.93-109.15,34.99-42.76,14.29-80.9,39.41-120.38,61.2-6.43,3.55-12.95,7.02-19.54,10.34,22.1-.74,43.63-1.58,64.55-2.5,9.64-.42,19.13-.86,28.5-1.32,5.05-.25,10.06-.5,15.03-.76,30.54-25.21,69.59-40.1,106.77-55.29,28.42-11.61,57.07-24.39,81.54-43.23,23.64-18.21,41.8-28.19,69.41-40.68,4.85-2.2,9.91-4.55,13.09-8.82,3.18-4.26,3.67-11.04-.41-14.46Z"/>
    <path class="cls-9" d="M1475.62,393.18c-1.66-3.53-3.5-6.97-5.51-10.32-11.15-18.54-27.59-18.66-31.12,2.34-3.51,20.88,1.72,44.66,11.21,63.89,1.16,2.34,2.38,4.62,3.65,6.81,2.5,4.3,5.37,8.53,9.45,11.38,4.06,2.85,9.57,4.09,14.09,2.03,6.63-3.02,8.62-11.39,9.11-18.65,1.33-19.67-2.5-39.64-10.89-57.48Z"/>
    <path class="cls-9" d="M356.66,523.59c-36.1-12.06-75.45-16.38-109.15-34.99-11.46-6.33-19.57-17.27-30.02-23.79-13.26-8.29-29.08-6.38-43.91-9.5-12.44-2.62-24.07-9.02-32.93-18.14-3.13-3.22-6.01-6.84-9.89-9.11-3.88-2.27-9.21-2.86-12.66.03-4.07,3.42-3.59,10.2-.41,14.46,3.18,4.26,8.24,6.62,13.09,8.82,27.61,12.49,45.77,22.47,69.42,40.68,24.47,18.84,53.12,31.62,81.54,43.23,37.07,15.14,76,29.99,106.5,55.06,4.98.26,10.02.52,15.08.77,9.41.47,18.96.92,28.65,1.35,20.82.93,42.29,1.77,64.32,2.53-6.5-3.28-12.92-6.71-19.25-10.2-39.48-21.78-77.61-46.91-120.38-61.2Z"/>
    <path class="cls-9" d="M58.87,382.87c-2.02,3.34-3.85,6.79-5.51,10.32-8.38,17.83-12.21,37.81-10.89,57.47.49,7.27,2.48,15.64,9.11,18.65,4.52,2.06,10.03.82,14.1-2.03,4.07-2.85,6.94-7.08,9.45-11.38,1.27-2.19,2.49-4.47,3.65-6.81,9.49-19.22,14.72-43,11.21-63.88-3.53-21-19.96-20.88-31.12-2.34Z"/>
    <path class="cls-9" d="M945.35,422.01c-10.97,4.05-19.38,12.81-28.33,20.33-32.71,27.48-75.33,39.93-117.22,48.29-25.21,5.04-50.8,8.9-75.83,14.62-2.67-8.02-5.66-16.31-8.95-24.61-.86-2.15-1.73-4.29-2.62-6.44-.95-2.27-1.92-4.54-2.91-6.79,21.62-7.06,43.57-13.05,66-17.46,36.48-7.18,74.7-10.36,107.46-27.94,7.88-4.23,16.23-10.85,15.97-19.79-.38-13.17-17.58-17.77-30.76-17.93-64.5-.8-127.07,12.85-189.02,31.23-4.29-5.12-8.76-9.56-13.39-13.14-2.7-2.09-5.46-3.88-8.27-5.33-9.28-4.8-19.13-5.92-29.43-1.92,1.79-1.05,3.73-1.87,5.72-2.6-6.91-9.8-13.51-19.84-19.75-30.14-5.96-9.84-11.61-19.98-17.4-30.01,2.11,14.48,3.91,29.09,5.77,43.67.41,3.23.83,6.46,1.25,9.7,1.09,8.29,2.17,16.59,3.25,24.88-1.05,1.24-2.05,2.53-2.98,3.85-2.29,3.23-4.23,6.68-5.86,10.3-3.95,8.76-6.05,18.46-6.6,28.03-.93,16.18,2.09,32.25,5.41,48.12.27,1.27.53,2.54.8,3.8.32,1.5.63,3,.95,4.5,2.5,11.82,5.04,23.66,7.7,35.46-107.68-90.64-250.09-126.8-377.94-186.32-14.33-6.67-28.79-13.74-44.43-16.07-20.96-3.12-64.33,5.82-66.09,32.45-.84,12.71,6.48,24.89,16.33,32.98,9.85,8.09,21.99,12.77,33.98,17.07,107.84,38.68,223.47,58.26,323.62,113.91,34.3,19.06,67.29,42.53,105.68,50.66,6.45,1.37,13.88,1.95,19.78-.34.83,3.04,1.68,6.09,2.55,9.12,8.38.15,16.82.28,25.31.4-8.73-29.92-15.59-60.56-22.34-91.04-3.23-14.58-6.47-29.37-6.82-44-.36-14.63,2.5-29.35,10.09-38.57,7.93-9.62,16-11.18,23.89-7.24,31.3,15.64,59.66,117.77,64.27,145.38,2.01,12.04,3.46,24.14,4.32,36.19,7.6.04,15.22.07,22.88.09-.13-6.12-.43-12.24-.9-18.35-.18-2.45-.4-4.89-.64-7.34-.41-4.11-.88-8.2-1.44-12.29-.45-3.31-1.21-7.51-2.27-12.4,9.79-.29,19.59.25,29.38,1.88,9.71,1.62,19.34,4.31,29.18,4.01,9.83-.3,20.27-4.28,25.14-12.83,4.87-8.55,1.2-21.74-8.35-24.06,44.37-16.18,88.75-32.36,133.12-48.54,8.73-3.18,17.72-6.52,24.45-12.94,6.72-6.41,10.6-16.77,6.75-25.23-4.84-10.65-19.51-13.33-30.48-9.29Z"/>
    <path class="cls-3" d="M257.12,329.78c2,.56,3.99,1.14,5.98,1.74-3.62-5.04-7.67-9.68-12.06-13.98-1.27,1.48-2.56,2.93-3.88,4.37,2.21,2.2,4.34,4.49,6.35,6.88,1.21.32,2.41.65,3.62.99Z"/>
    <path class="cls-3" d="M396.02,315.03c-11.26,22.2-12.07,46.5-8.96,70.56,2.66,1.28,5.32,2.56,7.97,3.84-3.73-24.08-3.86-48.44,7.41-70.65,2.16-4.25-4.25-8.02-6.41-3.75Z"/>
    <path class="cls-3" d="M674.11,378.04c31.24-12.26,61.93-26.02,93.88-36.1-.7-.25-1.39-.51-2.09-.77-23.07-8.5-45.59-18.47-68.12-28.39,18.41-.6,36.96-.85,55.86,1.2,13.44,1.45,27.85-.19,42.13-2.43,19.23,5.16,38.45,10.32,57.68,15.47,2.34-.06,4.7-.09,7.06-.08,1.62-1.85,1.48-5.32-1.61-6.15-15.14-4.06-30.27-8.12-45.41-12.18,5.19-.86,10.3-1.65,15.27-2.26,12.01-1.47,24.01-2.95,36.02-4.41,15.03-1.84,30.05-3.68,45.08-5.52,15.09-1.85,27-3.05,38.51-5.82,1.1-.26,2.19-.54,3.28-.83,9.68-2.6,19.27-6.46,30.46-12.9,2.13-1.23,4.26-2.44,6.39-3.65,9.72-5.5,19.54-10.81,29.53-15.75,6.59-3.27,13.26-6.37,20-9.27,6.55-2.81,13.19-5.43,19.92-7.8,17.76-6.25,28.58-13.83,35.6-23.56,3.87-5.36,6.59-11.38,8.68-18.19,2.61-8.49,4.24-18.22,5.91-29.45.23-1.57.47-3.17.71-4.8.89-6.05,1.76-12.16,2.29-18.28.3-3.55.49-7.11.51-10.65-2.76,3.2-5.48,6.43-8.2,9.62-.35,17.84-5.26,35.59-14.23,51.01-3.32,5.7-8.3,11.7-14.89,11.48-4.5-.15-8.46-3.36-10.62-7.31-2.16-3.95-2.79-8.54-3.1-13.03-.15-2.29-.23-4.62-.23-6.99-6.81,2.52-14.39,4.03-23.05,4.18-19.09.32-37.93-7.72-56.86-5.23-33.2,4.37-56.84,39.47-90.27,41.4-21.3,1.23-40.9-11.53-62.07-14.21-31.79-4.02-61.4,14.76-92.15,23.77-49.73,14.57-103.52,3.25-151.89-15.32-36.97-14.2-72.31-32.57-108.96-47.44,2.17,10.6,4.81,20.83,7.25,29.67,1.47,5.33,2.89,10.68,4.41,15.95,5.28,18.35,11.75,35.83,25.69,48.79,4.12,3.83,8.45,7.45,12.94,10.87,6.88,5.23,14.16,9.99,21.68,14.29,7.46,4.25,15.15,8.05,22.93,11.39,4.7,18.77,10.25,37.32,14.65,56.17,5,21.35,9.16,42.89,12.52,64.55.29,1.91.57,3.81.85,5.71,1.63-3.62,3.58-7.07,5.86-10.3-5.46-34.05-12.99-67.67-22.13-100.98-1.06-3.88-2.13-7.77-3.17-11.67,6.64,2.51,13.25,4.52,19.84,6.13,16.52,25.9,28.13,55.28,43.88,81.73,2.28-.76,4.55-1.54,6.82-2.34-10.61-17.66-19.43-36.69-28.57-54.45-3.97-7.72-8.12-15.41-12.61-22.89,9.45,1.78,18.86,2.81,28.26,3.36,4.81.28,9.62.43,14.44.5.88,3.19,1.75,6.27,2.61,9.21,4.19,14.45,8.05,29,14.02,42.2,2,4.42,4.24,8.69,6.8,12.75Z"/>
    <path class="cls-3" d="M420.18,142.64c2.23-4.22-4.18-7.98-6.42-3.75-5.53,10.46-19.98,14.04-29.72,7.7-4.02-2.62-7.75,3.82-3.75,6.41,13.07,8.5,32.61,3.41,39.89-10.36Z"/>
    <path class="cls-3" d="M1317.33,321.23c6.27-.55,12.6-.83,18.99-.81,4.19-11.8,6.13-25.84,8.39-42.84,1.41-10.59,2.77-21.36,2.66-32-3.01,3.57-5.95,7.19-8.91,10.76-.12,19.71-5.28,39.38-14.96,56.55-1.66,2.95-3.71,5.97-6.16,8.34Z"/>
    <path class="cls-3" d="M1146.7,295.9c-32.41,22.31-73.77,17.54-110.78,13.95-36.02-3.5-76.11-5.42-106.98,16.8-3.85,2.77-.15,9.22,3.75,6.42,31.97-23.02,73.5-18.7,110.48-15.07,36.07,3.53,75.96,5.88,107.29-15.68,3.91-2.69.2-9.14-3.75-6.41Z"/>
    <path class="cls-3" d="M1110.88,123.33c10.44,1.18,20.89,2.44,31.37,3.71,20.46,2.48,41.27,3.87,61.67.11,6.53-1.2,12.91-2.99,19.1-5.3-4-1.41-8.03-2.71-12.08-3.9-19.94,5.35-40.83,4.65-61.18,2.51-13.54-1.42-27.03-3.34-40.53-5.07.32,1.05.58,2.09.8,3.12.34,1.6.62,3.2.84,4.82Z"/>
    <path class="cls-3" d="M1319.1,296.5c1.51-1.51,1.31-3.73,0-5.25-7.21-8.4-5.53-23.36,3.59-29.86,1.63-1.16,2.41-3.24,1.33-5.08-.94-1.61-3.44-2.51-5.08-1.33-13.15,9.38-15.63,29.25-5.09,41.53,1.3,1.52,3.91,1.34,5.25,0Z"/>
    <path class="cls-3" d="M929.35,178.56c-29.74,19.84-67.24,14.91-100.81,11.2-32.5-3.59-68.54-5.69-96.7,13.96-3.52,2.46-.16,8.3,3.4,5.81,29.36-20.48,67.01-15.96,100.56-12.22,32.54,3.62,68.39,6.11,96.96-12.94,3.58-2.39.21-8.22-3.4-5.81Z"/>
    <path class="cls-3" d="M729.66,101.67c25.22-1.01,50.95,1.77,73.17,14.58,3.76,2.16,7.15-3.64,3.39-5.81-40.49-23.35-88.35-15-132.3-9.58-25.18,3.11-51.11,5.32-76.07-.54-21.37-5.02-41.03-15.04-60.72-24.43-12.88-6.15-25.9-12.02-39.43-16.29-1.3,1.85-2.6,3.75-3.87,5.68,32.79,9.82,62.12,30.14,95.14,39.67,46.57,13.45,93.71-1.39,140.7-3.28Z"/>
    <path class="cls-3" d="M582.7,12.82c35.12,12.5,72.73,10.67,109.25,7.29,39.35-3.65,78.45-6.72,118-5.8,40.03.93,79.17,6.27,118.79,11.5,18.49,2.43,37.29,3.82,55.76.48,5.5-1,10.89-2.47,16.14-4.34-3.6-1.33-7.23-2.55-10.89-3.68-17.84,4.54-36.49,3.73-54.63,1.62-18.75-2.19-37.35-5.52-56.12-7.62-19.23-2.16-38.54-3.61-57.88-4.33-38.3-1.44-76.45.34-114.57,4.06-40.66,3.97-82.74,8.36-122.05-5.64-4.08-1.46-5.84,5.04-1.79,6.48Z"/>
    <path class="cls-3" d="M666.73,204.01c4.17,1.18,5.95-5.31,1.79-6.48-65.79-18.61-131.57-37.22-197.36-55.82.23,2.39.5,4.8.82,7.23,64.91,18.36,129.83,36.72,194.74,55.08Z"/>
    <path class="cls-3" d="M1085.48,181.18c1.38-1.38,1.17-3.36,0-4.76-6.43-7.7-4.63-21.21,3.69-26.98,1.49-1.03,2.18-2.94,1.21-4.6-.86-1.48-3.09-2.25-4.6-1.2-12.04,8.34-14.41,26.32-5.05,37.54,1.17,1.39,3.55,1.2,4.76,0Z"/>
    <path class="cls-3" d="M1490.43,409.66c-3.3-10.16-6.71-20.46-11.4-30.02-1.17,4.52-2.27,9.05-3.41,13.54,8.39,17.84,12.22,37.81,10.89,57.48-.49,7.27-2.48,15.64-9.11,18.65-4.52,2.06-10.03.82-14.09-2.03-4.07-2.85-6.95-7.08-9.45-11.38-1.28-2.19-2.5-4.47-3.65-6.81-5.51,5.84-12.28,11.04-20.78,15.43-18.75,9.66-41.33,10.93-58.85,22.67-30.73,20.57-36.95,66.91-69.11,85.19-10.68,6.08-22.79,8.16-35.08,9.85,29.13-2.43,55.66-5.07,79.23-7.89,28.8-3.45,53.16-7.16,72.41-11.09,6.88-1.4,13.11-2.83,18.66-4.29,6.75-9.38,13.75-18.57,21.12-27.45,5.86-7.07,11.96-13.94,18.35-20.55.36-.38.72-.75,1.09-1.12,33.91-34.76,26.81-58.13,13.18-100.18Z"/>
    <path class="cls-3" d="M1325.95,515.5c2.38-4.15-4.04-7.9-6.42-3.75-15.18,26.43-43.25,40.77-70.65,51.53-20.52,8.06-41.84,14.7-61.54,24.62,7.03-.43,13.96-.88,20.79-1.33,1.49-.62,2.98-1.22,4.46-1.82,27.37-10.88,56.21-18.94,80.91-35.53,13.14-8.84,24.51-19.92,32.44-33.72Z"/>
    <path class="cls-3" d="M1164.1,504.42c-50.23-3.24-93.07,27.23-132.89,53.61-9.21,6.1-18.56,12.16-28.2,17.68,3.33-6.75,5.5-13.86,6.94-21.22,1.36-6.97,2.07-14.15,2.49-21.45.44-7.71.55-15.55.76-23.38.11-4.04.12-8.09.04-12.13-.09-4.59-.3-9.17-.64-13.74-.12-1.8-.28-3.59-.45-5.39-33.14,24.12-64.16,51.35-97.82,74.82-27.9,19.45-58.68,36.54-91.12,45.99,11.95-.08,23.81-.18,35.58-.31,20.65-.22,41.02-.52,61.06-.88,7.43-.14,14.8-.28,22.12-.44,8.48-.18,16.89-.38,25.25-.58,7.35-.18,14.66-.37,21.9-.57,2.09-2.62,4.11-5.3,6.05-8.04,30.73-15.75,58.23-38.2,88.45-54.83,24.73-13.6,51.88-23.59,80.49-21.74,4.78.31,4.76-7.12,0-7.43Z"/>
    <path class="cls-3" d="M1241.33,353.81c-38.77,13.15-77.25,25.95-114.61,42.83-38.41,17.35-75.06,37.81-110.82,60.06-2.04,1.27-4.09,2.54-6.14,3.82.46,2.66.87,5.33,1.24,8,34.67-21.17,69.3-41.91,106.12-59.3,39.52-18.67,80.3-33.04,121.73-46.75,18.18-6.02,36.45-12.74,52.69-23.06,8-5.09,15.32-11.06,21.87-17.79-4.18.45-8.35,1.01-12.49,1.68-2.48,2.15-5.08,4.18-7.78,6.1-15.7,11.12-33.7,18.27-51.81,24.41Z"/>
    <path class="cls-3" d="M1470.1,439.74c1.83.8,3.98.54,5.08-1.33.92-1.58.52-4.27-1.33-5.09-5.44-2.4-9.36-6.95-11.2-12.4-1.88-5.59-1.76-11.52,1.06-16.59,2.32-4.19-4.1-7.94-6.41-3.75-7.51,13.54-1.56,32.83,12.8,39.16Z"/>
    <path class="cls-3" d="M158.41,487.18c-17.52-11.74-40.11-13-58.86-22.67-8.5-4.38-15.27-9.59-20.78-15.43-1.16,2.34-2.38,4.62-3.65,6.81-2.5,4.3-5.38,8.53-9.45,11.38-4.07,2.85-9.58,4.09-14.1,2.03-6.63-3.02-8.62-11.39-9.11-18.65-1.32-19.66,2.5-39.64,10.89-57.47-1.12-4.5-2.23-9.03-3.41-13.55-4.69,9.56-8.11,19.86-11.4,30.02-8.67,26.75-14.7,45.94-9.2,65.32,4.54,8.78,8.91,16.86,12.94,24.15,2.71,3.46,5.84,7.02,9.44,10.71.65.67,1.29,1.34,1.93,2.01,6.5,6.77,12.69,13.82,18.65,21.06,6.59,8.02,12.89,16.29,19,24.71,5.39,1.54,11.53,3.07,18.41,4.55,19.04,4.12,43.66,8.02,73.11,11.63,22.12,2.71,46.96,5.26,74.2,7.62-10.36-1.61-20.45-3.88-29.53-9.04-32.15-18.28-38.37-64.61-69.1-85.19Z"/>
    <path class="cls-3" d="M209.45,511.75c-2.38-4.14-8.8-.41-6.42,3.75,24.41,42.51,73.39,53.16,116.59,70.72,7.18.49,14.48.96,21.9,1.43-31.15-15.48-67.82-23.76-96.66-41.25-14.39-8.73-26.96-19.95-35.41-34.65Z"/>
    <path class="cls-3" d="M442.05,523.42c-23.9-12.24-50.05-20.76-77.18-19-4.75.31-4.79,7.74,0,7.43,51.02-3.29,93.72,29.44,134.13,55.87,16.84,11.02,34.25,21.54,52.99,28.95,9.27.24,18.62.47,28.05.68-2.62-.54-5.23-1.15-7.82-1.83-48.81-12.8-86.1-49.53-130.17-72.11Z"/>
    <path class="cls-3" d="M596.87,500.93c-25.16-8.87-48.71-22.59-71.38-36.54-35.57-21.9-71.14-43.23-108.93-61.15-37.46-17.75-76.1-32.35-115.54-45.05-25.97-8.36-51.74-17.84-72.25-34.79-4.23-.7-8.49-1.29-12.77-1.75-.18-.02-.35-.04-.53-.05,3.35,3.47,6.92,6.73,10.71,9.76,14.8,11.8,32.09,19.73,49.77,26.2,19.24,7.04,38.96,12.68,58.27,19.57,21.11,7.53,41.93,15.88,62.38,25.07,40,17.95,78.01,39.32,115.21,62.46,27.62,17.18,55.97,34.42,86.8,44.58-.32-1.5-.63-3-.95-4.5-.27-1.27-.53-2.53-.8-3.8Z"/>
    <path class="cls-3" d="M53.8,438.41c1.11,1.89,3.24,2.14,5.09,1.33,14.36-6.33,20.31-25.62,12.8-39.16-2.32-4.18-8.74-.44-6.42,3.75,2.82,5.07,2.94,11,1.05,16.59-1.84,5.46-5.75,10-11.2,12.4-1.83.81-2.26,3.49-1.33,5.09Z"/>
    <path class="cls-3" d="M761.39,578.99c-7.23-2.77-14.4-4.46-21.53-5.3.24,2.45.46,4.89.64,7.34,6.38.81,12.73,2.34,19.02,4.75,4.23,1.62,6.06-5.18,1.87-6.79Z"/>
    <path class="cls-3" d="M926.64,409.81c15.12-12.47,30.47-25.15,47.75-34.43,6.5,8.73,12.12,17.99,16.91,27.63,3.82,7.7,7.11,15.64,9.9,23.78,1.93,5.62,3.61,11.34,5.07,17.12,8.05-1.44,16.03-2.97,23.77-4.22,29.69-14.48,59.44-28.84,89.21-43.18,11.35-5.46,22.7-10.93,34.06-16.39,39.09-18.81,77.88-38.93,118.57-50.34,4.99-1.4,10.01-2.67,15.07-3.79,4.44-.98,8.89-1.85,13.38-2.59-2.02-1.42-3.71-3.36-4.93-5.51-2.45-4.32-3.21-9.39-3.62-14.34-.2-2.53-.32-5.11-.36-7.72-7.48,2.89-15.84,4.67-25.4,4.96-21.09.64-42.01-7.95-62.88-4.92-36.6,5.32-62.18,44.45-99.07,47.08-23.5,1.68-45.34-12.12-68.75-14.76-29.47-3.32-57.02,11.02-85.07,21.88,3.86,2.8,7.44,5.91,10.71,9.35,3.21,3.37,6.25,6.85,9.14,10.42-33.46,18.45-59.33,48.48-92.71,67.41-44.7,25.35-97.76,20.84-146.45,31.87-6.25,1.41-12.44,3.09-18.52,5.09.89,2.14,1.76,4.29,2.62,6.44,27.9-8.96,58.82-10.93,87.31-14.61,24.34-3.14,48.73-7.73,70.92-18.64,19.62-9.66,36.62-23.74,53.39-37.58Z"/>
    <path class="cls-3" d="M871.32,350.12c3.76-2.49.24-8.59-3.55-6.07-29.73,19.69-64.79,27.4-99.52,32.88-37.16,5.87-74.17,11.14-110.75,20.14,2.81,1.45,5.57,3.24,8.27,5.33,29.77-6.93,59.84-12.06,90.16-16.52,39.99-5.89,81.07-13.01,115.41-35.75Z"/>
    <path class="cls-3" d="M827.73,562.93c60.61-34.52,121.22-69.05,181.83-103.57-.44-2.44-.91-4.87-1.42-7.29-61.32,34.93-122.64,69.86-183.96,104.78-3.94,2.24-.39,8.33,3.55,6.08Z"/>
    <path class="cls-3" d="M330.73,358.47c10.62,4.98,21.21,10.13,31.8,15.28-.42-2.27-.71-4.57-.86-6.91-2.28-36.92,33.11-67.46,33.54-104.44.24-21.09-11.04-40.69-13.21-61.67-.98-9.51-.32-18.04,1.55-25.84-2.6.31-5.17.54-7.7.67-4.96.26-10.08.16-14.69-1.68-4.61-1.85-8.66-5.78-9.42-10.69-1.09-7.2,4.82-13.45,10.64-17.83,15.75-11.86,34.56-19.58,54.08-22.31,3.15-3.41,6.33-6.81,9.48-10.26-10.57,1.29-21.06,4.07-31.37,6.87-42.65,11.58-66.1,18.42-76.66,65.82-.08.36-.17.73-.25,1.09-.89,3.92-1.84,7.82-2.87,11.7-10.21-6.2-20.5-12.25-30.94-18.1,1.67,2.88,3.01,5.95,4.07,9.16,8.48,4.84,16.89,9.8,25.25,14.85-.9,3.18-1.83,6.34-2.8,9.49-4.09,13.22-8.84,26.25-13.96,39.14-.61,1.53-1.22,3.05-1.84,4.58-3.39-1.85-6.82-3.63-10.29-5.34-.55,1.83-1.13,3.64-1.72,5.43,3.32,1.65,6.61,3.38,9.86,5.18-1.49,3.61-3,7.21-4.54,10.8-.97,2.28-1.86,4.49-2.68,6.65-5.07,13.36-7.36,24.72-8.39,36.58-.54,6.1-.73,12.33-.81,19.03,9.87,3.41,19.64,7.26,29.36,11.39,8.5,3.61,16.95,7.43,25.37,11.38Z"/>
    <path class="cls-5" d="M780.25,1299.4c-4.57.05-9.16.07-13.78.07-49.79,0-97.09-2.98-139.71-8.33-34.58,149.91-113.21,290.55-148.65,441.07,65.54,13.02,156.16,23.29,278,22.57,8.05-151.8,16.1-303.59,24.14-455.39Z"/>
    <path class="cls-5" d="M838.88,1297.33c-11.2.68-22.6,1.2-34.18,1.55,2.52,22.69,6.23,44.36,6.96,58.78,3.66,71.96,7.97,143.91,14.56,215.54,5.56,60.57,12.65,120.97,22.31,180.7,14.51-.46,28.48-1.09,41.95-1.86-10.27-152.7-27.5-304.61-51.6-454.71Z"/>
    <path class="cls-2" d="M1155.55,1704.5c32.75-12.35,46.45-22.11,46.45-22.11,0,0,52.98-26.06-90.21-248.25-43.47-67.46-66.46-124.39-77.41-170.98-20.23,7.18-44.11,13.53-70.84,18.83,60.64,142.33,124.67,283.22,192.01,422.51Z"/>
    <path class="cls-2" d="M944.19,1285.54c-12.67,2.16-25.89,4.11-39.58,5.8,11.69,31.03,25.13,61.78,36.84,92.19,40.34,104.68,84.16,208.21,136.07,307.73,5.53,10.6,11.71,21.17,18.25,31.74,7.7-1.96,14.93-3.93,21.7-5.91-57.76-143.85-115.53-287.7-173.29-431.55Z"/>
    <path class="cls-2" d="M537.13,1274.74c-13.98-3.55-26.89-7.43-38.59-11.58-10.94,46.59-33.93,103.52-77.4,170.98-143.19,222.19-90.21,248.25-90.21,248.25,0,0,5,3.57,16.19,9.11,3.18-73.4,34.18-145.04,71.13-209.61,39.56-69.13,86.77-134.53,118.88-207.15Z"/>
    <path class="cls-7" d="M824.07,1261.37c59.8-.18,120.4-2.43,177.68-19.61,34.34-10.29,67.61-26.54,95.44-48.91-130.12,32-269.54,27.77-410.23,22.1-71.92-2.9-146.33-8.7-218.41-22.61,36.28,25.3,98.97,40.25,122.96,46.29,75.77,19.09,154.71,22.96,232.55,22.73Z"/>
    <path class="cls-2" d="M150.66,729.42c184.34,82.97,388.09,123.26,590.17,114.09,264.46-12,524.15-108.63,733.4-270.57-112.62,30.86-387.07,52.66-707.77,52.66-419.65,0-760.11-37.32-762.41-83.45h0c-6.39,0-4.07,59.53-.85,109.56,47.46,29.03,96.91,54.96,147.46,77.71Z"/>
    <path class="cls-7" d="M72.33,532.9c-5.32,2.86-8.08,5.8-8.08,8.78,0,5.53,9.44,10.87,27.07,15.93-6.1-8.43-12.41-16.69-19-24.71Z"/>
    <path class="cls-7" d="M1436.69,558.96c20.78-5.45,31.99-11.26,31.99-17.28,0-3.47-3.73-6.87-10.87-10.17-7.37,8.88-14.37,18.07-21.12,27.45Z"/>
    <path class="cls-6" d="M169.23,294.38c3.93-19.98,13.83-37.48,24.34-54.37,14.43-23.2,32.16-46.91,64.11-52.82,3.01-.56,6.24-.9,9.56-.95-3.88-6.82-10.89-11.09-22.21-11.36-10.83-.26-21.05,5.09-28.77,12.41-7.72,7.31-13.31,16.49-18.81,25.56-17.82,29.44-35.65,59.23-46.66,91.87-2.24,6.65-4.11,14.04-3.55,20.95,3.14-.66,6.09-1.23,8.8-1.75,3.82-.73,7.62-1.33,11.39-1.83-.97-9.89.23-19.74,1.79-27.72Z"/>
    <path class="cls-8" d="M611.82,405.58c.98-.89,1.97-1.72,2.95-2.51-5.04-8.5-8.86-17.67-12.36-27,.41,3.23.83,6.46,1.25,9.7,1.09,8.29,2.17,16.59,3.25,24.88,1.52-1.78,3.15-3.47,4.91-5.06Z"/>
    <path class="cls-8" d="M554.59,408.59c-9.79-29.23-19.85-58.56-25.72-88.89-3.1-16.02-3.43-31.48-3.43-47.02-4.5-3.42-8.82-7.04-12.94-10.87-13.93-12.96-20.41-30.44-25.69-48.79-16.52,10.59-16.17,35.35-12.33,53.01,6.76,31.1,22.1,59.57,32.69,89.59,11.31,32.05,17.08,65.31,21.87,98.78,14.79,7.26,29.56,14.55,44.3,21.89.43.21.87.43,1.3.64-5.22-23.1-12.54-45.89-20.05-68.34Z"/>
    <path class="cls-6" d="M347.97,287.67c10.95-31.08,26.88-65.82,11.71-95.08-6.17-11.9-15.62-21.33-13.84-35.68-19.38,16.66-29.09,56.37-35.01,80.47-7.19,29.27-9.81,59.68-7.46,89.74.52,6.65,1.27,13.31,1.99,19.97,8.5,3.61,16.95,7.43,25.37,11.38,3.87-24.06,9.15-47.82,17.25-70.8Z"/>
    <path class="cls-8" d="M1189.03,217.78c20.09,1.63,48.36-2.2,53.1-25.98,4.65-23.36-14.1-29.33-32.88-27.74-27.43,2.32-52.66,8.55-80.62,6.93-6.84-.4-13.66-1.01-20.47-1.79-1.67,11.23-3.31,20.96-5.91,29.45,28.93,6.64,57.23,16.73,86.79,19.13Z"/>
    <path class="cls-8" d="M1015.84,278.26c5.29-.06,11.1-3.06,12.15-8.26,1.17-5.79-4.18-11-9.95-12.53-9.99,4.95-19.81,10.26-29.53,15.75,3.95.18,7.89.73,11.85,1.73,5.13,1.3,10.19,3.36,15.49,3.3Z"/>
    <path class="cls-6" d="M1184.34,346.03c-43.1,21.98-90.7,33.37-137.77,44.58-18.32,4.36-36.75,8.73-55.27,12.41,3.82,7.7,7.11,15.64,9.9,23.78,9.06-.76,18.03-2.19,26.85-4.67,19.86-5.59,38.01-16.34,58.01-21.39,10.86-2.74,21.98-3.73,33.18-4.22,11.35-5.46,22.7-10.93,34.06-16.39,39.09-18.81,77.88-38.93,118.57-50.34,4.99-1.4,10.01-2.67,15.07-3.79-3.22-1.45-6.49-2.94-9.9-4.16-31.02-11.16-63.34,9.23-92.7,24.21Z"/>
    <path class="cls-8" d="M968.68,108.35c18.16,1.72,43.8-1.41,48.38-22.87,4.51-21.09-12.39-26.73-29.42-25.52-24.86,1.77-47.77,7.1-73.07,5.28-27.89-2.01-55.35-7.9-82.68-13.55-41.44-8.57-84-16.28-125.87-10.09-11.43,1.69-35.86,2.37-42.97,14.12-13.12,21.71,33.22,19.86,45.31,20.91,58.66,5.08,118.36-.95,176.25,11.99,28.12,6.28,55.37,17,84.05,19.73Z"/>
    <path class="cls-8" d="M717.44,153.76c-2.75,1.98-17.52,19.33-19.03,19.27,33.65,1.43,66.21-23.95,98.76-15.25,4.63,1.24,9.18,3.17,13.98,3.18,4.79,0,10.09-2.64,11.09-7.32,1.2-5.54-4.23-10.59-9.8-11.7-5.55-1.11-11.26.37-16.93.65-19,.95-33.6-7.22-53.77-.93-8.66,2.7-16.93,6.8-24.3,12.1Z"/>
    <path class="cls-8" d="M527.21,115.63c-8.32,16.79,22.83,23.32,32.62,24.67,11.48,1.58,22.96,3.16,34.43,4.75,18.76,2.59,37.87,5.17,56.54,1.96-17.13-13.15-39.94-18.64-61.18-14.71-10.69,1.98-22.25,6.09-31.91,1.11-8.07-4.16-22.12-34.68-30.5-17.78Z"/>
    <path class="cls-6" d="M962.85,224.38c-39.3,19.37-82.52,29.09-125.27,38.66-47.34,10.59-95.55,21.25-143.91,17.36-51.04-4.11-99.25-24.18-146.47-44,7.55,33.32,42.57,53.81,76.38,58.72,33.82,4.91,68.16-1.62,102.32-1.5,31.64.11,63.95,5.88,94.51-2.28,18.05-4.82,34.61-14.32,52.79-18.64,19.21-4.57,39.26-3.14,58.99-3.96,27.27-1.13,54.33-6.76,79.86-16.38,21.03-7.92,55.68-20.93,68.57-40.14-12.71,3.14-22.21-4.34-33.57-8.6-27.94-10.48-57.45,7.58-84.21,20.77Z"/>
    <path class="cls-8" d="M1050.93,518.86c60.57-23.7,116.72-58.89,180.37-74.43,30.91-7.55,63.14-10.27,92.88-21.62,18.82-7.18,42.68-22.84,36.71-46.34-5.88-23.08-25.37-20.39-41.62-10.86-23.75,13.92-43.83,30.42-69.77,41-28.6,11.67-58.67,19.28-88.48,27.07-45.23,11.81-91.15,25.02-129.56,51.64-4.54,3.14-11.58,7.29-18.21,12.21.08,4.04.07,8.09-.04,12.13-.21,7.83-.32,15.66-.76,23.38,13.48-2.12,31.32-11.38,38.48-14.18Z"/>
    <path class="cls-8" d="M1193.98,552.03c4.75-2.34,8.69-7.55,7.41-12.69-1.53-6.07-9.39-8.4-15.43-6.78-6.05,1.62-10.97,5.88-16.44,8.93-18.36,10.25-36.81,9.3-53.7,25.41-7.26,6.91-13.44,15.02-18.14,23.87-.2.37-.45,1.01-.74,1.85,9.64-.42,19.13-.86,28.5-1.32,16.13-15.44,31.78-31.29,53.14-35.58,5.2-1.05,10.64-1.36,15.4-3.7Z"/>
    <path class="cls-6" d="M1437.65,544.15c16.94-18.14,44.89-47.98,48.23-73.32-11.05,9.33-24.12,6.58-37.45,7.92-32.79,3.3-53.16,35.64-73.2,61.8-9.14,11.93-19.1,23.12-29.62,33.79,28.8-3.45,53.16-7.16,72.41-11.09,6.84-6.05,13.39-12.43,19.62-19.1Z"/>
    <path class="cls-8" d="M533.15,520.35c-1.28-15.12-25.14-27.76-35.62-35.03-38.42-26.62-84.34-39.83-129.56-51.64-29.82-7.79-59.89-15.4-88.49-27.07-25.94-10.59-46.01-27.08-69.76-41-16.26-9.54-35.75-12.22-41.62,10.86-5.98,23.5,17.89,39.16,36.71,46.34,29.73,11.35,61.96,14.07,92.88,21.62,63.65,15.54,119.8,50.74,180.37,74.43,12.48,4.89,57.46,29.41,55.1,1.49Z"/>
    <path class="cls-8" d="M413.17,566.91c-16.89-16.11-35.35-15.16-53.7-25.41-5.47-3.05-10.39-7.31-16.44-8.93-6.05-1.62-13.9.71-15.43,6.78-1.29,5.14,2.65,10.35,7.4,12.69,4.75,2.34,10.2,2.65,15.39,3.7,21.28,4.26,36.88,20,52.93,35.37,9.41.47,18.96.92,28.65,1.35-.27-.75-.5-1.33-.68-1.67-4.7-8.85-10.88-16.96-18.13-23.87Z"/>
    <path class="cls-6" d="M153.75,540.55c-20.04-26.16-40.41-58.5-73.21-61.8-13.33-1.34-26.4,1.41-37.44-7.92,3.35,25.34,31.29,55.18,48.23,73.32,5.86,6.28,12,12.29,18.4,18.02,19.04,4.12,43.66,8.02,73.11,11.63-10.33-10.51-20.11-21.52-29.09-33.25Z"/>
    <path class="cls-6" d="M970.15,576.87c-9.33,6.94-18.71,13.9-28.19,20.73,8.48-.18,16.89-.38,25.25-.58,2.03-6.43,3.07-13.18,2.94-20.15Z"/>
    <path class="cls-8" d="M940.97,461.41c10.26-3.64,26.64-15.69,15.74-28.23-11.06-12.71-24.89,4.44-31.8,12.13-7.25,8.08-16.53,14.02-25.69,19.86-7.22,4.61-14.43,9.21-21.65,13.81,21.51-4.36,42.72-10.23,63.4-17.57Z"/>
    <path class="cls-8" d="M735.14,437.09c30.84-6.39,63.98,1.86,93.74-8.42,5.05-1.74,10.82-5.58,9.85-10.83-.69-3.72-4.54-5.9-8.09-7.2-14.7-5.35-30.86-4.22-46.43-2.85-19.39,1.72-48.68-.56-65.95,9.24-23.05,13.07.65,23.42,16.88,20.06Z"/>
    <path class="cls-6" d="M956.39,568.31c2.33-4.02,3.61-10.14-.4-12.5-2.73-1.6-6.18-.25-9.04,1.11-29.39,14-58.78,27.99-88.17,41.99,20.65-.22,41.02-.52,61.06-.88,14.87-6.84,28.48-15.81,36.55-29.72Z"/>
    <path class="cls-6" d="M641,540.14c-7.99-37.62-14.12-78.67,3.14-113.03,1.62-3.23,3.57-6.43,5.79-9.4-7.89-3.94-15.96-2.39-23.89,7.24-7.59,9.22-10.45,23.93-10.09,38.57.36,14.63,3.59,29.42,6.82,44,6.74,30.48,13.6,61.12,22.34,91.04,3.93.06,7.86.11,11.81.16-7.05-18.91-11.72-38.78-15.93-58.57Z"/>
  </g>
</svg>