<?xml version="1.0" encoding="UTF-8"?>
<svg id="Layer_2" data-name="Layer 2" xmlns="http://www.w3.org/2000/svg" xmlns:xlink="http://www.w3.org/1999/xlink" viewBox="0 0 2803.8 2795.82">
  <defs>
    <style>
      .cls-1 {
        fill: url(#linear-gradient-2);
      }

      .cls-2 {
        fill: url(#linear-gradient-10);
      }

      .cls-3 {
        opacity: .3;
      }

      .cls-4, .cls-5 {
        fill: #fff;
      }

      .cls-6 {
        fill: url(#linear-gradient-4);
      }

      .cls-7 {
        fill: #1f3573;
      }

      .cls-8 {
        opacity: .8;
      }

      .cls-9 {
        fill: url(#linear-gradient-3);
      }

      .cls-10 {
        fill: #473702;
      }

      .cls-11 {
        fill: url(#linear-gradient-5);
      }

      .cls-12 {
        fill: url(#linear-gradient-8);
      }

      .cls-13 {
        fill: #edc918;
      }

      .cls-14 {
        fill: url(#linear-gradient-7);
      }

      .cls-15 {
        fill: url(#linear-gradient-9);
      }

      .cls-16 {
        fill: #fce160;
      }

      .cls-17 {
        fill: url(#linear-gradient-6);
      }

      .cls-5 {
        opacity: .81;
      }

      .cls-18 {
        fill: #d0daf5;
      }

      .cls-19 {
        fill: url(#linear-gradient);
      }
    </style>
    <linearGradient id="linear-gradient" x1="1452.44" y1="1061.15" x2="789.25" y2="2378.27" gradientUnits="userSpaceOnUse">
      <stop offset="0" stop-color="#e1473d"/>
      <stop offset="1" stop-color="#e9605a"/>
    </linearGradient>
    <linearGradient id="linear-gradient-2" x1="1727.22" y1="270.64" x2="1220.6" y2="1526.77" gradientUnits="userSpaceOnUse">
      <stop offset="0" stop-color="#ff928e"/>
      <stop offset="1" stop-color="#fe7062"/>
    </linearGradient>
    <linearGradient id="linear-gradient-3" x1="17668.45" y1="2182.98" x2="17216.88" y2="2440.73" gradientTransform="translate(19041.37) rotate(-180) scale(1 -1)" gradientUnits="userSpaceOnUse">
      <stop offset="0" stop-color="#febbba"/>
      <stop offset="1" stop-color="#ff928e"/>
    </linearGradient>
    <linearGradient id="linear-gradient-4" x1="17624.77" y1="2247.26" x2="19169.82" y2="1280.03" xlink:href="#linear-gradient-3"/>
    <linearGradient id="linear-gradient-5" x1="9413.77" y1="1859.35" x2="9042.37" y2="2266.36" gradientTransform="translate(11209.67) rotate(-180) scale(1 -1)" xlink:href="#linear-gradient-2"/>
    <linearGradient id="linear-gradient-6" x1="2865.24" y1="1222.45" x2="2354.72" y2="1644.49" xlink:href="#linear-gradient-2"/>
    <linearGradient id="linear-gradient-7" x1="-9387.28" y1="2034.41" x2="-8937.45" y2="2034.41" gradientTransform="translate(11551.11)" xlink:href="#linear-gradient-3"/>
    <linearGradient id="linear-gradient-8" x1="-11364.32" y1="935.68" x2="-11342.33" y2="774.81" gradientTransform="translate(13248.43 71.34) rotate(-4.11)" xlink:href="#linear-gradient-3"/>
    <linearGradient id="linear-gradient-9" x1="-10421.39" y1="-3925.76" x2="-10214.34" y2="-4294.23" gradientTransform="translate(10973.44 -4907.08) rotate(-56.92)" xlink:href="#linear-gradient-3"/>
    <linearGradient id="linear-gradient-10" x1="-10377.32" y1="-3901" x2="-10170.27" y2="-4269.47" gradientTransform="translate(10973.44 -4907.08) rotate(-56.92)" xlink:href="#linear-gradient-3"/>
  </defs>
  <g id="Illustration">
    <g>
      <path class="cls-18" d="M2642.54,1862.46c-264.97,623.9-970.8,973.42-1582.89,879.14-99.6-15.34-372.66-61.04-614.41-276.63C-20.15,2049.93-119.68,1228.11,255.74,648.95,528.98,227.42,1018.78-11.52,1484.19.43c100.25,2.57,484.45,18.44,822.09,296.86,49.59,40.89,158.98,138.07,257.56,292.23,231.48,362,251.38,866.34,78.7,1272.95Z"/>
      <g>
        <path class="cls-10" d="M192.93,2271.46c0,24.17,19.79,43.94,43.98,43.94h2378.19c24.19,0,43.98-19.77,43.98-43.94l19.79-1366.68c0-24.16-28.47-71.34-80.65-67.8l-2324.23-60.14c-30.35-.79-59.69,10.9-81.18,32.32-21.49,21.42-33.25,50.71-32.53,81.03l32.66,1381.27Z"/>
        <path class="cls-7" d="M236.35,2229.31c0,22.88,18.72,41.61,41.61,41.61h2279.8c22.88,0,41.61-18.72,41.61-41.61l18.67-1240.69c-2.2-74.66-67.66-101.5-107.34-99.91l-2227.57-59.76c-21.32-.57-41.94,7.64-57.04,22.71-15.1,15.06-23.41,35.68-22.87,57l33.13,1320.65Z"/>
        <g>
          <path class="cls-13" d="M2574.72,1639.9h-.06c-3.4-.05-6.09-2.82-6.04-6.19l1.48-100.62c.05-3.34,2.77-6.01,6.09-6.01h.09c3.37.05,6.06,2.82,6.01,6.19l-1.48,100.62c-.05,3.34-2.77,6.01-6.09,6.01Z"/>
          <path class="cls-13" d="M2578.34,1393.33h-.09c-3.37-.05-6.06-2.82-6.01-6.19l5.66-385.37c-.11-22.89-7.05-41.17-20.65-54.2-25.39-24.32-65.69-23.08-67.39-23l-711.98-19.09c-3.37-.09-6.02-2.89-5.93-6.26.09-3.37,2.67-6.23,6.26-5.93l711.56,19.09c4.43-.26,47.34-1,75.92,26.38,16.08,15.4,24.29,36.63,24.41,63.07l-5.66,385.49c-.05,3.34-2.77,6.01-6.09,6.01Z"/>
        </g>
        <rect class="cls-10" y="2308.77" width="2803.8" height="120.08" rx="5.65" ry="5.65" transform="translate(2803.8 4737.62) rotate(180)"/>
      </g>
      <g>
        <path class="cls-16" d="M2195.54,75.17l-1493.84-9.15c-49.09-.3-88.36,40.71-85.93,89.74l102.77,2122.39h1662.36l92.3-1896.24-277.67-306.74Z"/>
        <path class="cls-7" d="M2257.66,372.82c-48.66-1.71-86.07-43.65-82.24-92.19l16.01-202.66,282.07,302.7-215.85-7.85Z"/>
        <g>
          <g>
            <path class="cls-13" d="M1552.22,610.51c118.98,1.68,575.75,7.63,691.09,9.12,14.55.19,26.21,9.81,25.77,21.23h0c-.42,10.87-11.71,19.38-25.56,19.25l-690.75-6.49c-13.31-.12-24.49-8.2-25.8-18.63l-.33-2.64c-1.5-11.92,10.36-22.07,25.58-21.86Z"/>
            <path class="cls-13" d="M1539.85,737.27h0c1.92,2.74,5.54,4.48,9.48,4.56l474.08,10.19c5.96.13,10.86-3.51,11.04-8.18l.95-24.54c.19-4.88-4.82-8.97-11.02-9.03l-461.08-4.23c-20.54-.19-33.42,16.98-23.44,31.24Z"/>
          </g>
          <g>
            <path class="cls-13" d="M1542.86,832.45c118.98,1.68,575.75,7.63,691.09,9.13,14.55.19,26.21,9.81,25.77,21.23h0c-.42,10.87-11.71,19.38-25.56,19.25l-690.75-6.49c-13.31-.12-24.49-8.2-25.8-18.63l-.33-2.64c-1.5-11.92,10.36-22.07,25.58-21.86Z"/>
            <path class="cls-13" d="M1530.5,959.21h0c1.92,2.74,5.54,4.48,9.48,4.56l474.08,10.19c5.96.13,10.86-3.51,11.04-8.18l.95-24.54c.19-4.88-4.82-8.97-11.02-9.03l-461.08-4.23c-20.54-.19-33.42,16.98-23.44,31.24Z"/>
          </g>
          <g>
            <g class="cls-8">
              <path class="cls-4" d="M1339.15,594.72c-2.44-3-6.26-4.24-10.32-4.16l-369.38,7.75-9.33-29.64c-1.3-4.13-5.18-6.77-9.57-6.66l-50.72,1.33c-5.44.14-9.84,3.92-9.84,9.35s4.4,8.99,9.84,8.86l43.34-1.02,78.42,250.59c1.32,4.22,5.28,7.12,9.77,7.18l259.27,3.48c6.08.08,11.02-3.74,11.02-9.49s-4.94-9.69-11.02-9.76l-251.7-2.71-20.2-65.06,276.6.42c5.66,0,10.66-3.7,12.24-8.84l43.66-141.15c1.14-3.68.37-7.47-2.07-10.47Z"/>
              <path class="cls-4" d="M1059.29,853.76c-21.33-.33-38.59,16.27-38.59,37.01s17.26,38.06,38.59,38.62c21.46.56,39.02-16.03,39.02-37s-17.56-38.3-39.02-38.63ZM1059.29,909.23c-9.97-.23-18.06-8.32-18.06-18.02s8.09-17.45,18.06-17.27c10,.18,18.15,8.27,18.15,18.03s-8.16,17.5-18.15,17.27Z"/>
              <path class="cls-4" d="M1232.12,856.45c-22.39-.35-40.5,16.65-40.5,37.9s18.11,39,40.5,39.59c22.53.59,40.96-16.4,40.96-37.89s-18.43-39.25-40.96-39.6ZM1232.12,913.27c-10.46-.25-18.96-8.53-18.96-18.48s8.49-17.88,18.96-17.68c10.49.19,19.06,8.48,19.06,18.48s-8.56,17.93-19.06,17.68Z"/>
            </g>
            <path class="cls-5" d="M1127.61,1027.92c-178.05,0-322.9-144.85-322.9-322.9s144.85-322.9,322.9-322.9,322.9,144.85,322.9,322.9-144.85,322.9-322.9,322.9ZM1127.61,409.35c-163.03,0-295.67,132.64-295.67,295.67s132.64,295.67,295.67,295.67,295.67-132.64,295.67-295.67-132.64-295.67-295.67-295.67Z"/>
          </g>
        </g>
      </g>
      <g>
        <g>
          <g class="cls-3">
            <path class="cls-13" d="M534.94,287.16c-2.05,4.6-7.43,6.67-12.03,4.62-8.93-3.97-18.17-7.62-27.45-10.83-4.7-1.63-7.21-6.71-5.68-11.42.02-.06.04-.11.06-.17,1.65-4.75,6.84-7.27,11.59-5.63,9.77,3.38,19.5,7.22,28.9,11.41,4.3,1.91,6.39,6.75,4.96,11.13-.1.3-.21.6-.34.9ZM449.19,268.4c-9.63-1.92-19.44-3.44-29.15-4.53-5-.56-8.6-5.07-8.04-10.07.58-5.02,5.07-8.6,10.07-8.04,10.22,1.15,20.54,2.75,30.68,4.77,4.93.98,8.14,5.78,7.15,10.71-.07.36-.16.71-.27,1.05-1.41,4.33-5.86,7.02-10.44,6.11ZM372.17,261.85c-9.79.27-19.69.97-29.42,2.09-5,.57-9.51-3.02-10.09-8.02-.57-4.99,3.02-9.51,8.02-10.09,10.25-1.17,20.68-1.91,30.98-2.2,5.03-.14,9.22,3.82,9.36,8.85.03,1.07-.13,2.11-.44,3.07-1.16,3.56-4.46,6.18-8.41,6.29ZM295.62,272.7c-9.49,2.46-18.99,5.36-28.23,8.61-4.75,1.67-9.95-.82-11.62-5.56-1.67-4.75.82-9.94,5.56-11.62,9.73-3.43,19.73-6.48,29.72-9.07,4.87-1.26,9.84,1.67,11.1,6.54.45,1.74.37,3.5-.15,5.09-.93,2.86-3.25,5.2-6.38,6.01ZM223.39,300.33c-8.69,4.49-17.31,9.42-25.62,14.65-4.26,2.68-9.88,1.4-12.56-2.86-2.68-4.26-1.4-9.88,2.86-12.56,8.74-5.5,17.81-10.69,26.96-15.42,4.47-2.31,9.96-.56,12.27,3.91,1.16,2.25,1.3,4.76.57,7-.72,2.2-2.26,4.13-4.48,5.27ZM159.08,343.25c-7.49,6.31-14.8,13.03-21.74,19.95-3.56,3.56-9.33,3.55-12.88,0-3.56-3.56-3.56-9.32,0-12.88,7.29-7.29,14.99-14.36,22.88-21,3.85-3.24,9.59-2.75,12.84,1.1,2.11,2.5,2.63,5.8,1.69,8.69-.51,1.56-1.44,3.01-2.79,4.14ZM30.39,656.09c-5,.56-9.51-3.03-10.07-8.03-1.15-10.24-1.87-20.67-2.14-31-.13-5.03,3.84-9.21,8.87-9.34,5.03-.13,9.21,3.84,9.34,8.87.25,9.81.94,19.71,2.04,29.44.15,1.33,0,2.63-.39,3.83-1.07,3.29-3.98,5.83-7.65,6.24ZM105.91,399.33c-5.9,7.82-11.53,15.98-16.73,24.28-2.68,4.26-8.3,5.55-12.56,2.87-4.26-2.68-5.53-8.29-2.87-12.56,5.48-8.73,11.41-17.34,17.62-25.57,3.03-4.02,8.74-4.82,12.76-1.78,3.19,2.4,4.35,6.49,3.18,10.09-.3.94-.77,1.84-1.4,2.67ZM28.41,576.72c-5-.57-8.59-5.09-8.02-10.08,1.17-10.24,2.8-20.56,4.83-30.68.97-4.94,5.8-8.12,10.73-7.14,4.93.99,8.13,5.79,7.14,10.73-1.93,9.62-3.48,19.43-4.59,29.16-.07.62-.21,1.22-.39,1.79-1.31,4.03-5.32,6.73-9.69,6.23ZM66.62,465.87c-4,8.93-7.66,18.16-10.89,27.42-1.65,4.75-6.85,7.26-11.6,5.61-4.69-1.63-7.19-6.71-5.67-11.41.02-.06.04-.12.06-.18,3.39-9.75,7.25-19.46,11.46-28.86,2.06-4.59,7.44-6.65,12.04-4.59,4.29,1.92,6.37,6.75,4.95,11.12-.1.31-.22.61-.35.91Z"/>
            <path class="cls-13" d="M50.92,712.51c.55-1.71.61-3.59.06-5.44-1.36-4.5-2.64-9.09-3.83-13.67-1.26-4.87-6.23-7.8-11.1-6.54-4.87,1.26-7.81,6.23-6.54,11.1,1.24,4.81,2.6,9.65,4.02,14.38,1.45,4.81,6.54,7.54,11.35,6.09,2.97-.9,5.14-3.17,6.03-5.91Z"/>
          </g>
          <g class="cls-3">
            <path class="cls-13" d="M228.67,925.9c1.36-4.18-.48-8.85-4.51-10.92-4.18-2.14-8.39-4.4-12.5-6.73-4.38-2.48-9.94-.93-12.41,3.45-2.49,4.4-.93,9.94,3.45,12.41,4.33,2.45,8.76,4.83,13.16,7.08,4.48,2.29,9.97.52,12.26-3.96.23-.44.41-.89.56-1.35Z"/>
            <path class="cls-13" d="M721.92,737.18c-1.79,4.7-7.05,7.07-11.75,5.28-4.7-1.79-7.06-7.04-5.27-11.75,3.4-8.95,6.48-18.19,9.18-27.56,1.37-4.82,6.44-7.62,11.28-6.23,4.83,1.39,7.62,6.44,6.23,11.28-1.17,4.06-2.4,8.08-3.7,12.07-1.85,5.69-3.85,11.38-5.96,16.92ZM731.74,667.36c-4.98-.73-8.42-5.35-7.69-10.33,1.39-9.56,2.4-19.28,2.99-28.89.29-5.02,4.63-8.84,9.65-8.54,5.02.31,8.84,4.63,8.53,9.65-.62,10.12-1.68,20.35-3.15,30.41-.08.52-.2,1.03-.35,1.51-1.35,4.14-5.52,6.84-9.98,6.19ZM701.15,782.26c-4.86,8.89-10.17,17.7-15.79,26.17-2.78,4.19-8.43,5.34-12.63,2.56-4.19-2.78-5.34-8.43-2.56-12.63,5.33-8.05,10.37-16.41,14.99-24.85,2.42-4.41,7.95-6.04,12.37-3.62,3.9,2.14,5.62,6.71,4.29,10.8-.17.53-.4,1.06-.67,1.56ZM736.45,589.38c-5.02.38-9.4-3.37-9.78-8.39-.74-9.62-1.89-19.31-3.44-28.83-.81-4.97,2.56-9.64,7.53-10.45,4.97-.81,9.64,2.56,10.45,7.53,1.63,10.02,2.84,20.23,3.62,30.36.09,1.22-.06,2.41-.41,3.51-1.11,3.41-4.18,5.98-7.97,6.27ZM655.19,847.8c-6.7,7.6-13.81,15.02-21.15,22.05-3.63,3.48-9.39,3.36-12.88-.27-3.48-3.63-3.36-9.4.27-12.88,6.97-6.68,13.73-13.73,20.09-20.95,3.33-3.78,9.08-4.14,12.86-.81,2.81,2.48,3.73,6.31,2.64,9.66-.37,1.15-.98,2.24-1.83,3.2ZM595.97,901.68c-8.21,5.97-16.78,11.66-25.45,16.91-4.3,2.61-9.9,1.23-12.51-3.07-2.61-4.31-1.23-9.91,3.07-12.51,8.24-4.99,16.38-10.4,24.18-16.07,4.07-2.96,9.77-2.05,12.72,2.02,1.78,2.45,2.16,5.5,1.29,8.18-.57,1.77-1.69,3.37-3.31,4.55ZM526.42,941.37c-9.32,4.04-18.92,7.73-28.53,10.97-4.77,1.61-9.93-.95-11.54-5.72-1.61-4.77.96-9.94,5.72-11.54,9.13-3.08,18.24-6.58,27.11-10.42,4.62-2,9.98.12,11.98,4.74.92,2.12.97,4.4.31,6.43-.78,2.4-2.55,4.46-5.04,5.55ZM449.87,964.95c-9.98,1.9-20.16,3.4-30.25,4.45-5,.52-9.48-3.11-10-8.12-.52-5,3.12-9.48,8.12-10,9.58-1,19.24-2.42,28.73-4.23,4.94-.94,9.71,2.3,10.65,7.24.3,1.56.18,3.1-.28,4.51-.99,3.06-3.58,5.49-6.96,6.14ZM369.96,971.13c-10.13-.34-20.38-1.12-30.46-2.32-5-.59-8.57-5.13-7.97-10.12.59-4.98,5.12-8.56,10.12-7.97,9.58,1.14,19.32,1.88,28.94,2.21,5.03.17,8.96,4.39,8.79,9.41-.03.88-.18,1.72-.44,2.51-1.22,3.76-4.82,6.42-8.98,6.28ZM290.73,959.63c-7.23-1.87-14.49-3.99-21.58-6.29-2.57-.84-5.12-1.7-7.65-2.58-4.75-1.66-7.37-6.83-5.59-11.6,1.66-4.75,6.85-7.26,11.6-5.6,2.41.84,4.84,1.66,7.28,2.46,6.74,2.19,13.64,4.2,20.52,5.99,4.87,1.26,7.8,6.23,6.53,11.1-.05.18-.1.36-.16.54-1.48,4.54-6.26,7.21-10.94,5.99Z"/>
            <path class="cls-13" d="M729.81,506.16c.56-1.72.61-3.63.04-5.49-1.45-4.71-3.03-9.49-4.69-14.18-1.68-4.74-6.88-7.23-11.62-5.56-4.74,1.68-7.23,6.87-5.56,11.62,1.58,4.46,3.07,9,4.45,13.47,1.48,4.81,6.57,7.51,11.38,6.03,2.95-.91,5.1-3.17,5.99-5.9Z"/>
          </g>
          <g>
            <path class="cls-13" d="M591.88,432.92c-.98-1.53-2.83-2.26-4.59-1.83l-50.33,12.32c-17.39-16.82-37.6-30.99-60.09-41.68l-6.13-51.42c-.22-1.8-1.55-3.27-3.33-3.66l-60.74-13.16c-1.78-.39-3.6.4-4.54,1.95l-26.87,44.27c-24.9.42-49.16,4.95-71.95,13.07l-40.72-32.04c-1.43-1.12-3.41-1.22-4.94-.23l-52.26,33.65c-1.53.98-2.26,2.83-1.83,4.59l12.32,50.33c-16.82,17.39-31,37.6-41.68,60.09l-51.42,6.13c-1.8.22-3.27,1.55-3.66,3.33l-13.16,60.75c-.38,1.78.4,3.6,1.95,4.54l44.27,26.87c.42,24.9,4.95,49.16,13.07,71.95l-32.05,40.72c-1.12,1.43-1.22,3.41-.23,4.94l33.65,52.26c.98,1.53,2.83,2.26,4.59,1.83l50.33-12.32c17.39,16.82,37.6,30.99,60.09,41.68l6.13,51.42c.21,1.8,1.55,3.27,3.33,3.66l60.75,13.16c1.78.38,3.6-.4,4.54-1.95l26.87-44.27c24.9-.42,49.16-4.95,71.95-13.07l40.72,32.04c1.43,1.12,3.41,1.22,4.94.23l52.26-33.65c1.53-.98,2.26-2.83,1.83-4.59l-12.32-50.33c16.82-17.39,30.99-37.6,41.68-60.09l51.42-6.13c1.8-.22,3.27-1.55,3.66-3.33l13.16-60.75c.38-1.78-.4-3.6-1.95-4.54l-44.27-26.87c-.42-24.9-4.95-49.16-13.07-71.95l32.05-40.72c1.12-1.43,1.22-3.41.23-4.94l-33.65-52.26Z"/>
            <path class="cls-18" d="M435.21,634.56c-15.32,30.86-52.88,43.51-83.74,28.19-14.95-7.42-26.12-20.21-31.44-36.03-5.32-15.81-4.17-32.76,3.25-47.71,15.32-30.86,52.88-43.51,83.74-28.19,28.07,13.93,41.07,46.28,31.66,75.24-.93,2.87-2.09,5.71-3.47,8.49ZM333.84,622.07c4.08,12.13,12.64,21.94,24.11,27.63,23.66,11.74,52.46,2.04,64.2-21.62,11.75-23.66,2.04-52.46-21.62-64.2-23.66-11.74-52.46-2.04-64.2,21.62-1.06,2.15-1.96,4.34-2.69,6.58-3.16,9.71-3.12,20.14.2,30Z"/>
            <path class="cls-18" d="M524.1,655.18c1.62-4.97,2.99-10.06,4.12-15.24h0c.35-1.63.68-3.27.98-4.91,1.48-8.1,2.32-16.3,2.5-24.48,0-.11,0-.22,0-.33,0-.32.01-.63.01-.95,0-.62.01-1.23.01-1.85,0-1.62-1.05-2.99-2.51-3.47-.36-.12-.74-.18-1.13-.18-2.01,0-3.64,1.63-3.65,3.64-.01,10.36-1.14,20.78-3.35,30.98-10.97,50.68-47.13,89.54-92.5,106.31-25.23,9.33-53.32,11.83-81.5,5.72-4.94-1.07-9.8-2.38-14.54-3.93-31.93-10.38-59.09-31.26-77.51-59.87-21.16-32.86-28.26-72-19.98-110.2,17.1-78.89,95.15-129.12,174-112.03,4.86,1.05,9.65,2.35,14.35,3.88,20.37,6.63,39.06,17.63,54.69,32.3.4.38.87.65,1.37.81,1.3.42,2.79.09,3.78-.97,1.37-1.47,1.31-3.77-.17-5.15-16.41-15.4-36.04-26.96-57.42-33.91-4.93-1.61-9.96-2.97-15.06-4.07-82.79-17.94-164.74,34.85-182.67,117.61-8.69,40.1-1.24,81.19,20.97,115.69,19.34,30.04,47.85,51.95,81.37,62.86,4.98,1.62,10.07,3,15.26,4.12,40.11,8.69,81.19,1.24,115.7-20.97,30.04-19.34,51.96-47.87,62.86-81.4Z"/>
          </g>
        </g>
        <g>
          <g class="cls-3">
            <path class="cls-13" d="M859.69,64.86c.75-2.31-.06-4.94-2.18-6.38-3.94-2.7-8.02-5.31-12.12-7.77-2.66-1.6-6.12-.73-7.72,1.93-1.61,2.66-.73,6.12,1.93,7.72,3.91,2.34,7.79,4.83,11.56,7.41,2.56,1.75,6.06,1.1,7.82-1.47.31-.46.54-.94.7-1.44Z"/>
            <path class="cls-13" d="M821.67,44.35c-1.26,2.84-4.58,4.13-7.42,2.87-7.17-3.17-14.59-6-22.05-8.43-1.57-.51-3.16-1.01-4.75-1.49-2.97-.9-4.66-4.04-3.76-7.01.96-2.78,4.04-4.66,7.02-3.76,1.67.5,3.32,1.02,4.97,1.56,7.82,2.54,15.6,5.52,23.12,8.84,2.66,1.17,3.96,4.17,3.08,6.88-.06.18-.13.36-.2.54ZM759.64,30.72c-9.37-1.62-18.92-2.68-28.39-3.14-3.11-.15-5.5-2.79-5.35-5.89.15-3.09,2.79-5.5,5.89-5.35,9.93.48,19.94,1.59,29.77,3.29,3.06.53,5.11,3.44,4.59,6.51-.05.27-.12.53-.2.78-.85,2.62-3.52,4.28-6.31,3.8ZM702.67,27.99c-9.47.72-18.99,2.05-28.3,3.94-3.04.62-6.01-1.35-6.63-4.39-.62-3.06,1.34-6.02,4.39-6.63,9.77-1.98,19.76-3.37,29.68-4.13,3.1-.24,5.8,2.08,6.04,5.18.05.75-.04,1.49-.26,2.17-.68,2.1-2.58,3.69-4.92,3.87ZM646.78,39.33c-9.01,3.03-17.93,6.64-26.47,10.74-2.81,1.34-6.17.16-7.51-2.64-1.34-2.8-.16-6.16,2.64-7.51,8.97-4.3,18.3-8.09,27.76-11.26,2.94-.99,6.14.6,7.13,3.55.39,1.19.38,2.42.02,3.52-.53,1.64-1.8,3.01-3.56,3.6ZM595.34,63.97c-8,5.12-15.76,10.79-23.07,16.85-2.39,1.98-5.94,1.65-7.92-.74-1.98-2.39-1.66-5.94.74-7.92,7.66-6.35,15.79-12.28,24.18-17.66,2.62-1.67,6.1-.91,7.77,1.7.95,1.48,1.12,3.23.61,4.78-.39,1.19-1.18,2.27-2.31,3ZM551.45,100.36c-6.51,6.91-12.65,14.29-18.24,21.94-1.83,2.51-5.35,3.05-7.86,1.22-2.51-1.83-3.05-5.34-1.22-7.86,5.87-8.02,12.31-15.77,19.14-23.02,2.13-2.26,5.69-2.37,7.95-.24,1.64,1.54,2.15,3.83,1.49,5.84-.25.77-.66,1.49-1.26,2.12ZM517.8,146.35c-4.6,8.27-8.74,16.94-12.31,25.78-1.17,2.88-4.44,4.27-7.32,3.11-2.88-1.16-4.23-4.42-3.11-7.33,3.74-9.26,8.09-18.35,12.91-27.02,1.51-2.71,4.94-3.69,7.65-2.18,2.39,1.33,3.43,4.14,2.62,6.65-.11.34-.25.67-.43,1ZM484.42,232.03c-3.08-.43-5.22-3.27-4.79-6.35,1.19-8.52,2.86-17.12,4.97-25.54.31-1.28.65-2.55.98-3.82.71-3.01,3.89-4.78,6.9-3.97,3,.81,4.78,3.89,3.97,6.89-.32,1.19-.63,2.39-.93,3.61-2.02,8.06-3.62,16.26-4.75,24.39-.05.33-.12.66-.22.97-.83,2.55-3.38,4.21-6.13,3.83Z"/>
          </g>
          <g class="cls-3">
            <path class="cls-13" d="M950.35,337.46c-3.15,9.29-6.9,18.46-11.13,27.27-1.35,2.8-4.71,3.98-7.51,2.63-2.8-1.35-3.94-4.72-2.63-7.51,4.04-8.4,7.61-17.15,10.62-26.01,1-2.94,4.2-4.52,7.14-3.52,2.92.99,4.49,4.14,3.54,7.07l-.02.07ZM951.47,313.38c-3.04-.64-4.99-3.62-4.35-6.66,1.92-9.15,3.31-18.5,4.12-27.81.28-3.08,3-5.39,6.1-5.11,3.1.27,5.38,3,5.11,6.09-.85,9.75-2.31,19.56-4.33,29.14-.04.2-.09.4-.16.59-.88,2.7-3.66,4.36-6.51,3.76ZM924.84,390.46c-5.31,8.25-11.16,16.25-17.4,23.77-1.98,2.39-5.54,2.72-7.92.74-2.39-1.98-2.72-5.52-.74-7.92,5.96-7.17,11.54-14.8,16.6-22.67,1.68-2.61,5.16-3.37,7.77-1.69,2.2,1.41,3.08,4.1,2.31,6.47-.15.45-.35.89-.62,1.31ZM957.8,256.25c-3.1.11-5.71-2.32-5.82-5.42-.33-9.34-1.24-18.75-2.71-27.97-.48-3.07,1.61-5.95,4.67-6.44,3.07-.49,5.95,1.6,6.44,4.67,1.54,9.67,2.5,19.55,2.84,29.34.02.68-.07,1.33-.27,1.94-.71,2.18-2.72,3.8-5.15,3.88ZM887.29,435.7c-7.12,6.72-14.72,13.07-22.61,18.89-2.5,1.84-6.02,1.31-7.87-1.19-1.85-2.5-1.32-6.02,1.19-7.87,7.52-5.54,14.77-11.6,21.56-18.01,2.26-2.13,5.82-2.03,7.95.23,1.46,1.55,1.87,3.71,1.26,5.61-.28.86-.78,1.68-1.49,2.35ZM839.97,470.62c-8.54,4.83-17.45,9.18-26.47,12.94-2.87,1.19-6.16-.16-7.35-3.03-1.19-2.86.16-6.16,3.03-7.36,8.61-3.58,17.1-7.74,25.25-12.34,2.7-1.53,6.14-.58,7.67,2.13.81,1.43.92,3.06.45,4.51-.42,1.29-1.31,2.44-2.58,3.16ZM785.65,493.2c-9.45,2.65-19.15,4.73-28.81,6.21-3.08.47-5.94-1.64-6.41-4.72-.47-3.07,1.65-5.94,4.71-6.41,9.22-1.4,18.46-3.39,27.47-5.92,2.99-.84,6.1.91,6.94,3.9.31,1.11.27,2.23-.06,3.25-.56,1.73-1.95,3.16-3.83,3.69Z"/>
            <path class="cls-13" d="M953.86,195.34c.34-1.03.38-2.17.05-3.29-1.33-4.63-2.81-9.24-4.39-13.7-1.04-2.93-4.25-4.47-7.18-3.43-2.92,1.04-4.46,4.25-3.43,7.18,1.51,4.26,2.91,8.65,4.19,13.07.86,2.99,3.98,4.71,6.96,3.85,1.86-.54,3.24-1.96,3.79-3.67Z"/>
          </g>
          <g>
            <path class="cls-13" d="M860.78,142.35c-.66-1.02-1.89-1.51-3.07-1.23l-33.68,8.24c-11.64-11.26-25.16-20.74-40.21-27.89l-4.1-34.41c-.14-1.21-1.04-2.19-2.23-2.45l-40.65-8.81c-1.19-.26-2.41.27-3.04,1.31l-17.98,29.62c-16.66.28-32.89,3.31-48.15,8.74l-27.25-21.44c-.96-.75-2.28-.81-3.3-.16l-34.97,22.51c-1.02.66-1.51,1.89-1.23,3.07l8.24,33.68c-11.26,11.64-20.74,25.16-27.89,40.21l-34.41,4.1c-1.21.14-2.19,1.04-2.45,2.23l-8.81,40.65c-.26,1.19.27,2.41,1.31,3.04l29.62,17.98c.28,16.66,3.31,32.89,8.74,48.15l-21.44,27.25c-.75.95-.81,2.28-.16,3.3l22.52,34.97c.66,1.02,1.89,1.51,3.07,1.22l33.68-8.24c11.64,11.26,25.16,20.74,40.21,27.89l4.1,34.41c.14,1.21,1.04,2.19,2.23,2.45l40.65,8.81c1.19.26,2.41-.27,3.04-1.31l17.98-29.62c16.66-.28,32.89-3.31,48.15-8.74l27.25,21.44c.95.75,2.28.81,3.3.16l34.97-22.51c1.02-.66,1.51-1.89,1.23-3.07l-8.24-33.68c11.26-11.64,20.74-25.16,27.89-40.21l34.41-4.1c1.21-.14,2.19-1.04,2.45-2.23l8.81-40.65c.26-1.19-.27-2.41-1.31-3.04l-29.62-17.98c-.28-16.66-3.32-32.89-8.74-48.15l21.44-27.25c.75-.95.81-2.28.16-3.3l-22.51-34.97Z"/>
            <path class="cls-18" d="M756.62,277.6c-5.05,10.19-13.77,17.79-24.54,21.42-10.77,3.63-22.31,2.84-32.5-2.21-21.02-10.43-29.61-35.98-19.2-57.04,10.44-21.02,36.02-29.63,57.04-19.2,10.18,5.05,17.79,13.77,21.42,24.54,2.95,8.76,2.98,18.02.17,26.66-.64,1.98-1.44,3.94-2.38,5.84ZM704.57,286.73c7.49,3.72,15.98,4.3,23.91,1.63,7.92-2.67,14.33-8.26,18.05-15.75h0c3.71-7.5,4.29-15.98,1.63-23.91-2.66-7.92-8.26-14.33-15.75-18.05-15.46-7.67-34.28-1.34-41.96,14.12-.69,1.4-1.27,2.82-1.74,4.26-4.72,14.51,1.8,30.72,15.86,37.7Z"/>
            <path class="cls-18" d="M818.48,291.95c1.1-3.39,2.04-6.85,2.81-10.4,1.53-7.05,2.34-14.26,2.42-21.46v-.97c0-2.5-1.62-4.62-3.88-5.36-.55-.18-1.14-.27-1.74-.27-3.11,0-5.61,2.52-5.63,5.62,0,6.72-.74,13.46-2.17,20.05h0c-.08.36-.16.73-.24,1.09-3.53,15.56-10.8,29.66-21.07,41.33-5.57,6.34-12.04,11.96-19.27,16.71-.06.04-.12.08-.18.12-.18.12-.36.24-.54.35-21.28,13.7-46.61,18.29-71.34,12.93-3.2-.69-6.34-1.54-9.41-2.54-20.67-6.72-38.25-20.24-50.18-38.76-13.7-21.28-18.29-46.61-12.93-71.34,5.36-24.71,20.03-45.89,41.3-59.59,21.28-13.7,46.61-18.29,71.34-12.93,3.15.68,6.25,1.52,9.29,2.51,13.19,4.29,25.29,11.42,35.41,20.91.62.58,1.34,1,2.11,1.25,2.01.65,4.3.14,5.84-1.5,2.12-2.27,2.02-5.82-.26-7.96-11.32-10.62-24.86-18.6-39.61-23.4-3.41-1.11-6.87-2.05-10.39-2.81-27.67-5.99-56.02-.86-79.82,14.47-23.8,15.33-40.23,38.98-46.21,66.67-6,27.67-.86,56.01,14.47,79.82,13.34,20.72,33.01,35.84,56.14,43.37,3.43,1.12,6.95,2.07,10.53,2.84,53.57,11.6,106.62-19.69,123.22-70.73Z"/>
          </g>
        </g>
      </g>
      <g>
        <g>
          <circle class="cls-19" cx="1230.93" cy="1501.07" r="378.24"/>
          <circle class="cls-1" cx="1230.29" cy="1502.73" r="366.4"/>
        </g>
        <g>
          <path class="cls-4" d="M1398.71,1745.59c-13.21,0-26.33-5.63-35.48-16.54l-326.95-389.95c-16.42-19.58-13.85-48.76,5.73-65.18,19.59-16.42,48.77-13.85,65.18,5.73l326.95,389.95c16.42,19.58,13.85,48.76-5.73,65.18-8.67,7.27-19.21,10.81-29.7,10.81Z"/>
          <path class="cls-4" d="M1030.86,1742.75c-12.15,0-24.28-4.75-33.36-14.2-17.71-18.42-17.14-47.71,1.28-65.42l385.77-370.92c18.42-17.72,47.71-17.14,65.42,1.28,17.71,18.42,17.14,47.71-1.28,65.42l-385.77,370.92c-8.97,8.63-20.53,12.92-32.06,12.92Z"/>
        </g>
      </g>
      <g>
        <path class="cls-9" d="M1441.57,2603.17c.53-.2,286.96-501.81,325.66-549.01,6.51-7.94,16.59-11.98,26.79-10.77l79.95,9.53,93.92,203.18-156.47-91.12c15.48,107.08-185.52,266.21-254.46,324.28-7,5.89-7.57,16.45-1.25,23.06l27.52,28.81c-45.18,45.8-97.32,75.21-156.17,88.81l14.51-26.76Z"/>
        <path class="cls-7" d="M1567.31,2525.58s17.57,5.67,23.51,21.32c2.85,7.49-.22,15.96-6.73,20.63-28.92,20.72-124.33,87.62-168.35,100.72-3.61,1.07-7.04-2.19-6.23-5.87,2.26-10.23,9.57-30.65,33.11-60.55l-2.11,4.27c-2.67,5.41,3.21,11.04,8.47,8.07,29.45-16.62,89.42-53.01,118.33-88.59Z"/>
        <path class="cls-6" d="M1553.14,2726.28c.48-.31,43.45-103.85,43.93-104.15,39.4-239.89,135.53-445.34,163.88-499.4,4.77-9.09,13.82-15.09,24.05-15.97l80.22-6.85,133.1,179.97-171.67-57.57c36.83,101.73-127.81,298.25-183.57,369.06-5.66,7.19-4.09,17.64,3.44,22.84l32.78,22.64c-34.98,53.99-80.09,93.35-134.96,118.57l8.79-29.15Z"/>
        <path class="cls-7" d="M1660.57,2624.85s18.35,2,27.34,16.12c4.3,6.75,3.01,15.68-2.42,21.56-24.13,26.15-104.02,110.97-144.48,132.71-3.32,1.78-7.34-.72-7.29-4.49.14-10.47,3.17-31.95,20.17-66l-1.2,4.61c-1.52,5.84,5.38,10.16,9.93,6.19,25.47-22.24,76.85-70.01,97.96-110.71Z"/>
        <path class="cls-11" d="M2240.73,2062.01s72.57,107.94,78.52,157.17c5.95,49.24-20.07,66.26-96.02,72.54-226.03,18.69-337.46-49.06-337.46-49.06-15.46-98.59-26.46-123.67-155.6-177.27,0,0,163.34,12.97,196.21.21,32.87-12.76,314.35-3.6,314.35-3.6Z"/>
        <g>
          <path class="cls-10" d="M1951.34,1457.27s50.54-59.8,104.28,13.57c9.73,13.29,47.11,2.33,60.82,30.14,7.08,14.36,22.36,22.52,38.1,19.62,39.21-7.23,103.3-7.84,134.95,53.6,24.15,46.9,5.51,74.35-18.64,90-17.73,11.49-24.06,34.83-13.34,53.04,10.29,17.47,12.22,41.12-14.34,69.58-59.52,63.79-177.33-40.48-177.33-40.48l-93.54-221.04-20.95-68.03Z"/>
          <path class="cls-17" d="M2044.47,2047.72s-84.51-80.47-126.11-133.77c-22.49-28.81-29.55-66.74-19.15-101.77,18.99-63.98,52.74-130.25,55.82-140.57,4.72-15.81,99.47-15.15,99.47-15.15,0,0,186.46,121.01,259.72,326l-82.28,25.61s-48.68-81.68-96.79-133.61c0,0,83.24,109.96,86.17,154.97l-176.86,18.28Z"/>
          <path class="cls-14" d="M1883.46,2079.47l63.5-69.09,73.33,19.75s85.5,13.25,134.43,0l48.93-13.25,110.58-34.43,17.37,49.08c4.41,12.46-.02,26.3-10.8,33.95-9.57,6.8-20.78,14.27-27.93,17.4-14.56,6.37-335.45,2.01-335.45,2.01l-73.96-5.43Z"/>
          <path class="cls-12" d="M1989.39,1542.53l63.69,118.43c-4.2,25.85-69.31,26.58-79.37,11.14-1.02-1.57-1.61-3.39-2-5.22l-38.1-79.13c-1.64-7.72,19.52-33.71,26.48-37.42l25.31-13.47c9.75-5.19-30.92-5.6,3.99,5.68Z"/>
          <g>
            <path class="cls-15" d="M1860.5,1514.74s-7.19,40.01,24.26,90.88c31.45,50.87,62.76,48.57,78.67,30.43,15.91-18.14,34.97-48.36,26.3-99.1-8.67-50.74-118.36-73.24-129.23-22.22Z"/>
            <path class="cls-10" d="M1951.66,1542.47s-50.92-66.88-90.02-8.58l.66,20.14s-50.84-2.38-45.32-49.23c5.51-46.86,47.02-78.87,104.56-62.86,57.54,16.01,91.16,34.24,97.66,74.19,6.5,39.95-26.12,33.42-26.12,33.42,0,0-12.46-27.56-27.51-29.45-15.05-1.88-9.61,19.92-9.61,19.92l-4.3,2.44Z"/>
            <path class="cls-2" d="M1963.34,1540.68s-26.38-34.23-2.37-41.33c24.01-7.1,23.11,33.54,21.55,48.66l-19.18-7.33Z"/>
          </g>
        </g>
        <g>
          <path class="cls-10" d="M2093.65,2106.82c-.22.01-.45.02-.67.02l-292.07-.32c-7.22,0-13.07-5.86-13.06-13.09,0-7.22,5.89-13.19,13.09-13.06l292.07.32c7.22,0,13.07,5.87,13.06,13.09,0,7-5.51,12.7-12.42,13.04Z"/>
          <path class="cls-10" d="M1538.35,1841.64h243.24c17.94,0,34.28,10.35,41.93,26.58l112.45,238.44h-302.28c-11.56,0-21.95-7.07-26.2-17.82l-87.2-220.64c-5.04-12.75,4.36-26.56,18.07-26.56Z"/>
          <path class="cls-7" d="M1709.71,1963.89c5.27,16.38,1.38,32.28-8.7,35.52-10.07,3.24-22.51-7.4-27.79-23.78-5.27-16.38-1.38-32.28,8.7-35.52,10.07-3.24,22.51,7.4,27.79,23.78Z"/>
        </g>
      </g>
    </g>
  </g>
</svg>