<?xml version="1.0" encoding="UTF-8"?>
<svg id="Layer_2" data-name="Layer 2" xmlns="http://www.w3.org/2000/svg" viewBox="0 0 478.37 443.34">
  <defs>
    <style>
      .cls-1, .cls-2 {
        fill: none;
      }

      .cls-1, .cls-2, .cls-3, .cls-4, .cls-5, .cls-6, .cls-7, .cls-8, .cls-9 {
        stroke-miterlimit: 10;
      }

      .cls-1, .cls-3, .cls-5, .cls-6, .cls-7, .cls-8, .cls-9 {
        stroke: #263238;
      }

      .cls-10, .cls-4 {
        fill: #b8d955;
      }

      .cls-2, .cls-4 {
        stroke: #000;
      }

      .cls-3 {
        fill: #bdbdbd;
      }

      .cls-11 {
        opacity: .3;
      }

      .cls-12, .cls-13, .cls-8, .cls-14 {
        fill: #fff;
      }

      .cls-13 {
        opacity: .35;
      }

      .cls-5 {
        fill: #8c8c8c;
      }

      .cls-6 {
        fill: #263238;
      }

      .cls-7 {
        fill: #ccc;
      }

      .cls-14 {
        opacity: .7;
      }

      .cls-9 {
        fill: #d6d6d6;
      }
    </style>
  </defs>
  <g id="Background_Simple" data-name="Background Simple">
    <g>
      <path class="cls-10" d="M299.07,6.26s-78.57-24.38-149.97,23.11C77.7,76.85,46.93,166.22,20.09,237.9c-26.83,71.68-2.41,142.32,57.42,172.38,59.82,30.06,94.87-19.69,174.94-25.57,80.07-5.88,102.59,4.89,165.47-44.39,62.88-49.28,66.13-159.26,7.1-237.92C365.98,23.74,299.07,6.26,299.07,6.26Z"/>
      <path class="cls-14" d="M299.07,6.26s-78.57-24.38-149.97,23.11C77.7,76.85,46.93,166.22,20.09,237.9c-26.83,71.68-2.41,142.32,57.42,172.38,59.82,30.06,94.87-19.69,174.94-25.57,80.07-5.88,102.59,4.89,165.47-44.39,62.88-49.28,66.13-159.26,7.1-237.92C365.98,23.74,299.07,6.26,299.07,6.26Z"/>
    </g>
  </g>
  <g id="Clouds">
    <g class="cls-11">
      <path class="cls-2" d="M22.36,348.07s7.42-14.95,22.27-17.75c14.84-2.8,20.52,14.48,24.45,18.69,3.93,4.2,5.24-3.74,12.22-3.27,6.99.47,8.73,5.14,10.04,7.48,1.31,2.34,6.17-5.36,8.98-4.32s4.08,4.36,4.08,4.36l10.08,1.82H.53s-.87-7.94,6.55-9.81c7.42-1.87,12.22,3.74,15.28,2.8Z"/>
      <path class="cls-2" d="M361.05,39.42s7.42-14.95,22.27-17.75c14.84-2.8,20.52,14.48,24.45,18.69,3.93,4.2,5.24-3.74,12.22-3.27,6.99.47,8.73,5.14,10.04,7.48,1.31,2.34,6.17-5.36,8.98-4.32s4.08,4.36,4.08,4.36l10.08,1.82h-113.95s-.87-7.94,6.55-9.81c7.42-1.87,12.22,3.74,15.28,2.8Z"/>
      <path class="cls-2" d="M330.11,63.12c2.05-1.3,3.79-3.88,5.76-5.53,5.02-4.2,11.17-6.7,17.59-6.56,14.72.32,20.72,17.35,22.52,18,1.8.64,5.71-6.11,12.31-4.82,6.61,1.29,7.81,7.07,9.91,8.68,2.1,1.61,7.81-2.89,11.41-1.61,3.6,1.29,3,5.46,6.61,5.78,3.6.32,5.71-1.61,8.41-.96,2.7.64,4.5,3.54,4.5,3.54-41.76,0-83.51,0-125.27,0-30.53,0-61.05,0-91.58,0,3.3-5.96,7.89-11.47,13.98-13.8,9.29-3.55,19.36.98,29.1,2.69.97.17,2.03.3,2.9-.19,1.17-.66,1.62-2.19,1.92-3.58,1.75-7.89,2.7-16.25,6.78-23.09,6.36-10.68,20.36-15.23,31.2-10.15,10.18,4.78,16.11,15.94,22.08,25.98,1.2,2.01,2.48,4.07,4.35,5.36,2.18,1.5,3.94,1.26,5.5.27Z"/>
      <path class="cls-2" d="M306.45,187.76c2.74-1.73,5.05-5.18,7.68-7.38,6.7-5.61,14.9-8.94,23.46-8.75,19.63.43,27.64,23.15,30.04,24,2.4.86,7.61-8.14,16.42-6.43,8.81,1.71,10.41,9.43,13.22,11.57,2.8,2.14,10.41-3.86,15.22-2.14s4.01,7.29,8.81,7.72c4.81.43,7.61-2.14,11.22-1.29,3.6.86,6.01,4.71,6.01,4.71-55.69,0-111.38-.01-167.07,0-40.71,0-81.43,0-122.14,0,4.4-7.95,10.52-15.29,18.65-18.4,12.4-4.74,25.82,1.31,38.81,3.58,1.3.23,2.71.4,3.87-.26,1.57-.88,2.16-2.93,2.56-4.77,2.33-10.53,3.61-21.67,9.04-30.79,8.49-14.24,27.16-20.32,41.62-13.53,13.58,6.37,21.49,21.26,29.44,34.65,1.6,2.69,3.3,5.43,5.81,7.15,2.91,2,5.25,1.68,7.34.36Z"/>
    </g>
  </g>
  <g id="Table">
    <line class="cls-1" x1="4.42" y1="442.84" x2="478.37" y2="442.84"/>
  </g>
  <g id="Fruits">
    <g>
      <circle class="cls-6" cx="158.46" cy="253.54" r="35.53"/>
      <g>
        <path class="cls-6" d="M202.6,55.1l-1.58-25.88,12.68,25.88s4.75-14.79,6.87-20.6c2.11-5.81,4.23-10.56,4.23-10.56l6.34,30.64,14.26-22.18,4.23,17.43-1.58,17.43h-44.37l-1.06-12.15Z"/>
        <path class="cls-3" d="M194.15,99.99s-5.28-15.32-10.04-27.99c-4.75-12.68-14.79-27.99-14.79-27.99,0,0,10.04,9.51,15.85,15.32,5.81,5.81,12.15,14.79,12.15,14.79,0,0-3.17-16.9-5.81-24.82-2.64-7.92-8.98-25.35-8.98-25.35,0,0,14.79,15.32,18.49,19.01,3.7,3.7,6.87,7.92,6.87,7.92l-3.17-20.6,11.62,19.01,7.92,11.09s4.75-14.79,8.45-21.13,7.92-12.15,8.98-13.73c1.06-1.58-4.75,24.82-4.75,24.82l16.37-26.41,8.45-11.09s-7.39,33.8-7.39,40.67-2.64,15.32-2.64,15.32l12.15-25.35s1.58,16.9-.53,34.33c-2.11,17.43-1.06,19.54-4.75,29.05-3.7,9.51-8.45,21.13-8.45,21.13l-4.75,6.34-40.14-1.58-11.09-32.75Z"/>
        <path class="cls-3" d="M195.73,130.63s-14.26-21.13-15.32-31.16c-1.06-10.04-4.23-25.35-4.23-25.35,0,0,5.81,8.98,15.85,17.43,10.04,8.45,15.85,16.9,15.85,16.9,0,0-1.58-11.09-1.58-19.54s3.17-22.71,3.17-22.71c0,0,13.73,27.99,16.37,34.33,0,0,4.75-10.56,8.98-16.37s13.2-16.9,13.2-16.9c0,0-1.44,21.95,1.06,29.58,2.49,7.63,1.06,31.16,1.06,31.16,0,0,12.15-27.47,15.32-33.8,3.17-6.34,20.6-22.18,20.6-22.18,0,0-6.34,22.71-7.92,30.64-1.58,7.92-5.81,16.37-6.87,17.96-1.06,1.58-3.7,7.39-3.7,7.39l-11.62,19.01-12.15,14.79-33.28-2.64-14.79-28.52Z"/>
        <path class="cls-3" d="M194.68,141.72s-8.98-7.39-12.68-19.01c-3.7-11.62-5.81-19.54-5.81-19.54,0,0,8.98,7.92,16.37,15.32,7.39,7.39,20.07,16.37,20.07,16.37,0,0-.53-16.37,2.64-27.99,3.17-11.62,7.39-23.77,7.39-23.77,0,0,10.56,41.2,11.62,46.48,1.06,5.28,1.83,10.88,1.83,10.88,0,0,5.04-28.84,8.74-36.77,3.7-7.92,9.51-17.43,9.51-17.43,0,0-.53,25.35,0,33.8.53,8.45,0,17.96,0,17.96,0,0,4.23-8.45,9.51-13.73s33.28-19.01,33.28-19.01c0,0-16.37,15.32-19.01,19.54-2.64,4.23-24.68,25.75-24.68,25.75l-50.32,2.77-8.45-11.62Z"/>
        <g>
          <path class="cls-4" d="M205.69,161.98s-23.66,9.08-36.56,43.97c-12.9,34.89-8.84,72.4-.96,88.89,7.89,16.49,21.51,31.06,51.62,32.74,30.11,1.67,50.9-4.06,64.28-33.93,13.38-29.87,10.99-65.24,3.82-86.5-7.17-21.27-22.68-35.08-28.68-39.91-10.99-8.84-37.76-15.05-53.53-5.26Z"/>
          <g>
            <path class="cls-1" d="M213.87,225.01c2.41,4.82,2.85,5.7,2.85,6.79"/>
            <path class="cls-1" d="M191.3,235.97s-.88-6.36,3.94-12.71c4.82-6.36,5.7-7.67,8.77-7.01,2.62.56,6.21,3.05,8.7,6.77"/>
            <path class="cls-1" d="M210.15,216.25s2.19-4.38,5.92-7.89c3.73-3.51,5.04-4.38,5.04-4.38,0,0,11.18,4.16,13.15,11.83"/>
            <path class="cls-1" d="M234.04,230.27s-1.97-4.82-.44-7.45c1.53-2.63,3.73-8.55,7.67-7.67,3.94.88,12.27,1.75,13.81,7.67"/>
            <path class="cls-1" d="M215.19,244.74s.88-8.33,4.16-11.18c3.29-2.85,8.11-5.7,8.55-6.36.44-.66,8.33,3.07,11.61,8.11,3.29,5.04,2.63,7.67,2.63,7.67"/>
            <path class="cls-1" d="M236.23,254.82s2.41-4.82,4.82-8.33"/>
            <path class="cls-1" d="M244.12,243.42s1.97-4.38,4.6-3.94c2.63.44,9.64,4.6,10.96,7.23s1.31,4.16,1.31,4.16"/>
            <path class="cls-1" d="M254.64,238.82s-.88-7.01,1.53-10.52c2.41-3.51,1.75-4.6,4.16-5.7,2.41-1.1,9.64,2.19,10.74,6.36"/>
            <path class="cls-1" d="M181.59,242.03c2.81-2.64,5.54-6.28,5.54-6.28,0,0,3.51,3.94,7.23,6.79,3.73,2.85,4.6,6.57,4.6,6.57"/>
            <path class="cls-1" d="M178.37,247.59s-.51-1.69,1.44-3.87"/>
            <path class="cls-1" d="M219.8,253.82c1.66,3.3,1.52,4.72,1.52,4.72"/>
            <path class="cls-1" d="M200.49,251.49c.95-1.66,1.95-3.12,2.87-3.91,3.07-2.63,3.51-3.73,3.51-3.73,0,0,8.11,1.97,11.4,7.23"/>
            <path class="cls-1" d="M196.34,260.3s.84-2.15,2.05-4.73"/>
            <path class="cls-1" d="M217.82,267.75s3.51-5.92,8.55-9.42c5.04-3.51,12.71-.22,16.66,5.48"/>
            <path class="cls-1" d="M256.17,264.46s2.19-12.05,7.23-15.12,12.71-2.41,14.03,7.45"/>
            <path class="cls-1" d="M272.83,244.08s-1.31-3.73,1.1-8.55c2.41-4.82,3.07-5.26,3.73-5.48.66-.22,3.29.44,5.7,3.29,2.41,2.85,3.51,5.48,3.51,5.48"/>
            <path class="cls-1" d="M277.3,210.93c1.79,2.12,3.64,5.32,3.64,5.32"/>
            <path class="cls-1" d="M266.25,220.41s-1.31-3.94.44-7.89c1.75-3.94,3.73-5.92,3.73-5.92,0,0,2.34.86,4.35,2.13"/>
            <path class="cls-1" d="M244.91,208.31c-.12-1.67.02-3.36.74-4.55,1.97-3.29,5.04-6.36,5.7-6.79.66-.44,3.29.88,5.92,3.07,2.63,2.19,3.94,3.51,4.38,6.36"/>
            <path class="cls-1" d="M246.09,214.06s-.58-1.69-.94-3.81"/>
            <path class="cls-1" d="M223.74,203.76s-.88-3.29,1.53-6.79c2.41-3.51,8.11-8.99,8.11-8.99,0,0,6.79,2.85,8.99,5.7,2.19,2.85,3.29,7.01,3.29,7.01"/>
            <path class="cls-1" d="M272.12,196.04c1.33,3.5,2.02,6.18,2.02,6.18"/>
            <path class="cls-1" d="M258.14,196.3s-3.94-3.94-1.31-8.55c2.63-4.6,4.38-5.04,4.38-5.04,0,0,5.7,2.19,8.55,7.89.39.79.76,1.58,1.1,2.36"/>
            <path class="cls-1" d="M212.59,198.44c.45.47.82.94,1.07,1.37,1.75,3.07,1.1,7.67,1.1,7.67"/>
            <path class="cls-1" d="M192.62,207.92s.88-6.14,2.85-7.67c1.97-1.53,8.77-7.89,8.77-7.89,0,0,4.03,2.31,6.92,4.74"/>
            <path class="cls-1" d="M180.39,214.57c3.51-3.65,8.28-7.53,8.28-7.53,0,0,2.63.22,4.6,4.6,1.97,4.38,2.41,8.77,2.41,8.77"/>
            <path class="cls-1" d="M177.06,223.7s-1.01-3.02,1.09-6.42"/>
            <path class="cls-1" d="M168.29,239.04s-1.75-5.04,0-8.11,6.36-7.01,6.36-7.01c0,0,2.41,1.1,4.38,5.48,1.97,4.38,1.75,8.11,1.75,8.11"/>
            <path class="cls-1" d="M175.74,205.95s0-4.6,3.07-7.45,5.7-4.16,5.7-4.16c0,0,1.75,4.16.66,7.89-1.1,3.73-1.53,4.6-1.53,4.6"/>
            <path class="cls-1" d="M186.48,192.36s1.31-1.53,5.48-3.94c4.16-2.41,7.23-3.29,7.23-3.29,0,0,1.1,3.94,1.31,5.92.22,1.97-.66,3.73-.66,3.73"/>
            <path class="cls-1" d="M228.34,190.39s-3.51-7.89-5.48-9.42c-1.97-1.53-9.64,2.85-12.49,9.42"/>
            <path class="cls-1" d="M242.8,273.45c2.41-3.29,7.23-10.08,7.67-10.74s6.14.22,10.52,5.7,4.6,11.4,4.6,11.4"/>
            <path class="cls-1" d="M240.39,282.43s0-3.74,1.28-6.9"/>
            <path class="cls-1" d="M280.11,281.2c.37,1.21.55,2.31.61,2.98"/>
            <path class="cls-1" d="M263.62,291.85s-.22-12.93,7.23-16.22c4.16-1.84,6.68.23,8.14,2.86"/>
            <path class="cls-1" d="M274.01,265.51c1.09-3.44,2.87-7.35,5.6-8.72,5.26-2.63,7.45,5.92,7.67,7.89"/>
            <path class="cls-1" d="M272.61,271.47s.25-1.71.84-3.98"/>
            <path class="cls-1" d="M284.88,254.38s-.44-7.01,1.31-11.61c1.75-4.6,3.51-9.86,5.48-9.42"/>
            <path class="cls-1" d="M224.45,277.8c.82,3.15.82,5.07.82,5.07"/>
            <path class="cls-1" d="M203.57,285.94s.66-8.33,3.73-12.71c3.07-4.38,4.38-5.26,6.36-5.48,1.71-.19,7.22,3.09,9.51,6.68"/>
            <path class="cls-1" d="M222.42,296.68s2.41-11.4,9.86-14.03c7.45-2.63,14.03,5.26,14.03,9.42v5.26"/>
            <path class="cls-1" d="M189.99,300.18s-1.31-6.14,4.38-12.05c5.7-5.92,14.68,1.75,15.78,6.57"/>
            <path class="cls-1" d="M192.94,281.88c-.99-1.92-2.52-4.27-4.71-6.03-4.38-3.51-7.45-2.63-11.18,2.19-3.73,4.82-3.94,8.55-3.73,10.52"/>
            <path class="cls-1" d="M194.37,285.28s-.26-.89-.84-2.18"/>
            <path class="cls-1" d="M186.7,266.21c2.19-3.94,3.29-5.48,5.04-5.7s8.11-1.75,11.18,7.89"/>
            <path class="cls-1" d="M184.29,272.13s.13-1.16,1.17-3.47"/>
            <path class="cls-1" d="M187.79,258.54s-10.3-13.59-13.59-10.3-5.04,9.2-5.26,13.37"/>
            <path class="cls-1" d="M248.5,308.29s0-5.7,2.41-8.33c2.41-2.63,8.99-7.89,8.99-7.89,0,0,7.23,4.16,7.89,7.67s.22,6.14.22,6.14"/>
            <path class="cls-1" d="M208.65,310.75c-.4,2.6-.25,4.78-.25,4.78"/>
            <path class="cls-1" d="M231.41,316.62s-.22-5.48-3.07-10.08c-2.85-4.6-9.64-6.79-9.64-6.79,0,0-5.48,1.53-8.11,5.48-.47.71-.85,1.5-1.14,2.32"/>
            <path class="cls-1" d="M198.53,312.67s-3.73-7.23-6.57-8.77c-2.85-1.53-8.55-2.41-10.96-.22"/>
            <path class="cls-1" d="M197.44,320.12s.88-2.85,3.29-4.38c2.41-1.53,13.59,2.41,16,5.04,2.41,2.63,2.63,4.6,2.63,4.6"/>
            <path class="cls-1" d="M237.39,310.34c3.42-3.1,7.82-5.56,7.82-5.56,0,0,3.29,4.16,6.79,6.36,3.51,2.19,2.85,7.45,2.41,8.33"/>
            <path class="cls-1" d="M235.13,323.85s-3.29-4.16-1.31-8.99c.31-.76.81-1.53,1.43-2.3"/>
          </g>
        </g>
        <path class="cls-7" d="M201.54,158.09s-19.01-22.18-30.11-26.94l-11.09-4.75s10.56,1.58,22.71,5.81c12.15,4.23,20.6,11.62,20.6,11.62,0,0-2.11-6.34.53-14.79,2.64-8.45,5.81-15.32,5.81-15.32,0,0,5.28,11.09,7.39,15.32,2.11,4.23,4.23,10.04,4.23,10.04,0,0,2.11-5.28,5.28-14.26,3.17-8.98,7.39-12.68,7.39-12.68,0,0-1.06,12.15,0,17.43l1.06,5.28s7.39-3.7,9.51-5.81c2.11-2.11,16.37-8.45,16.37-8.45,0,0-2.64,7.92-3.7,11.09-1.06,3.17-3.17,6.34-3.17,6.34,0,0,10.04-4.75,17.43-5.81,7.39-1.06,15.85.53,15.85.53,0,0-21.66,7.39-30.11,22.71l-5.28,8.98-11.62-8.45-18.49,10.56-5.81-7.39-14.79-1.06Z"/>
        <path class="cls-9" d="M205.69,161.98s-5.68.86-9.29-6.36c-3.61-7.22-11.55-13.72-11.55-13.72,0,0,12.28,5.06,14.44,6.5,2.17,1.44,7.22,3.61,7.22,3.61l5.05-12.28,14.44,10.83,10.11-10.11,4.33,11.55,14.44-9.39-1.44,7.94s6.5-2.89,8.67-3.61c2.17-.72,12.28-2.17,12.28-2.17,0,0-8.67,6.5-12.28,12.28s-2.9,10.17-2.9,10.17l3.62,8.6-10.83-3.61-11.55,12.28-15.16-13-18.05,10.11,3.61-11.55-7.22.72,2.07-8.81Z"/>
      </g>
      <path class="cls-6" d="M286.71,254.48c-12.74-12.89-25.74-13.44-32.17-9.17-2.65,1.76-7.46,5.51-12.22,9.32-.01-.78-.03-1.77-.06-2.97-.06-3.21-1.52-7.72-3.02-9.42-1.5-1.7-2.35-.95-3.31-.61-.96.34,1.63,3.85,3.03,9.15,1.21,4.59.11,6.33-.21,6.71-5.38,4.36-9.88,8.11-9.88,8.11,0,0-10.93,5.69-2.22,27.44,6.17,15.41,28.08,27.13,41.77,24.8,13.69-2.34,18.98-12.1,18.98-12.1,0,0,6.43-4.27,9.02-10.26,2.59-5.99,9.44-21.61-9.72-41Z"/>
      <g>
        <path class="cls-6" d="M259.51,224.65s1.7-1.5.3-6.8c-1.4-5.31-3.99-8.81-3.03-9.15s1.81-1.09,3.31.61c1.5,1.7,2.95,6.21,3.02,9.42.06,3.21.09,4.95.09,4.95,0,0-3.38,2.73-4.16,2.41s.49-1.44.49-1.44Z"/>
        <path class="cls-5" d="M249.71,232.68s-10.93,5.69-2.22,27.44c6.17,15.41,28.08,27.13,41.77,24.8,13.69-2.34,18.98-12.1,18.98-12.1,0,0,6.43-4.27,9.02-10.26s9.44-21.61-9.72-41c-12.74-12.89-25.74-13.44-32.17-9.17-6.43,4.27-25.66,20.29-25.66,20.29Z"/>
      </g>
      <g>
        <g>
          <circle class="cls-4" cx="349.63" cy="201.63" r="11.05" transform="translate(70.55 493.2) rotate(-76.22)"/>
          <circle class="cls-6" cx="340.03" cy="207.71" r="11.05" transform="translate(77.7 507.62) rotate(-80.24)"/>
          <circle class="cls-6" cx="323.25" cy="203.08" r="11.05" transform="translate(70.85 489.48) rotate(-80.75)"/>
          <circle class="cls-6" cx="314.52" cy="215.41" r="11.05"/>
          <circle class="cls-6" cx="297.65" cy="221.35" r="11.05" transform="translate(14.1 460.5) rotate(-76.78)"/>
          <circle class="cls-6" cx="320.16" cy="244.33" r="11.05" transform="translate(8.52 499.44) rotate(-76.65)"/>
          <circle class="cls-6" cx="327.63" cy="268.67" r="11.05" transform="translate(-94.02 310.36) rotate(-45)"/>
          <circle class="cls-6" cx="340.07" cy="289.79" r="11.05"/>
          <circle class="cls-6" cx="370.44" cy="297.02" r="11.05" transform="translate(-4.07 588.89) rotate(-76.65)"/>
          <circle class="cls-6" cx="341.68" cy="303.37" r="11.05" transform="translate(-90.5 155.06) rotate(-22.66)"/>
          <circle class="cls-6" cx="352.51" cy="274.46" r="11.05"/>
          <circle class="cls-6" cx="354.53" cy="256.52" r="11.05"/>
          <circle class="cls-6" cx="359.45" cy="246.11" r="11.05"/>
          <circle class="cls-6" cx="354.24" cy="231.06" r="11.05"/>
        </g>
        <g>
          <circle class="cls-4" cx="285.93" cy="199.32" r="11.05" transform="translate(-54.72 125.55) rotate(-22.66)"/>
          <circle class="cls-4" cx="292.84" cy="209.41" r="12.65" transform="translate(21.45 445.96) rotate(-76.64)"/>
          <circle class="cls-4" cx="297.79" cy="213.78" r="11.05" transform="translate(-63.95 273.19) rotate(-45)"/>
          <circle class="cls-4" cx="298.08" cy="188.9" r="8.92"/>
          <circle class="cls-4" cx="315.76" cy="216.38" r="8.92"/>
          <circle class="cls-4" cx="317.75" cy="231.72" r="11.05" transform="translate(-75.32 244.03) rotate(-37.9)"/>
          <circle class="cls-4" cx="330.77" cy="215.52" r="11.05"/>
          <circle class="cls-4" cx="315.15" cy="186.01" r="11.05" transform="translate(-39.22 277.32) rotate(-45)"/>
          <circle class="cls-4" cx="365.48" cy="211.18" r="11.05"/>
          <circle class="cls-4" cx="334.82" cy="194.11" r="11.05" transform="translate(68.66 475.08) rotate(-76.65)"/>
          <circle class="cls-4" cx="352.47" cy="214.65" r="11.05" transform="translate(62.9 508.69) rotate(-76.78)"/>
          <circle class="cls-4" cx="366.35" cy="229.4" r="11.05" transform="translate(81.04 554.12) rotate(-80.75)"/>
          <circle class="cls-4" cx="336.55" cy="227.38" r="11.05" transform="translate(37.63 502.35) rotate(-76.65)"/>
          <circle class="cls-4" cx="314.28" cy="199.32" r="11.05" transform="translate(-49.84 122.4) rotate(-20.46)"/>
          <circle class="cls-4" cx="331.93" cy="247.34" r="11.05" transform="translate(-73.76 165.03) rotate(-25.22)"/>
          <circle class="cls-4" cx="335.98" cy="263.83" r="11.05"/>
          <circle class="cls-4" cx="366.35" cy="253.7" r="11.05" transform="translate(-69.46 160.73) rotate(-22.66)"/>
          <circle class="cls-4" cx="369.15" cy="274.63" r="12.98" transform="translate(24.93 579.92) rotate(-78.22)"/>
          <circle class="cls-4" cx="362.3" cy="231.72" r="11.05" transform="translate(75.36 552.06) rotate(-80.75)"/>
          <circle class="cls-4" cx="336.76" cy="207.9" r="11.05"/>
          <circle class="cls-4" cx="355.13" cy="241.26" r="11.05"/>
          <circle class="cls-4" cx="350.79" cy="272.8" r="11.05" transform="translate(25.15 575.18) rotate(-80.75)"/>
          <circle class="cls-4" cx="368.72" cy="289" r="11.05" transform="translate(-83.7 410.61) rotate(-53.13)"/>
          <circle class="cls-4" cx="341.53" cy="295.65" r="11.05" transform="translate(-93.6 174.36) rotate(-25.31)"/>
          <circle class="cls-4" cx="309.42" cy="232.88" r="11.05"/>
          <circle class="cls-4" cx="327.65" cy="251.68" r="11.05" transform="translate(-82 305.4) rotate(-45)"/>
          <circle class="cls-4" cx="345.81" cy="246.18" r="11.05"/>
          <circle class="cls-4" cx="354.45" cy="293.92" r="13.17" transform="translate(4.82 593.55) rotate(-80.26)"/>
          <circle class="cls-4" cx="350.44" cy="267.59" r="9.31"/>
          <circle class="cls-4" cx="338.29" cy="280.61" r="9.31"/>
          <g>
            <path class="cls-12" d="M317.66,194.13c0,1.5-1.35,2.71-3.01,2.71s-3.01-1.21-3.01-2.71,1.35-2.71,3.01-2.71,3.01,1.21,3.01,2.71Z"/>
            <path class="cls-12" d="M319.77,179.98c0,1.5-1.35,2.71-3.01,2.71s-3.01-1.21-3.01-2.71,1.35-2.71,3.01-2.71,3.01,1.21,3.01,2.71Z"/>
            <path class="cls-12" d="M341.47,187.94c0,1.5-1.35,2.71-3.01,2.71s-3.01-1.21-3.01-2.71,1.35-2.71,3.01-2.71,3.01,1.21,3.01,2.71Z"/>
            <path class="cls-12" d="M343.12,204.68c0,1.5-1.35,2.71-3.01,2.71s-3.01-1.21-3.01-2.71,1.35-2.71,3.01-2.71,3.01,1.21,3.01,2.71Z"/>
            <path class="cls-12" d="M359.23,210.41c0,1.5-1.35,2.71-3.01,2.71s-3.01-1.21-3.01-2.71,1.35-2.71,3.01-2.71,3.01,1.21,3.01,2.71Z"/>
            <path class="cls-12" d="M371.38,207.26c0,1.5-1.35,2.71-3.01,2.71s-3.01-1.21-3.01-2.71,1.35-2.71,3.01-2.71,3.01,1.21,3.01,2.71Z"/>
            <path class="cls-12" d="M371.07,228.33c0,1.5-1.35,2.71-3.01,2.71s-3.01-1.21-3.01-2.71,1.35-2.71,3.01-2.71,3.01,1.21,3.01,2.71Z"/>
            <path class="cls-12" d="M362.54,236.08c0,1.5-1.35,2.71-3.01,2.71s-3.01-1.21-3.01-2.71,1.35-2.71,3.01-2.71,3.01,1.21,3.01,2.71Z"/>
            <path class="cls-12" d="M352.25,241.37c0,1.5-1.35,2.71-3.01,2.71s-3.01-1.21-3.01-2.71,1.35-2.71,3.01-2.71,3.01,1.21,3.01,2.71Z"/>
            <path class="cls-12" d="M344.14,225.75c0,1.5-1.35,2.71-3.01,2.71s-3.01-1.21-3.01-2.71,1.35-2.71,3.01-2.71,3.01,1.21,3.01,2.71Z"/>
            <path class="cls-12" d="M315.65,229.66c0,1.5-1.35,2.71-3.01,2.71s-3.01-1.21-3.01-2.71,1.35-2.71,3.01-2.71,3.01,1.21,3.01,2.71Z"/>
            <path class="cls-12" d="M301.13,211.67c0,1.5-1.35,2.71-3.01,2.71s-3.01-1.21-3.01-2.71,1.35-2.71,3.01-2.71,3.01,1.21,3.01,2.71Z"/>
            <path class="cls-12" d="M301.58,185.18c0,1.5-1.35,2.71-3.01,2.71s-3.01-1.21-3.01-2.71,1.35-2.71,3.01-2.71,3.01,1.21,3.01,2.71Z"/>
            <path class="cls-12" d="M376.02,268.43c0,1.5-1.35,2.71-3.01,2.71s-3.01-1.21-3.01-2.71,1.35-2.71,3.01-2.71,3.01,1.21,3.01,2.71Z"/>
          </g>
        </g>
      </g>
      <g>
        <path class="cls-4" d="M85.52,182.52c-4.73,2.44-7.96,11.55-8.28,18.89-.79,18.07,10.22,26.72,6.29,63.65-3.93,36.93-10.22,47.15,8.64,71.51,18.86,24.36,72.29,24.36,81.72-24.36,9.43-48.72-37.72-77.01-48.72-84.87-12.69-9.06-20.5-24.99-28.38-37.99-2.2-3.63-6.46-9.31-11.27-6.82Z"/>
        <path class="cls-3" d="M88.72,183.76s-3.86-7.23-3.86-14.94,2.89-11.09-1.45-10.12c-4.34.96-4.82,4.34-4.34,10.12.48,5.78,1.93,13.5,4.82,16.87,2.89,3.37,4.82-1.93,4.82-1.93Z"/>
      </g>
      <g>
        <circle class="cls-9" cx="132.45" cy="304.28" r="33.16" transform="translate(-108.31 75.89) rotate(-22.99)"/>
        <path class="cls-1" d="M133.13,278.16c0,1.9-2.02,3.44-4.51,3.44s-4.51-1.54-4.51-3.44,2.02-3.44,4.51-3.44,4.51,1.54,4.51,3.44Z"/>
      </g>
      <g>
        <circle class="cls-9" cx="293.99" cy="286.19" r="33.16" transform="translate(-88.42 137.54) rotate(-22.99)"/>
        <path class="cls-1" d="M294.67,260.08c0,1.9-2.02,3.44-4.51,3.44s-4.51-1.54-4.51-3.44,2.02-3.44,4.51-3.44,4.51,1.54,4.51,3.44Z"/>
      </g>
      <g>
        <path class="cls-8" d="M258.97,276.99s.91,12.98-12.38,25.93c-13.3,12.95-30.42,19.59-55.34,17.77-24.92-1.82-49.19-15.62-63.35-33.31-14.16-17.69-14.99-36.21-14.61-45.14.38-8.93-.29-12.52.91-13.32,1.2-.8,5.72-2.68,7.59-1.61,1.87,1.06,3.6,2.79,3.6,2.79,0,0-3.62-13.18-7.78-23.7-4.15-10.52-2.58-25.44-2.06-29.84.52-4.4,3.05-6.67,5.18-6.94,2.13-.27,3.86-.27,5.07,2.39,1.2,2.66,4.28,9.85,4.28,9.85,0,0,16.95,15.82,29.37,28.32,3.79,3.82,8.03,8.21,12.07,12.47,12.55,13.2,28.84,22.26,46.7,25.82.15.03.31.06.46.09,15.33,3.03,21.73,7.42,23.33,8.08s9.81,1.97,16.19-4.04c6.38-6.01,13.41-14.94,13.41-14.94,0,0,6.75,2.34,9.3,7,2.54,4.66,2.33,9.16,1.14,9.96-1.2.8-21.03,6.65-24.93,8.74-2.16,1.15,1.86,13.63,1.86,13.63Z"/>
        <path class="cls-1" d="M125.39,230.1s2.65,20.77,37.6,40.95c34.95,20.18,71.11,4.96,76.2.17,5.09-4.79,8.68-6.16,10.83-6.56"/>
        <line class="cls-1" x1="117.23" y1="232.16" x2="117.01" y2="238.54"/>
        <line class="cls-1" x1="121.7" y1="234.7" x2="123.14" y2="237.89"/>
        <path class="cls-1" d="M121.19,176.59s-2.54,6.54,9.47,31.71"/>
        <path class="cls-1" d="M224.89,267.86c7.92.53,10.87-1.27,10.87-1.27"/>
        <path class="cls-1" d="M141.91,225.22c7.4,8.29,20.5,19.73,42.24,29.92,14.92,6.99,25.9,10.35,33.81,11.82"/>
        <path class="cls-1" d="M133.54,213.63s1.41,2.98,5.09,7.67"/>
        <path class="cls-1" d="M125.39,243.3s4.25,12.03,29.72,30.95"/>
        <path class="cls-1" d="M162.05,278.94s22.67,14.22,52.15,7.63"/>
        <path class="cls-6" d="M277.49,250.41c-.48-.72-4.71-4.45-6.55-5.65-1.84-1.19.67-7.1.67-7.1,0,0,6.75,2.34,9.3,7,2.54,4.66,2.33,9.16,1.14,9.96-.27.18-1.52.63-3.32,1.23-.06-.09-.12-.18-.18-.27-3.84-5.73-.57-4.46-1.05-5.18Z"/>
      </g>
      <g>
        <circle class="cls-9" cx="338.71" cy="290.71" r="33.16" transform="translate(-105.79 249.98) rotate(-35.4)"/>
        <path class="cls-1" d="M364.29,296.01c-1.87-.34-3.03-2.6-2.58-5.05.44-2.45,2.32-4.17,4.19-3.83,1.87.34,3.03,2.6,2.58,5.05-.44,2.45-2.32,4.17-4.18,3.83Z"/>
      </g>
      <path class="cls-5" d="M143.86,240.25s-11.55-4.29-21.84,16.76c-7.29,14.91-1.28,39.03,9.64,47.61,10.92,8.58,21.71,5.96,21.71,5.96,0,0,7.48,1.9,13.66-.2,6.18-2.1,22.36-7.5,23.87-34.72,1.01-18.1-7.31-28.11-14.79-30.01-7.48-1.9-32.26-5.41-32.26-5.41Z"/>
      <ellipse class="cls-13" cx="174.32" cy="263.48" rx="8.46" ry="9.51"/>
      <path class="cls-6" d="M155.41,247.5s3.23-5.11,6.22-9.71c2.99-4.6,3.86-8.87,4.75-8.39.9.48,2.02.61,1.77,2.86-.26,2.25-2.62,6.35-4.96,8.56-2.34,2.2-4.85,8.96-4.85,8.96,0,0-4.29-.68-4.58-1.47-.29-.79,1.65-.81,1.65-.81Z"/>
      <path class="cls-1" d="M169.04,249.17c1.4-.38,2.6-.85,3.5-1.38"/>
      <path class="cls-1" d="M144.14,244.48s4.69,2.76,10.48,4.69c3.26,1.09,7.39,1.19,11.02.69"/>
    </g>
  </g>
  <g id="Basket">
    <g>
      <rect class="cls-6" x="380.63" y="354.28" width="23.91" height="93.04" transform="translate(-161.9 486.32) rotate(-54.36)"/>
      <path class="cls-4" d="M361.53,442.84H98.73c-5.88,0-10.78-4.52-11.26-10.38l-6.62-81.21c0-4.9,3.97-8.87,8.87-8.87h280.82c4.9,0,8.87,3.97,8.87,8.87l-6.62,81.21c-.48,5.86-5.38,10.38-11.26,10.38Z"/>
      <g>
        <g>
          <g>
            <line class="cls-1" x1="317.84" y1="371.18" x2="340.93" y2="371.18"/>
            <line class="cls-1" x1="317.84" y1="379.02" x2="340.93" y2="379.02"/>
            <line class="cls-1" x1="317.84" y1="386.87" x2="340.93" y2="386.87"/>
          </g>
          <g>
            <line class="cls-1" x1="341.8" y1="396.89" x2="364.89" y2="396.89"/>
            <line class="cls-1" x1="341.8" y1="404.73" x2="364.89" y2="404.73"/>
            <line class="cls-1" x1="341.8" y1="412.57" x2="364.89" y2="412.57"/>
          </g>
          <g>
            <line class="cls-1" x1="360.32" y1="367.48" x2="360.32" y2="390.57"/>
            <line class="cls-1" x1="352.48" y1="367.48" x2="352.48" y2="390.57"/>
            <line class="cls-1" x1="344.63" y1="367.48" x2="344.63" y2="390.57"/>
          </g>
          <g>
            <line class="cls-1" x1="336.79" y1="392.75" x2="336.79" y2="415.84"/>
            <line class="cls-1" x1="328.95" y1="392.75" x2="328.95" y2="415.84"/>
            <line class="cls-1" x1="321.1" y1="392.75" x2="321.1" y2="415.84"/>
          </g>
        </g>
        <g>
          <g>
            <line class="cls-1" x1="98.34" y1="371.18" x2="121.44" y2="371.18"/>
            <line class="cls-1" x1="98.34" y1="379.02" x2="121.44" y2="379.02"/>
            <line class="cls-1" x1="98.34" y1="386.87" x2="121.44" y2="386.87"/>
          </g>
          <g>
            <line class="cls-1" x1="122.31" y1="396.89" x2="145.4" y2="396.89"/>
            <line class="cls-1" x1="122.31" y1="404.73" x2="145.4" y2="404.73"/>
            <line class="cls-1" x1="122.31" y1="412.57" x2="145.4" y2="412.57"/>
          </g>
          <g>
            <line class="cls-1" x1="99.21" y1="421.29" x2="122.31" y2="421.29"/>
            <line class="cls-1" x1="99.21" y1="429.13" x2="122.31" y2="429.13"/>
            <line class="cls-1" x1="99.21" y1="436.97" x2="122.31" y2="436.97"/>
          </g>
          <g>
            <line class="cls-1" x1="140.83" y1="367.48" x2="140.83" y2="390.57"/>
            <line class="cls-1" x1="132.98" y1="367.48" x2="132.98" y2="390.57"/>
            <line class="cls-1" x1="125.14" y1="367.48" x2="125.14" y2="390.57"/>
          </g>
          <g>
            <line class="cls-1" x1="117.3" y1="392.75" x2="117.3" y2="415.84"/>
            <line class="cls-1" x1="109.45" y1="392.75" x2="109.45" y2="415.84"/>
            <line class="cls-1" x1="101.61" y1="392.75" x2="101.61" y2="415.84"/>
          </g>
          <g>
            <line class="cls-1" x1="224.83" y1="419.59" x2="247.92" y2="419.59"/>
            <line class="cls-1" x1="224.83" y1="427.44" x2="247.92" y2="427.44"/>
            <line class="cls-1" x1="224.83" y1="435.28" x2="247.92" y2="435.28"/>
          </g>
          <g>
            <line class="cls-1" x1="219.81" y1="415.45" x2="219.81" y2="438.55"/>
            <line class="cls-1" x1="211.97" y1="415.45" x2="211.97" y2="438.55"/>
            <line class="cls-1" x1="204.13" y1="415.45" x2="204.13" y2="438.55"/>
          </g>
          <g>
            <line class="cls-1" x1="144.97" y1="371.18" x2="168.06" y2="371.18"/>
            <line class="cls-1" x1="144.97" y1="379.02" x2="168.06" y2="379.02"/>
            <line class="cls-1" x1="144.97" y1="386.87" x2="168.06" y2="386.87"/>
          </g>
          <g>
            <line class="cls-1" x1="187.45" y1="367.48" x2="187.45" y2="390.57"/>
            <line class="cls-1" x1="179.61" y1="367.48" x2="179.61" y2="390.57"/>
            <line class="cls-1" x1="171.76" y1="367.48" x2="171.76" y2="390.57"/>
          </g>
        </g>
      </g>
      <path class="cls-8" d="M379.4,361.16H80.85l-7.86-58.01c0-4.9,3.97-8.87,8.87-8.87h296.53c4.9,0,8.87,3.97,8.87,8.87l-7.86,58.01Z"/>
      <g>
        <rect class="cls-4" x="315.09" y="291.36" width="23.91" height="222.17" transform="translate(-143.6 620.19) rotate(-75.73)"/>
        <path class="cls-8" d="M231.93,378.67c0-2.01-1.63-3.64-3.64-3.64s-3.64,1.63-3.64,3.64,1.63,3.64,3.64,3.64,3.64-1.63,3.64-3.64Z"/>
      </g>
    </g>
  </g>
</svg>