<?xml version="1.0" encoding="UTF-8"?>
<svg id="Layer_2" data-name="Layer 2" xmlns="http://www.w3.org/2000/svg" viewBox="0 0 475.43 432.82">
  <defs>
    <style>
      .cls-1, .cls-2 {
        fill: #fff;
      }

      .cls-1, .cls-3, .cls-4, .cls-5, .cls-6 {
        stroke: #263238;
        stroke-linecap: round;
        stroke-linejoin: round;
      }

      .cls-3 {
        fill: #e0e0e0;
      }

      .cls-7 {
        fill: #edc918;
      }

      .cls-8 {
        fill: #92e3a9;
      }

      .cls-9 {
        fill: #faffeb;
      }

      .cls-10 {
        opacity: .3;
      }

      .cls-11 {
        isolation: isolate;
        opacity: .2;
      }

      .cls-12 {
        fill: #d0daf5;
      }

      .cls-4 {
        fill: none;
      }

      .cls-5 {
        fill: #8a8a8a;
      }

      .cls-6 {
        fill: #263238;
      }
    </style>
  </defs>
  <g id="Layer_1-2" data-name="Layer 1">
    <g id="Layer_2-2" data-name="Layer 2">
      <g id="Background_Simple" data-name="Background Simple">
        <path class="cls-8" d="M404,65.63c-17.31-17.31-37.42-31.57-59.47-42.2C311.72,7.93,275.6.46,239.48.01c-105.57-1.3-113.6,124.06-146.06,141.5S2.14,161.01.11,230.72c-1.28,43.85,8.89,88.94,37.32,123.11,26.09,31.3,64.4,47.16,102.15,58.87,42.4,13.16,87.35,26.07,131.95,17.19,45.76-9.11,77.91-45.74,115.49-70.49,23.66-15.58,44.9-32,59.51-57,1.74-2.99,3.39-6.04,4.94-9.14,19.55-38.86,23.39-83.68,12.6-125.73-9.68-37.73-31.52-73.67-60.07-101.9Z"/>
        <path class="cls-12" d="M404,65.63c-17.31-17.31-37.42-31.57-59.47-42.2C311.72,7.93,275.6.46,239.48.01c-105.57-1.3-113.6,124.06-146.06,141.5S2.14,161.01.11,230.72c-1.28,43.85,8.89,88.94,37.32,123.11,26.09,31.3,64.4,47.16,102.15,58.87,42.4,13.16,87.35,26.07,131.95,17.19,45.76-9.11,77.91-45.74,115.49-70.49,23.66-15.58,44.9-32,59.51-57,1.74-2.99,3.39-6.04,4.94-9.14,19.55-38.86,23.39-83.68,12.6-125.73-9.68-37.73-31.52-73.67-60.07-101.9Z"/>
      </g>
      <g id="Floor">
        <line class="cls-4" x1="474.93" y1="419.82" x2="11" y2="419.82"/>
      </g>
      <g id="Door">
        <rect class="cls-6" x="277.92" y="132" width="158.18" height="288.33"/>
        <rect class="cls-1" x="287.94" y="146.01" width="135.64" height="150.17"/>
        <line class="cls-4" x1="347.53" y1="273.97" x2="334.95" y2="280.43"/>
        <line class="cls-4" x1="419.21" y1="237.2" x2="363.21" y2="265.93"/>
        <line class="cls-4" x1="311.26" y1="195.2" x2="305.79" y2="198.01"/>
        <line class="cls-4" x1="342.47" y1="179.19" x2="318.09" y2="191.7"/>
        <rect class="cls-1" x="287.94" y="312.2" width="135.64" height="92.1"/>
        <rect class="cls-2" x="426.05" y="261.48" width="4.94" height="52.67"/>
        <polyline class="cls-4" points="336.25 221.77 355.13 197.82 375.45 222.5"/>
        <rect class="cls-7" x="325.19" y="218.7" width="60.97" height="31.94"/>
        <line class="cls-4" x1="311.26" y1="373.98" x2="305.79" y2="376.79"/>
        <line class="cls-4" x1="342.47" y1="357.97" x2="318.09" y2="370.47"/>
        <path class="cls-9" d="M338.4,232.01c0-1.4-.65-2.1-1.94-2.1h-5.63v-3.12h6.76c1.34-.07,2.66.4,3.65,1.31.99,1.13,1.48,2.62,1.35,4.12v11.09h-4.19v-11.3Z"/>
        <path class="cls-9" d="M345.88,230.2l-.35-3.38h4.16l.35,3.38v13.11h-4.16v-13.11Z"/>
        <path class="cls-9" d="M358.71,243.31l-.52-3.09c-.51.83-1.15,1.57-1.89,2.2-.8.63-1.71,1.12-2.68,1.44l-1.53-3.29c2.7-.85,4.53-2.2,5.49-4.05v-4.71c.05-.51-.06-1.02-.32-1.47-.27-.32-.65-.52-1.07-.55l-1.82-.26.52-3.06,3.41.46c1.01.07,1.95.54,2.6,1.32.61.91.91,2,.84,3.1v5.49l.93,6.47h-3.96Z"/>
        <path class="cls-9" d="M376.77,241.13c-2.24,1.51-5.5,2.33-9.77,2.47l-1.59-13.66-.4-3.12h8.87c1.62-.1,3.21.48,4.39,1.6,1.09,1.2,1.68,2.78,1.64,4.4v1c.14,3.37-.91,5.8-3.14,7.31ZM373.83,239.01c.75-.46,1.31-1.17,1.59-2,.33-1.09.46-2.23.39-3.37v-.87c.04-.75-.17-1.49-.6-2.1-.39-.51-1.01-.8-1.65-.78h-4l1.07,10c1.12-.03,2.22-.33,3.2-.88Z"/>
      </g>
      <g id="Window">
        <g class="cls-10">
          <rect x="39.14" y="363.89" width="23.95" height="11.4"/>
          <rect x="66.51" y="363.89" width="23.95" height="11.4"/>
          <rect x="66.51" y="392.97" width="23.95" height="11.4"/>
          <rect x="205.07" y="392.97" width="23.95" height="11.4"/>
          <rect x="246.69" y="392.97" width="23.95" height="11.4"/>
          <rect x="39.14" y="392.97" width="23.95" height="11.4"/>
          <rect x="137.22" y="392.97" width="23.95" height="11.4"/>
          <rect x="109.28" y="392.97" width="23.95" height="11.4"/>
          <rect x="52.26" y="378.14" width="23.95" height="11.4"/>
          <rect x="79.06" y="378.14" width="23.95" height="11.4"/>
          <rect x="108.14" y="363.89" width="23.95" height="11.4"/>
          <rect x="135.5" y="363.89" width="23.95" height="11.4"/>
          <rect x="121.25" y="378.14" width="23.95" height="11.4"/>
          <rect x="177.13" y="363.89" width="23.95" height="11.4"/>
          <rect x="204.5" y="363.89" width="23.95" height="11.4"/>
          <rect x="190.24" y="378.14" width="23.95" height="11.4"/>
          <rect x="217.61" y="378.14" width="23.95" height="11.4"/>
        </g>
        <rect class="cls-1" x="37.1" y="132.26" width="226.78" height="206.23"/>
        <line class="cls-4" x1="72.5" y1="232.95" x2="59.92" y2="239.4"/>
        <line class="cls-4" x1="221.57" y1="156.47" x2="88.18" y2="224.9"/>
        <line class="cls-4" x1="135.4" y1="213.3" x2="59.92" y2="252.02"/>
        <line class="cls-4" x1="158.09" y1="262.41" x2="145.51" y2="268.86"/>
        <line class="cls-4" x1="229.77" y1="225.64" x2="173.77" y2="254.36"/>
        <rect class="cls-5" x="28.93" y="322.82" width="239.7" height="29"/>
        <rect class="cls-1" x="115.05" y="322.82" width="3.14" height="29"/>
        <rect class="cls-1" x="136.72" y="322.82" width="3.14" height="29"/>
        <rect class="cls-1" x="93.38" y="322.82" width="3.14" height="29"/>
        <rect class="cls-1" x="50.04" y="322.82" width="3.14" height="29"/>
        <rect class="cls-1" x="71.71" y="322.82" width="3.14" height="29"/>
        <rect class="cls-1" x="158.39" y="322.82" width="3.14" height="29"/>
        <rect class="cls-1" x="223.4" y="322.82" width="3.14" height="29"/>
        <rect class="cls-1" x="245.07" y="322.82" width="3.14" height="29"/>
        <rect class="cls-1" x="180.06" y="322.82" width="3.14" height="29"/>
        <rect class="cls-1" x="201.73" y="322.82" width="3.14" height="29"/>
      </g>
      <g id="Awning">
        <path class="cls-11" d="M398.36,58.82H17.66v106.64c0,14.43,11.69,26.12,26.12,26.12h10.64c14.43,0,26.12-11.68,26.13-26.11h0c0,14.41,11.68,26.1,26.1,26.11h10.66c14.42,0,26.11-11.68,26.12-26.1v-3.02h.57v3c0,14.43,11.69,26.12,26.12,26.12h10.65c14.43,0,26.12-11.69,26.12-26.12v-3h.57v3c0,14.43,11.69,26.12,26.12,26.12h10.64c14.43,0,26.12-11.68,26.13-26.11h0v-3.01h.57v3c0,14.41,11.67,26.1,26.08,26.12h10.64c14.42,0,26.11-11.68,26.12-26.1v-3.02h.58v3c0,14.42,11.68,26.11,26.1,26.12h10.66c14.42,0,26.11-11.68,26.12-26.1v-3.02h.57v3c0,14.43,11.69,26.12,26.12,26.12.03,0,.06,0,.09,0h10.63c14.43,0,26.12-11.68,26.13-26.11h0V58.82h-62.4Z"/>
        <path class="cls-7" d="M80.55,121.01h62.89v10.45c0,14.43-11.69,26.12-26.12,26.12h-10.65c-14.43,0-26.12-11.69-26.12-26.12,0,0,0-10.45,0-10.45Z"/>
        <path class="cls-3" d="M17.66,121.01h62.89v10.45c0,14.43-11.69,26.12-26.12,26.12h-10.65c-14.43,0-26.12-11.69-26.12-26.12,0,0,0-10.45,0-10.45Z"/>
        <path class="cls-3" d="M144,121.01h62.89v10.45c0,14.43-11.69,26.12-26.12,26.12h-10.64c-14.43,0-26.12-11.68-26.13-26.11h0v-10.46h0Z"/>
        <path class="cls-7" d="M207.46,121.01h62.89v10.45c0,14.43-11.69,26.12-26.12,26.12h-10.65c-14.43,0-26.12-11.69-26.12-26.12v-10.45h0Z"/>
        <path class="cls-3" d="M270.92,121.01h62.88v10.45c0,14.43-11.69,26.12-26.12,26.12h-10.68c-14.43,0-26.12-11.69-26.12-26.12v-10.45h.04Z"/>
        <path class="cls-7" d="M334.38,121.01h62.89v10.45c0,14.43-11.69,26.12-26.12,26.12h-10.65c-14.43,0-26.12-11.69-26.12-26.12v-10.45h0Z"/>
        <path class="cls-3" d="M397.83,121.01h62.89v10.45c0,14.43-11.69,26.12-26.12,26.12h-10.6c-14.43,0-26.12-11.69-26.12-26.12v-10.45h-.05Z"/>
        <rect class="cls-1" x="17.66" y="24.82" width="443.06" height="103.68"/>
        <rect class="cls-7" x="80.88" y="24.82" width="62.99" height="103.68"/>
        <rect class="cls-7" x="207.56" y="24.82" width="62.99" height="103.68"/>
        <rect class="cls-7" x="335.37" y="24.82" width="62.99" height="103.68"/>
        <path class="cls-4" d="M410.6,41.89c2.86-1.01,5.66-2.04,8.4-3.07"/>
        <path class="cls-4" d="M315.94,65.94c31.71-6.05,62.91-13.41,89.43-22.27"/>
        <path class="cls-4" d="M147.82,88.4c30.67-2.66,96.44-9.2,161.38-21.19"/>
        <path class="cls-4" d="M130,89.82s3.13-.21,8.8-.67"/>
        <path class="cls-4" d="M202,73.01c12.59-1.54,25.19-3.57,37-6.22"/>
        <path class="cls-4" d="M104,77.82c30.63.51,61.27-.83,91.74-4"/>
      </g>
    </g>
  </g>
</svg>