<?xml version="1.0" encoding="UTF-8"?>
<svg id="Layer_2" data-name="Layer 2" xmlns="http://www.w3.org/2000/svg" viewBox="0 0 511 511">
  <defs>
    <style>
      .cls-1 {
        fill: #dcd2cd;
      }

      .cls-2 {
        fill: #edc918;
      }

      .cls-3 {
        fill: #fce160;
      }

      .cls-4 {
        fill: #ebe1dc;
      }
    </style>
  </defs>
  <g id="Layer_1-2" data-name="Layer 1">
    <path class="cls-3" d="M245.85,373.29c-7.6-13.17-9.11-29.02-14.78-42.26-6.02-14.09-16.35-26.23-20.18-39.98-4.16-14.94-1.41-30.64-2.97-44.64-1.75-15.68-7.56-30.6-6.04-44.35,1.77-15.96,11.14-28.74,17.32-40.96,7.02-13.88,12.89-28.72,25.61-36.07,12.72-7.35,28.51-5.01,44.04-4.15,13.67.76,29.43-.97,44.13,5.49,12.67,5.56,22.68,18.05,35.39,27.4,11.34,8.35,26.32,13.82,37.18,24.89,10,10.19,15.34,25.2,24.53,37.47,8.64,11.53,21.61,20.77,29.22,33.94,7.6,13.17,9.11,29.03,14.78,42.27,6.03,14.09,16.35,26.23,20.18,39.98,4.16,14.94,1.41,30.64,2.97,44.64,1.75,15.68,7.56,30.6,6.04,44.35-1.77,15.96-11.14,28.74-17.32,40.96-7.01,13.88-12.89,28.72-25.61,36.07-12.73,7.35-28.51,5.01-44.04,4.15-13.67-.76-29.43.97-44.13-5.49-12.67-5.56-22.68-18.05-35.39-27.4-11.34-8.35-26.32-13.81-37.17-24.89-10-10.19-15.34-25.2-24.53-37.47-8.64-11.53-21.61-20.77-29.22-33.94Z"/>
    <path class="cls-2" d="M497.23,376.94c-1.56-14,1.19-29.7-2.97-44.64-3.82-13.75-14.15-25.89-20.18-39.98-5.66-13.24-7.18-29.1-14.78-42.27-7.6-13.17-20.58-22.41-29.22-33.94-9.19-12.27-14.54-27.27-24.53-37.47-10.86-11.07-25.83-16.54-37.18-24.89-12.71-9.35-22.71-21.84-35.39-27.4-6.14-2.69-12.47-3.95-18.75-4.57,4.54,4.08,9.16,8.29,14.21,12.01,11.34,8.35,26.32,13.82,37.18,24.89,10,10.19,15.34,25.2,24.53,37.47,8.64,11.53,21.61,20.77,29.22,33.94,7.6,13.17,9.11,29.03,14.78,42.27,6.03,14.09,16.35,26.23,20.18,39.98,4.16,14.94,1.4,30.64,2.96,44.64,1.75,15.68,7.56,30.6,6.04,44.35-1.77,15.96-11.14,28.74-17.32,40.96-7.01,13.88-12.89,28.72-25.61,36.07-12.73,7.35-28.51,5.01-44.04,4.15-7.96-.44-16.63-.05-25.38-.91,6.87,6.18,13.54,12.04,21.17,15.39,14.71,6.45,30.47,4.72,44.13,5.48,15.53.87,31.32,3.2,44.04-4.15,12.72-7.35,18.6-22.19,25.61-36.07,6.18-12.21,15.56-25,17.32-40.96,1.52-13.75-4.29-28.67-6.04-44.35Z"/>
    <path class="cls-4" d="M409.44,278.83c-43.82-75.9-104.81-122.73-136.22-104.59s-21.35,94.37,22.47,170.27,104.81,122.73,136.23,104.59c31.41-18.14,21.35-94.37-22.48-170.27Z"/>
    <path class="cls-1" d="M409.45,278.83c-34.64-59.99-79.99-101.81-113-107.76,24.74,18.91,51.08,49.68,73.08,87.8,43.82,75.9,53.89,152.14,22.47,170.27-6.58,3.8-14.47,4.74-23.23,3.16,24.54,18.75,47.51,25.83,63.15,16.8,31.41-18.13,21.35-94.37-22.47-170.27Z"/>
    <path class="cls-3" d="M245.85,373.29c-7.6-13.17-9.11-29.02-14.78-42.26-6.02-14.09-16.35-26.23-20.18-39.98-4.16-14.94-1.41-30.64-2.97-44.64-1.75-15.68-7.56-30.6-6.04-44.35,1.77-15.96,11.14-28.74,17.32-40.96,7.02-13.88,12.89-28.72,25.61-36.07,5.45-3.15,11.47-4.51,17.79-4.98-2.47-4.27-4.8-8.52-6.69-12.82-7.28-16.63-10.07-34.84-19.5-47.67-10.94-14.89-27.65-22.24-40.83-30.86-14.98-9.79-29.37-21.21-46.28-21.21s-31.3,11.41-46.28,21.21c-13.19,8.62-29.89,15.96-40.83,30.85-9.43,12.83-12.21,31.04-19.5,47.67-6.5,14.85-18.28,28.91-22.73,46.19-4.1,15.91-.79,33.95-2.89,51.45-1.98,16.46-9.59,33.13-9.59,50.63s7.61,34.18,9.59,50.63c2.1,17.51-1.2,35.55,2.89,51.46,4.45,17.28,16.23,31.34,22.73,46.19,7.28,16.63,10.07,34.84,19.5,47.67,10.94,14.89,27.65,22.23,40.83,30.86,14.98,9.79,29.37,21.2,46.28,21.2s31.3-11.41,46.28-21.2c13.18-8.62,29.88-15.97,40.83-30.85,9.43-12.83,12.22-31.04,19.5-47.67,1.65-3.78,3.65-7.5,5.78-11.25-5.83-5.91-11.66-11.98-15.85-19.24Z"/>
    <path class="cls-2" d="M155.67,8.73c13.18,8.62,29.88,15.97,40.83,30.85,9.43,12.83,12.22,31.04,19.5,47.67,6.11,13.96,16.88,27.22,21.85,43.12,2.09-2.04,4.38-3.86,6.97-5.35,5.45-3.15,11.47-4.52,17.79-4.99-2.46-4.27-4.8-8.51-6.69-12.82-7.28-16.63-10.07-34.84-19.5-47.67-10.94-14.89-27.64-22.23-40.83-30.86-13.49-8.82-26.51-18.95-41.32-20.88.46.3.93.61,1.4.92Z"/>
    <path class="cls-2" d="M235.99,345.87c-5.45,13.66-14.55,25.53-19.99,37.94-7.28,16.63-10.07,34.84-19.5,47.67-10.94,14.89-27.65,22.23-40.83,30.86-14.98,9.79-29.37,21.2-46.28,21.2-1.68,0-3.33-.12-4.96-.33,14.48,9.58,28.5,20.29,44.88,20.29s31.3-11.41,46.28-21.2c13.18-8.62,29.88-15.97,40.83-30.85,9.43-12.83,12.22-31.04,19.5-47.67,1.66-3.78,3.65-7.5,5.78-11.25-5.83-5.91-11.66-11.98-15.85-19.24-4.91-8.5-7.28-18.11-9.86-27.42Z"/>
    <path class="cls-4" d="M149.31,7.49c-13.41,0-25.23,7.18-37.03,15.03,5.94,14.62,20.28,24.92,37.03,24.92s31.08-10.31,37.02-24.92c-11.79-7.86-23.61-15.03-37.02-15.03Z"/>
    <path class="cls-4" d="M280.47,120.33c-12.73-.85-25.22-1.33-35.65,4.69s-16.26,17.09-21.89,28.53c11.33,7.77,26.56,8.87,39.25,1.54,12.69-7.33,19.34-21.06,18.29-34.76Z"/>
    <path d="M507.62,392.63c-3.33-15.7-3.52-18.74-3.43-32.37.08-12.27.03-23.16-4.27-34.69-1.45-3.87-5.76-5.84-9.63-4.39-3.87,1.45-5.84,5.76-4.39,9.63,3.45,9.23,3.4,18.96,3.33,29.36-.1,14.66.18,18.74,3.75,35.57,4.9,23.1,5.16,29.22-8.81,54.12-11.07,19.74-15.52,35.02-27.57,41.98-12.05,6.96-27.53,3.17-50.14,2.88-28.17-.35-33.47-3.41-51.28-19.43-12.76-11.48-16.16-13.77-28.92-21.03-20.8-11.83-23.89-15.55-34.43-34.25-9.03-16.02-11.94-19.71-23.77-31.69-15.8-15.99-18.23-20.35-24.11-41.76-4.45-16.19-6.19-20.57-15.56-36.43-10.83-18.32-12.61-22.85-12.45-46.95.1-14.64-.18-18.71-3.75-35.57-1.89-8.91-3.68-17.32-2.85-24.73,1.58-14.25,10.39-26.13,16.87-39.03,27.24,11.7,58.04-5.91,61.56-35.54,14.41.83,29.1-.85,42.23,4.9,11.15,4.89,21.1,17.11,33.96,26.57,11.7,8.61,26.41,14.05,36.27,24.1,9.03,9.21,14.4,24.06,23.89,36.71,8.98,11.98,21.77,21.15,28.73,33.19,7.88,13.65,8.1,29.45,16.94,46.93,1.87,3.69,6.37,5.17,10.06,3.3,3.69-1.86,5.17-6.37,3.3-10.06-8.04-15.91-8.13-31.72-17.33-47.66-8.3-14.39-21.35-23.53-29.71-34.68-8.81-11.76-14.28-27.1-25.18-38.22-11.88-12.12-27.08-17.57-38.08-25.67-12.36-9.1-22.76-22.06-36.82-28.23-16.3-7.15-33.16-5.35-46.72-6.1-7.31-.41-14.91-1.17-22.42-1.04-11.12-20.19-12.54-41.09-24.41-57.24-12.22-16.63-28.27-22.92-48.64-36.6C180.31,9.45,166.84.44,150.51.02c-17.34-.45-31.34,8.86-45.69,18.5-20.37,13.68-36.42,19.97-48.64,36.6-6.62,9.01-10.23,20.11-13.72,30.84-5.74,17.65-7.33,20.84-15.31,34.45-15.45,26.35-17.1,34.67-16.81,62.26.21,19.77-.42,23.73-4.93,41.02-7.17,27.46-7.23,35.95,0,63.63,4.51,17.27,5.14,21.24,4.93,41.02-.28,27.55,1.35,35.87,16.81,62.25,5.92,10.11,8.37,14.43,11.96,24.51,1.39,3.89,5.67,5.92,9.56,4.53,3.89-1.39,5.93-5.67,4.54-9.56-8.63-24.19-21.22-35.85-25.98-54.35-3.75-14.55-.55-32.51-2.71-50.48-2.05-17.08-9.54-33.5-9.54-49.74s7.48-32.6,9.54-49.73c2.16-18.02-1.05-35.88,2.71-50.48,4.1-15.92,15.65-29.79,22.34-45.06,7.39-16.87,10.2-34.71,18.68-46.24,10.07-13.71,25.77-20.28,41.3-30.61,18.64,28.76,60.94,28.71,79.55,0,15.52,10.32,31.22,16.9,41.3,30.62,9.14,12.44,11.84,32.72,20.63,50.41-21.8,6.06-29.07,24.69-38.49,43.32-6.12,12.11-16.12,25.81-18.08,43.51-1.69,15.26,4.34,30.75,6.04,46,1.5,13.5-1.33,29.56,3.19,45.82,1.98,7.13,5.43,13.7,9.08,20.03-.37,30.71,1.69,33.27-8.12,62.14-4.51,13.26-5.6,17.03-8.88,34.43-1.79,9.49-3.48,18.44-6.35,25.17-1.62,3.81.15,8.2,3.95,9.82,3.82,1.63,8.21-.16,9.82-3.95,5.52-12.96,6.97-30.03,10.89-45.43,4.1-16.14,11.85-30.27,13.3-52.26,6.79,22.58,7.15,31.96,25.09,50.78-10.32,19.5-12.51,40.21-22.08,53.24-7.47,10.17-18.35,16.63-28.87,22.88-22.48,13.35-35.77,26.13-52.2,26.13s-29.83-12.84-52.2-26.13c-12.76-7.58-25.07-14.99-32.13-28.11-1.96-3.64-6.5-5-10.14-3.04-3.64,1.96-5.01,6.5-3.04,10.14,8.62,16.02,22.25,24.73,37.66,33.89,22.4,13.31,38.01,28.23,59.85,28.23s37.45-14.94,59.85-28.23c11.26-6.69,24.01-14.27,33.29-26.88,10.73-14.6,13.52-34.58,21.06-50.73,13.8,14.87,18.07,31.86,30.74,44.79,7.43,7.57,16.15,12.53,24.59,17.33,11.84,6.73,14.38,8.41,26.32,19.15,20.19,18.17,28.69,22.87,61.1,23.27,22.85.29,41.08,4.78,57.81-4.88,14.86-8.58,21.24-24.71,28.55-39.17,6.11-12.09,16.12-25.81,18.08-43.51,1.09-9.81-1.03-19.81-3.08-29.49ZM122.03,25.11c21.46-13.51,33.1-13.52,54.57,0-12.75,19.81-41.85,19.77-54.57,0ZM232.9,150.43c9.96-18.85,18.37-23.83,39.88-23.03-2.77,18.81-22.2,30.03-39.88,23.03Z"/>
    <path d="M131.19,205.04c.1-4.13-3.18-7.56-7.31-7.66-4.14-.11-7.56,3.18-7.66,7.31-.39,16.58-1.86,32.98-1.86,50.8s1.48,34.39,1.86,50.81c.4,17.2-.24,35.54.57,51.66.88,17.72,3.16,31.56,4.42,46.45.35,4.11,3.95,7.17,8.09,6.83,4.12-.35,7.18-3.97,6.83-8.09-2.19-25.89-4.88-30.42-4.79-74.71.11-53.99-3.62-50.88-1.01-102.48.35-6.86.71-13.96.87-20.91Z"/>
    <path d="M68.19,226.54c-1.41,9.29-2.86,18.89-2.86,28.95,0,4.14,3.35,7.49,7.49,7.49s7.49-3.35,7.49-7.49c0-8.94,1.37-17.97,2.69-26.71,2.58-17.03,2.99-21.71,2.88-41.16-.14-23.6.44-29.28,8.12-51.86,4.53-13.31,5.61-17.07,8.88-34.43,1.79-9.49,3.48-18.45,6.35-25.17,1.62-3.81-.15-8.2-3.95-9.82-3.8-1.62-8.2.15-9.82,3.95-3.5,8.22-5.34,17.96-7.29,28.27-3.15,16.67-4.05,19.76-8.35,32.39-8.24,24.25-9.06,31.58-8.91,56.77.11,18.62-.24,22.51-2.71,38.83Z"/>
    <path d="M348.8,201.23c2.66-3.17,2.25-7.89-.91-10.55-30.9-25.98-58.66-34.16-78.2-23.04-22.45,12.55-24.26,45.31-20.86,71.05,12.6,95.47,104.46,221.8,167.71,221.8,7.47,0,14.06-1.88,19.32-5.01,49.74-29.13,8.71-159.93-62.26-239.59-2.75-3.09-7.48-3.36-10.57-.61-3.08,2.75-3.36,7.48-.61,10.57,50.59,56.78,88.86,146.44,78.78,195.16-14.39-65.07-91.1-196.82-138.91-240.67,10.74,3.57,23.07,10.96,35.97,21.81,3.16,2.66,7.88,2.25,10.55-.91ZM263.67,236.73c-1.78-13.45-1.64-25.1.28-34.4,14.37,64.95,91.09,196.89,139,240.75-53.21-17.61-128.06-121.31-139.28-206.35ZM311.95,212.69c38.71,46.67,84.93,126.7,106.04,183.66,11.05,29.81,11.15,42.61,10.03,46-3.5-.73-14.53-7.22-34.82-31.69-38.71-46.68-84.93-126.7-106.03-183.66-11.05-29.81-11.15-42.6-10.04-46,3.5.73,14.53,7.22,34.82,31.69Z"/>
  </g>
</svg>