<?xml version="1.0" encoding="UTF-8"?>
<svg id="Layer_2" data-name="Layer 2" xmlns="http://www.w3.org/2000/svg" viewBox="0 0 508.68 512">
  <defs>
    <style>
      .cls-1 {
        fill: #edc918;
      }

      .cls-2 {
        fill: #fce160;
      }

      .cls-3 {
        fill: #d0daf5;
      }
    </style>
  </defs>
  <g id="Capa_1" data-name="Capa 1">
    <g>
      <g>
        <path class="cls-2" d="M501.18,246.46c0-92.87-75.29-238.96-168.16-238.96s-168.16,146.09-168.16,238.96,75.29,168.16,168.16,168.16,168.16-75.29,168.16-168.16h0Z"/>
        <path class="cls-1" d="M382.32,407.28c-15.59,4.77-32.14,7.34-49.29,7.34-92.88,0-168.17-75.29-168.17-168.16S240.14,7.5,333.02,7.5c17.15,0,33.7,4.99,49.29,13.69-68.82,38.45-118.88,149.55-118.88,225.27s50.05,139.75,118.88,160.82h0Z"/>
        <path class="cls-3" d="M7.5,336.34c0-92.87,75.29-238.96,168.16-238.96s168.16,146.09,168.16,238.96-75.29,168.16-168.16,168.16S7.5,429.21,7.5,336.34h0Z"/>
        <path class="cls-2" d="M196.96,503.18c-6.98.88-14.08,1.33-21.29,1.33-92.88,0-168.17-75.29-168.17-168.17S82.79,97.38,175.67,97.38c7.21,0,14.31.88,21.29,2.55C114.13,119.73,50.08,250.67,50.08,336.34s64.06,156.37,146.88,166.84h0Z"/>
        <circle class="cls-2" cx="175.66" cy="336.34" r="89.88"/>
        <path class="cls-1" d="M198.27,423.35c-7.22,1.87-14.79,2.87-22.6,2.87-49.64,0-89.88-40.24-89.88-89.88s40.24-89.87,89.88-89.87c7.81,0,15.38,1,22.6,2.87-38.7,10.02-67.27,45.18-67.27,87s28.57,76.99,67.27,87.01Z"/>
      </g>
      <g>
        <path d="M464.62,98.62c-2.08-3.58-6.67-4.81-10.25-2.73-3.58,2.08-4.81,6.67-2.73,10.25,22.84,39.4,38.05,85.8,41.36,124.88l-22.37,18.4-41.43-34.06c-2.77-2.28-6.76-2.28-9.53,0l-41.43,34.06-41.43-34.06c-2.77-2.28-6.76-2.28-9.53,0l-4.36,3.58c-6.43-14.15-13.81-27.93-22.01-40.91-24.4-38.59-52.74-65.4-82.46-78.64,32.97-53.74,74.4-84.38,114.57-84.38,34,0,69.46,22.27,99.86,62.7,2.49,3.31,7.19,3.98,10.5,1.49,3.31-2.49,3.98-7.19,1.49-10.5-15.71-20.89-32.74-37.39-50.62-49.04C374.23,6.61,353.63,0,333.02,0c-46.16,0-92.9,34.2-128.9,94.08-9.42-2.77-18.93-4.2-28.46-4.2-44.83,0-89.31,31.3-125.25,88.15C19.32,227.2,0,287.87,0,336.34c0,96.86,78.8,175.66,175.66,175.66,65.74,0,123.16-36.31,153.27-89.93,1.36.03,2.73.05,4.09.05,96.86,0,175.66-78.8,175.66-175.66,0-44.3-16.88-100.95-44.06-147.84h0ZM175.66,497c-88.59,0-160.66-72.07-160.66-160.66,0-45.1,18.88-104.09,48.09-150.3,15.41-24.38,33.26-44.57,51.62-58.39,20.07-15.11,40.57-22.77,60.94-22.77s40.88,7.66,60.94,22.77c18.36,13.82,36.21,34.01,51.62,58.39,29.22,46.21,48.09,105.2,48.09,150.3,0,88.59-72.07,160.66-160.66,160.66ZM336.43,407.08c9.57-21.66,14.89-45.59,14.89-70.74,0-31.38-8.1-67.86-22.25-103.04l2.97-2.44,41.43,34.06c2.77,2.28,6.76,2.28,9.53,0l41.43-34.06,41.43,34.06c1.38,1.14,3.07,1.71,4.76,1.71s3.38-.57,4.76-1.71l18.25-15.01c-1.82,85.87-71.34,155.37-157.21,157.17Z"/>
        <path d="M175.66,238.96c-53.69,0-97.37,43.68-97.37,97.37,0,16.96,4.42,33.64,12.78,48.25,2.06,3.6,6.64,4.84,10.23,2.78,3.6-2.06,4.84-6.64,2.78-10.24-7.06-12.34-10.8-26.45-10.8-40.79,0-45.42,36.95-82.37,82.37-82.37s82.38,36.95,82.38,82.37-36.96,82.38-82.38,82.38c-18.64,0-36.22-6.07-50.84-17.56-3.26-2.56-7.97-2-10.53,1.26-2.56,3.26-1.99,7.97,1.26,10.53,17.29,13.58,38.07,20.76,60.1,20.76,53.7,0,97.38-43.69,97.38-97.38,0-53.69-43.68-97.37-97.38-97.37h0Z"/>
      </g>
    </g>
  </g>
</svg>