<?xml version="1.0" encoding="UTF-8"?>
<svg id="Layer_2" data-name="Layer 2" xmlns="http://www.w3.org/2000/svg" viewBox="0 0 512 511.99">
  <defs>
    <style>
      .cls-1 {
        fill: #735d09;
      }

      .cls-2 {
        fill: #c09c0f;
      }

      .cls-3 {
        fill: #edc918;
      }

      .cls-4 {
        fill: #fce160;
      }

      .cls-5 {
        fill: #ffde16;
      }
    </style>
  </defs>
  <g id="Capa_1" data-name="Capa 1">
    <g>
      <g>
        <circle class="cls-5" cx="328.15" cy="264" r="48.1"/>
        <path class="cls-1" d="M304.24,200.8c-.91-5.49-7.38-8.04-12.13-5.14-8.68,5.28-16.09,13.3-20.83,23.5-3.39,7.3-5.05,14.92-5.15,22.34l23.93,5.38c3.87-4.13,7.18-8.98,9.73-14.46,4.83-10.39,6.14-21.42,4.45-31.61Z"/>
        <circle class="cls-5" cx="199.89" cy="255.99" r="48.1"/>
        <path class="cls-1" d="M166.12,263.22c-6.37-10.43-15.04-18.35-24.56-23.34-5.49-2.88-11.91,1.26-11.84,7.46.14,10.68,3.24,21.93,9.57,32.28l34.09.14c-1.58-5.62-3.99-11.2-7.26-16.54h0Z"/>
        <circle class="cls-2" cx="159.81" cy="344.16" r="72.14"/>
        <path class="cls-1" d="M183.86,400.28c-39.85,0-72.14-32.3-72.14-72.14,0-19.8,7.99-37.73,20.91-50.77-26.36,10.74-44.96,36.58-44.96,66.8,0,39.84,32.3,72.14,72.14,72.14,20.04,0,38.16-8.18,51.24-21.37-8.4,3.42-17.56,5.34-27.19,5.34h0Z"/>
        <circle class="cls-1" cx="344.18" cy="352.18" r="80.16"/>
        <circle class="cls-2" cx="264.02" cy="320.11" r="80.16"/>
        <path class="cls-1" d="M284.06,380.24c-44.27,0-80.16-35.89-80.16-80.16,0-17.01,5.34-32.76,14.38-45.74-20.79,14.48-34.42,38.53-34.42,65.78,0,44.27,35.89,80.16,80.16,80.16,27.26,0,51.3-13.63,65.78-34.42-12.98,9.04-28.73,14.38-45.74,14.38Z"/>
        <path class="cls-2" d="M472.44,388.25c-11.07,0-20.04-8.97-20.04-20.04v-64.13c0-108.3-88.1-196.4-196.4-196.4-119,0-196.4,83.3-196.4,196.4v64.13c0,11.07-8.97,20.04-20.04,20.04s-20.04-8.97-20.04-20.04v-64.13c0-130.4,106.08-236.48,236.48-236.48s236.48,106.08,236.48,236.48v64.13c0,11.07-8.97,20.04-20.04,20.04Z"/>
        <path class="cls-4" d="M23.53,384.24l36,90.01c7.3,18.26,24.99,30.23,44.66,30.23h303.62c19.67,0,37.35-11.97,44.66-30.23l36-90.01-16.03-16.03H39.57s-16.04,16.02-16.04,16.02Z"/>
        <path class="cls-3" d="M143.77,408.29h338.28l6.41-24.05-16.03-16.03H39.57s-16.04,16.02-16.04,16.02l36,90.01c7.24,18.1,24.69,29.99,44.16,30.2v-56.08c0-22.14,17.94-40.08,40.08-40.08h0Z"/>
        <g>
          <path class="cls-4" d="M488.47,352.18H23.53c-8.85,0-16.03,7.18-16.03,16.03s7.18,16.03,16.03,16.03h464.93c8.85,0,16.03-7.18,16.03-16.03,0-8.86-7.18-16.03-16.03-16.03Z"/>
          <path class="cls-4" d="M210.99,112.95c14.46-3.4,29.52-5.26,45.01-5.26s30.54,1.86,45.01,5.26l12.73-38.19c-18.49-4.66-37.82-7.16-57.74-7.16s-39.25,2.5-57.74,7.16l12.73,38.19Z"/>
        </g>
      </g>
      <path d="M512,368.21c0-10.35-6.72-19.16-16.03-22.3v-41.83c0-64.1-24.96-124.36-70.29-169.68-35.09-35.09-79.14-57.96-126.98-66.51,23.67-13.8,27.05-17.18,28.49-18.61,5.45-5.45,8.46-12.71,8.46-20.42s-3-14.97-8.46-20.42c-11.26-11.26-29.58-11.26-40.84,0-1.69,1.69-6.58,6.58-30.35,49.08-23.77-42.5-28.66-47.39-30.35-49.08-11.26-11.26-29.58-11.26-40.84,0-5.46,5.45-8.46,12.71-8.46,20.42s3,14.96,8.46,20.42c1.43,1.44,4.81,4.81,28.49,18.61-47.85,8.54-91.89,31.42-126.98,66.51-45.32,45.32-70.29,105.58-70.29,169.68v41.83c-9.31,3.14-16.03,11.95-16.03,22.3,0,11.14,7.79,20.5,18.21,22.92l34.36,85.91c8.49,21.23,28.75,34.95,51.62,34.95h303.62c22.87,0,43.13-13.72,51.62-34.95l34.36-85.91c10.42-2.42,18.21-11.77,18.21-22.92h0ZM480.97,304.08v40.6h-17.06v-40.6c0-95.26-64.4-175.75-151.95-200.25l5.43-16.28c36.57,10.31,70.09,29.85,97.7,57.45,42.49,42.49,65.89,98.99,65.89,159.08h0ZM214.67,100.26l-5.43-16.29c15.21-3.2,30.86-4.85,46.76-4.85s31.55,1.66,46.76,4.85l-5.45,16.34c-13.36-2.7-27.17-4.13-41.32-4.13s-27.86,1.38-41.33,4.08ZM296.96,19.05c5.41-5.41,14.21-5.41,19.62,0,2.62,2.62,4.07,6.11,4.07,9.81s-1.44,7.19-4.07,9.81c-1.14,1.15-7.61,6.39-42.65,26.1-1.54-.11-3.09-.2-4.64-.28,16.55-29.54,25.13-42.9,27.66-45.44h0ZM195.42,38.67c-2.62-2.62-4.07-6.11-4.07-9.81s1.44-7.19,4.07-9.81c5.41-5.41,14.21-5.41,19.62,0,2.54,2.53,11.11,15.89,27.66,45.44-1.55.08-3.1.17-4.64.28-35.04-19.71-41.5-24.95-42.65-26.1h0ZM96.92,145.01c27.61-27.61,61.13-47.14,97.7-57.45l5.4,16.21c-24.64,6.85-47.86,18.28-68.77,33.98-3.31,2.49-3.98,7.19-1.49,10.5,2.49,3.31,7.19,3.98,10.5,1.49,33.59-25.23,73.61-38.56,115.74-38.56,106.37,0,192.9,86.54,192.9,192.9v40.6h-17.39c-2.66-31.23-21.77-57.85-48.6-71.12.54-3.14.83-6.35.83-9.55,0-30.66-24.94-55.6-55.6-55.6-5.15,0-10.25.74-15.17,2.13.1-7.6-1.37-15.22-4.44-22.37-1.51-3.51-5.42-5.33-9.08-4.22-14.87,4.52-27.14,15.16-33.65,29.18-2.87,6.18-4.51,12.69-4.94,19.38-3.44.12-6.82.44-10.15.94-8.84-19.93-28.8-33.07-50.83-33.07s-42.53,13.52-51.14,33.76c-5.12-2.82-10.71-4.85-16.58-5.93-3.76-.69-7.44,1.56-8.54,5.22-3.85,12.82-2.85,26.53,2.64,38.51-27.21,12.68-46.11,40.28-46.11,72.22,0,.17,0,.35,0,.52h-17.07v-40.6c0-50.2,19.18-97.74,54.01-133.87,2.88-2.98,2.79-7.73-.19-10.6-2.98-2.88-7.73-2.79-10.6.19-37.54,38.94-58.21,90.18-58.21,144.28v40.6h-17.07v-40.6c0-60.09,23.4-116.58,65.89-159.08h0ZM195.67,344.68c-2.85-7.89-4.31-16.13-4.31-24.57,0-40.07,32.6-72.66,72.66-72.66s72.66,32.6,72.66,72.66c0,8.43-1.46,16.67-4.31,24.57h-136.69ZM95.17,344.68c0-.17,0-.35,0-.52,0-35.65,29-64.65,64.65-64.65,8.44,0,16.56,1.6,24.23,4.72-4.93,10.96-7.68,23.1-7.68,35.88,0,8.38,1.18,16.61,3.52,24.57h-84.7ZM136.54,244.96c8.09,3.11,15.01,8.8,19.57,16.25.67,1.09,1.27,2.21,1.82,3.35-6.01.14-11.85.93-17.46,2.34-3.39-6.78-4.75-14.41-3.94-21.94h0ZM191.41,271.05c-5.41-2.33-11.08-4.06-16.88-5.15-1.33-4.37-3.21-8.57-5.62-12.5-2.19-3.58-4.78-6.85-7.69-9.8,5.33-16.73,20.88-28.21,38.67-28.21,15.17,0,29,8.54,35.94,21.71-18.24,6.21-33.8,18.27-44.42,33.94h0ZM328.15,223.41c22.39,0,40.6,18.21,40.6,40.6,0,1.33-.08,2.65-.2,3.96-7.74-2.24-15.91-3.45-24.36-3.45-3.94,0-7.89.28-11.79.8-7.98-9.94-18.08-18.11-29.61-23.81,1.98-2.75,3.7-5.69,5.15-8.8.76-1.63,1.42-3.29,2.01-4.98,5.62-2.82,11.87-4.32,18.2-4.32h0ZM294.33,226.38c-1.61,3.46-3.68,6.63-6.17,9.45-3.99-1.15-8.1-2.01-12.3-2.58.33-4.76,1.52-9.39,3.56-13.8,3.68-7.93,9.91-14.36,17.6-18.37,1.9,8.46.99,17.37-2.69,25.3h0ZM341.72,279.57c.82-.03,1.64-.05,2.46-.05,37.53,0,68.51,28.61,72.27,65.16h-68.29c2.34-7.96,3.52-16.18,3.52-24.57,0-14.62-3.6-28.42-9.96-40.55h0ZM488.47,376.74h-48.1c-4.14,0-7.5,3.36-7.5,7.5s3.36,7.5,7.5,7.5h37.02l-31.89,79.72c-6.2,15.5-21,25.52-37.69,25.52H104.19c-16.7,0-31.49-10.02-37.69-25.52l-31.89-79.72h373.7c4.14,0,7.5-3.36,7.5-7.5s-3.36-7.5-7.5-7.5H23.73c-.06,0-.12,0-.18,0h-.01c-4.7,0-8.53-3.83-8.53-8.53s3.83-8.53,8.53-8.53h464.94c4.7,0,8.53,3.83,8.53,8.53s-3.83,8.53-8.53,8.53h0Z"/>
    </g>
  </g>
</svg>