<?xml version="1.0" encoding="UTF-8"?>
<svg id="Layer_2" data-name="Layer 2" xmlns="http://www.w3.org/2000/svg" viewBox="0 0 512 494.46">
  <defs>
    <style>
      .cls-1 {
        fill: #efc643;
      }

      .cls-2 {
        fill: #131319;
      }

      .cls-3 {
        fill: #1f3573;
      }

      .cls-4 {
        isolation: isolate;
        opacity: .1;
      }

      .cls-5 {
        fill: #edc918;
      }

      .cls-6 {
        fill: #fce160;
      }

      .cls-7 {
        fill: #d0daf5;
      }
    </style>
  </defs>
  <g id="Gift_Discount" data-name="Gift Discount">
    <g>
      <g>
        <path class="cls-3" d="M233.09,86.81c6.62,14.44,15.63,34.06,48.25,58.19,23.99,17.75,67.71,28.93,83.07,4.48,9.78-15.57,5.94-43.64-4.82-63.54,10.76-19.9,14.6-47.97,4.82-63.54-15.36-24.45-59.07-13.27-83.07,4.48-32.62,24.14-41.63,43.75-48.25,58.19.37.31.37,1.44,0,1.75h0Z"/>
        <path class="cls-2" d="M334.28,171.85c-20.89,0-43.67-9.72-57.84-20.21-34.35-25.41-43.89-46.2-50.85-61.38l-.5-1.1-2.15-1.77.67-1.44-.63-1.38,2.61-2.94c6.97-15.19,16.5-35.98,50.85-61.39,16.69-12.36,45.31-23.7,68.74-19.24,11.53,2.17,20.6,8.06,26.23,17,11.37,18.12,7.44,46.99-2.56,67.94,10,20.95,13.94,49.82,2.56,67.94-5.63,8.94-14.7,14.83-26.23,17-3.53.67-7.19.98-10.9.98ZM241.78,85.94c6.42,13.85,15.37,30.88,44.47,52.42,14.37,10.63,38.18,19.62,55.88,16.28,7.08-1.34,12.08-4.47,15.28-9.57,7.47-11.88,5.23-36.13-5.08-55.22l-2.13-3.93,2.13-3.93c10.31-19.08,12.55-43.34,5.08-55.22-3.19-5.1-8.19-8.23-15.28-9.57-17.71-3.32-41.51,5.65-55.86,16.28-29.12,21.53-38.06,38.57-44.49,52.44h0Z"/>
      </g>
      <g>
        <path class="cls-3" d="M212.57,86.82c-6.61,14.4-15.58,34.1-48.21,58.2-23.96,17.79-67.76,28.96-83.04,4.41-9.85-15.58-6.03-43.65,4.7-63.5-5.59-10.29-9.26-22.78-10.29-34.54-.73-11.02.88-21.46,5.59-28.95,10.88-17.49,36.45-16.9,58.79-8.53,8.97,3.23,17.34,7.79,24.25,12.93,32.63,24.11,41.6,43.8,48.21,58.2-.29.29-.29,1.47,0,1.76h0Z"/>
        <path class="cls-2" d="M111.4,171.85c-3.72,0-7.38-.31-10.92-.98-11.53-2.17-20.59-8.06-26.21-17-11.37-18.12-7.44-46.99,2.56-67.94-9.99-20.95-13.93-49.82-2.56-67.94,5.62-8.94,14.69-14.83,26.21-17,23.41-4.42,52.06,6.88,68.76,19.24,34.34,25.41,43.88,46.2,50.85,61.39l.55,1.19,2.06,1.75-.63,1.38.67,1.44-2.65,2.87c-6.96,15.18-16.5,35.97-50.85,61.38-14.18,10.49-36.96,20.21-57.84,20.21h0ZM111.55,16.51c-2.77,0-5.45.23-8.01.71-7.09,1.34-12.09,4.47-15.29,9.57-7.46,11.88-5.23,36.13,5.1,55.22l2.12,3.93-2.12,3.93c-10.32,19.08-12.56,43.34-5.1,55.22,3.2,5.1,8.2,8.23,15.29,9.57,17.72,3.37,41.51-5.65,55.87-16.28,29.1-21.54,38.05-38.57,44.47-52.42-6.43-13.87-15.37-30.91-44.47-52.44-12.28-9.09-31.48-16.99-47.86-16.99Z"/>
      </g>
      <g>
        <circle class="cls-1" cx="222.83" cy="85.93" r="49.81" transform="translate(113.1 298.06) rotate(-83.74)"/>
        <path class="cls-2" d="M222.83,144c-32.02,0-58.07-26.04-58.07-58.07s26.04-58.07,58.07-58.07,58.07,26.04,58.07,58.07-26.04,58.07-58.07,58.07h0ZM222.83,44.38c-22.91,0-41.55,18.64-41.55,41.55s18.64,41.55,41.55,41.55,41.55-18.64,41.55-41.55-18.64-41.55-41.55-41.55h0Z"/>
      </g>
      <g>
        <path class="cls-6" d="M370.77,432.06H74.89c-24,0-43.46-19.46-43.46-43.46V108.98h382.81v279.61c0,24-19.46,43.46-43.46,43.46h0Z"/>
        <path class="cls-5" d="M414.22,109v279.5c0,24.18-19.55,43.55-43.38,43.55H74.87c-24.01,0-43.38-19.38-43.38-43.55v-32.07c93.45,33.61,193.93,19.03,259.09-38.24,56.07-49.04,83.51-127.4,78.36-209.19h45.27Z"/>
        <path class="cls-2" d="M370.72,440.34H74.84c-28.46,0-51.61-23.23-51.61-51.77V100.76h399.25v287.82c0,28.54-23.23,51.77-51.77,51.77h0ZM39.75,117.27v271.3c0,19.44,15.74,35.25,35.09,35.25h295.88c19.44,0,35.25-15.81,35.25-35.25V117.27H39.75Z"/>
      </g>
      <g>
        <path class="cls-6" d="M437.36,111.57v62.24c0,14.23-11.49,25.72-25.55,25.72H33.89c-14.23,0-25.72-11.49-25.72-25.72v-62.24c0-14.23,11.49-25.72,25.72-25.72h377.92c14.06,0,25.55,11.49,25.55,25.72Z"/>
        <path class="cls-5" d="M437.36,111.57v62.24c0,14.23-11.49,25.72-25.55,25.72h-51.1c9.26-35.84,11.32-74.59,5.66-113.69h45.44c14.06,0,25.55,11.49,25.55,25.72h0Z"/>
        <path class="cls-2" d="M411.72,207.81H33.84c-18.66,0-33.84-15.24-33.84-33.98v-62.32c0-18.66,15.18-33.84,33.84-33.84h377.89c18.74,0,33.99,15.18,33.99,33.84v62.32c0,18.74-15.24,33.98-33.99,33.98ZM33.84,94.2c-9.55,0-17.32,7.77-17.32,17.32v62.32c0,9.63,7.77,17.46,17.32,17.46h377.89c9.63,0,17.47-7.83,17.47-17.46v-62.32c0-9.55-7.84-17.32-17.47-17.32H33.84Z"/>
      </g>
      <g>
        <path class="cls-3" d="M177.52,85.93h90.62v346.13h-90.62V85.93Z"/>
        <path class="cls-4" d="M268.12,335.34v96.71h-90.54v-61.73c32.92-5.49,63.79-17.32,90.54-34.98Z"/>
        <path class="cls-2" d="M276.41,440.31h-107.15V77.67h107.15v362.64ZM185.78,423.79h74.11V94.19h-74.11v329.6Z"/>
      </g>
      <g>
        <path class="cls-7" d="M410.51,272.41l13.71,9.96c3.22,2.34,7.1,3.6,11.08,3.6h16.94c8.17,0,15.41,5.26,17.93,13.03l5.23,16.11c1.23,3.79,3.63,7.09,6.85,9.43l13.71,9.96c6.61,4.8,9.37,13.31,6.85,21.08l-5.23,16.11c-1.23,3.79-1.23,7.87,0,11.65l5.23,16.11c2.52,7.77-.24,16.28-6.85,21.08l-13.71,9.96c-3.22,2.34-5.62,5.64-6.85,9.43l-5.23,16.11c-2.52,7.77-9.76,13.03-17.93,13.03h-16.94c-3.98,0-7.86,1.26-11.08,3.6l-13.71,9.96c-6.61,4.8-15.55,4.8-22.16,0l-13.71-9.96c-3.22-2.34-7.1-3.6-11.08-3.6h-16.94c-8.17,0-15.41-5.26-17.93-13.03l-5.23-16.11c-1.23-3.79-3.63-7.09-6.85-9.43l-13.71-9.96c-6.61-4.8-9.37-13.31-6.85-21.08l5.23-16.11c1.23-3.79,1.23-7.87,0-11.65l-5.23-16.11c-2.52-7.77.24-16.28,6.85-21.08l13.71-9.96c3.22-2.34,5.62-5.64,6.85-9.43l5.23-16.11c2.52-7.77,9.76-13.03,17.93-13.03h16.94c3.98,0,7.86-1.26,11.08-3.6l13.71-9.96c6.61-4.8,15.55-4.8,22.16,0h0Z"/>
        <g>
          <path class="cls-2" d="M371.17,437.55c-1.34,0-2.69-.32-3.95-1.02-4-2.18-5.48-7.19-3.29-11.2l56.52-103.58c2.19-4.02,7.18-5.5,11.2-3.29,4,2.18,5.48,7.19,3.29,11.2l-56.52,103.58c-1.5,2.76-4.32,4.31-7.24,4.31ZM372.1,326.95c-6.97,0-12.62,5.65-12.62,12.62s5.65,12.62,12.62,12.62,12.62-5.65,12.62-12.62-5.65-12.62-12.62-12.62ZM426.77,402.82c-6.97,0-12.62,5.65-12.62,12.62s5.65,12.62,12.62,12.62,12.62-5.65,12.62-12.62-5.65-12.62-12.62-12.62Z"/>
          <path class="cls-2" d="M399.43,494.46c-5.58,0-11.16-1.73-15.92-5.16l-13.71-9.99c-1.82-1.32-3.97-2.02-6.23-2.02h-16.94c-11.78,0-22.13-7.52-25.79-18.71l-5.23-16.13c-.69-2.13-2.03-3.97-3.86-5.27l-13.7-9.99c-9.53-6.9-13.5-19.08-9.86-30.29l5.24-16.12c.68-2.11.68-4.44,0-6.55l-5.24-16.12c-3.63-11.21.34-23.39,9.86-30.31l13.7-9.95c1.82-1.32,3.15-3.16,3.86-5.32l5.23-16.08c3.65-11.21,14.02-18.74,25.79-18.74h16.94c2.26,0,4.4-.69,6.23-2.03l13.7-9.94c9.52-6.94,22.36-6.94,31.88,0l13.71,9.95c1.79,1.31,4,2.02,6.23,2.02h16.94c11.79,0,22.15,7.53,25.78,18.74l5.24,16.08c.69,2.18,2.02,4,3.84,5.31l13.71,9.97c9.53,6.94,13.49,19.13,9.84,30.33l-5.23,16.1c-.71,2.15-.71,4.39,0,6.53l5.23,16.13c3.65,11.2-.31,23.37-9.84,30.29l-13.71,9.97c-1.82,1.32-3.15,3.15-3.84,5.29l-5.24,16.12c-3.63,11.2-13.99,18.73-25.78,18.73h-16.94c-2.23,0-4.44.71-6.21,2.02l-13.73,9.97c-4.77,3.45-10.36,5.18-15.94,5.18h0ZM346.63,294.22c-4.6,0-8.66,2.95-10.08,7.34l-5.23,16.08c-1.81,5.52-5.21,10.21-9.86,13.58l-13.7,9.94c-3.73,2.71-5.28,7.47-3.86,11.86l5.24,16.12c1.77,5.47,1.77,11.26,0,16.74l-5.24,16.12c-1.42,4.39.13,9.13,3.84,11.82l13.71,9.99c4.65,3.37,8.05,8.05,9.86,13.53l5.23,16.13c1.42,4.37,5.48,7.31,10.08,7.31h16.94c5.76,0,11.26,1.79,15.94,5.16l13.7,9.99c3.71,2.68,8.73,2.71,12.47-.02l13.7-9.95c4.58-3.34,10.24-5.18,15.94-5.18h16.94c4.6,0,8.65-2.94,10.07-7.31l5.24-16.12c1.77-5.48,5.18-10.18,9.84-13.57l13.71-9.95c3.73-2.71,5.27-7.45,3.84-11.82l-5.23-16.13c-1.79-5.48-1.79-11.29.02-16.78l5.21-16.08c1.42-4.39-.11-9.15-3.86-11.86l-13.7-9.95c-4.66-3.37-8.07-8.07-9.84-13.57l-5.24-16.08c-1.42-4.4-5.47-7.34-10.07-7.34h-16.94c-5.69,0-11.36-1.84-15.95-5.18l-13.7-9.95c-3.71-2.71-8.74-2.71-12.45,0l-13.7,9.95c-4.68,3.39-10.18,5.18-15.94,5.18h-16.94Z"/>
        </g>
      </g>
    </g>
  </g>
</svg>