<svg id="Capa_1" enable-background="new 0 0 511.994 511.994" height="512" viewBox="0 0 511.994 511.994" width="512" xmlns="http://www.w3.org/2000/svg"><g><g><path d="m502.833 246.459c0-92.872-75.288-238.959-168.161-238.959s-168.16 146.086-168.16 238.959 75.288 168.16 168.16 168.16 168.161-75.288 168.161-168.16z" fill="#f3eae6"/><path d="m383.972 407.28c-15.591 4.767-32.142 7.336-49.293 7.336-92.879 0-168.167-75.288-168.167-168.157s75.288-238.958 168.167-238.958c17.15 0 33.701 4.987 49.293 13.692-68.822 38.449-118.875 149.548-118.875 225.266s50.053 139.752 118.875 160.821z" fill="#e1d3ce"/><path d="m9.157 336.333c0-92.872 75.288-238.959 168.161-238.959s168.161 146.086 168.161 238.959-75.288 168.161-168.161 168.161-168.161-75.288-168.161-168.161z" fill="#f8f6f6"/><path d="m198.613 503.171c-6.976.88-14.082 1.329-21.288 1.329-92.879 0-168.167-75.288-168.167-168.167 0-92.869 75.288-238.958 168.167-238.958 7.206 0 14.312.88 21.288 2.549-82.824 19.809-146.879 150.747-146.879 236.409 0 85.673 64.055 156.373 146.879 166.838z" fill="#f3eae6"/><circle cx="177.318" cy="336.333" fill="#fee45a" r="89.874"/><path d="m199.922 423.345c-7.216 1.869-14.792 2.868-22.598 2.868-49.642 0-89.88-40.238-89.88-89.88 0-49.633 40.238-89.87 89.88-89.87 7.806 0 15.382.999 22.598 2.868-38.699 10.024-67.273 45.175-67.273 87.002 0 41.837 28.574 76.987 67.273 87.012z" fill="#ffd15b"/></g><g><path d="m466.275 98.619c-2.078-3.583-6.667-4.805-10.25-2.728-3.584 2.077-4.806 6.666-2.729 10.25 22.837 39.402 38.049 85.802 41.355 124.876l-22.372 18.397-41.432-34.063c-2.768-2.275-6.758-2.275-9.525 0l-41.432 34.063-41.43-34.064c-2.768-2.275-6.757-2.275-9.526 0l-4.356 3.581c-6.428-14.146-13.805-27.931-22.013-40.913-24.401-38.594-52.742-65.398-82.455-78.64 32.973-53.736 74.402-84.378 114.566-84.378 33.996 0 69.459 22.266 99.855 62.697 2.49 3.311 7.191 3.978 10.502 1.488 3.311-2.489 3.977-7.191 1.488-10.502-15.705-20.889-32.737-37.387-50.623-49.037-20.013-13.036-40.612-19.646-61.222-19.646-46.158 0-92.899 34.203-128.903 94.075-9.417-2.772-18.927-4.2-28.455-4.2-44.829 0-89.309 31.303-125.247 88.144-31.096 49.182-50.413 109.845-50.413 158.314 0 96.859 78.801 175.661 175.66 175.661 65.744 0 123.157-36.311 153.267-89.925 1.363.032 2.73.051 4.091.051 96.859 0 175.66-78.801 175.66-175.66 0-44.3-16.883-100.95-44.061-147.841zm-288.957 398.375c-88.588 0-160.66-72.072-160.66-160.661 0-45.096 18.877-104.091 48.092-150.298 15.413-24.378 33.264-44.569 51.624-58.392 20.067-15.108 40.571-22.769 60.944-22.769 20.372 0 40.877 7.661 60.944 22.769 18.359 13.823 36.211 34.014 51.623 58.392 29.216 46.207 48.093 105.203 48.093 150.298 0 88.588-72.072 160.661-160.66 160.661zm160.768-89.917c9.567-21.656 14.893-45.588 14.893-70.744 0-31.377-8.104-67.863-22.25-103.038l2.969-2.442 41.432 34.063c2.768 2.275 6.758 2.275 9.525 0l41.432-34.063 41.432 34.063c1.384 1.138 3.073 1.707 4.763 1.707s3.38-.569 4.764-1.707l18.248-15.005c-1.821 85.866-71.337 155.368-157.208 157.166z"/><path d="m177.316 238.96c-53.69 0-97.37 43.68-97.37 97.37 0 16.955 4.42 33.638 12.781 48.246 2.058 3.595 6.641 4.84 10.234 2.784 3.595-2.058 4.841-6.64 2.783-10.235-7.064-12.343-10.799-26.45-10.799-40.794 0-45.419 36.951-82.37 82.37-82.37 45.425 0 82.38 36.951 82.38 82.37 0 45.424-36.955 82.38-82.38 82.38-18.642 0-36.22-6.071-50.837-17.557-3.257-2.559-7.971-1.995-10.531 1.263-2.559 3.257-1.993 7.972 1.264 10.531 17.285 13.583 38.069 20.763 60.104 20.763 53.695 0 97.38-43.685 97.38-97.38.001-53.691-43.684-97.371-97.379-97.371z"/></g></g></svg>