<?xml version="1.0" encoding="UTF-8"?>
<svg id="_5_Line_Color_Expand" data-name="5_Line_Color_Expand" xmlns="http://www.w3.org/2000/svg" viewBox="0 0 300 266.98">
  <defs>
    <style>
      .cls-1 {
        fill: rgba(175, 221, 74, 0);
      }
    </style>
  </defs>
  <path d="M105.93,257.89c-8.43,0-16.8-.93-24.4-2.73-17.82-4.21-34.4-12.87-47.95-25.06-13.86-12.47-23.95-28.13-29.17-45.3-5.28-17.33-5.83-36.22-1.59-54.62,4.23-18.4,12.99-35.15,25.31-48.43,6.51-7.02,13.95-13.12,21.15-19.01,3.89-3.18,7.91-6.48,11.69-9.84,5.2-4.63,10.62-9.68,15.05-15.18,4.57-5.67,7.6-11.22,9.25-16.96.31-1.08.51-2.44.72-3.88.53-3.61,1.13-7.7,3.9-10.75,3.48-3.84,9.46-6.14,16-6.14h0c6.55,0,12.54,2.29,16.02,6.14,2.77,3.05,3.37,7.14,3.9,10.75.21,1.44.41,2.8.72,3.88,1.76,6.11,5.1,12.04,10.21,18.12,4.26,5.08,9.3,9.74,14.1,14.02,3.78,3.37,7.8,6.66,11.69,9.84,4.13,3.38,8.34,6.83,12.42,10.49-3.92,1.61-22.67,8.26-37.91,18.57-17.15,11.61-30.62,27.4-28.37,37.14,1.91,8.3-5.16,33.66,3.72,54.73,10.8,25.62,31.44,54.19,45,60.3,3.67,2.67,4.84-1.4-4.26,3.04-7.26,3.54-14.93,6.29-22.84,8.15-6.58,1.55-13.61,2.45-20.9,2.67-1.15.04-2.3.05-3.46.05h0ZM105.89,7.56c-4.37,0-8.36,1.4-10.4,3.65-1.22,1.35-1.63,4.11-2.02,6.78-.24,1.62-.49,3.3-.94,4.87-1.94,6.72-5.41,13.14-10.63,19.61-4.78,5.93-10.47,11.23-15.91,16.08-3.9,3.47-7.98,6.81-11.92,10.05-7,5.73-14.24,11.66-20.4,18.3-11.43,12.32-19.55,27.87-23.49,44.98-3.94,17.11-3.43,34.65,1.46,50.73,4.83,15.85,14.16,30.33,27,41.88,12.6,11.34,28.04,19.4,44.63,23.32,8.01,1.89,16.96,2.74,25.89,2.48,6.78-.21,13.3-1.04,19.39-2.48,6.2-1.46,12.24-3.51,18.03-6.09,5.83-2.59-28.86-30.93-40.17-68.56l-4.12-19.45,3.94-23.56s8.23-23.04,29.71-35.63c11.42-6.69,17.69-14.76,30.09-19.05-2.75-2.35-5.54-4.63-8.29-6.89-3.95-3.23-8.03-6.58-11.92-10.05-5.02-4.47-10.29-9.35-14.86-14.8-5.8-6.91-9.62-13.74-11.68-20.89-.45-1.57-.7-3.25-.94-4.87-.39-2.67-.8-5.43-2.02-6.78-2.04-2.25-6.03-3.65-10.42-3.65h0Z"/>
  <path d="M46.96,105.04c3.6-10.97,8.15-20.65,13.52-28.78.44-.67.89-1.28,1.33-1.88.34-.46.65-.89.95-1.32,1.18-1.72,3.53-2.16,5.25-.99,1.72,1.18,2.16,3.53.99,5.25-.36.53-.73,1.04-1.09,1.52-.4.55-.78,1.06-1.12,1.58-5,7.57-9.26,16.64-12.65,26.96-3.06,9.33-5.08,19.5-6.17,31.1-1.06,11.3-1.08,22.29-.06,32.68,1.09,10.99,3.34,21.33,6.71,30.73,3.41,9.52,8.02,18.23,13.72,25.87,1.25,1.67.9,4.04-.77,5.29-.68.51-1.47.75-2.26.75-1.15,0-2.29-.53-3.03-1.52-6.14-8.24-11.11-17.61-14.77-27.84-3.57-9.99-5.97-20.93-7.11-32.54-1.07-10.87-1.06-22.35.05-34.13"/>
  <path d="M42.21,223.18c-1.24,0-2.45-.6-3.17-1.72-2.27-3.49-4.69-7.26-7.07-11.63-.47-.34-1.15-.92-1.64-1.91-.02-.05-.04-.09-.07-.14-2.66-5.91-5.62-13.01-7.47-20.93-.28-.43-.67-1.09-.81-1.94-4.14-18.52-4.86-33.7-2.34-49.19.7-4.91,1.4-9.34,2.79-13.86,0-.03.02-.06.03-.08.84-2.51,1.69-4.98,2.51-7.36.82-2.37,1.66-4.81,2.49-7.29.03-.09.06-.17.1-.26,1.74-4.17,3.47-7.95,5.44-11.89.02-.04.04-.08.06-.12,1.13-2.08,2.51-4,3.85-5.86,1.22-1.7,2.37-3.3,3.31-4.97,1.03-1.82,3.33-2.46,5.15-1.43,1.82,1.03,2.46,3.33,1.43,5.15-1.15,2.03-2.47,3.87-3.75,5.66-1.24,1.73-2.42,3.36-3.32,5.01-1.86,3.72-3.49,7.3-5.14,11.23-.83,2.47-1.66,4.89-2.47,7.24-.81,2.35-1.65,4.78-2.47,7.24-1.23,4-1.87,8.12-2.52,12.7,0,.02,0,.05-.01.07-2.36,14.43-1.68,28.66,2.19,46.09.28.43.66,1.08.8,1.92,1.63,7.1,4.3,13.61,6.76,19.11.46.34,1.06.89,1.53,1.78,2.32,4.31,4.63,7.91,6.99,11.53,1.14,1.75.65,4.09-1.1,5.23-.64.41-1.35.61-2.06.61h0ZM31.66,209.26s0,0,0,0c0,0,0,0,0,0ZM22.6,185.6h0s0,0,0,0ZM22.6,185.59h0s0,0,0,0ZM29.5,184.25h0s0,0,0,0ZM29.5,184.24h0s0,0,0,0Z"/>
  <path d="M125.1,245.11c-.75,0-1.51-.22-2.17-.69-1.71-1.2-2.12-3.56-.92-5.27,3.72-5.3,7.05-12.14,9.84-20.12-5.71-5.46-31.58-38.96-30.69-66.37s20.61-50.64,32.7-58.57c-.83-2.96-1.73-5.81-2.7-8.51-2.38-6.67-5.04-12.34-7.85-18.34l-.15-.32c-.89-1.89-.07-4.14,1.82-5.03,1.89-.89,4.14-.07,5.03,1.82l.15.32c2.77,5.9,5.63,12,8.13,19.01.79,2.23,2.21,6.17,2.26,6.94-22.47,10.55-33.25,34.11-34.13,61.17-1.05,32.11,30.63,75.64,30.63,75.64,0,0-5.56,12.03-8.84,16.7-.74,1.05-1.91,1.61-3.1,1.61h0Z"/>
  <path d="M77.82,86.31c-.46,0-.94-.09-1.4-.27-1.94-.77-2.89-2.97-2.12-4.91,2.16-5.44,4.56-11.01,7.31-17.03.87-1.9,3.11-2.73,5.01-1.86,1.9.87,2.73,3.11,1.86,5.01-2.7,5.9-5.04,11.36-7.16,16.68-.59,1.48-2.01,2.38-3.51,2.38Z"/>
  <path d="M83.13,239.38c-1.33,0-2.62-.7-3.31-1.95-4.49-8.12-7.7-16.5-9.81-25.64-8.79-34.2-9.71-69.77-2.74-105.75.4-2.05,2.38-3.39,4.43-2.99,2.05.4,3.39,2.38,2.99,4.43-6.75,34.88-5.86,69.36,2.65,102.48,0,.03.02.06.02.09,1.98,8.57,4.86,16.11,9.07,23.72,1.01,1.83.35,4.13-1.48,5.14-.58.32-1.21.47-1.83.47Z"/>
  <path class="cls-1" d="M122.91,21.81c-1.17-4.07-.84-9.88-3.79-13.14-5.9-6.51-20.49-6.55-26.42,0-2.95,3.26-2.62,9.06-3.79,13.14-1.97,6.83-5.54,12.82-9.94,18.28l3.47,10.5,9.14-7.7,4.98,9.47,8.98-9.86,8.52,9.53,5.71-9.14,9.14,6.98,4.96-8.56c-4.86-5.79-8.83-12.16-10.95-19.5Z"/>
  <path d="M96.54,56.14c-.16,0-.32,0-.48-.03-1.22-.16-2.29-.9-2.87-1.99l-2.79-5.31-5.54,4.67c-.96.81-2.26,1.09-3.47.75-1.21-.34-2.17-1.26-2.56-2.45l-3.47-10.5c-.4-1.22-.16-2.56.65-3.56,4.57-5.67,7.6-11.22,9.25-16.96.31-1.08.51-2.44.72-3.88.53-3.61,1.13-7.7,3.9-10.75C93.38,2.29,99.36,0,105.89,0h0c6.55,0,12.54,2.29,16.02,6.14,2.77,3.05,3.37,7.14,3.9,10.75.21,1.44.41,2.8.72,3.88,1.76,6.11,5.1,12.04,10.21,18.12,1.02,1.22,1.17,2.95.37,4.33l-4.96,8.56c-.54.94-1.47,1.6-2.53,1.81-1.06.21-2.17-.04-3.03-.7l-5.84-4.46-3.51,5.62c-.63,1.01-1.7,1.66-2.88,1.76-1.18.11-2.35-.36-3.14-1.25l-5.73-6.41-6.16,6.76c-.72.79-1.74,1.24-2.79,1.24ZM91.56,39.11c.24,0,.48.02.73.07,1.12.22,2.09.94,2.62,1.95l2.47,4.7,5.35-5.87c.72-.79,1.73-1.24,2.8-1.24h.02c1.07,0,2.09.46,2.8,1.26l5.17,5.78,3.04-4.87c.56-.9,1.48-1.53,2.53-1.72,1.05-.19,2.13.07,2.97.71l5.73,4.37,1.5-2.59c-4.87-6.21-8.15-12.39-10-18.81-.45-1.57-.7-3.25-.94-4.87-.39-2.67-.8-5.43-2.02-6.78-2.04-2.25-6.03-3.65-10.42-3.65h0c-4.37,0-8.36,1.4-10.4,3.65-1.22,1.35-1.63,4.11-2.02,6.78-.24,1.62-.49,3.3-.94,4.87-1.77,6.16-4.84,12.05-9.35,17.98l1.08,3.27,4.86-4.1c.69-.58,1.55-.89,2.44-.89h0Z"/>
  <path d="M210.3,266.98c-26.85,0-52.76-11.65-73.18-33.38-14.64-15.59-25.49-34.79-31.38-55.52-4.01-11.4-5.43-23.58-4.13-35.21,1.36-12.12,5.5-23.32,12.29-33.27,16.03-23.48,46.19-38.74,76.84-38.87,7.93-.04,15.88.87,23.57,1.74,4.16.47,8.47.96,12.69,1.29,5.81.45,12,.82,17.88.44,6.04-.39,11.07-1.52,15.36-3.45.78-.35,1.67-.9,2.61-1.48,2.35-1.45,5.28-3.25,8.8-3.31,4.93-.08,10.63,2.51,14.85,6.74,3.44,3.44,5.29,7.35,5.24,11.01-.03,1.74-.61,3.47-1.78,5.28-2.09,6.54-4.58,19.4.64,35.06h0c5.21,15.62,8.28,30.34,9.14,43.75,1.05,16.37-1.15,31.36-6.53,44.57-10.84,26.61-35.33,46.78-63.89,52.66-6.35,1.31-12.71,1.95-19.02,1.95h0ZM191.2,78.28c-.14,0-.28,0-.42,0-28.23.12-55.95,14.09-70.63,35.58-12.17,17.83-14.81,40.36-7.24,61.82.03.08.05.15.07.23,5.55,19.62,15.81,37.78,29.65,52.52,23.37,24.89,54.41,35.53,85.16,29.2,26.13-5.37,48.51-23.81,58.41-48.11,4.95-12.14,6.96-26.02,5.99-41.23-.82-12.76-3.77-26.84-8.77-41.84-6.04-18.13-2.9-33.04-.49-40.31.11-.35.28-.67.49-.97.65-.93.75-1.38.75-1.57.02-1.53-1.14-3.65-3.03-5.55-2.71-2.71-6.43-4.52-9.29-4.52-.03,0-.07,0-.1,0-1.44.02-3.14,1.07-4.94,2.18-1.11.68-2.25,1.39-3.48,1.94-5.14,2.31-11.02,3.65-17.98,4.1-6.35.41-12.86.02-18.95-.45-4.35-.34-8.73-.84-12.96-1.32-7.66-.87-14.91-1.69-22.26-1.69h0Z"/>
  <path d="M197.6,239.38c-3.2,0-6.41-.15-9.64-.46-16.63-1.59-32.72-7.18-46.55-16.17-5.03-3.27-9.87-7.19-14.39-11.63-5.9-5.8-10.99-12.29-14.72-18.77-2.61-4.53-4.8-9.29-6.52-14.16-4.04-11.44-5.48-23.65-4.17-35.33,1.36-12.12,5.5-23.32,12.29-33.27,16.03-23.48,46.2-38.74,76.84-38.87,7.94-.03,15.88.87,23.57,1.74,4.16.47,8.47.96,12.69,1.29,5.81.45,12,.82,17.88.44,6.04-.39,11.07-1.52,15.36-3.45.78-.35,1.67-.9,2.61-1.48,2.35-1.45,5.28-3.25,8.8-3.31,4.93-.08,10.63,2.51,14.85,6.74,3.44,3.44,5.29,7.35,5.24,11.01-.06,3.51-2.32,6.19-4.14,8.34-.68.8-1.31,1.55-1.7,2.18-2.36,3.84-3.69,8.46-4.06,14.12-.32,4.87.08,10.03.56,14.88.38,3.87.97,7.87,1.54,11.74,1.07,7.34,2.18,14.93,2.14,22.62-.09,15-4.83,29.89-13.7,43.05-8.9,13.2-21.34,23.73-35.97,30.47-11.87,5.46-25.12,8.27-38.8,8.27h0ZM191.2,78.28c-.14,0-.28,0-.42,0-28.23.12-55.95,14.09-70.63,35.58-12.17,17.83-14.81,40.36-7.24,61.82,1.56,4.43,3.56,8.77,5.94,12.89,3.4,5.89,8.06,11.82,13.48,17.15h0c4.16,4.1,8.61,7.69,13.21,10.69,12.81,8.33,27.73,13.51,43.14,14.98,15.72,1.5,31.13-.97,44.56-7.15,13.38-6.15,24.74-15.78,32.86-27.82,8.04-11.93,12.33-25.37,12.41-38.87.04-7.12-1.03-14.42-2.06-21.48-.58-3.96-1.18-8.05-1.58-12.09-.51-5.17-.94-10.7-.58-16.12.46-6.92,2.15-12.67,5.17-17.58.68-1.11,1.54-2.12,2.37-3.1.99-1.17,2.34-2.77,2.35-3.58.02-1.53-1.14-3.66-3.03-5.55-2.71-2.71-6.43-4.52-9.29-4.52-.03,0-.07,0-.1,0-1.44.02-3.14,1.07-4.94,2.18-1.11.68-2.25,1.39-3.48,1.94-5.14,2.31-11.02,3.65-17.98,4.1-6.35.41-12.86.02-18.95-.45-4.35-.34-8.73-.84-12.96-1.32-7.66-.87-14.91-1.69-22.26-1.69Z"/>
  <path d="M194.37,223.8c-7.47,0-14.73-3.35-19.42-9.31l-5.88-7.48c-.47-.6-1.17-1.03-1.96-1.21l-7.79-1.8c-.94-.22-1.93-.07-2.72.42-4.52,2.75-10.37,1.96-13.92-1.88l-11.62-12.58c-1.62-1.76-2.41-4.1-2.16-6.45.25-2.38,1.56-4.56,3.57-5.98.27-.19.42-.46.39-.69l-.45-3.49c-.53-4.12-2.75-7.82-6.24-10.43-3.83-2.86-6.39-6.91-7.21-11.42l-1.9-10.45c-.77-4.2.52-8.47,3.53-11.72l2.59-2.8,1.05-3.12c2.29-6.83,8.05-12.38,15.41-14.83,2.66-.89,4.75-2.78,5.58-5.07,1.49-4.11,5.64-6.76,10.32-6.63.9.03,1.78-.27,2.37-.79l3.4-3.01c4.97-4.42,12.01-6.15,18.82-4.65.89.2,1.83.14,2.67-.16l3.71-1.34c4.23-1.54,8.96-1.24,12.98.8l1.95.99c1.39.71,3.19.68,4.47-.08,2.95-1.73,6.57-2.11,9.93-1.03l5.85,1.87c.94.3,1.97.32,2.89.05l3.32-.98c1.97-.58,4.07-.66,6.11-.23l2.89.09c5.74.17,11.12,2.61,14.78,6.68.33.37.87.63,1.45.71,4.08.57,7.34,3.46,8.12,7.2l1.3,6.28c1,2.19,1.19,4.62.54,6.88l-3.08,10.65c-.15.53-.11,1.11.12,1.67l4.37,10.55c.85,2.06,1.03,4.26.52,6.37l-2.24,9.18c-.3,1.24-.31,2.53-.04,3.82l1.46,6.8c.8,3.73.07,7.51-2.05,10.65l-3.87,5.72c-.22.32-.41.66-.56,1.01l-4.7,10.7c-1.88,4.28-5.89,7.47-10.71,8.53-3.16.69-5.5,3.03-5.97,5.95-1.16,7.3-7.42,12.6-15.21,12.9l-12.9.49c-1.09.04-2.17.22-3.19.53l-3.4,1.04c-2.38.72-4.82,1.07-7.23,1.07h0ZM158.48,196.33c.85,0,1.7.09,2.53.29l7.79,1.8c2.47.57,4.67,1.96,6.2,3.91l5.88,7.48c4.29,5.46,11.73,7.74,18.51,5.68l3.4-1.04c1.65-.5,3.37-.79,5.11-.86l12.9-.49c4.14-.16,7.44-2.84,8.03-6.53.96-6.02,5.6-10.79,11.82-12.15,2.51-.55,4.47-2.07,5.4-4.18l4.7-10.7c.34-.76.75-1.51,1.22-2.2l3.87-5.72c.96-1.42,1.28-3.13.92-4.83l-1.46-6.8c-.52-2.42-.49-4.84.08-7.2l2.24-9.18c.13-.54.08-1.12-.16-1.69l-4.37-10.55c-.9-2.17-1.04-4.47-.4-6.66l3.08-10.65c.17-.58.09-1.2-.23-1.8-.16-.31-.28-.65-.36-.99l-1.39-6.75c-.1-.51-.79-1.11-1.75-1.24-2.36-.33-4.5-1.45-6.03-3.15-2.25-2.5-5.76-4.06-9.39-4.18l-3.25-.1c-.27,0-.53-.04-.79-.11-.86-.21-1.77-.2-2.58.04l-3.32.98c-2.36.7-4.97.66-7.34-.1l-5.85-1.87c-1.3-.42-2.72-.28-3.8.35-3.52,2.07-8.02,2.18-11.72.29l-1.95-.99c-2.12-1.08-4.73-1.24-6.97-.43l-3.71,1.34c-2.19.8-4.57.95-6.87.44-4.39-.97-9.05.15-12.17,2.92l-3.39,3.01c-2.03,1.8-4.81,2.79-7.62,2.69-1.36-.04-2.62.65-2.98,1.65-1.64,4.51-5.39,8.03-10.3,9.67-5.12,1.7-9.09,5.47-10.63,10.06l-1.3,3.89c-.17.51-.45.97-.81,1.36l-3.14,3.39c-1.38,1.49-1.97,3.4-1.64,5.24l1.9,10.45c.48,2.62,2,5,4.29,6.71,5.14,3.84,8.42,9.35,9.22,15.51l.45,3.49c.39,3.03-.96,6.04-3.54,7.85-.24.17-.38.38-.4.6-.02.18.04.35.19.51l11.62,12.58c1.08,1.17,3.03,1.41,4.43.55,1.74-1.06,3.78-1.62,5.82-1.62h0Z"/>
  <path d="M280.13,208.95c-.55,0-1.11-.12-1.63-.37-1.88-.9-2.68-3.16-1.77-5.04.48-.99.93-2.01,1.35-3.02.8-1.93,3.01-2.84,4.94-2.04,1.93.8,2.84,3.01,2.04,4.94-.47,1.14-.98,2.28-1.52,3.39-.65,1.36-2,2.15-3.41,2.15h0Z"/>
  <path d="M207.66,254.02c-6.05,0-12.2-.59-18.33-1.78-2.05-.4-3.39-2.38-2.99-4.43.4-2.05,2.38-3.39,4.43-2.99,12.75,2.48,25.59,2.15,37.13-.93,10.98-2.94,21.29-8.42,29.8-15.85,5.01-4.37,9.6-9.48,13.65-15.18,1.21-1.7,3.57-2.1,5.27-.89,1.7,1.21,2.1,3.57.89,5.27-4.39,6.18-9.39,11.73-14.84,16.49-9.38,8.19-20.72,14.23-32.82,17.46-7.06,1.89-14.54,2.84-22.19,2.84h0Z"/>
  <path d="M178.47,249.38c-.37,0-.75-.05-1.12-.17-.9-.28-1.8-.57-2.7-.87-1.98-.66-3.05-2.8-2.39-4.78s2.8-3.05,4.78-2.39c.84.28,1.7.56,2.54.82,1.99.62,3.11,2.73,2.49,4.73-.5,1.62-2,2.66-3.61,2.66h0Z"/>
  <g>
    <circle cx="145.57" cy="148.8" r="4.25"/>
    <circle cx="163.26" cy="187.42" r="4.25"/>
    <circle cx="239.99" cy="111.33" r="4.25"/>
    <circle cx="213.86" cy="124.06" r="4.25"/>
    <circle cx="166.62" cy="116.86" r="4.25"/>
    <circle cx="217.74" cy="164.12" r="4.25"/>
    <circle cx="214.07" cy="193.36" r="4.25"/>
    <circle cx="182.79" cy="156.26" r="4.25"/>
    <circle cx="141.29" cy="128.73" r="4.25"/>
    <circle cx="195.58" cy="197.12" r="4.25"/>
    <circle cx="158.98" cy="167.35" r="4.25"/>
    <circle cx="242.55" cy="131.48" r="4.25"/>
    <circle cx="223.51" cy="107.65" r="4.25"/>
    <circle cx="213.47" cy="144.05" r="4.25"/>
    <circle cx="238.36" cy="151.16" r="4.25"/>
    <circle cx="243.61" cy="168" r="4.25"/>
    <circle cx="228.31" cy="177.42" r="4.25"/>
    <circle cx="199.48" cy="172.31" r="4.25"/>
    <circle cx="193.21" cy="110.33" r="4.25"/>
    <circle cx="178.52" cy="136.2" r="4.25"/>
  </g>
</svg>