<?xml version="1.0" encoding="UTF-8"?>
<svg id="Gift_Discount" xmlns="http://www.w3.org/2000/svg" version="1.1" xmlns:xlink="http://www.w3.org/1999/xlink" viewBox="0 0 512 512">
  <!-- Generator: Adobe Illustrator 29.3.1, SVG Export Plug-In . SVG Version: 2.1.0 Build 151)  -->
  <defs>
    <style>
      .st0 {
        fill: #efc643;
      }

      .st1 {
        fill: #131319;
      }

      .st2 {
        fill: #1f3573;
      }

      .st3 {
        isolation: isolate;
        opacity: .1;
      }

      .st4 {
        fill: #edc918;
      }

      .st5 {
        fill: #fce160;
      }

      .st6 {
        fill: #d0daf5;
      }
    </style>
  </defs>
  <g>
    <g>
      <path class="st2" d="M233.1,95.6c6.6,14.4,15.6,34.1,48.3,58.2,24,17.8,67.7,28.9,83.1,4.5,9.8-15.6,5.9-43.6-4.8-63.5,10.8-19.9,14.6-48,4.8-63.5-15.4-24.5-59.1-13.3-83.1,4.5-32.6,24.1-41.6,43.8-48.3,58.2.4.3.4,1.4,0,1.7h0Z"/>
      <path class="st1" d="M334.3,180.6c-20.9,0-43.7-9.7-57.8-20.2-34.4-25.4-43.9-46.2-50.9-61.4l-.5-1.1-2.1-1.8.7-1.4-.6-1.4,2.6-2.9c7-15.2,16.5-36,50.9-61.4,16.7-12.4,45.3-23.7,68.7-19.2,11.5,2.2,20.6,8.1,26.2,17,11.4,18.1,7.4,47-2.6,67.9,10,20.9,13.9,49.8,2.6,67.9-5.6,8.9-14.7,14.8-26.2,17-3.5.7-7.2,1-10.9,1ZM241.8,94.7c6.4,13.8,15.4,30.9,44.5,52.4,14.4,10.6,38.2,19.6,55.9,16.3,7.1-1.3,12.1-4.5,15.3-9.6,7.5-11.9,5.2-36.1-5.1-55.2l-2.1-3.9,2.1-3.9c10.3-19.1,12.6-43.3,5.1-55.2-3.2-5.1-8.2-8.2-15.3-9.6-17.7-3.3-41.5,5.7-55.9,16.3-29.1,21.5-38.1,38.6-44.5,52.4h0Z"/>
    </g>
    <g>
      <path class="st2" d="M212.6,95.6c-6.6,14.4-15.6,34.1-48.2,58.2-24,17.8-67.8,29-83,4.4-9.8-15.6-6-43.7,4.7-63.5-5.6-10.3-9.3-22.8-10.3-34.5-.7-11,.9-21.5,5.6-29,10.9-17.5,36.5-16.9,58.8-8.5,9,3.2,17.3,7.8,24.3,12.9,32.6,24.1,41.6,43.8,48.2,58.2-.3.3-.3,1.5,0,1.8h0Z"/>
      <path class="st1" d="M111.4,180.6c-3.7,0-7.4-.3-10.9-1-11.5-2.2-20.6-8.1-26.2-17-11.4-18.1-7.4-47,2.6-67.9-10-20.9-13.9-49.8-2.6-67.9,5.6-8.9,14.7-14.8,26.2-17,23.4-4.4,52.1,6.9,68.8,19.2,34.3,25.4,43.9,46.2,50.8,61.4l.5,1.2,2.1,1.8-.6,1.4.7,1.4-2.6,2.9c-7,15.2-16.5,36-50.8,61.4-14.2,10.5-37,20.2-57.8,20.2h0ZM111.5,25.3c-2.8,0-5.5.2-8,.7-7.1,1.3-12.1,4.5-15.3,9.6-7.5,11.9-5.2,36.1,5.1,55.2l2.1,3.9-2.1,3.9c-10.3,19.1-12.6,43.3-5.1,55.2,3.2,5.1,8.2,8.2,15.3,9.6,17.7,3.4,41.5-5.7,55.9-16.3,29.1-21.5,38.1-38.6,44.5-52.4-6.4-13.9-15.4-30.9-44.5-52.4-12.3-9.1-31.5-17-47.9-17Z"/>
    </g>
    <g>
      <circle class="st0" cx="222.8" cy="94.7" r="49.8" transform="translate(104.4 305.9) rotate(-83.7)"/>
      <path class="st1" d="M222.8,152.8c-32,0-58.1-26-58.1-58.1s26-58.1,58.1-58.1,58.1,26,58.1,58.1-26,58.1-58.1,58.1h0ZM222.8,53.2c-22.9,0-41.5,18.6-41.5,41.5s18.6,41.5,41.5,41.5,41.5-18.6,41.5-41.5-18.6-41.5-41.5-41.5h0Z"/>
    </g>
    <g>
      <path class="st5" d="M370.8,440.8H74.9c-24,0-43.5-19.5-43.5-43.5V117.8h382.8v279.6c0,24-19.5,43.5-43.5,43.5h0Z"/>
      <path class="st4" d="M414.2,117.8v279.5c0,24.2-19.5,43.6-43.4,43.6H74.9c-24,0-43.4-19.4-43.4-43.6v-32.1c93.5,33.6,193.9,19,259.1-38.2,56.1-49,83.5-127.4,78.4-209.2h45.3Z"/>
      <path class="st1" d="M370.7,449.1H74.8c-28.5,0-51.6-23.2-51.6-51.8V109.5h399.3v287.8c0,28.5-23.2,51.8-51.8,51.8h0ZM39.7,126v271.3c0,19.4,15.7,35.2,35.1,35.2h295.9c19.4,0,35.2-15.8,35.2-35.2V126H39.7Z"/>
    </g>
    <g>
      <path class="st5" d="M437.4,120.3v62.2c0,14.2-11.5,25.7-25.5,25.7H33.9c-14.2,0-25.7-11.5-25.7-25.7v-62.2c0-14.2,11.5-25.7,25.7-25.7h377.9c14.1,0,25.5,11.5,25.5,25.7Z"/>
      <path class="st4" d="M437.4,120.3v62.2c0,14.2-11.5,25.7-25.5,25.7h-51.1c9.3-35.8,11.3-74.6,5.7-113.7h45.4c14.1,0,25.5,11.5,25.5,25.7h0Z"/>
      <path class="st1" d="M411.7,216.6H33.8C15.2,216.6,0,201.3,0,182.6v-62.3C0,101.6,15.2,86.4,33.8,86.4h377.9c18.7,0,34,15.2,34,33.8v62.3c0,18.7-15.2,34-34,34ZM33.8,103c-9.5,0-17.3,7.8-17.3,17.3v62.3c0,9.6,7.8,17.5,17.3,17.5h377.9c9.6,0,17.5-7.8,17.5-17.5v-62.3c0-9.5-7.8-17.3-17.5-17.3H33.8Z"/>
    </g>
    <g>
      <path class="st2" d="M177.5,94.7h90.6v346.1h-90.6V94.7Z"/>
      <path class="st3" d="M268.1,344.1v96.7h-90.5v-61.7c32.9-5.5,63.8-17.3,90.5-35Z"/>
      <path class="st1" d="M276.4,449.1h-107.1V86.4h107.1v362.6ZM185.8,432.6h74.1V103h-74.1v329.6Z"/>
    </g>
    <g>
      <path class="st6" d="M410.5,281.2l13.7,10c3.2,2.3,7.1,3.6,11.1,3.6h16.9c8.2,0,15.4,5.3,17.9,13l5.2,16.1c1.2,3.8,3.6,7.1,6.8,9.4l13.7,10c6.6,4.8,9.4,13.3,6.8,21.1l-5.2,16.1c-1.2,3.8-1.2,7.9,0,11.7l5.2,16.1c2.5,7.8-.2,16.3-6.8,21.1l-13.7,10c-3.2,2.3-5.6,5.6-6.8,9.4l-5.2,16.1c-2.5,7.8-9.8,13-17.9,13h-16.9c-4,0-7.9,1.3-11.1,3.6l-13.7,10c-6.6,4.8-15.6,4.8-22.2,0l-13.7-10c-3.2-2.3-7.1-3.6-11.1-3.6h-16.9c-8.2,0-15.4-5.3-17.9-13l-5.2-16.1c-1.2-3.8-3.6-7.1-6.8-9.4l-13.7-10c-6.6-4.8-9.4-13.3-6.8-21.1l5.2-16.1c1.2-3.8,1.2-7.9,0-11.7l-5.2-16.1c-2.5-7.8.2-16.3,6.8-21.1l13.7-10c3.2-2.3,5.6-5.6,6.8-9.4l5.2-16.1c2.5-7.8,9.8-13,17.9-13h16.9c4,0,7.9-1.3,11.1-3.6l13.7-10c6.6-4.8,15.6-4.8,22.2,0h0Z"/>
      <g>
        <path class="st1" d="M371.2,446.3c-1.3,0-2.7-.3-4-1-4-2.2-5.5-7.2-3.3-11.2l56.5-103.6c2.2-4,7.2-5.5,11.2-3.3,4,2.2,5.5,7.2,3.3,11.2l-56.5,103.6c-1.5,2.8-4.3,4.3-7.2,4.3ZM372.1,335.7c-7,0-12.6,5.6-12.6,12.6s5.6,12.6,12.6,12.6,12.6-5.6,12.6-12.6-5.6-12.6-12.6-12.6ZM426.8,411.6c-7,0-12.6,5.6-12.6,12.6s5.6,12.6,12.6,12.6,12.6-5.6,12.6-12.6-5.6-12.6-12.6-12.6Z"/>
        <path class="st1" d="M399.4,503.2c-5.6,0-11.2-1.7-15.9-5.2l-13.7-10c-1.8-1.3-4-2-6.2-2h-16.9c-11.8,0-22.1-7.5-25.8-18.7l-5.2-16.1c-.7-2.1-2-4-3.9-5.3l-13.7-10c-9.5-6.9-13.5-19.1-9.9-30.3l5.2-16.1c.7-2.1.7-4.4,0-6.5l-5.2-16.1c-3.6-11.2.3-23.4,9.9-30.3l13.7-10c1.8-1.3,3.1-3.2,3.9-5.3l5.2-16.1c3.6-11.2,14-18.7,25.8-18.7h16.9c2.3,0,4.4-.7,6.2-2l13.7-9.9c9.5-6.9,22.4-6.9,31.9,0l13.7,10c1.8,1.3,4,2,6.2,2h16.9c11.8,0,22.1,7.5,25.8,18.7l5.2,16.1c.7,2.2,2,4,3.8,5.3l13.7,10c9.5,6.9,13.5,19.1,9.8,30.3l-5.2,16.1c-.7,2.1-.7,4.4,0,6.5l5.2,16.1c3.6,11.2-.3,23.4-9.8,30.3l-13.7,10c-1.8,1.3-3.1,3.1-3.8,5.3l-5.2,16.1c-3.6,11.2-14,18.7-25.8,18.7h-16.9c-2.2,0-4.4.7-6.2,2l-13.7,10c-4.8,3.5-10.4,5.2-15.9,5.2h0ZM346.6,303c-4.6,0-8.7,3-10.1,7.3l-5.2,16.1c-1.8,5.5-5.2,10.2-9.9,13.6l-13.7,9.9c-3.7,2.7-5.3,7.5-3.9,11.9l5.2,16.1c1.8,5.5,1.8,11.3,0,16.7l-5.2,16.1c-1.4,4.4.1,9.1,3.8,11.8l13.7,10c4.6,3.4,8,8,9.9,13.5l5.2,16.1c1.4,4.4,5.5,7.3,10.1,7.3h16.9c5.8,0,11.3,1.8,15.9,5.2l13.7,10c3.7,2.7,8.7,2.7,12.5,0l13.7-10c4.6-3.3,10.2-5.2,15.9-5.2h16.9c4.6,0,8.6-2.9,10.1-7.3l5.2-16.1c1.8-5.5,5.2-10.2,9.8-13.6l13.7-10c3.7-2.7,5.3-7.5,3.8-11.8l-5.2-16.1c-1.8-5.5-1.8-11.3,0-16.8l5.2-16.1c1.4-4.4-.1-9.1-3.9-11.9l-13.7-10c-4.7-3.4-8.1-8.1-9.8-13.6l-5.2-16.1c-1.4-4.4-5.5-7.3-10.1-7.3h-16.9c-5.7,0-11.4-1.8-16-5.2l-13.7-10c-3.7-2.7-8.7-2.7-12.5,0l-13.7,10c-4.7,3.4-10.2,5.2-15.9,5.2h-16.9Z"/>
      </g>
    </g>
  </g>
  <image width="194" height="69" transform="translate(597.7 141.2) scale(.9 .9)" xlink:href="gift-color-1.png"/>
  <image width="187" height="91" transform="translate(597.7 216.4) scale(1 .7)" xlink:href="gift-color-2.png"/>
  <image width="15" height="6" transform="translate(597.7 293.2) scale(12 11.5)" xlink:href="gift-color-3.png"/>
  <image width="71" height="33" transform="translate(597.7 65.6) scale(2.6 2)" xlink:href="gift-color-4.png"/>
  <image width="69" height="43" transform="translate(597.7 373.1) scale(2.6 1.6)" xlink:href="gift-color-5.png"/>
  <image width="44" height="36" transform="translate(597.7 -11.5) scale(4.1 2)" xlink:href="gift-color-6.png"/>
  <image width="17" height="7" transform="translate(597.7 450.8) scale(10.6 8.7)" xlink:href="gift-color-7.png"/>
</svg>